<svg width="605" height="188" viewBox="0 0 605 188" fill="none" xmlns="http://www.w3.org/2000/svg">
<path d="M196.406 76.2709C196.406 76.2709 201.892 80.1026 203.013 73.2381L203.94 73.0606C204.448 72.957 204.732 72.4244 204.523 71.951L203.178 69.0069V66.9357H204.299C204.299 66.9357 205.51 58 198.334 58C191.159 58 186.569 59.9972 186.569 65.5007C186.569 71.0042 191.398 73.6375 191.398 73.6375C191.398 73.6375 180.036 81.8484 180.036 93.8169C180.036 105.785 178.422 122.607 177.465 128.421C176.508 134.235 176.822 149.547 176.822 149.547C176.822 149.547 165.626 161.663 160.229 177.7L157 180.97L163.996 184.639C165.7 185.527 167.599 186 169.527 186C170.08 186 170.364 185.334 169.976 184.95C168.989 183.973 166.911 182.242 162.561 179.313C162.561 179.313 175.447 162.64 183.759 153.083C183.759 153.083 187.631 143.511 188.916 136.173C188.916 136.173 195.449 146.544 199.545 150.686C199.545 150.686 200.756 167.108 211.639 179.786L211.878 184.328C211.878 184.328 217.2 184.802 223 180.334C223 180.334 221.475 177.626 215.182 179.372C215.182 179.372 208.335 161.427 206.646 149.784C206.646 149.784 202.864 133.761 195.21 123.953C195.21 123.953 196.899 118.849 196.989 108.715C196.989 108.715 209.396 119.322 214.957 123.391L218.186 121.556H218.157C217.05 120.639 216.407 119.307 216.407 117.887H212.865L197.96 101.613C197.96 101.613 200.696 91.0948 194.253 81.6708C194.253 81.6708 193.52 78.1646 196.436 76.2413L196.406 76.2709Z" fill="url(#paint0_linear_979_778)"/>
<path d="M38.8086 76.2709C38.8086 76.2709 44.2118 80.1026 45.316 73.2381L46.2288 73.0606C46.7293 72.957 47.0091 72.4244 46.8029 71.951L45.4779 69.0069V66.9357H46.5821C46.5821 66.9357 47.7746 58 40.7078 58C33.641 58 29.1212 59.9972 29.1212 65.5007C29.1212 71.0042 33.8766 73.6375 33.8766 73.6375C33.8766 73.6375 22.6874 81.8484 22.6874 93.8169C22.6874 105.785 21.0974 122.607 20.1552 128.421C19.1982 134.235 19.5221 149.547 19.5221 149.547C19.5221 149.547 8.4949 161.663 3.18007 177.7L0 180.97L6.89015 184.639C8.56852 185.527 10.4383 186 12.3375 186C12.8822 186 13.1619 185.334 12.7792 184.95C11.8075 183.973 9.76105 182.242 5.47679 179.313C5.47679 179.313 18.1676 162.64 26.3533 153.083C26.3533 153.083 30.1665 143.511 31.4326 136.173C31.4326 136.173 37.8664 146.544 41.9003 150.686C41.9003 150.686 43.0929 167.108 53.8109 179.786L54.0464 184.328C54.0464 184.328 59.2877 184.802 65 180.334C65 180.334 63.4983 177.626 57.3001 179.372C57.3001 179.372 50.5572 161.427 48.8936 149.784C48.8936 149.784 45.1687 133.761 37.6308 123.953C37.6308 123.953 39.2945 118.849 39.3828 108.715C39.3828 108.715 51.6025 119.322 57.0793 123.391L60.2594 121.556H60.2299C59.1404 120.639 58.5074 119.307 58.5074 117.887H55.0181L40.3398 101.613C40.3398 101.613 43.034 91.0948 36.6886 81.6708C36.6886 81.6708 35.9672 78.1646 38.8381 76.2413L38.8086 76.2709Z" fill="url(#paint1_linear_979_778)"/>
<path d="M461.809 76.2709C461.809 76.2709 467.212 80.1026 468.316 73.2381L469.229 73.0606C469.729 72.957 470.009 72.4244 469.803 71.951L468.478 69.0069V66.9357H469.582C469.582 66.9357 470.775 58 463.708 58C456.641 58 452.121 59.9972 452.121 65.5007C452.121 71.0042 456.877 73.6375 456.877 73.6375C456.877 73.6375 445.687 81.8484 445.687 93.8169C445.687 105.785 444.097 122.607 443.155 128.421C442.213 134.235 442.522 149.547 442.522 149.547C442.522 149.547 431.495 161.663 426.18 177.7L423 180.97L429.89 184.639C431.569 185.527 433.438 186 435.337 186C435.882 186 436.162 185.334 435.779 184.95C434.807 183.973 432.761 182.242 428.477 179.313C428.477 179.313 441.168 162.64 449.353 153.083C449.353 153.083 453.166 143.511 454.433 136.173C454.433 136.173 460.866 146.544 464.9 150.686C464.9 150.686 466.093 167.108 476.811 179.786L477.046 184.328C477.046 184.328 482.288 184.802 488 180.334C488 180.334 486.498 177.626 480.3 179.372C480.3 179.372 473.557 161.427 471.894 149.784C471.894 149.784 468.169 133.761 460.631 123.953C460.631 123.953 462.294 118.849 462.383 108.715C462.383 108.715 474.603 119.322 480.079 123.391L483.259 121.556H483.23C482.14 120.639 481.507 119.307 481.507 117.887H478.018L463.34 101.613C463.34 101.613 466.034 91.0948 459.689 81.6708C459.689 81.6708 458.967 78.1646 461.838 76.2413L461.809 76.2709Z" fill="url(#paint2_linear_979_778)"/>
<path d="M347.809 76.2709C347.809 76.2709 353.212 80.1026 354.316 73.2381L355.229 73.0606C355.729 72.957 356.009 72.4244 355.803 71.951L354.478 69.0069V66.9357H355.582C355.582 66.9357 356.775 58 349.708 58C342.641 58 338.121 59.9972 338.121 65.5007C338.121 71.0042 342.877 73.6375 342.877 73.6375C342.877 73.6375 331.687 81.8484 331.687 93.8169C331.687 105.785 330.097 122.607 329.155 128.421C328.198 134.235 328.522 149.547 328.522 149.547C328.522 149.547 317.495 161.663 312.18 177.7L309 180.97L315.89 184.639C317.569 185.527 319.438 186 321.337 186C321.882 186 322.162 185.334 321.779 184.95C320.807 183.973 318.761 182.242 314.477 179.313C314.477 179.313 327.168 162.64 335.353 153.083C335.353 153.083 339.166 143.511 340.433 136.173C340.433 136.173 346.866 146.544 350.9 150.686C350.9 150.686 352.093 167.108 362.811 179.786L363.046 184.328C363.046 184.328 368.288 184.802 374 180.334C374 180.334 372.498 177.626 366.3 179.372C366.3 179.372 359.557 161.427 357.894 149.784C357.894 149.784 354.169 133.761 346.631 123.953C346.631 123.953 348.294 118.849 348.383 108.715C348.383 108.715 360.603 119.322 366.079 123.391L369.259 121.556H369.23C368.14 120.639 367.507 119.307 367.507 117.887H364.018L349.34 101.613C349.34 101.613 352.034 91.0948 345.689 81.6708C345.689 81.6708 344.967 78.1646 347.838 76.2413L347.809 76.2709Z" fill="url(#paint3_linear_979_778)"/>
<path d="M559.468 81.7056L560.437 87.4947C560.437 87.4947 558.082 97.581 551.97 101.326C545.858 105.086 533.112 110.234 533.112 110.234C533.112 110.234 528.938 108.309 527 111.308C527.432 112.024 528.401 112.233 529.072 111.741C529.713 111.263 530.548 110.935 531.368 111.487C531.368 111.487 528.834 112.606 528.834 115.187H535.184V113.098C535.184 113.098 546.484 110.562 557.679 106.28L557.351 127.303H559.125C559.125 127.303 557.351 158.994 564.268 174.586V182.3C564.268 182.3 555.905 181.494 555.905 186H570.529C570.529 186 570.663 184.627 569.977 183.568C568.353 181.061 567.324 178.211 567.324 175.227C567.324 175.227 571.021 168.468 567.965 151.578C567.965 151.578 572.78 139.672 572.78 126.169H576C576 126.169 571.334 105.101 571.826 92.7169H575.195C575.195 92.7169 571.021 84.3614 571.021 74.8571C571.021 55.5499 551.895 59.4143 551.895 68.4263C551.895 71.3209 553.177 73.738 551.627 75.2898C550.076 76.8415 552.909 77.0056 552.909 77.0056C552.909 77.0056 552.372 82.0488 554.086 82.0488C555.801 82.0488 559.438 81.7205 559.438 81.7205L559.468 81.7056Z" fill="url(#paint4_linear_979_778)"/>
<path d="M502.717 112H532.298C536.005 112 539 115.038 539 118.764V187H496V118.764C496 115.023 499.01 112 502.702 112H502.717Z" stroke="black" stroke-width="2"/>
<path d="M231.697 102H283.318C287.014 102 290 105.026 290 108.738V187H225V108.738C225 105.011 228.001 102 231.682 102H231.697Z" stroke="black" stroke-width="2"/>
<path d="M122.8 126H175.215C178.968 126 182 129.004 182 132.689V187H116V132.689C116 128.989 119.047 126 122.785 126H122.8Z" stroke="black" stroke-width="2"/>
<path d="M361 115.812V136.188C361 139.956 364.001 143 367.683 143H412.317C416.014 143 419 139.941 419 136.188V115.812C419 112.044 415.999 109 412.317 109H367.683C363.986 109 361 112.059 361 115.812Z" stroke="black" stroke-width="2"/>
<path d="M72 24.8966V13.4775C72 6.59029 77.5628 1 84.4163 1H591.584C598.437 1 604 6.59029 604 13.4775V173C604 180.732 597.732 187 590 187H72" stroke="black" stroke-width="2" stroke-miterlimit="10"/>
<defs>
<linearGradient id="paint0_linear_979_778" x1="575.83" y1="120.571" x2="12.0053" y2="122.306" gradientUnits="userSpaceOnUse">
<stop stop-color="#53CCC4"/>
<stop offset="1" stop-color="#448D9C"/>
</linearGradient>
<linearGradient id="paint1_linear_979_778" x1="575.83" y1="120.571" x2="12.0053" y2="122.306" gradientUnits="userSpaceOnUse">
<stop stop-color="#53CCC4"/>
<stop offset="1" stop-color="#448D9C"/>
</linearGradient>
<linearGradient id="paint2_linear_979_778" x1="575.83" y1="120.571" x2="12.0053" y2="122.306" gradientUnits="userSpaceOnUse">
<stop stop-color="#53CCC4"/>
<stop offset="1" stop-color="#448D9C"/>
</linearGradient>
<linearGradient id="paint3_linear_979_778" x1="575.83" y1="120.571" x2="12.0053" y2="122.306" gradientUnits="userSpaceOnUse">
<stop stop-color="#53CCC4"/>
<stop offset="1" stop-color="#448D9C"/>
</linearGradient>
<linearGradient id="paint4_linear_979_778" x1="575.83" y1="120.571" x2="12.0053" y2="122.306" gradientUnits="userSpaceOnUse">
<stop stop-color="#53CCC4"/>
<stop offset="1" stop-color="#448D9C"/>
</linearGradient>
</defs>
</svg>
