<svg width="81" height="34" viewBox="0 0 81 34" fill="none" xmlns="http://www.w3.org/2000/svg">
<g id="Group 3615">
<path id="Vector" fill-rule="evenodd" clip-rule="evenodd" d="M64.286 33.262C55.1025 33.262 47.6621 25.8075 47.6621 16.6381C47.6621 7.46873 55.1025 0 64.286 0C73.4696 0 80.91 7.44038 80.91 16.6381C80.91 25.8358 73.4696 33.262 64.286 33.262Z" fill="white"/>
<path id="Vector_2" fill-rule="evenodd" clip-rule="evenodd" d="M71.4832 2.23911C70.6895 1.84229 69.8676 1.51633 69.0031 1.26123C46.4977 4.49248 48.2408 18.8772 51.7697 26.6152C54.5191 30.0732 58.6432 32.3691 63.3342 32.6667C56.0355 25.8074 44.386 9.02757 71.4832 2.22494V2.23911Z" fill="#A8BF17"/>
<path id="Vector_3" fill-rule="evenodd" clip-rule="evenodd" d="M68.9902 1.24716C67.5163 0.807821 65.9715 0.566895 64.3559 0.566895C55.4841 0.566895 48.2988 7.76635 48.2988 16.6381C48.2988 20.4079 49.6027 23.8659 51.771 26.6153C48.2421 18.8631 46.499 4.47841 69.0043 1.26133L68.9902 1.24716Z" fill="#006E98"/>
<path id="Vector_4" fill-rule="evenodd" clip-rule="evenodd" d="M74.6446 4.29388C73.8935 3.67031 73.0857 3.10342 72.2212 2.63574C44.3871 9.6793 59.4804 26.8843 66.3681 32.5815C69.4576 32.1989 72.2921 30.9234 74.5738 29.0243C64.6107 20.8895 54.3643 9.43838 74.6446 4.29388Z" fill="#087DBE"/>
<path id="Vector_5" fill-rule="evenodd" clip-rule="evenodd" d="M80.4263 16.6379C80.4263 11.6776 78.173 7.25593 74.6441 4.29395C54.3779 9.43844 64.6102 20.9037 74.5732 29.0244C78.1446 26.0765 80.4122 21.6265 80.4122 16.6379H80.4263Z" fill="#D7D1D5"/>
<path id="Vector_6" fill-rule="evenodd" clip-rule="evenodd" d="M40.5607 18.8634C40.5607 19.2886 40.2206 19.6287 39.7954 19.6287C39.3703 19.6287 39.0301 19.2886 39.0301 18.8634C39.0301 18.4383 39.3703 18.0981 39.7954 18.0981C40.2206 18.0981 40.5607 18.4383 40.5607 18.8634ZM41.8787 18.1832H43.3243V26.233H41.8787V18.1832ZM39.0726 20.1956H40.5324V26.2471H39.0726V20.1956ZM33.1062 23.2143C33.1062 22.1797 33.8998 21.3294 34.8635 21.3294C35.8272 21.3294 36.635 22.2081 36.635 23.2426C36.635 24.2772 35.8556 25.1134 34.8777 25.1134C33.8998 25.1134 33.1062 24.2914 33.1062 23.2143ZM31.6606 23.2143C31.6606 25 33.1062 26.4314 34.8777 26.4314C36.6492 26.4314 38.0948 25 38.0948 23.2143C38.0948 21.4286 36.6775 19.9972 34.8918 19.9972C33.1062 19.9972 31.6606 21.4428 31.6606 23.2143ZM25.3682 20.1956H26.7145V20.7058C27.2247 20.224 27.7207 19.9972 28.3585 19.9972C29.223 19.9972 30.0591 20.4932 30.4276 21.216C30.6685 21.6979 30.7394 22.1089 30.7394 22.9734V26.233H29.2797V23.2568C29.2797 21.953 28.8829 21.3152 28.0609 21.3152C27.5932 21.3152 27.1113 21.627 26.9554 22.0522C26.8279 22.364 26.7995 22.6332 26.7995 23.356V26.2188H25.354V20.1673L25.3682 20.1956ZM22.5337 23.2001C22.5337 24.3197 21.7826 25.1134 20.7622 25.1134C19.7418 25.1134 18.9765 24.2914 18.9765 23.2426C18.9765 22.1939 19.756 21.3294 20.7622 21.3294C21.7684 21.3294 22.5337 22.1089 22.5337 23.2001ZM23.9084 20.1956H22.5762V20.9751C22.1227 20.394 21.3008 20.0114 20.5496 20.0114C18.8348 20.0114 17.531 21.3861 17.531 23.2001C17.531 25.0142 18.7781 26.4314 20.4646 26.4314C21.2157 26.4314 22.1227 26.0346 22.5762 25.496V26.233H23.9084V20.1815V20.1956ZM7.44038 20.1956H8.77256V20.7058C9.14104 20.2381 9.65124 20.0114 10.374 20.0114C11.0968 20.0114 11.7062 20.3373 12.1172 20.9467C12.5707 20.309 13.2084 20.0114 14.0588 20.0114C15.6177 20.0114 16.5106 20.9893 16.5106 22.7324V26.2613H15.065V22.9167C15.065 21.8821 14.6824 21.3577 13.9171 21.3577C13.0667 21.3577 12.6983 21.9388 12.6983 23.2568V26.2755H11.2385V22.9308C11.2385 21.9246 10.8134 21.3719 10.0197 21.3719C9.22607 21.3719 8.87177 21.9246 8.87177 23.271V26.2896H7.42621V20.2381L7.44038 20.1956ZM1.45973 23.2143C1.45973 22.1797 2.25337 21.3294 3.23125 21.3294C4.20913 21.3294 4.9886 22.2081 4.9886 23.2426C4.9886 24.2772 4.20913 25.1134 3.23125 25.1134C2.25337 25.1134 1.45973 24.2914 1.45973 23.2143ZM0 23.2143C0 25 1.45973 26.4314 3.21708 26.4314C4.97443 26.4314 6.43416 25 6.43416 23.2143C6.43416 21.4286 5.00277 19.9972 3.23125 19.9972C1.45973 19.9972 0 21.4428 0 23.2143Z" fill="#13110C"/>
<path id="Vector_7" fill-rule="evenodd" clip-rule="evenodd" d="M5.62534 10.0055L4.60495 10.9692C4.84588 11.3235 5.00177 11.7345 5.00177 12.1738C5.00177 13.2226 4.2223 14.0446 3.24442 14.0446C2.26654 14.0446 1.4729 13.2226 1.4729 12.1455C1.4729 11.7062 1.61462 11.3093 1.85555 10.9834L0.849329 10.0197C0.339131 10.5866 0.0273438 11.3235 0.0273438 12.1455C0.0273438 13.9312 1.48708 15.3626 3.24442 15.3626C5.00177 15.3626 6.4615 13.9454 6.4615 12.1455C6.4615 11.3093 6.14971 10.5724 5.63952 10.0055H5.62534ZM13.746 14.0446C12.7398 14.0446 11.9745 13.2226 11.9745 12.1455C11.9745 11.0684 12.7681 10.2606 13.7318 10.2606C14.6955 10.2606 15.5033 11.1251 15.5033 12.1738C15.5033 13.2226 14.7239 14.0446 13.746 14.0446ZM21.3423 13.8745C20.2935 13.8745 19.5424 13.0667 19.5424 12.0321C19.5424 10.9975 20.2794 10.2323 21.2997 10.2323C21.8241 10.2323 22.1926 10.4023 22.476 10.8133L23.5106 9.82126C22.9437 9.22603 22.1359 8.90007 21.2856 8.90007C19.5282 8.90007 18.0827 10.3315 18.0827 12.103C18.0827 12.7549 18.2811 13.3785 18.6354 13.8887C18.6354 13.8887 18.5645 13.8603 18.4086 13.8603H17.3457C17.0481 13.8603 16.793 13.7753 16.6088 13.5911C16.8355 13.1517 16.9489 12.6557 16.9489 12.1313C16.9489 10.3456 15.5317 8.91424 13.746 8.91424C11.9603 8.91424 10.5147 10.3598 10.5147 12.1313C10.5147 12.6557 10.6423 13.1517 10.869 13.5769C10.6848 13.7611 10.4297 13.8603 10.1179 13.8603H8.98415V7.10021H7.53859V15.15H10.4155C10.9257 15.15 11.4218 14.9941 11.7761 14.6681C12.3004 15.0933 13.009 15.3484 13.7318 15.3342C14.4829 15.3342 15.1915 15.0791 15.7017 14.6681C16.0419 14.9658 16.5096 15.1358 17.0481 15.1358H23.7799V13.8462H21.3281L21.3423 13.8745ZM3.99555 9.69371C3.99555 9.26855 3.65542 8.94259 3.23025 8.94259C2.80509 8.94259 2.46495 9.28272 2.46495 9.69371C2.46495 10.1047 2.80509 10.459 3.23025 10.459C3.65542 10.459 3.99555 10.1189 3.99555 9.69371ZM38.1079 7.73795C38.1079 7.31279 37.7678 6.97266 37.3426 6.97266C36.9175 6.97266 36.5773 7.31279 36.5773 7.73795C36.5773 8.16312 36.9175 8.50325 37.3426 8.50325C37.7678 8.50325 38.1079 8.16312 38.1079 7.73795ZM43.38 7.73795C43.38 7.31279 43.0398 6.97266 42.6147 6.97266C42.1895 6.97266 41.8494 7.31279 41.8494 7.73795C41.8494 8.16312 42.1895 8.50325 42.6147 8.50325C43.0398 8.50325 43.38 8.16312 43.38 7.73795ZM41.8919 9.12682V11.9046C41.8919 13.2226 41.4951 13.8745 40.6731 13.8745H40.2337C40.092 13.8745 40.0212 13.9028 40.0212 13.9028C40.3471 13.421 40.5455 12.7832 40.5455 12.1455C40.5455 10.3598 39.1141 8.92841 37.3426 8.92841C35.5711 8.92841 34.1114 10.374 34.1114 12.1455C34.1114 12.7832 34.324 13.4493 34.6499 13.9028C34.6499 13.9028 34.5932 13.8745 34.4373 13.8745H33.2894V13.5344C33.2894 12.599 33.2185 12.0038 32.9918 11.366C32.4816 9.90629 31.1777 8.92841 29.3495 8.92841C28.315 8.92841 27.2946 9.31106 26.8127 9.93464V7.10021H25.4664V13.8603H24.7719V15.15H40.9424C41.821 15.15 42.643 14.654 43.0115 13.9312C43.2524 13.4493 43.3233 13.0383 43.3233 12.1738V9.09848H41.8777L41.8919 9.12682ZM26.9261 12.273C26.9544 10.9975 28.1591 10.3315 29.3637 10.3315C30.455 10.3315 31.0644 10.785 31.5037 11.5361C31.8013 12.0321 31.9005 12.5565 31.9005 13.4918V13.8887H26.9119V12.273H26.9261ZM37.3426 14.0587C36.3364 14.0587 35.5569 13.2367 35.5569 12.1597C35.5569 11.0826 36.3506 10.2748 37.3285 10.2748C38.3063 10.2748 39.0858 11.1393 39.0858 12.188C39.0858 13.2367 38.3063 14.0587 37.3285 14.0587H37.3426Z" fill="#13110C"/>
</g>
</svg>
