<svg width="79" height="20" viewBox="0 0 79 20" fill="none" xmlns="http://www.w3.org/2000/svg">
<g id="Page-1">
<g id="Group">
<path id="Fill-1" fill-rule="evenodd" clip-rule="evenodd" d="M45.5755 14.8238C45.9994 13.0726 45.4751 11.4441 44.1478 9.42519C42.8762 7.50669 42.3297 6.51398 42.3855 4.99702C42.4635 2.97814 43.7686 1.3608 45.7317 0.145003C44.8059 0.145003 39.5189 0.145003 39.5189 0.145003C37.2434 1.81811 36.3846 4.19393 36.4069 5.84473C36.4292 7.35053 36.9088 8.46594 37.9127 9.90481C38.7381 11.0871 39.5523 12.1133 39.5858 13.5076C39.6193 15.2699 38.3031 16.7534 36.5853 17.8911L41.8501 19.33C43.4563 18.3596 45.1517 16.5861 45.5978 14.8014L45.5755 14.8238ZM49.1448 4.60663H52.4687V16.3296H57.3208V4.60663H60.6558V0.379238H49.1337V4.59548L49.1448 4.60663ZM14.333 14.3218L10.9979 10.9868C10.3175 11.656 9.41403 12.0575 8.38786 12.0575C6.35782 12.0575 4.70702 10.4179 4.70702 8.37671C4.70702 6.33551 6.35782 4.69586 8.38786 4.69586C9.41403 4.69586 10.351 5.11972 11.0314 5.80012L14.3664 2.4762C12.8383 0.936942 10.7302 0 8.39901 0C3.75892 0 0 3.74777 0 8.38786C0 13.028 3.75892 16.7869 8.39901 16.7869C10.7191 16.7869 12.816 15.8499 14.3441 14.333L14.333 14.3218ZM69.1218 9.92712L70.3264 4.91894H70.3822L71.5645 9.92712H69.1329H69.1218ZM73.3268 0.379238H67.471L62.4182 16.3296H67.6048L68.2741 13.7307H72.4791L73.1372 16.3296H78.4912L73.3268 0.379238ZM24.6059 12.0687C22.5758 12.0687 20.925 10.4179 20.925 8.38786C20.925 6.35782 22.5758 4.70702 24.6059 4.70702C26.6359 4.70702 28.2867 6.35782 28.2867 8.38786C28.2867 10.4179 26.6359 12.0687 24.6059 12.0687ZM24.6059 0C19.9658 0 16.2069 3.74777 16.2069 8.38786C16.2069 13.028 19.9658 16.7869 24.6059 16.7869C29.246 16.7869 33.0049 13.028 33.0049 8.38786C33.0049 3.74777 29.246 0 24.6059 0Z" fill="black"/>
</g>
</g>
</svg>
