<svg width="87" height="17" viewBox="0 0 87 17" fill="none" xmlns="http://www.w3.org/2000/svg">
<g id="Group 3609">
<path id="Vector" d="M46.3965 13.5993V2.73389H53.1487V5.25409H49.2139V13.5993H46.4084H46.3965Z" fill="#E20E18"/>
<path id="Vector_2" d="M61.6501 13.5993V9.34347H57.4657V13.5993H54.6602V2.73389H57.4657V6.78761H61.6501V2.73389H64.4556V13.5993H61.6501Z" fill="#E20E18"/>
<path id="Vector_3" d="M80.8007 13.5993V5.25409H77.5078V2.73389H86.911V5.25409H83.6062V13.5993H80.8007Z" fill="#E20E18"/>
<path id="Vector_4" d="M73.3726 13.5993V7.41765L68.879 13.5993H66.5371V2.73389H69.3426V8.85607L73.7411 2.73389H76.1781V13.5993H73.3726Z" fill="#E20E18"/>
<path id="Vector_5" d="M30.2407 13.5993V7.14424L27.4352 10.5679L24.6297 7.16801V13.6112H21.8242V2.73389H24.6059L27.459 6.46664L30.3121 2.73389H33.0938V13.5993H30.2526H30.2407Z" fill="#E20E18"/>
<path id="Vector_6" d="M38.3854 9.77143H41.0126L39.7049 6.37153L38.3854 9.77143ZM42.4748 13.5993L41.8804 12.0776H37.5057L36.9113 13.5993H34.082L38.4092 2.73389H41.0126L45.3397 13.5993H42.4629H42.4748Z" fill="#E20E18"/>
<path id="Vector_7" d="M0.0118877 4.93341C0.0118877 3.62576 0.534948 2.37755 1.4503 1.4503C2.36566 0.523061 3.5901 0 4.89775 0H16.1554V2.5202H4.89775C4.25581 2.5202 3.64954 2.78173 3.1978 3.23346C2.74607 3.6852 2.50831 4.30336 2.48454 4.95719V9.18922C2.41321 9.72417 2.19923 10.2353 1.83071 10.6395C1.47408 11.0318 0.974794 11.2934 0.451734 11.3885L0 11.4598V4.9453L0.0118877 4.93341Z" fill="#E20E18"/>
<path id="Vector_8" d="M0.0117188 16.334V13.8138H11.2456C11.8876 13.8138 12.4938 13.5522 12.9456 13.1005C13.3973 12.6488 13.6351 12.0306 13.6588 11.3768V7.3706C13.6588 6.7881 13.8609 6.22938 14.2413 5.78953C14.6217 5.34968 15.121 5.05249 15.6916 4.96928L16.1434 4.89795V11.3887C16.1434 12.7082 15.6203 13.9564 14.705 14.8836C13.7896 15.8109 12.5652 16.334 11.2575 16.334H0.0117188Z" fill="#E20E18"/>
<path id="Vector_9" d="M9.54585 11.4361V8.17889L8.08366 9.96205L6.60958 8.17889V11.4361H4.67188V5.04053H6.51447L8.08366 7.09711L9.66472 5.04053H11.5073V11.4361H9.56962H9.54585Z" fill="#E20E18"/>
</g>
</svg>
