<svg width="52" height="48" viewBox="0 0 52 48" fill="none" xmlns="http://www.w3.org/2000/svg">
<g id="Group 3614">
<path id="Vector" d="M23.0636 45.773H10.377L9.19814 36.4202L1.50833 30.8559C1.17305 29.2199 1 27.5517 1 25.8835C1.01082 12.1394 12.2048 1 26.0054 1C39.806 1 51 12.1394 51 25.8727C51 27.5409 50.827 29.2092 50.4917 30.8451L42.8019 36.4095L41.623 45.7623H28.9364L28.201 46.2897C27.5628 46.7525 26.7841 47 25.9946 47C25.2051 47 24.4263 46.7525 23.7882 46.2897L23.0528 45.7623L23.0636 45.773Z" stroke="white" stroke-width="1.5" stroke-miterlimit="40"/>
<path id="Vector_2" d="M23.0636 45.773H10.377L9.19814 36.4202L1.50833 30.8559C1.17305 29.2199 1 27.5517 1 25.8835C1.01082 12.1394 12.2048 1 26.0054 1C39.806 1 51 12.1394 51 25.8727C51 27.5409 50.827 29.2092 50.4917 30.8451L42.8019 36.4095L41.623 45.7623H28.9364L28.201 46.2897C27.5628 46.7525 26.7841 47 25.9946 47C25.2051 47 24.4263 46.7525 23.7882 46.2897L23.0528 45.7623L23.0636 45.773Z" fill="#FFD405"/>
<path id="Vector_3" fill-rule="evenodd" clip-rule="evenodd" d="M23.0636 45.7623H10.377L9.19814 36.4095L1.50833 30.8451C1.17305 29.2092 1 27.5409 1 25.8727C1.01082 12.1394 12.2048 1 26.0054 1C39.806 1 51 12.1394 51 25.8727C51 27.5409 50.827 29.2092 50.4917 30.8451L42.8019 36.4095L41.623 45.7623H28.9364L28.201 46.2897C27.5628 46.7525 26.7841 47 25.9946 47C25.2051 47 24.4263 46.7525 23.7882 46.2897L23.0528 45.7623H23.0636ZM23.4638 41.4141H14.249L13.3188 33.9986L5.72637 28.4988C5.49924 27.6378 5.39109 26.7553 5.39109 25.862C5.39109 24.3767 5.70474 22.913 6.3104 21.5569L19.7541 35.0856L6.68895 19.0276C7.20809 16.9504 8.34372 15.0669 9.95522 13.6462L21.6684 33.7726L11.2855 11.7412C12.6266 9.96537 14.4977 8.65232 16.6392 7.99579L23.799 32.9761L18.5644 6.97333C20.1542 6.08002 21.9496 5.60646 23.7774 5.60646C24.1668 5.60646 24.5453 5.62798 24.9347 5.67103L26.0054 32.7178L27.0761 5.67103C27.4547 5.62798 27.844 5.60646 28.2334 5.60646C30.0612 5.60646 31.8566 6.08002 33.4465 6.97333L28.2118 32.9761L35.3716 7.99579C37.5023 8.65232 39.3842 9.96537 40.7253 11.7412L30.3424 33.7726L42.0556 13.6462C43.6671 15.0669 44.8027 16.9504 45.3219 19.0276L32.2568 35.0856L45.7004 21.5569C46.3061 22.913 46.6197 24.3767 46.6197 25.862C46.6197 26.7553 46.5116 27.6378 46.2844 28.4988L38.692 33.9986L37.7618 41.4141H28.547L27.1843 42.4043C26.8382 42.6518 26.4272 42.781 26.0054 42.781C25.5836 42.781 25.1726 42.6518 24.8265 42.4043L23.4638 41.4141Z" fill="#E20E18"/>
</g>
</svg>
