<svg width="89" height="25" viewBox="0 0 89 25" fill="none" xmlns="http://www.w3.org/2000/svg">
<g id="Group 3597">
<path id="Vector" d="M70.5625 7.25054L73.8562 4.82178H62.8379V19.4062H73.8562V16.9774H65.9775V13.2454H72.6951V10.8167H65.9775V7.25054H70.5625Z" fill="#219F38"/>
<path id="Vector_2" d="M54.5094 10.5086H50.6826V7.25054H56.796L60.0896 4.82178H47.543V19.4062H54.1065C57.7912 19.4062 59.9 17.7357 59.9 14.8212C59.9 11.9067 57.9807 10.5086 54.5094 10.5086ZM53.9644 16.9774H50.6826V12.9374H53.9644C55.9666 12.9374 56.8907 13.6127 56.8907 14.9633C56.8907 16.3377 55.9074 16.9893 53.9644 16.9893" fill="#219F38"/>
<path id="Vector_3" d="M82.7919 4.82178H76.7852V19.4062H79.9366V15.2714H82.7919C86.6187 15.2714 89.0001 13.2573 89.0001 10.0347C89.0001 6.81218 86.6187 4.82178 82.7919 4.82178ZM82.7208 12.8426H79.9366V7.25054H82.7208C84.7349 7.25054 85.8486 8.24574 85.8486 10.0466C85.8486 11.8474 84.7349 12.8426 82.7208 12.8426Z" fill="#219F38"/>
<path id="Vector_4" d="M42.141 16.2429C41.3354 16.6931 40.3994 16.9182 39.4279 16.9182C36.5963 16.9182 34.5348 14.8922 34.5348 12.108C34.5348 9.32385 36.5963 7.29791 39.4279 7.29791C40.506 7.29791 41.4657 7.5941 42.295 8.19833L44.5461 6.53966L44.392 6.40934C43.077 5.24827 41.3117 4.64404 39.2976 4.64404C37.1176 4.64404 35.139 5.3786 33.7173 6.71738C32.2956 8.06801 31.5137 9.95178 31.5137 12.0488C31.5137 14.1458 32.2956 16.0652 33.7173 17.4513C35.139 18.8375 37.1176 19.6076 39.2857 19.6076C41.4538 19.6076 43.539 18.8138 44.8778 17.3802C43.847 16.622 42.84 15.8756 42.84 15.8756L42.141 16.2547V16.2429Z" fill="#219F38"/>
<path id="Vector_5" d="M21.7052 4.70361C22.2739 5.43817 22.7715 6.25565 23.1624 7.10868L12.1204 15.248L7.51172 12.3572V8.87398L12.1204 11.7648L21.7052 4.70361Z" fill="#219F38"/>
<path id="Vector_6" d="M0 12.1083C0 18.8022 5.42621 24.2165 12.1083 24.2165C18.7903 24.2165 24.2165 18.7903 24.2165 12.1083C24.2165 11.3619 24.1455 10.6392 24.027 9.94016L21.4205 11.8595C21.4205 11.9424 21.4205 12.0253 21.4205 12.1083C21.4205 17.2501 17.2383 21.4205 12.1083 21.4205C6.97825 21.4205 2.79604 17.2383 2.79604 12.1083C2.79604 6.97825 6.97825 2.79604 12.1083 2.79604C14.0513 2.79604 15.864 3.40027 17.3568 4.41916L19.7144 2.67756C17.6411 1.00705 14.9991 0 12.1083 0C5.42621 0 0 5.42621 0 12.1083Z" fill="#219F38"/>
</g>
</svg>
