<svg width="83" height="16" viewBox="0 0 83 16" fill="none" xmlns="http://www.w3.org/2000/svg">
<g id="Group 3607">
<path id="Vector" d="M0 2.64159H3.38932V4.97905C4.17237 3.30776 5.48135 2.46628 7.33964 2.45459V5.61017C6.03066 5.59848 5.04892 5.83223 4.38275 6.31141C3.71657 6.79059 3.38932 7.6087 3.38932 8.74237V14.8665H0V2.64159Z" fill="#010101"/>
<path id="Vector_2" d="M20.1721 8.5785C20.1721 6.50984 19.5761 4.92036 18.3723 3.83344C17.2971 2.85171 15.9063 2.36084 14.2116 2.36084C12.4234 2.36084 10.9275 2.93352 9.74705 4.09056C8.53157 5.27098 7.92383 6.81371 7.92383 8.71874V8.90574C7.92383 10.8225 8.53157 12.3418 9.74705 13.4638C10.8807 14.5741 12.4001 15.1234 14.3051 15.1234C15.9881 15.1234 17.3321 14.7728 18.3372 14.0599C19.3423 13.3469 19.9501 12.3301 20.1488 11.0095H16.9464C16.7127 12.1431 15.8595 12.7158 14.3986 12.7158C13.4636 12.7158 12.739 12.4353 12.2131 11.886C11.6871 11.3367 11.4067 10.542 11.3599 9.51348H20.1721V8.5785ZM11.4067 7.43314C11.5352 6.55659 11.8391 5.89041 12.3299 5.41123C12.8208 4.93205 13.4519 4.6983 14.2116 4.6983C15.8829 4.6983 16.7711 5.60992 16.8763 7.43314H11.4067Z" fill="#010101"/>
<path id="Vector_3" d="M26.763 15.1234C25.1151 15.1234 23.8295 14.7728 22.9062 14.0715C21.9829 13.3703 21.492 12.3535 21.4336 11.0328H24.5892C24.6827 11.6289 24.8814 12.0613 25.1969 12.3418C25.5125 12.6223 26.0267 12.7626 26.7396 12.7626C28.0136 12.7626 28.6564 12.3184 28.6564 11.4302C28.6564 11.0095 28.4694 10.6939 28.0954 10.4835C27.7214 10.2732 27.0786 10.1095 26.1786 9.98097C24.5307 9.71217 23.3737 9.3148 22.7192 8.78887C22.018 8.23956 21.6673 7.3747 21.6673 6.17091C21.6673 4.96711 22.1699 4.00875 23.1633 3.29583C24.0165 2.6764 25.1385 2.36084 26.5059 2.36084C27.8733 2.36084 29.0654 2.64134 29.942 3.20233C30.8653 3.82176 31.4029 4.80349 31.5548 6.14753H28.446C28.3525 5.63329 28.1538 5.2593 27.8616 5.02555C27.5694 4.7918 27.1253 4.67493 26.5293 4.67493C25.98 4.67493 25.5592 4.7918 25.2553 5.02555C24.9515 5.2593 24.7995 5.56317 24.7995 5.93716C24.7995 6.31115 24.9632 6.61503 25.3021 6.80202C25.641 6.98902 26.2605 7.14095 27.1604 7.26952C28.7615 7.49157 29.942 7.85388 30.69 8.36812C31.4964 8.97586 31.9054 9.88748 31.9054 11.103C31.9054 12.4119 31.4613 13.4054 30.5614 14.0949C29.6615 14.7845 28.3992 15.1234 26.763 15.1234Z" fill="#010101"/>
<path id="Vector_4" d="M38.3348 15.1C35.7051 15.1 34.3845 13.8144 34.3845 11.2432V5.04892H32.8184V2.64134H34.3845V0H37.7504V2.64134H40.3216V5.04892H37.7504V10.9393C37.7504 11.9094 38.2062 12.3886 39.1061 12.3886C39.6087 12.3886 40.0294 12.3068 40.3917 12.1548V14.7728C39.7723 14.9948 39.0828 15.1 38.3348 15.1Z" fill="#010101"/>
<path id="Vector_5" d="M52.7925 4.06719C51.6121 2.93352 50.0694 2.36084 48.1877 2.36084C46.3061 2.36084 44.7867 2.93352 43.5829 4.09056C42.3558 5.27098 41.7363 6.81371 41.7363 8.69537V8.88237C41.7363 10.764 42.3558 12.2834 43.5829 13.417C44.7633 14.5507 46.2944 15.1234 48.1644 15.1234C50.0343 15.1234 51.5887 14.5507 52.7692 13.417C53.9963 12.2366 54.6158 10.6939 54.6158 8.81224V8.62525C54.6158 6.76696 54.008 5.24761 52.7925 4.06719ZM51.1797 8.83562C51.1797 10.0043 50.9226 10.916 50.3966 11.5704C49.8707 12.2249 49.1344 12.5522 48.1877 12.5522C47.2411 12.5522 46.4814 12.2249 45.9671 11.5704C45.4529 10.916 45.1958 9.99266 45.1958 8.81224V8.62525C45.1958 7.45651 45.4646 6.5449 45.9905 5.9021C46.5164 5.2593 47.2527 4.93205 48.1877 4.93205C49.1227 4.93205 49.8707 5.2593 50.3966 5.92547C50.9226 6.59165 51.1797 7.50326 51.1797 8.67199V8.83562Z" fill="#010101"/>
<path id="Vector_6" d="M56.2266 2.64159H59.6159V4.97905C60.3989 3.30776 61.7079 2.46628 63.5662 2.45459V5.61017C62.2572 5.59848 61.2755 5.83223 60.6093 6.31141C59.9431 6.79059 59.6159 7.6087 59.6159 8.74237V14.8665H56.2266V2.64159Z" fill="#010101"/>
<path id="Vector_7" d="M76.4007 8.5785C76.4007 6.50984 75.8046 4.92036 74.6008 3.83344C73.5256 2.85171 72.1348 2.36084 70.4401 2.36084C68.652 2.36084 67.156 2.93352 65.9756 4.09056C64.7601 5.27098 64.1523 6.81371 64.1523 8.71874V8.90574C64.1523 10.8225 64.7601 12.3418 65.9756 13.4638C67.1092 14.5741 68.6286 15.1234 70.5336 15.1234C72.2166 15.1234 73.5606 14.7728 74.5657 14.0599C75.5709 13.3469 76.1786 12.3301 76.3773 11.0095H73.175C72.9412 12.1431 72.088 12.7158 70.6271 12.7158C69.6921 12.7158 68.9675 12.4353 68.4416 11.886C67.9157 11.3367 67.6352 10.542 67.5884 9.51348H76.4007V8.5785ZM67.6352 7.43314C67.7637 6.55659 68.0676 5.89041 68.5585 5.41123C69.0493 4.93205 69.6804 4.6983 70.4401 4.6983C72.1114 4.6983 72.9996 5.60992 73.1048 7.43314H67.6352Z" fill="#010101"/>
<g id="Group">
<path id="Vector_8" d="M82.383 7.69034C81.974 8.0994 81.4831 8.29808 80.887 8.29808C80.291 8.29808 79.8001 8.0994 79.4144 7.70203C79.0288 7.30466 78.8301 6.81379 78.8301 6.24111C78.8301 5.66844 79.0288 5.20094 79.4144 4.80357C79.8001 4.4062 80.291 4.20752 80.887 4.20752C81.4831 4.20752 81.974 4.4062 82.383 4.80357C82.7921 5.20094 82.9908 5.68012 82.9908 6.24111C82.9908 6.80211 82.7921 7.28129 82.383 7.69034Z" fill="#010101"/>
<path id="Vector_9" d="M82.383 14.4687C81.974 14.8777 81.4831 15.0764 80.887 15.0764C80.291 15.0764 79.8001 14.8777 79.4144 14.4804C79.0288 14.083 78.8301 13.5921 78.8301 13.0194C78.8301 12.4468 79.0288 11.9793 79.4144 11.5819C79.8001 11.1845 80.291 10.9858 80.887 10.9858C81.4831 10.9858 81.974 11.1845 82.383 11.5819C82.7921 11.9793 82.9908 12.4584 82.9908 13.0194C82.9908 13.5804 82.7921 14.0596 82.383 14.4687Z" fill="#010101"/>
</g>
</g>
</svg>
