<svg width="78" height="35" viewBox="0 0 78 35" fill="none" xmlns="http://www.w3.org/2000/svg">
<g id="Group 3594">
<g id="Group">
<path id="Vector" d="M15.2898 31.3852L14.9386 32.1755L14.5748 32.9533C14.4745 33.1791 14.3867 33.2543 14.186 33.2543H13.7218C13.496 33.2543 13.4458 33.1791 13.3329 32.9533L13.0193 32.3261L12.6179 31.473H12.5803V33.7059C12.5803 33.8439 12.5427 33.8439 12.4298 33.8439H11.4639C11.3635 33.8439 11.3008 33.8439 11.3008 33.7059V29.5162C11.3008 29.0771 11.4513 28.9642 11.8025 28.9642H12.342C12.643 28.9642 12.7308 29.0646 12.8563 29.3029L13.4082 30.457L13.9476 31.5985H13.9727L14.5121 30.4695L15.064 29.3154C15.1769 29.0771 15.2898 28.9517 15.6411 28.9517H16.0676C16.3686 28.9517 16.5568 29.0269 16.5568 29.4534V33.6934C16.5568 33.8314 16.5192 33.8314 16.3937 33.8314H15.478C15.3777 33.8314 15.3275 33.8314 15.3275 33.6934V31.3852H15.2898Z" fill="#00263A"/>
<path id="Vector_2" d="M20.5084 32.0877L19.555 33.5178C19.3669 33.7937 19.2791 33.8314 18.9655 33.8314H18.6393C18.2254 33.8314 18.125 33.593 18.125 33.2794V29.1022C18.125 29.0018 18.1752 28.9517 18.2881 28.9517H19.2414C19.4045 28.9517 19.4045 28.9893 19.4045 29.1022V31.749H19.4547L20.0694 30.7831L21.0353 29.2653C21.2234 28.9642 21.3112 28.9517 21.6248 28.9517H21.951C22.3399 28.9517 22.4653 29.0646 22.4653 29.5036V33.6808C22.4653 33.7812 22.4151 33.8314 22.3022 33.8314H21.3489C21.1858 33.8314 21.1858 33.7937 21.1858 33.6808V31.0465H21.1356L20.5084 32.0752V32.0877Z" fill="#00263A"/>
<path id="Vector_3" d="M25.1756 33.8314H24.1846C24.0842 33.8314 24.0215 33.7812 24.0215 33.6934V29.4158C24.0215 29.1649 24.0968 28.9517 24.4731 28.9517H26.2418C27.3332 28.9517 27.9353 29.629 27.9353 30.5197C27.9353 30.9713 27.7848 32.1755 26.016 32.1755H25.3386V33.6934C25.3386 33.8063 25.3386 33.8314 25.1756 33.8314ZM26.0913 30.0932H25.3386V31.1469H26.0913C26.4174 31.1469 26.5805 30.8835 26.5805 30.62C26.5805 30.4193 26.4927 30.0932 26.0913 30.0932Z" fill="#00263A"/>
<path id="Vector_4" d="M32.513 34.8224C32.513 34.9227 32.4377 34.9854 32.3123 34.9854H31.6098C31.4969 34.9854 31.4593 34.9227 31.4593 34.8349L31.3966 33.1163C31.3966 32.9784 31.384 32.7902 31.6725 32.7526L31.9234 32.7149C32.3499 32.3637 32.4126 31.7114 32.4503 31.4981L32.6886 29.4785C32.7263 29.1775 32.8015 28.9517 33.2657 28.9517H35.7369C36.1257 28.9517 36.1885 29.1022 36.1885 29.4158V32.7149L36.4895 32.74C36.7153 32.7651 36.778 32.8529 36.7655 33.0787L36.6902 34.8349C36.6902 34.9227 36.6526 34.9854 36.5397 34.9854H35.7996C35.6616 34.9854 35.6365 34.9353 35.6365 34.8224L35.5989 33.8314H32.6008L32.5255 34.8224H32.513ZM33.4036 32.7275H34.8588V30.0932H33.8427L33.7047 31.3602C33.642 31.9748 33.5667 32.4013 33.4036 32.7275Z" fill="#00263A"/>
<path id="Vector_5" d="M41.5573 33.8315H39.3997C38.2958 33.8315 38.0449 33.129 38.0449 32.5144V30.2815C38.0449 29.6041 38.3962 28.9644 39.3872 28.9644H41.4444C41.5573 28.9644 41.5824 28.9644 41.5824 29.1274V29.9177C41.5824 30.0306 41.5573 30.0682 41.4444 30.0682H39.7886C39.4248 30.0682 39.3746 30.2815 39.3746 30.4697V30.7582H41.2437C41.3566 30.7582 41.3817 30.7707 41.3817 30.9338V31.6614C41.3817 31.7617 41.3441 31.8244 41.2437 31.8244H39.3746V32.3513C39.3746 32.7025 39.5502 32.7402 39.7886 32.7402H41.5573C41.6702 32.7402 41.6953 32.7402 41.6953 32.9032V33.6935C41.6953 33.7939 41.6577 33.8566 41.5573 33.8566V33.8315Z" fill="#00263A"/>
<path id="Vector_6" d="M46.3377 30.0556H45.146V33.6808C45.146 33.7937 45.146 33.8314 44.9829 33.8314H43.9919C43.8916 33.8314 43.8289 33.7812 43.8289 33.6808V30.0556H42.6622C42.5619 30.0556 42.5117 30.0054 42.5117 29.8925V29.1147C42.5117 28.9517 42.5494 28.9517 42.6622 28.9517H46.3377C46.4506 28.9517 46.4882 28.9517 46.4882 29.1147V29.8925C46.4882 29.9928 46.4381 30.0556 46.3377 30.0556Z" fill="#00263A"/>
<path id="Vector_7" d="M50.7142 32.4768C50.8521 32.4266 50.8898 32.4266 50.9525 32.5772L51.2536 33.2044C51.3163 33.3424 51.3163 33.4051 51.2159 33.4678C50.664 33.8065 50.112 33.9069 49.5099 33.9069C47.8666 33.9069 47.252 32.8406 47.252 31.398C47.252 29.9554 48.1802 28.8892 49.5601 28.8892C50.0995 28.8892 50.5636 28.9644 50.9776 29.1902C51.1281 29.278 51.1281 29.2906 51.0529 29.4913L50.8145 30.0683C50.7518 30.2439 50.7142 30.269 50.5511 30.2063C50.1873 30.0934 49.9741 30.0432 49.6354 30.0432C49.0583 30.0432 48.6569 30.5074 48.6569 31.398C48.6569 32.2886 48.9329 32.7402 49.6479 32.7402C50.1246 32.7402 50.4256 32.6022 50.7267 32.4894L50.7142 32.4768Z" fill="#00263A"/>
<path id="Vector_8" d="M55.9588 30.0556H54.7671V33.6808C54.7671 33.7937 54.7671 33.8314 54.604 33.8314H53.613C53.5127 33.8314 53.45 33.7812 53.45 33.6808V30.0556H52.2833C52.183 30.0556 52.1328 30.0054 52.1328 29.8925V29.1147C52.1328 28.9517 52.1704 28.9517 52.2833 28.9517H55.9588C56.0717 28.9517 56.1093 28.9517 56.1093 29.1147V29.8925C56.1093 29.9928 56.0592 30.0556 55.9588 30.0556Z" fill="#00263A"/>
<path id="Vector_9" d="M61.176 32.3264C61.176 33.217 60.4485 33.8192 59.4826 33.8192H57.6762C57.2873 33.8192 57.2246 33.6812 57.2246 33.355V29.4036C57.2246 29.1025 57.2999 28.9395 57.6762 28.9395H59.4826C60.3105 28.9395 60.9753 29.3032 60.9753 30.1939C60.9753 30.5577 60.7621 30.9214 60.461 31.1096V31.1472C60.9879 31.373 61.176 31.8623 61.176 32.3139V32.3264ZM59.2568 30.7458C59.4449 30.7458 59.6331 30.6706 59.6331 30.4071C59.6331 30.1939 59.4951 30.081 59.2819 30.081H58.5167V30.7458H59.2442H59.2568ZM59.3446 31.7744H58.5167V32.6902H59.3446C59.7084 32.6902 59.8213 32.4267 59.8213 32.2386C59.8213 31.9626 59.6582 31.7744 59.3446 31.7744Z" fill="#00263A"/>
<path id="Vector_10" d="M63.7355 32.8783L63.5097 33.6812C63.472 33.7815 63.4469 33.8317 63.2839 33.8317H62.2552C62.1674 33.8317 62.1423 33.7815 62.1674 33.6937L63.5347 29.3785C63.6476 29.0147 63.8107 28.9395 64.1243 28.9395H64.6888C65.015 28.9395 65.178 28.9645 65.316 29.366L66.6833 33.6812C66.6833 33.6812 66.7084 33.8192 66.5955 33.8192H65.5418C65.4289 33.8192 65.3537 33.8066 65.3286 33.7063L65.1028 32.8658H63.7355V32.8783ZM64.8268 31.8497L64.6888 31.3103L64.463 30.3068H64.4128L64.1745 31.3354L64.024 31.8623H64.8143L64.8268 31.8497Z" fill="#00263A"/>
</g>
<g id="Group_2">
<path id="Vector_11" d="M10.0354 11.3899C11.0264 11.691 11.8167 12.0798 12.3686 12.5565C13.3596 13.4472 13.8614 14.5761 13.8614 15.956C13.8614 17.0223 13.6105 17.9756 13.1213 18.8537C12.632 19.7193 11.9421 20.4092 11.0766 20.8984C10.211 21.3877 9.2451 21.6385 8.17884 21.6385H2.59665C1.76874 21.6385 1.12898 21.4127 0.677388 20.9612C0.225796 20.5096 0 19.8698 0 19.0419V5.64466C0 4.84183 0.225796 4.20207 0.689932 3.75048C1.14152 3.29889 1.78128 3.06055 2.59665 3.06055H6.82406C8.46735 3.06055 9.74686 3.44942 10.6751 4.22716C11.1518 4.62857 11.5281 5.1178 11.8041 5.69483C12.0801 6.27187 12.2306 6.87399 12.2306 7.47611C12.2306 8.42948 12.055 9.19467 11.7163 9.78425C11.3776 10.3738 10.8131 10.9007 10.0354 11.3774V11.3899ZM4.26504 10.1355H6.39756C6.91187 10.1355 7.35092 9.97242 7.68961 9.63372C8.02831 9.29503 8.20392 8.86852 8.20392 8.35421C8.20392 7.8399 8.00322 7.47611 7.6018 7.20014C7.20039 6.92417 6.73625 6.78618 6.20939 6.78618H4.26504V10.1355ZM4.26504 17.9255H7.21293C8.04085 17.9255 8.63043 17.7122 8.99421 17.2857C9.28273 16.9721 9.43326 16.4829 9.43326 15.818C9.35799 14.5511 8.58025 13.9113 7.10003 13.9113H4.27758V17.9255H4.26504Z" fill="#00263A"/>
<path id="Vector_12" d="M25.3393 20.3217C24.7622 20.8611 24.1852 21.2375 23.6207 21.4758C23.0562 21.7141 22.3788 21.827 21.6011 21.827C20.1585 21.827 18.9668 21.4131 18.0134 20.5977C17.4364 20.0959 17.0475 19.544 16.8468 18.9168C16.6336 18.3021 16.5332 17.5494 16.5332 16.6714V9.54623C16.5332 8.89393 16.7214 8.35453 17.0851 7.91548C17.4489 7.47644 17.9632 7.26318 18.603 7.26318C19.2428 7.26318 19.7069 7.48898 20.0832 7.92803C20.447 8.36708 20.6352 8.90648 20.6352 9.55878V15.7431C20.6352 16.4832 20.8359 17.0853 21.2498 17.5871C21.6638 18.0763 22.2408 18.3272 22.9809 18.3272C23.3949 18.3272 23.7838 18.2143 24.1225 17.9885C24.4612 17.7627 24.7371 17.4616 24.9253 17.0853C25.126 16.709 25.2138 16.3201 25.2138 15.9062V9.55878C25.2138 8.90648 25.402 8.36708 25.7658 7.92803C26.1295 7.48898 26.6438 7.27573 27.2836 7.27573C27.9234 7.27573 28.3875 7.50152 28.7638 7.94057C29.1276 8.37962 29.3158 8.91902 29.3158 9.57132V19.3684C29.3158 20.0081 29.1401 20.5601 28.8015 21.0242C28.4628 21.4883 27.9735 21.7267 27.3338 21.7643C26.3804 21.7643 25.7156 21.2876 25.3393 20.3343V20.3217Z" fill="#00263A"/>
<path id="Vector_13" d="M36.6285 15.8685V19.5439C36.6285 20.1837 36.4529 20.7231 36.0891 21.1747C35.7253 21.6137 35.2235 21.8395 34.5838 21.8395C33.944 21.8395 33.4673 21.6137 33.091 21.1747C32.7272 20.7356 32.5391 20.1962 32.5391 19.5439V9.5838C32.5391 9.18238 32.6143 8.80605 32.7774 8.46736C32.9405 8.11612 33.1663 7.84015 33.4799 7.63944C33.7935 7.43873 34.1573 7.33838 34.5712 7.33838C35.211 7.33838 35.7128 7.55163 36.0765 7.97813C36.4403 8.40464 36.6285 8.94404 36.6285 9.57125V12.8327H41.2322V9.57125C41.2322 8.9315 41.4204 8.40464 41.7842 7.97813C42.1479 7.55163 42.6497 7.33838 43.2895 7.33838C43.7034 7.33838 44.0672 7.43873 44.3808 7.63944C44.6944 7.84015 44.9328 8.11612 45.0833 8.46736C45.2464 8.8186 45.3216 9.19492 45.3216 9.5838V19.5439C45.3216 20.1837 45.1335 20.7231 44.7697 21.1747C44.4059 21.6137 43.9041 21.8395 43.2769 21.8395C42.6497 21.8395 42.1354 21.6137 41.7716 21.1747C41.4078 20.7356 41.2322 20.1962 41.2322 19.5439V15.8685H36.6285Z" fill="#00263A"/>
<path id="Vector_14" d="M74.0228 20.3217C73.4458 20.8611 72.8688 21.2375 72.3043 21.4758C71.7398 21.7141 71.0624 21.827 70.2847 21.827C68.8421 21.827 67.6504 21.4131 66.697 20.5977C66.12 20.0959 65.7311 19.544 65.5304 18.9168C65.3172 18.3021 65.2168 17.5494 65.2168 16.6714V9.54623C65.2168 8.89393 65.405 8.35453 65.7687 7.91548C66.1325 7.47644 66.6468 7.26318 67.2866 7.26318C67.9263 7.26318 68.3905 7.48898 68.7668 7.92803C69.1306 8.36708 69.3188 8.90648 69.3188 9.55878V15.7431C69.3188 16.4832 69.5195 17.0853 69.9334 17.5871C70.3474 18.0763 70.9244 18.3272 71.6645 18.3272C72.0785 18.3272 72.4674 18.2143 72.8061 17.9885C73.1447 17.7627 73.4207 17.4616 73.6089 17.0853C73.8096 16.709 73.8974 16.3201 73.8974 15.9062V9.55878C73.8974 8.90648 74.0856 8.36708 74.4493 7.92803C74.8131 7.48898 75.3274 7.27573 75.9672 7.27573C76.607 7.27573 77.0711 7.50152 77.4474 7.94057C77.8112 8.37962 77.9994 8.91902 77.9994 9.57132V19.3684C77.9994 20.0081 77.8237 20.5601 77.485 21.0242C77.1464 21.4883 76.6571 21.7267 76.0174 21.7643C75.064 21.7643 74.3992 21.2876 74.0228 20.3343V20.3217Z" fill="#00263A"/>
<g id="Group_3">
<g id="Group_4">
<path id="Vector_15" d="M60.8018 15.7179L60.6136 16.7716C61.567 17.2483 62.2193 18.2268 62.2193 19.3557C62.2193 20.9489 60.9273 22.2409 59.3341 22.2409C58.594 22.2409 57.9292 21.9649 57.4149 21.5133L57.3647 21.4757C56.8253 20.9614 56.0852 20.6353 55.2698 20.6353C54.4544 20.6353 53.7143 20.9489 53.1749 21.4757L53.1247 21.5133C52.6104 21.9649 51.9456 22.2409 51.2055 22.2409C49.6124 22.2409 48.3203 20.9489 48.3203 19.3557C48.3203 18.2268 48.9726 17.2358 49.926 16.7716L49.7378 15.7179C48.5085 15.6301 47.53 14.6015 47.5049 13.3596C47.4798 12.494 47.9189 11.7289 48.5837 11.2898C48.659 11.2396 50.3023 10.2361 51.6696 9.70923C51.1804 9.0193 50.8793 8.17884 50.8793 7.26311C50.8793 6.86169 50.942 6.46028 51.0424 6.09649C50.503 5.77034 50.1392 5.18077 50.1392 4.50338C50.1392 3.47475 50.9797 2.63429 52.0083 2.63429C52.6104 2.63429 53.1498 2.9228 53.4885 3.3744C53.9777 3.17369 54.5171 3.06079 55.0942 3.06079C55.6712 3.06079 56.1981 3.18623 56.6873 3.38694C57.026 2.93535 57.5654 2.64683 58.1675 2.64683C59.1961 2.64683 60.0366 3.48729 60.0366 4.51592C60.0366 5.19331 59.6728 5.78289 59.1334 6.10904C59.2463 6.48536 59.309 6.87424 59.309 7.27565C59.309 8.15375 59.0456 8.95658 58.594 9.63397C59.999 10.1106 61.8555 11.2522 61.9308 11.3023C62.5956 11.7414 63.0347 12.5066 63.0096 13.3721C62.9845 14.6015 62.0061 15.6301 60.7767 15.7305L60.8018 15.7179ZM55.1193 2.59665C55.6838 2.59665 56.2106 2.70955 56.6998 2.91026L57.4525 0.589579L55.9848 1.4175L55.1193 0L54.2537 1.4175L52.7861 0.589579L53.5262 2.91026C54.0154 2.70955 54.5548 2.59665 55.1318 2.59665H55.1193Z" fill="#CC9F53"/>
<path id="Vector_16" d="M55.1202 19.5441C56.8176 19.5441 58.1935 17.7413 58.1935 15.5174C58.1935 13.2935 56.8176 11.4907 55.1202 11.4907C53.4229 11.4907 52.0469 13.2935 52.0469 15.5174C52.0469 17.7413 53.4229 19.5441 55.1202 19.5441Z" fill="white"/>
</g>
<path id="Vector_17" d="M55.1197 6.37256C54.1162 6.37256 53.3008 7.18793 53.3008 8.19147C53.3008 9.19501 54.1162 10.0104 55.1197 10.0104C56.1232 10.0104 56.9386 9.19501 56.9386 8.19147C56.9386 7.18793 56.1232 6.37256 55.1197 6.37256ZM56.0981 8.91904C55.9727 9.03193 55.8096 9.1072 55.6466 9.1072C55.4208 9.1072 55.22 8.9943 55.1071 8.81868C54.9943 8.9943 54.7935 9.1072 54.5677 9.1072C54.3921 9.1072 54.2416 9.04448 54.1162 8.91904C54.066 8.8814 54.066 8.80614 54.1162 8.75596C54.1538 8.70578 54.2291 8.70578 54.2792 8.75596C54.3545 8.83123 54.4674 8.86886 54.5803 8.86886C54.8186 8.86886 55.0068 8.6807 55.0068 8.44236V8.26674C54.7308 8.14129 54.2291 7.6897 54.2291 7.33846C54.2291 7.11267 54.4548 6.97468 54.7559 6.97468C54.9441 6.97468 55.1197 7.12521 55.1197 7.12521C55.1197 7.12521 55.2953 6.97468 55.4835 6.97468C55.7845 6.97468 56.0103 7.11267 56.0103 7.33846C56.0103 7.67716 55.5086 8.14129 55.2326 8.26674V8.44236C55.2326 8.6807 55.4208 8.86886 55.6591 8.86886C55.772 8.86886 55.8723 8.83123 55.9602 8.75596C56.0103 8.71833 56.0731 8.71833 56.1232 8.75596C56.1609 8.80614 56.1609 8.86886 56.1232 8.91904H56.0981Z" fill="white"/>
<g id="Group_5">
<path id="Vector_18" d="M57.2754 6.09619C57.0621 6.09619 56.8739 6.22163 56.7987 6.4098C56.7736 6.47252 56.7987 6.54778 56.8614 6.57287C56.9241 6.59796 56.9994 6.57287 57.0245 6.51015C57.0621 6.4098 57.1625 6.34708 57.2754 6.34708C57.3883 6.34708 57.5012 6.42234 57.5388 6.53524C57.5513 6.58542 57.6015 6.62305 57.6517 6.62305C57.6517 6.62305 57.6768 6.62305 57.6893 6.62305C57.752 6.59796 57.7897 6.53524 57.7646 6.47252C57.6893 6.25927 57.5012 6.10874 57.2754 6.10874V6.09619Z" fill="white"/>
<path id="Vector_19" d="M53.0742 6.09619C52.8609 6.09619 52.6728 6.22163 52.5975 6.4098C52.5724 6.47252 52.5975 6.54778 52.6602 6.57287C52.7229 6.59796 52.7982 6.57287 52.8233 6.51015C52.8609 6.4098 52.9613 6.34708 53.0742 6.34708C53.1996 6.34708 53.3 6.42234 53.3376 6.53524C53.3502 6.58542 53.4003 6.62305 53.4505 6.62305C53.4505 6.62305 53.4756 6.62305 53.4881 6.62305C53.5509 6.59796 53.5885 6.53524 53.5634 6.47252C53.4881 6.25927 53.3 6.10874 53.0742 6.10874V6.09619Z" fill="white"/>
</g>
</g>
</g>
</g>
</svg>
