<svg width="91" height="29" viewBox="0 0 91 29" fill="none" xmlns="http://www.w3.org/2000/svg">
<g id="Group 3602">
<path id="Vector" fill-rule="evenodd" clip-rule="evenodd" d="M0.0308343 15.8859C1.77297 20.1256 3.60762 23.1628 4.14722 28.0346C8.14027 25.9687 12.0716 25.4754 15.8026 24.4578C17.0206 24.057 18.2385 23.6716 19.4565 23.317C19.179 19.0618 19.9344 11.8466 20.2427 9.30276C18.5314 10.197 16.3114 11.0449 13.9217 11.8312C13.4129 7.57604 11.455 4.01467 9.40447 3.768C7.24607 3.49049 5.79686 6.95935 6.16687 11.5228C6.24395 12.4016 6.36729 13.265 6.5523 14.0667C6.02811 14.2054 5.50393 14.3596 5.01058 14.4983L4.70224 14.5754C2.97551 15.0534 1.37213 15.5005 0.0154172 15.9013M13.1971 12.0779C11.9946 12.4633 9.41989 13.2341 9.41989 13.2341C8.47944 13.5116 7.539 13.7737 6.61397 14.0358C6.16687 9.71902 7.29232 6.25016 9.17322 6.23474C10.7766 6.23474 12.3954 8.70149 13.1971 12.0779ZM18.6085 19.6477L15.2784 20.3569L15.7255 23.872C16.9743 23.6716 18.2231 23.502 19.4565 23.3324C19.071 22.1144 18.7935 20.8811 18.6085 19.6477ZM14.7234 20.4802L10.8999 21.2973L11.455 24.6428C12.8579 24.3653 14.2609 24.1187 15.6484 23.8874L14.7234 20.4802ZM10.3295 21.4207L7.16898 22.099L8.10943 25.3829C9.20405 25.1208 10.2833 24.8741 11.3625 24.6583L10.3449 21.4207H10.3295ZM6.56771 22.2223L3.79262 22.8082C4.28597 23.8874 4.71765 25.0129 5.08767 26.1846C6.05895 25.9071 7.03023 25.645 7.98609 25.4137L6.5523 22.2223H6.56771ZM3.74637 22.7157L6.39813 21.8678L5.04141 18.8306L2.09674 19.4627C2.68259 20.5265 3.23761 21.6057 3.74637 22.7157ZM7.03023 21.6673L10.0828 20.6806L9.20405 17.921L6.13603 18.5839L7.01481 21.6673H7.03023ZM10.7458 20.4802L14.3996 19.3085L13.7675 16.9343L10.2833 17.6897L10.7458 20.4802ZM15.1088 19.0772L18.3927 18.0289C18.331 17.3197 18.2848 16.6413 18.2693 15.963L14.8159 16.7184L15.1088 19.0927V19.0772ZM2.08132 19.4318L4.90266 18.5222L3.48428 15.3617C2.18924 15.593 1.00212 15.7934 0 15.9321C0.70919 17.0884 1.41838 18.2447 2.08132 19.4473M6.02811 18.1831L8.98821 17.2272L8.10943 14.4367C7.0919 14.6525 6.1052 14.8684 5.13392 15.0534L6.02811 18.1831ZM10.1291 16.8726L13.4284 15.8088L12.7808 13.3883C11.7633 13.635 10.7149 13.8817 9.66657 14.1129L10.1291 16.8726ZM14.6463 15.4234L18.2848 14.2517C18.3156 13.4037 18.3927 12.6175 18.5006 11.8928C17.3135 12.232 15.8797 12.6175 14.338 13.0029L14.6463 15.4234Z" fill="#8EC044"/>
<path id="Vector_2" fill-rule="evenodd" clip-rule="evenodd" d="M10.2196 1.7185C10.2196 1.7185 10.4201 0.778049 10.6205 0.916804C10.8209 1.05556 11.1293 1.57974 11.1293 1.57974L11.9155 1.54891C11.9155 1.54891 11.9618 1.54891 11.9772 1.54891C12.0389 1.56432 12.116 1.61058 12.0235 1.78017C11.8847 2.01142 11.5609 2.3506 11.5609 2.3506L11.7922 2.9827C11.7922 2.9827 11.931 3.26021 11.638 3.21396C11.3605 3.16771 10.8826 2.99812 10.8826 2.99812L10.3276 3.36813C10.3276 3.36813 10.0501 3.55314 10.0501 3.21396C10.0501 2.87478 10.0501 2.56644 10.0501 2.56644L9.46421 2.21185C9.46421 2.21185 9.41796 2.18101 9.40254 2.16559C9.35629 2.10393 9.29462 1.99601 9.51046 1.91892C9.80339 1.811 10.1734 1.68766 10.1734 1.68766" fill="#F08223"/>
<path id="Vector_3" fill-rule="evenodd" clip-rule="evenodd" d="M14.8758 0.962819C14.8758 0.962819 15.5233 -0.224303 15.7391 0.0377887C15.955 0.315298 16.1708 1.16324 16.1708 1.16324L17.2654 1.44075C17.2654 1.44075 17.3271 1.45617 17.3579 1.47159C17.435 1.51784 17.5275 1.62576 17.3271 1.79535C17.0342 2.05744 16.4637 2.39662 16.4637 2.39662L16.5254 3.35248C16.5254 3.35248 16.5871 3.78416 16.2325 3.59916C15.8625 3.41415 15.292 2.99789 15.292 2.99789L14.3824 3.27539C14.3824 3.27539 13.9353 3.42957 14.0586 2.95163C14.1974 2.48912 14.3362 2.07286 14.3362 2.07286L13.6886 1.36367C13.6886 1.36367 13.6424 1.302 13.627 1.27116C13.5807 1.17866 13.5653 0.993653 13.8736 0.978236C14.3053 0.962819 14.8758 0.947402 14.8758 0.947402" fill="#F08223"/>
<path id="Vector_4" fill-rule="evenodd" clip-rule="evenodd" d="M19.9799 3.93783C19.9799 3.93783 21.6141 2.8278 21.7221 3.33656C21.8146 3.82991 21.5216 5.0787 21.5216 5.0787L22.7396 6.17332C22.7396 6.17332 22.8013 6.23499 22.8321 6.28124C22.8938 6.38916 22.9554 6.58959 22.5854 6.68209C22.0458 6.82084 21.0745 6.88251 21.0745 6.88251L20.5195 8.16214C20.5195 8.16214 20.3191 8.76341 19.9645 8.27006C19.6253 7.77671 19.1474 6.8671 19.1474 6.8671L17.7753 6.62042C17.7753 6.62042 17.0969 6.5125 17.5748 5.98832C18.0528 5.46413 18.5307 5.04787 18.5307 5.04787L18.1761 3.69116C18.1761 3.69116 18.1607 3.58324 18.1761 3.53699C18.1915 3.38282 18.284 3.13614 18.7003 3.32115C19.2861 3.58324 20.0107 3.93783 20.0107 3.93783" fill="#F08223"/>
<path id="Vector_5" fill-rule="evenodd" clip-rule="evenodd" d="M86.7981 16.7344C87.6615 16.7344 88.1857 16.4568 88.1857 15.6089C88.1857 14.761 87.6769 14.4989 86.7981 14.4989H85.611V16.7498H86.7981V16.7344ZM82.8205 8.17783H85.5956V12.3559H87.0602C88.4786 12.3559 90.9608 12.6642 90.9608 15.6089C90.9608 18.5536 88.4632 18.8773 87.0602 18.8773H82.8205V8.17783ZM81.0321 8.17783V18.8773H78.257V10.7525H76.2682V14.5605C76.2682 16.1023 76.1449 19.0315 72.6606 19.0315C72.2443 19.0315 71.5043 18.8928 70.9339 18.6307L72.1981 16.4414C73.6935 16.9039 73.4777 15.6089 73.4777 14.098V8.19324H81.0321V8.17783ZM68.39 13.5276C68.39 11.4617 67.2183 10.4442 65.9233 10.4442C64.6282 10.4442 63.4565 11.4617 63.4565 13.5276C63.4565 15.5935 64.6282 16.611 65.9233 16.611C67.2183 16.611 68.39 15.5935 68.39 13.5276ZM60.5889 13.5276C60.5889 10.6754 62.2848 7.86948 65.9233 7.86948C69.5617 7.86948 71.2576 10.66 71.2576 13.5276C71.2576 16.3952 69.5617 19.1857 65.9233 19.1857C62.2848 19.1857 60.5889 16.3952 60.5889 13.5276ZM60.2343 18.0602C59.3401 18.7232 57.4593 19.1857 56.5959 19.1857C53.6512 19.1857 51.5236 16.9502 51.5236 13.5276C51.5236 10.105 53.8671 7.86948 56.5651 7.86948C57.4438 7.86948 59.4018 8.64034 60.2343 9.24161L59.2785 11.8163C58.7697 11.1688 57.9834 10.5367 56.9197 10.5367C55.3934 10.5367 54.3758 11.8471 54.3758 13.6047C54.3758 15.2235 55.3317 16.4877 56.9197 16.4877C57.9526 16.4877 58.7697 15.8864 59.2785 15.3314L60.2343 18.0448V18.0602ZM45.1718 14.6685H47.4381L46.2972 10.7217L45.1564 14.6685H45.1718ZM44.6168 8.17783H47.9931L51.5236 18.8773H48.5481L47.9931 17.0273H44.6168L44.0617 18.8773H41.0862L44.6168 8.17783ZM38.4807 12.4484C37.8024 13.3426 36.6923 14.1443 35.3973 14.7147V10.0433C35.3973 10.0433 34.6727 10.0896 33.7168 10.4596C32.7764 10.8296 32.468 11.1688 32.468 11.1688V15.4701C32.2676 15.4701 32.0826 15.501 31.8822 15.501C30.4175 15.501 29.2921 15.0231 29.0146 14.2984C28.7987 13.7588 29.0146 13.0034 29.6158 12.2171C30.3713 11.2458 31.6201 10.3671 33.0539 9.81205C34.1177 9.39578 35.1969 9.17994 36.199 9.17994C37.6636 9.17994 38.7891 9.65788 39.0666 10.3825C39.2824 10.9221 39.0666 11.6775 38.4653 12.4638M41.6567 9.38037C40.9321 7.51489 38.897 6.40485 36.199 6.40485C34.8577 6.40485 33.4239 6.68236 32.0518 7.22196C30.1246 7.96199 28.475 9.14911 27.4112 10.5212C26.2087 12.0784 25.8386 13.8205 26.4091 15.3006C27.1337 17.166 29.1687 18.2761 31.8668 18.2761C32.0518 18.2761 32.2522 18.2761 32.4526 18.2607V20.8507H35.3819V17.6902C35.5977 17.6131 35.8136 17.5515 36.0294 17.459C37.9565 16.7189 39.5908 15.5318 40.67 14.1597C41.8725 12.6026 42.2425 10.8604 41.6721 9.38037M32.468 4.9248H35.3973V5.78817C35.3973 5.78817 34.5802 5.78817 33.8556 5.92692C33.131 6.06568 32.468 6.40485 32.468 6.40485V4.9248Z" fill="#F08223"/>
<path id="Vector_6" d="M89.1125 24.5971V23.965H89.5134C89.6521 23.965 89.9759 23.965 89.9759 24.2733C89.9759 24.5816 89.6367 24.5971 89.5134 24.5971H89.1125ZM89.1125 23.3637V22.7778H89.4826C89.7909 22.7778 89.8834 22.932 89.8834 23.0862C89.8834 23.1941 89.8372 23.3791 89.4826 23.3791H89.1125V23.3637ZM88.2492 22.1611V25.2137H89.8371C90.5772 25.2137 90.8547 24.7666 90.8547 24.3658C90.8547 23.8108 90.3922 23.6412 90.1917 23.5795C90.4538 23.4716 90.6697 23.2403 90.6697 22.932C90.6697 22.6545 90.5618 22.1611 89.7446 22.1611H88.2492ZM86.1679 24.5662C85.8441 24.5662 85.397 24.3504 85.397 23.6874C85.397 23.0245 85.8441 22.8087 86.1679 22.8087C86.4916 22.8087 86.9387 23.0245 86.9387 23.6874C86.9387 24.3504 86.4916 24.5662 86.1679 24.5662ZM86.1679 25.2908C87.2779 25.2908 87.8329 24.5354 87.8329 23.672C87.8329 22.8087 87.2779 22.0532 86.1679 22.0532C85.0578 22.0532 84.5028 22.8087 84.5028 23.672C84.5028 24.5354 85.0732 25.2908 86.1679 25.2908ZM82.7761 25.1983H83.6394V22.8857H84.3178V22.1611H82.0823V22.8857H82.7607V25.1983H82.7761ZM79.2456 25.1983H80.1089V23.8879L81.0031 25.1983H82.0823L80.8798 23.6258L82.0515 22.1457H81.0339L80.0935 23.4253V22.1457H79.2301V25.1983H79.2456ZM76.6709 25.1983H77.5959L78.9835 22.1457H78.043L77.5497 23.4253L76.9484 22.1457H75.9309L77.1026 24.3504L76.6863 25.1983H76.6709ZM74.0345 22.8857H74.6512V24.4737H73.7108C74.0037 24.2887 74.0345 23.9958 74.0345 23.6104V22.8857ZM73.2329 22.1611V23.5024C73.2329 23.5949 73.2329 23.6874 73.2329 23.7954C73.202 24.2733 72.8937 24.4891 72.6162 24.4891V25.8304H73.3562V25.2137H75.1446V25.8304H75.8846V24.4891H75.5146V22.1766H73.2329V22.1611ZM70.8124 24.5662C70.4886 24.5662 70.0415 24.3504 70.0415 23.6874C70.0415 23.0245 70.4886 22.8087 70.8124 22.8087C71.1361 22.8087 71.5832 23.0245 71.5832 23.6874C71.5832 24.3504 71.1361 24.5662 70.8124 24.5662ZM70.8124 25.2908C71.907 25.2908 72.4774 24.5354 72.4774 23.672C72.4774 22.8087 71.9224 22.0532 70.8124 22.0532C69.7023 22.0532 69.1473 22.8087 69.1473 23.672C69.1473 24.5354 69.7177 25.2908 70.8124 25.2908ZM67.3127 22.8241H67.5593C67.9293 22.8241 67.991 23.0245 67.991 23.1787C67.991 23.2712 67.991 23.5333 67.5593 23.5333H67.3127V22.8241ZM66.4493 25.1983H67.3127V24.1962H67.7443C68.6385 24.1962 68.8698 23.5795 68.8698 23.1787C68.8698 22.7778 68.6385 22.1611 67.7443 22.1611H66.4339V25.2137L66.4493 25.1983ZM63.1346 25.1983H63.998V22.8857H65.0309V25.1983H65.8943V22.1457H63.1346V25.1983ZM58.2319 25.1983H59.0953V23.9804H60.1437V25.1983H61.007V22.1457H60.1437V23.2403H59.0953V22.1457H58.2319V25.1983ZM54.7785 22.1457V25.1983H55.6419L56.829 23.3637V25.1983H57.6615V22.1457H56.8136L55.611 23.9804V22.1457H54.7785ZM52.4968 23.3483V23.965H52.9901C53.3755 23.965 53.4835 24.1037 53.4835 24.2887C53.4835 24.4275 53.391 24.6279 53.0209 24.6279C52.7897 24.6279 52.4968 24.4891 52.2655 24.2733L51.9109 24.8437C52.4043 25.2137 52.6972 25.2908 53.1289 25.2908C53.8072 25.2908 54.3777 24.9517 54.3777 24.3504C54.3777 23.9033 54.0693 23.7029 53.8072 23.6258C54.1156 23.5024 54.316 23.2403 54.316 22.9166C54.316 22.4232 53.8535 22.0532 53.1289 22.0532C52.6047 22.0532 52.2347 22.2536 52.0805 22.3307L52.3888 22.932C52.5893 22.8087 52.7589 22.7162 53.0055 22.7162C53.283 22.7162 53.4526 22.8395 53.4526 23.0245C53.4526 23.1478 53.391 23.3328 52.9901 23.3328H52.4968V23.3483ZM50.2921 22.8549L50.6467 24.0112H49.9375L50.2921 22.8549ZM48.6579 25.1983H49.5829L49.7525 24.6741H50.8009L50.9705 25.1983H51.8955L50.8009 22.1457H49.7525L48.6425 25.1983H48.6579ZM46.7616 25.1983H47.6249V22.8857H48.6116V22.1611H46.7462V25.2137L46.7616 25.1983ZM44.8961 22.8549L45.2507 24.0112H44.5415L44.8961 22.8549ZM43.2619 25.1983H44.1869L44.3565 24.6741H45.4049L45.5745 25.1983H46.4995L45.4049 22.1457H44.3565L43.2465 25.1983H43.2619ZM39.5001 25.1983H40.3326L40.5639 23.4253L41.0881 25.1983H41.6431L42.1673 23.4253L42.3985 25.1983H43.231L42.7839 22.1457H41.9206L41.381 24.0112L40.8414 22.1457H39.978L39.5309 25.1983H39.5001ZM33.5182 25.1983H37.6038V22.1457H36.7404V24.4583H36.0004V22.1457H35.137V24.4583H34.397V22.1457H33.5336V25.1983H33.5182ZM31.6527 22.8549L32.0073 24.0112H31.2982L31.6527 22.8549ZM30.0185 25.1983H30.9436L31.1131 24.6741H32.1615L32.3311 25.1983H33.2561L32.1615 22.1457H31.1131L30.0185 25.1983ZM28.1993 24.5816V23.9495H28.6001C28.7389 23.9495 29.0627 23.9495 29.0627 24.2579C29.0627 24.5662 28.7235 24.5816 28.6001 24.5816H28.1993ZM28.1993 23.3483V22.7624H28.5693C28.8777 22.7624 28.9702 22.9166 28.9702 23.0708C28.9702 23.1787 28.9239 23.3637 28.5693 23.3637H28.1993V23.3483ZM27.3359 22.1457V25.1983H28.9239C29.6639 25.1983 29.9414 24.7512 29.9414 24.3504C29.9414 23.7954 29.4789 23.6258 29.2939 23.5641C29.556 23.4562 29.7719 23.2249 29.7719 22.9166C29.7719 22.6391 29.6639 22.1457 28.8468 22.1457H27.3514H27.3359Z" fill="#8EC044"/>
</g>
</svg>
