<svg width="73" height="29" viewBox="0 0 73 29" fill="none" xmlns="http://www.w3.org/2000/svg">
<g id="Group 3629">
<path id="Vector" d="M13.5747 28.74H24.4838V24.4193H18.8626V23.0973H24.4838V20.5608H18.8626V19.2388H24.4838V14.9074H13.5747V28.74ZM33.6948 23.624L32.9209 20.1846L32.1471 23.624H33.6841H33.6948ZM35.7692 14.9181L40.7132 28.2134V28.74H35.5219L34.9523 27.1601H30.8788L30.3092 28.74H25.1287V28.2134L30.0727 14.9181H35.7584H35.7692ZM38.4346 19.2388H41.3258V28.74H46.6353V19.2388H49.5373V14.9074H38.4346V19.2388ZM50.0854 14.2518H60.9946V9.92035H55.3734V8.59835H60.9946V6.07259H55.3734V4.75059H60.9946V0.41917H50.0854V14.2518ZM49.4298 9.92035H43.8086V8.59835H49.4298V6.07259H43.8086V4.75059H49.4298V0.41917H38.5206V14.2518H49.4298V9.92035ZM7.5988 24.0754C7.5988 23.6347 7.31935 23.2048 6.63148 23.2048H5.30948V24.946H6.63148C7.3086 24.946 7.5988 24.5161 7.5988 24.0754ZM5.29874 20.0449H6.28755C7.20112 20.0449 7.25486 18.6047 6.28755 18.6047H5.29874V20.0449ZM12.8545 24.731C12.7578 27.1063 10.9307 28.74 8.54461 28.74H0V14.9074H8.59835C10.619 14.9074 12.2312 16.6486 12.1774 18.7014C12.1559 19.8085 11.5755 20.8295 10.5007 21.2057C12.1129 21.8398 12.9728 22.9039 12.8653 24.7203M61.6395 0.41917V4.75059H64.5414V14.2518H69.8509V4.73984H72.7528V0.41917H61.6502H61.6395ZM30.3844 6.42727H31.126C31.9966 6.40577 32.405 6.19081 32.405 5.52444C32.405 4.85807 31.9966 4.57862 31.126 4.57862H30.3844V6.43802V6.42727ZM30.4489 14.2518H25.1394V0.41917H31.0078C34.3934 0.440666 37.6715 1.38648 37.6715 5.51369C37.6715 7.52356 36.8762 8.79182 35.6724 9.54417L37.8865 13.8111V14.241H32.5448L30.8144 10.5652H30.4489V14.241V14.2518ZM13.3812 4.73984H16.2831V14.241H21.5926V4.73984H24.4946V0.41917H13.3919V4.75059L13.3812 4.73984ZM12.9513 9.87736C12.9513 13.5317 9.46894 14.6172 6.41652 14.6172C3.00942 14.6172 0.0214959 13.0158 0 9.52268H5.28799C5.28799 10.189 5.88987 10.3718 6.49176 10.3718C7.09364 10.3718 7.5773 10.2105 7.5773 9.70539C7.5773 9.25398 7.24411 9.02827 6.2768 8.93154C3.31037 8.67359 0.0752356 8.15769 0.0752356 4.48189C0.0752356 1.66593 3.05242 0 6.41652 0C9.78063 0 12.6611 1.51546 12.7363 4.69685H7.58805C7.56655 4.25619 7.0399 4.04123 6.51325 4.04123C6.05109 4.04123 5.44921 4.23469 5.44921 4.81508C5.44921 5.28799 5.81464 5.50295 6.28755 5.54594C9.1465 5.78239 12.9513 6.11558 12.9513 9.86661" fill="black"/>
</g>
</svg>
