<svg width="44" height="62" viewBox="0 0 44 62" fill="none" xmlns="http://www.w3.org/2000/svg">
<g id="Group 3642">
<path id="Vector" fill-rule="evenodd" clip-rule="evenodd" d="M1.12695 2.07971L1.2993 2.13716C4.37866 2.11418 7.29715 2.95296 8.95173 3.75727C7.92911 3.88366 6.74562 4.12495 5.47022 4.77989C9.18153 4.84883 11.6749 5.31993 14.3751 6.43447C12.5137 6.5149 11.1234 7.06642 9.60666 7.99712C13.9729 8.12352 16.8799 8.87037 18.9481 10.1688C16.9948 10.0309 15.3977 10.5364 13.9499 11.2488C17.4659 11.7544 19.0975 12.3059 21.8092 14.0754C20.3729 13.9375 19.4537 13.972 17.7417 14.3052C19.0515 15.3508 20.7636 16.9135 21.3725 17.5914C22.625 17.5914 23.797 17.3731 24.4634 16.856C26.4971 15.2934 23.8889 10.6973 18.2587 6.54937C12.9733 2.65422 5.92982 0.735368 1.12695 2.07971Z" fill="black"/>
<path id="Vector_2" fill-rule="evenodd" clip-rule="evenodd" d="M22.8292 23.566C22.7143 22.9456 21.841 20.3373 20.3588 18.4299C16.8773 18.4989 13.097 17.9589 8.8457 16.9707C9.93726 18.384 12.7064 19.6824 16.9577 20.2224C15.2227 20.6361 13.6256 20.6361 11.5574 20.4752C13.7405 21.8195 16.8543 22.3021 18.2561 22.4285C17.3139 22.8422 16.0845 23.0605 14.924 23.2213C16.9233 23.7154 19.3936 23.9452 22.8292 23.5545V23.566Z" fill="black"/>
<path id="Vector_3" fill-rule="evenodd" clip-rule="evenodd" d="M35.0672 14.7645C33.8263 13.5351 31.6776 11.8116 30.2988 10.9498C31.6432 11.2485 35.5383 11.9724 37.7444 10.2834C36.7907 10.3523 36.1473 10.18 35.1247 9.80078C36.1703 9.59396 38.2615 9.12286 39.5024 7.20401C38.7785 7.39934 38.4683 7.39934 37.8019 7.39934C38.8705 6.66398 39.3645 5.95159 39.6518 4.49234C39.445 4.56128 39.2841 4.59575 39.0543 4.63022C38.9279 2.76882 38.836 2.47008 38.227 0.941895C39.0888 1.5164 43.2827 5.59539 40.6744 10.18C40.1344 11.1336 39.2381 12.7767 35.0442 14.7645H35.0672Z" fill="black"/>
<path id="Vector_4" fill-rule="evenodd" clip-rule="evenodd" d="M38.1474 0.505565C40.7557 2.04524 43.4673 6.21616 41.3761 10.2492C40.2271 12.4668 38.63 13.8226 35.6426 15.3623C36.355 16.1436 37.3201 17.2697 38.021 18.4416C40.7787 16.4883 42.6516 14.1214 43.6052 10.525C44.3981 7.5605 43.3869 2.27504 37.9291 0C37.9751 0.103411 38.1244 0.436625 38.1474 0.505565Z" fill="black"/>
<path id="Vector_5" fill-rule="evenodd" clip-rule="evenodd" d="M31.1842 25.761C31.5404 25.3244 32.0804 25.0601 32.6779 25.0601C33.7465 25.0601 34.6197 25.9334 34.6197 27.002C34.6197 27.8982 33.9073 29.2081 32.2413 28.5991C32.3677 29.0702 33.781 30.2651 35.6653 29.3459C37.9059 28.2659 38.9745 23.9226 35.5734 18.8095C33.6201 15.8795 30.1501 11.1571 23.2445 6.31973C16.5917 1.66624 7.66391 -1.52802 0 1.50537C0.149372 1.55133 0.459605 1.70071 0.585996 1.76965C7.28474 0.20699 13.3056 2.12584 18.9817 6.1244C24.8876 10.2953 27.7946 15.6497 25.2668 17.5341C24.6003 18.0282 23.233 18.3384 21.9002 18.4188C22.5436 19.1772 23.1411 19.993 23.9914 21.4407C26.4847 25.7036 26.0251 28.7714 28.0129 32.3219C31.5404 38.63 34.7461 38.584 36.8603 37.8716C34.9759 37.1937 32.8388 36.5962 31.2301 32.3678C30.0696 29.323 30.2535 26.9215 31.1727 25.784L31.1842 25.761Z" fill="black"/>
<path id="Vector_6" fill-rule="evenodd" clip-rule="evenodd" d="M32.253 28.2768C32.7356 28.2079 33.1147 27.7942 33.1147 27.2887C33.1147 26.7371 32.6666 26.289 32.1151 26.289C31.7934 26.289 31.4946 26.4499 31.3223 26.6912C31.4487 26.0707 32.0002 25.5996 32.6551 25.5996C33.4135 25.5996 34.0224 26.2086 34.0224 26.9669C34.0224 27.7253 33.4135 28.3343 32.6551 28.3343C32.5172 28.3343 32.3794 28.3113 32.253 28.2768Z" fill="black"/>
<path id="Vector_7" fill-rule="evenodd" clip-rule="evenodd" d="M22.8424 41.0884L20.0618 49.6026H18.2578L21.0384 41.0884H22.8424Z" fill="black"/>
<path id="Vector_8" fill-rule="evenodd" clip-rule="evenodd" d="M40.7567 41.0884L37.9761 49.6026H36.1836L38.9642 41.0884H40.7567Z" fill="black"/>
<path id="Vector_9" fill-rule="evenodd" clip-rule="evenodd" d="M8.49219 49.5795L10.2961 44.0527H12.0886L10.6294 48.5109C11.1579 48.6143 13.7317 49.0394 14.7658 48.4879C15.0645 48.3271 15.2943 47.8445 15.3863 47.5687L16.5353 44.0527H18.3277L16.9604 48.2581C16.8685 48.5684 16.6272 49.3727 15.2943 49.6369C13.9615 49.9127 11.2153 49.7633 8.49219 49.568V49.5795Z" fill="black"/>
<path id="Vector_10" fill-rule="evenodd" clip-rule="evenodd" d="M12.5254 42.7315L13.0654 41.0884H14.8579L14.3179 42.7315H12.5254Z" fill="black"/>
<path id="Vector_11" fill-rule="evenodd" clip-rule="evenodd" d="M14.9961 42.7315L15.5246 41.0884H17.3286L16.7886 42.7315H14.9961Z" fill="black"/>
<path id="Vector_12" fill-rule="evenodd" clip-rule="evenodd" d="M5.71021 60.1276C4.80249 60.1276 4.89441 59.6795 5.05528 59.1969L5.74468 57.1057H9.37556L9.69728 56.1291H6.06641L6.90519 53.5553H10.8923L11.214 52.5786H5.20465L2.99854 59.3348C2.6998 60.2425 2.86066 61.1043 4.29693 61.1043H8.57125L8.89298 60.1276H5.71021Z" fill="black"/>
<path id="Vector_13" fill-rule="evenodd" clip-rule="evenodd" d="M29.7133 57.1288L28.4149 61.1044H26.6914L28.6217 55.187C29.0584 55.21 29.6559 55.4972 29.8972 55.9683C30.1499 55.8419 30.8508 55.4513 32.3101 55.2674L31.8849 56.5428C31.6551 56.5658 30.4602 56.6692 29.7018 57.1403L29.7133 57.1288Z" fill="black"/>
<path id="Vector_14" fill-rule="evenodd" clip-rule="evenodd" d="M11.6042 55.1873L9.67383 61.1047H11.3973L12.8451 56.681C13.006 56.5661 13.5575 56.2099 14.0975 56.2099C14.2814 56.2099 14.4652 56.2904 14.5456 56.4742C14.6146 56.6236 14.6261 56.8994 14.5456 57.1292L13.2358 61.1047H14.9938L16.4415 56.681C16.6024 56.5661 17.1539 56.2099 17.6939 56.2099C17.8778 56.2099 18.0616 56.2904 18.142 56.4742C18.211 56.6236 18.2225 56.8879 18.142 57.1292L16.8437 61.1047H18.5672C18.5672 61.1047 19.6702 57.7726 19.7392 57.5083C19.8196 57.2555 19.992 56.5432 19.8196 56.1065C19.4749 55.2448 18.7166 55.1643 18.2684 55.1643C17.2113 55.1643 16.453 55.6469 16.2002 55.8193C15.8785 55.3712 15.3614 55.1873 14.8329 55.1643C13.9137 55.1184 13.0519 55.578 12.7991 55.7618C12.5004 55.3827 12.0638 55.2218 11.6042 55.1758V55.1873Z" fill="black"/>
<path id="Vector_15" fill-rule="evenodd" clip-rule="evenodd" d="M43.2369 56.1984H41.5133L40.5022 59.3007C40.4218 59.542 40.3758 59.7948 40.3988 59.9326C40.4218 60.0475 40.5022 60.151 40.8009 60.1854C41.0652 60.2199 41.6972 60.1854 42.1108 60.105L41.8121 61.0242C41.5708 61.0817 40.8354 61.231 39.7439 61.1736C38.0663 61.1046 38.4225 60.0361 38.5029 59.7603L40.3988 53.9463H42.2487L41.8006 55.3021H43.5241L43.2254 56.1984H43.2369Z" fill="black"/>
<path id="Vector_16" fill-rule="evenodd" clip-rule="evenodd" d="M31.5745 46.1788C32.057 45.1906 32.9877 44.7195 33.6312 45.0412C34.2631 45.3515 34.2976 46.2592 33.838 47.3163C33.4014 48.3159 32.643 48.8789 31.8157 48.5802C31.1378 48.3389 31.0804 47.2014 31.5745 46.1673V46.1788ZM31.8043 49.6028C33.7461 49.6028 35.1019 48.8445 35.7339 47.5116C36.5841 45.7536 35.5845 44.4093 34.2057 44.0876C32.0455 43.582 30.4025 44.6506 29.782 45.7536C29.2534 46.6843 29.173 47.8908 30.0118 48.6032H28.4836C27.9666 48.6032 27.7253 48.5342 27.5874 48.4078C27.4495 48.2815 27.461 47.9597 27.5644 47.6725L29.7131 41.0771H27.9206L25.7719 47.661C25.68 47.9482 25.4502 48.6376 25.7605 49.0513C26.0707 49.4649 26.6567 49.6028 27.3346 49.6028H31.8157H31.8043Z" fill="black"/>
<path id="Vector_17" fill-rule="evenodd" clip-rule="evenodd" d="M35.8249 58.2202C33.8256 58.2777 33.389 58.99 33.2855 59.1509C33.1821 59.3118 33.0328 59.8633 33.4349 60.1161C33.9635 60.4378 35.124 59.9207 35.3308 59.7484L35.8364 58.2202H35.8249ZM36.5832 61.1847C35.7559 61.1502 35.3882 60.771 35.2848 60.6676C33.7222 61.4949 32.5272 61.1042 32.2859 61.0238C31.3322 60.7136 30.8381 59.5531 31.8837 58.4615C32.9638 57.324 35.7214 57.4044 36.0891 57.4044C36.0891 57.4044 36.2155 57.0252 36.2385 56.8874C36.2615 56.7495 36.3994 56.3014 35.4342 56.2094C34.2967 56.106 33.0443 56.4507 32.8144 56.5312L33.1821 55.3936C33.7222 55.2902 34.5495 55.1523 35.5031 55.1523C36.7671 55.1523 37.4679 55.2902 37.8471 55.8762C38.1229 56.3014 37.9965 56.8414 37.8816 57.1746L36.5717 61.1732L36.5832 61.1847Z" fill="black"/>
<path id="Vector_18" fill-rule="evenodd" clip-rule="evenodd" d="M24.4967 58.2202C22.4975 58.2777 22.0608 58.99 21.9574 59.1509C21.854 59.3118 21.7046 59.8633 22.1068 60.1161C22.6353 60.4378 23.7958 59.9207 24.0027 59.7484L24.5082 58.2202H24.4967ZM25.2551 61.1847C24.4278 61.1502 24.0601 60.771 23.9567 60.6676C22.394 61.4949 21.1991 61.1042 20.9578 61.0238C20.0041 60.7136 19.51 59.5531 20.5556 58.4615C21.6357 57.324 24.3933 57.4044 24.7495 57.4044C24.7495 57.4044 24.8759 57.0252 24.8989 56.8874C24.9219 56.7495 25.0598 56.3014 24.0946 56.2094C22.9456 56.106 21.7046 56.4507 21.4748 56.5312L21.8425 55.3936C22.3826 55.2902 23.2098 55.1523 24.1635 55.1523C25.4274 55.1523 26.1283 55.2902 26.5075 55.8762C26.7833 56.3014 26.6569 56.8414 26.542 57.1746L25.2321 61.1732L25.2551 61.1847Z" fill="black"/>
<path id="Vector_19" fill-rule="evenodd" clip-rule="evenodd" d="M21.9813 51.3152C20.9357 51.7403 18.293 51.6369 17.9023 51.6369L18.2356 50.6373C18.3619 50.6373 19.2697 50.6488 19.8901 50.6028C21.2115 50.4994 21.5677 50.3156 21.9813 49.0287L23.6014 44.0649H25.3939L23.7738 49.0287C23.6244 49.4998 23.2797 50.7867 21.9813 51.3152Z" fill="black"/>
</g>
</svg>
