<svg width="100" height="16" viewBox="0 0 100 16" fill="none" xmlns="http://www.w3.org/2000/svg">
<g id="Group 3637">
<g id="Group">
<path id="Vector" d="M11.7756 6.98207L10.9318 0.0244141H4.48777L3.6685 6.99429C3.46063 8.97521 4.29212 9.51323 5.58827 10.1124C6.54205 10.5526 7.36131 10.9317 7.36131 12.6313V15.1625H8.08276V12.6313C8.08276 10.9317 8.90202 10.5526 9.8558 10.1124C11.1153 9.53769 11.9834 8.97521 11.7756 6.98207ZM7.72815 9.72111C6.22412 9.72111 5.13584 9.1464 4.74455 8.54723C4.49999 8.16817 4.4144 7.61791 4.49999 6.89647L4.56113 6.43181H10.8952L10.9563 6.89647C11.0541 7.63014 10.9563 8.16817 10.7117 8.54723C10.3205 9.15862 9.23218 9.72111 7.72815 9.72111Z" fill="black"/>
<path id="Vector_2" d="M6.66418 12.6313C6.66418 11.3719 6.21175 11.164 5.30689 10.7482C4.20638 10.2469 2.70236 9.54992 2.9836 6.9087L3.77841 0.0244141H1.23501C0.562481 0.0244141 0 0.574668 0 1.25943V13.9275C0 14.6122 0.562481 15.1625 1.23501 15.1625H6.66418V12.6313Z" fill="black"/>
<path id="Vector_3" d="M14.2085 0.0244141H11.6284L12.4599 6.9087C12.7167 9.34204 11.5061 10.1124 10.1366 10.7482C9.23173 11.164 8.7793 11.3719 8.7793 12.6313V15.1625H14.2085C14.8932 15.1625 15.4435 14.6 15.4435 13.9275V1.25943C15.4435 0.574668 14.881 0.0244141 14.2085 0.0244141Z" fill="black"/>
</g>
<g id="Group_2">
<path id="Vector_4" d="M62.7283 7.97217V7.11622C62.7283 4.24267 61.1143 2.81201 58.6809 2.81201H58.632C54.9025 2.83647 54.5234 6.13799 54.5234 7.17736C54.5234 10.6378 56.2965 11.8484 58.632 11.9095C58.7054 11.9095 58.7665 11.9218 58.8276 11.9218C60.3072 11.9218 62.0436 11.2126 62.6305 9.13381H60.295C60.1238 9.75744 59.3779 10.0876 58.8276 10.0876H58.632C56.9935 9.97754 56.859 8.60802 56.859 7.97217H62.7283ZM58.632 4.67065H58.6442C59.3657 4.67065 60.2705 5.09862 60.405 6.4926H56.859C56.9935 5.36763 57.5682 4.67065 58.632 4.67065Z" fill="black"/>
<path id="Vector_5" d="M54.0341 0H51.7598V11.7143H54.0341V0Z" fill="black"/>
<path id="Vector_6" d="M47.6371 2.81201C47.3925 2.81201 47.1724 2.82424 46.9768 2.86092C45.9129 3.05657 45.4238 3.7291 45.057 4.29158H45.0325V3.0688H42.8438V15.1744H45.1181V10.5767H45.167C45.3994 10.9924 45.8396 11.6894 46.989 11.8729C47.1724 11.8973 47.3803 11.934 47.6126 11.934C50.1805 11.934 51.2687 9.67184 51.2687 7.31186C51.2687 4.31604 49.5691 2.82424 47.6493 2.82424M46.989 10.0631H46.9279C45.4605 10.0631 45.0448 8.46128 45.0448 7.43414C45.0448 6.06462 45.5461 4.7807 46.989 4.7807C48.5419 4.7807 48.9332 6.17467 48.9332 7.56865C48.9332 8.84035 48.383 10.0142 46.989 10.0631Z" fill="black"/>
<path id="Vector_7" d="M29.834 3.05708V11.7022H32.1084V6.37083C32.1084 5.45374 32.4507 4.70784 33.5268 4.70784C34.6762 4.70784 34.8963 5.74721 34.8963 6.48088V11.7022H37.1585V6.49311C37.1585 5.46597 37.5742 4.70784 38.7236 4.70784C39.3717 4.70784 39.9464 5.13581 39.9464 6.41974V11.7022H42.2086V5.68607C42.2086 3.80298 40.9124 2.80029 39.2128 2.80029C37.831 2.80029 37.1952 3.75407 36.9261 4.16981C36.3148 3.26495 35.7523 2.80029 34.505 2.80029C32.9765 2.80029 32.3529 3.71738 32.0717 4.27986H32.035V3.04485H29.8462L29.834 3.05708Z" fill="black"/>
<path id="Vector_8" d="M32.0105 0H29.834V2.10319H32.0105V0Z" fill="black"/>
<path id="Vector_9" d="M28.9906 5.67384C28.8194 3.22827 26.8018 2.80029 25.1143 2.80029C22.4242 2.80029 21.6294 4.4266 21.6294 5.6983C21.6294 8.93868 26.9974 7.8504 26.9974 9.29329C26.9974 9.61121 26.7284 10.1981 25.5423 10.1981C24.1117 10.1981 23.6715 9.64789 23.6715 8.91422H21.3359C21.3359 11.2253 23.5247 11.91 25.4812 11.91C26.8385 11.91 29.2596 11.4576 29.2596 8.93868C29.2596 5.73498 23.8549 6.74989 23.8549 5.38037C23.8549 5.00131 24.0138 4.53665 25.2489 4.53665C26.4839 4.53665 26.6917 5.12359 26.7773 5.67384H29.0028H28.9906Z" fill="black"/>
</g>
<g id="Group_3">
<path id="Vector_10" d="M79.4822 0H77.3301V2.05428H79.4822V0Z" fill="black"/>
<path id="Vector_11" d="M90.1187 5.73487C90.1187 4.43872 90.0086 2.86133 87.294 2.86133C85.8511 2.86133 84.934 3.64391 84.3104 4.10857V3.04475H80.8744V4.16971H82.195V10.626H79.4682V3.05697H73.3298V4.16971H74.4303L72.8285 9.35432L70.6275 3.08143H69.1968L67.008 9.35432L65.6874 4.16971H66.8246V3.05697H62.5938V4.16971H63.4986L65.614 11.7265H67.3993L69.4414 6.33404L71.4345 11.7265H73.1708L75.8121 4.18194H77.2794V10.6382H75.8365V11.7143H85.5821V10.6382H84.3104V5.06234C84.7506 4.85447 85.6922 4.46318 86.5114 4.46318C87.8321 4.46318 87.9054 5.20908 87.9054 6.37072V10.6382H86.9883V11.7143H91.4026V10.6382H90.0698V5.73487H90.1187Z" fill="black"/>
<path id="Vector_12" d="M99.0184 6.99432C99.0184 4.9645 97.979 2.87354 95.3134 2.87354C92.8067 2.87354 91.0703 4.68326 91.0703 7.52012C91.0703 10.357 93.0635 11.8977 95.6558 11.8977C97.172 11.8977 98.2847 11.1273 98.835 10.5282L98.2725 9.45212C97.7223 9.84342 96.9152 10.2103 96.0471 10.2103C94.5308 10.2103 93.4058 9.62331 93.3202 7.6424H99.0184V6.99432ZM93.2713 6.57858C93.3202 5.1846 93.8705 4.07187 95.1177 4.07187C96.4383 4.07187 96.7318 5.11123 96.7318 6.57858H93.2713Z" fill="black"/>
</g>
</g>
</svg>
