<svg width="80" height="29" viewBox="0 0 80 29" fill="none" xmlns="http://www.w3.org/2000/svg">
<g id="Group 3621">
<path id="Vector" d="M23.1872 3.72246H4.12584L5.50112 0H24.5625L23.1872 3.72246ZM22.4996 5.5837H3.4382L2.06292 9.30616H21.1243L22.4996 5.5837ZM20.4367 11.1538H1.37528L0 14.8763H19.0339L20.4367 11.1538Z" fill="black"/>
<path id="Vector_2" d="M68.5843 24.2366H72.0225C73.0127 24.3588 74.0029 23.9784 74.6493 23.2312C75.1169 22.6199 75.3507 21.8727 75.3232 21.0983C75.392 20.1065 74.9519 19.1555 74.1542 18.5578C73.5216 18.1502 72.7652 17.96 71.995 18.0144H68.5981V24.2366H68.5843ZM64.0734 27.9862V5.59708H78.8164L77.5237 9.34672H68.5706V14.3055H72.2151C75.1582 14.3055 76.6847 14.9983 77.7437 15.895C79.2703 17.2264 80.0954 19.1827 79.9854 21.207C80.1092 23.3807 79.1052 25.4729 77.3174 26.7499C75.9008 27.7145 74.4155 27.9862 71.4037 27.9862H64.0734ZM51.022 27.9862V9.33313H44.4619V5.5835H62.6569L61.3641 9.33313H55.5604V27.9726H51.0083L51.022 27.9862ZM32.8546 14.5636H35.4264C35.949 14.6044 36.4853 14.5636 36.9942 14.4413C38.0944 14.0881 38.8095 13.042 38.7133 11.9008C38.8646 10.7596 38.1219 9.69994 36.9942 9.41465C36.4303 9.29237 35.8527 9.23803 35.2751 9.2652H32.8408V14.5636H32.8546ZM32.8546 18.4355V24.3045H35.9902C36.8566 24.3996 37.7231 24.1686 38.4245 23.6388C39.0708 23.041 39.4147 22.1987 39.3734 21.3293C39.3734 20.65 39.1809 19.9707 38.7683 19.4137C38.0944 18.5714 37.2692 18.4083 35.8664 18.4083H32.8546V18.4355ZM40.1161 16.0716V16.1531C40.8862 16.4384 41.6014 16.846 42.234 17.3622C43.5405 18.4355 44.2557 20.0658 44.1594 21.7504C44.1594 24.8072 42.509 27.0216 39.8135 27.6873C38.7408 27.9455 37.6268 28.0541 36.5128 27.9998H28.3574V5.59708H35.6189C36.7741 5.55632 37.9294 5.66501 39.0571 5.90955C41.6839 6.60242 43.403 8.39572 43.403 11.2215C43.4442 12.5801 42.9216 13.8979 41.9589 14.8625C41.4501 15.3787 40.845 15.7727 40.1711 16.058H40.1298L40.1161 16.0716Z" fill="black"/>
</g>
</svg>
