<svg width="81" height="35" viewBox="0 0 81 35" fill="none" xmlns="http://www.w3.org/2000/svg">
<g id="Group 3603">
<path id="Vector" d="M80.502 0H0V21.5758H80.502V0Z" fill="#10447F"/>
<g id="Group">
<path id="Vector_2" d="M72.3587 14.2254C72.3361 14.3724 72.2795 14.7682 71.7707 14.8247H67.2814C66.7725 14.7682 66.6707 14.3837 66.6594 14.2254V7.28223C66.682 7.13523 66.7499 6.8186 67.2587 6.76206H71.782C72.2908 6.80729 72.3474 7.13523 72.37 7.28223V14.2254H72.3587ZM73.9192 4.1499H65.0989C63.7759 4.25167 62.6564 4.93016 62.5094 6.43413V15.0282C62.6564 16.5322 63.7759 17.3238 65.0989 17.4369H73.9192C75.2422 17.3351 76.3617 16.5322 76.5087 15.0282V6.43413C76.3617 4.93016 75.2422 4.26298 73.9192 4.1499ZM38.231 6.76206H34.2845V4.1499H46.3162V6.76206H42.3697V17.4255H38.2197V6.76206H38.231ZM33.0406 6.76206V4.1499H22.2527V17.4255H33.1876V14.8134H26.4141V11.9638H33.0406V9.3516H26.4141V6.75075H33.0406V6.76206ZM57.1041 8.82013C57.1041 9.10283 57.0363 9.36291 56.5161 9.36291H51.7102V6.76206H56.5274C57.1154 6.76206 57.1041 7.14653 57.1041 7.384V8.83143V8.82013ZM58.2575 12.2691C59.5467 12.1673 60.8471 11.2853 60.8471 9.83785V6.55852C60.7001 5.06585 59.5806 4.25167 58.2462 4.1499H47.5714V17.4369H51.7215V12.2691H53.3725L56.0638 17.4369H60.8358L57.6243 12.2691H58.2575ZM13.6586 17.4255L16.4404 9.09152V17.4255H20.5904V4.1499H14.993L12.2903 10.7877L9.59902 4.1499H3.99023V17.4255H8.14029V9.09152L10.9447 17.4255H13.6699H13.6586Z" fill="#FFE401"/>
<path id="Vector_3" d="M17.9108 28.4848H16.7121V28.1456C16.7121 27.8063 16.6217 27.5802 16.4407 27.4897C16.2937 27.4105 15.9432 27.3766 15.3891 27.3766C14.7785 27.3766 14.394 27.4671 14.2244 27.6367C14.0547 27.8063 13.9756 28.1908 13.9756 28.8014V30.181C13.9756 30.8143 14.0547 31.2213 14.2131 31.4023C14.3827 31.5832 14.7671 31.6737 15.3891 31.6737C15.9319 31.6737 16.2824 31.6284 16.452 31.5493C16.6782 31.4249 16.78 31.1648 16.78 30.7464V30.4072H17.9786V30.8143C17.9786 31.4136 17.8656 31.8433 17.6507 32.126C17.4698 32.3748 17.1645 32.5331 16.7574 32.6009C16.5538 32.6349 16.1015 32.6688 15.3891 32.7027C14.3374 32.7479 13.625 32.5783 13.2519 32.1825C12.9352 31.8433 12.7656 31.1987 12.7656 30.2375V28.8014C12.7656 27.8402 12.9692 27.1844 13.3876 26.8338C13.7607 26.5172 14.4279 26.3589 15.3891 26.3589C16.3503 26.3589 16.9383 26.438 17.2323 26.585C17.6846 26.8225 17.9108 27.3427 17.9108 28.1569V28.4961V28.4848Z" fill="#10447F"/>
<path id="Vector_4" d="M21.574 32.6347L21.6193 32.0807H21.5967C21.5062 32.3407 21.314 32.5104 21.0313 32.6008C20.8503 32.6574 20.5902 32.68 20.2397 32.68C19.6856 32.68 19.2898 32.6008 19.0523 32.4312C18.7583 32.2164 18.6113 31.8432 18.6113 31.2891C18.6113 30.7802 18.747 30.4297 19.0184 30.2261C19.2672 30.0452 19.6743 29.9547 20.2397 29.9547C20.5902 29.9547 20.839 29.9774 20.9973 30.0226C21.2574 30.0904 21.4383 30.2374 21.5514 30.4523H21.5853V29.8869C21.5853 29.5024 21.5401 29.2536 21.4383 29.1519C21.3253 29.0049 21.0539 28.937 20.6468 28.937C20.3641 28.937 20.1718 28.9709 20.0588 29.0275C19.9004 29.1179 19.8213 29.2876 19.8213 29.5477H18.7696C18.7696 28.9822 18.9619 28.5978 19.335 28.4055C19.5838 28.2812 20.0135 28.2246 20.6468 28.2246C21.3931 28.2246 21.902 28.3264 22.1621 28.5186C22.4674 28.7448 22.6257 29.2084 22.6257 29.9095V32.6461H21.574V32.6347ZM20.6129 30.6671C20.2736 30.6671 20.0474 30.6898 19.9344 30.7463C19.7421 30.8368 19.6517 31.0177 19.6517 31.3004C19.6517 31.5944 19.7195 31.7866 19.8665 31.8658C19.9796 31.9336 20.2284 31.9789 20.6129 31.9789C20.9408 31.9789 21.1783 31.945 21.3026 31.8771C21.4836 31.7753 21.574 31.5831 21.574 31.3004C21.574 31.0177 21.4723 30.8481 21.28 30.7576C21.1556 30.7011 20.9295 30.6785 20.6015 30.6785" fill="#10447F"/>
<path id="Vector_5" d="M27.3748 29.4571H26.3231C26.3231 29.2196 26.2553 29.0613 26.1196 29.0048C26.0291 28.9596 25.8255 28.9369 25.4976 28.9369C25.1584 28.9369 24.9322 28.9596 24.8191 29.0161C24.6495 29.0839 24.559 29.2536 24.559 29.5137C24.559 29.7285 24.6156 29.8529 24.7287 29.9094C24.8304 29.9547 25.1131 29.9886 25.5881 30.0112C26.3005 30.0451 26.7641 30.1017 26.9564 30.1921C27.3408 30.3731 27.5331 30.7688 27.5331 31.4021C27.5331 31.9449 27.3295 32.3067 26.9224 32.4877C26.6284 32.6234 26.1535 32.6912 25.4863 32.6912C24.7626 32.6912 24.2763 32.6347 24.0502 32.5216C23.6883 32.3294 23.4961 31.9223 23.4961 31.2777H24.5477C24.5477 31.583 24.6156 31.7866 24.7174 31.8657C24.8304 31.9449 25.0905 31.9788 25.4863 31.9788C25.8821 31.9788 26.1083 31.9562 26.2213 31.911C26.391 31.8431 26.4814 31.6622 26.4814 31.3908C26.4814 31.1646 26.4362 31.0289 26.3457 30.9611C26.21 30.8593 25.8934 30.8141 25.4072 30.8028C24.6043 30.8028 24.0954 30.701 23.858 30.5427C23.6205 30.3731 23.5074 30.0112 23.5074 29.4571C23.5074 28.903 23.6996 28.5638 24.0841 28.3942C24.3216 28.2924 24.7965 28.2358 25.4976 28.2358C26.0856 28.2358 26.5153 28.2924 26.7641 28.3942C27.1712 28.5751 27.3861 28.9369 27.3861 29.4797" fill="#10447F"/>
<path id="Vector_6" d="M29.3548 26.3926V28.9256H29.3887C29.4905 28.6316 29.6714 28.4393 29.9315 28.3376C30.1237 28.2584 30.3951 28.2245 30.7683 28.2245C31.3337 28.2245 31.7182 28.3489 31.9443 28.5863C32.1592 28.8238 32.261 29.2083 32.261 29.7624V32.6459H31.2093V29.8755C31.2093 29.5475 31.1528 29.3214 31.0397 29.2083C30.9379 29.0839 30.7118 29.0274 30.3951 29.0274C29.9654 29.0274 29.6827 29.1291 29.5357 29.344C29.4226 29.5136 29.3661 29.8076 29.3661 30.2373V32.6459H28.3145V26.4039H29.3661L29.3548 26.3926Z" fill="#10447F"/>
<path id="Vector_7" d="M41.5565 32.6349L40.8101 31.9904C40.6405 32.2844 40.3465 32.4879 39.9394 32.5897C39.6906 32.6462 39.2948 32.6802 38.7521 32.6802C37.8248 32.6802 37.1916 32.5784 36.8636 32.3862C36.4 32.1148 36.1738 31.572 36.1738 30.7352C36.1738 30.2037 36.2417 29.8079 36.3774 29.5704C36.5583 29.2538 36.8862 29.0729 37.3612 29.039C37.1463 28.858 37.0106 28.6997 36.9315 28.5527C36.8636 28.4057 36.8297 28.2022 36.8297 27.9308C36.8297 27.2862 36.9993 26.8452 37.3499 26.6191C37.6326 26.4381 38.1188 26.3477 38.8425 26.3477C39.6454 26.3477 40.1656 26.472 40.403 26.7095C40.6518 26.947 40.7649 27.4785 40.7649 28.3039H39.7359C39.7359 27.8629 39.6906 27.5915 39.6002 27.4898C39.5097 27.388 39.2496 27.3315 38.8312 27.3315C38.5033 27.3315 38.2771 27.3541 38.1754 27.4106C38.0283 27.4898 37.9492 27.6707 37.9492 27.9421C37.9492 28.1117 37.9831 28.2587 38.0397 28.3718C38.0849 28.451 38.1867 28.564 38.3337 28.6884L40.3126 30.4072V29.5704H41.3416V30.0002C41.3416 30.5429 41.2964 30.9274 41.2172 31.1762L42.1106 31.9564L41.5452 32.6462L41.5565 32.6349ZM40.0412 31.3232L37.9944 29.5931C37.6778 29.6383 37.4743 29.7627 37.3951 29.9323C37.3386 30.0567 37.3046 30.3281 37.3046 30.7352C37.3046 31.1875 37.4177 31.4702 37.6326 31.5946C37.7796 31.6624 38.1527 31.7077 38.7521 31.7077C39.1139 31.7077 39.374 31.6964 39.521 31.6624C39.7472 31.6172 39.9168 31.5041 40.0412 31.3345" fill="#10447F"/>
<path id="Vector_8" d="M50.569 28.4848H49.3703V28.1456C49.3703 27.8063 49.2799 27.5802 49.0989 27.4897C48.9519 27.4105 48.6014 27.3766 48.036 27.3766C47.4254 27.3766 47.0409 27.4671 46.8713 27.6367C46.7016 27.8063 46.6225 28.1908 46.6225 28.8014V30.181C46.6225 30.8143 46.7016 31.2213 46.86 31.4023C47.0296 31.5832 47.414 31.6737 48.036 31.6737C48.5788 31.6737 48.9293 31.6284 49.0989 31.5493C49.3251 31.4249 49.4269 31.1648 49.4269 30.7464V30.4072H50.6255V30.8143C50.6255 31.4136 50.5125 31.8433 50.2976 32.126C50.1167 32.3748 49.8114 32.5331 49.4043 32.6009C49.2007 32.6349 48.7484 32.6688 48.036 32.7027C46.9843 32.7479 46.2719 32.5783 45.9101 32.1825C45.5934 31.8433 45.4238 31.1987 45.4238 30.2375V28.8014C45.4238 27.8402 45.6274 27.1844 46.0458 26.8338C46.4189 26.5172 47.0861 26.3589 48.0473 26.3589C49.0085 26.3589 49.5965 26.438 49.8905 26.585C50.3428 26.8225 50.569 27.3427 50.569 28.1569V28.4961V28.4848Z" fill="#10447F"/>
<path id="Vector_9" d="M54.244 32.6347L54.2892 32.0807H54.2666C54.1761 32.3407 53.9839 32.5104 53.7012 32.6008C53.5202 32.6574 53.2602 32.68 52.9096 32.68C52.3555 32.68 51.9597 32.6008 51.7223 32.4312C51.4283 32.2164 51.2812 31.8432 51.2812 31.2891C51.2812 30.7802 51.4169 30.4297 51.6883 30.2261C51.9371 30.0452 52.3442 29.9547 52.9096 29.9547C53.2602 29.9547 53.5089 29.9774 53.6672 30.0226C53.9273 30.0904 54.1083 30.2374 54.2213 30.4523H54.2553V29.8869C54.2553 29.5024 54.21 29.2536 54.1083 29.1519C53.9952 29.0049 53.7238 28.937 53.3167 28.937C53.034 28.937 52.8418 28.9709 52.7287 29.0275C52.5704 29.1179 52.4912 29.2876 52.4912 29.5477H51.4396C51.4396 28.9822 51.6318 28.5978 52.005 28.4055C52.2424 28.2812 52.6835 28.2246 53.3167 28.2246C54.063 28.2246 54.5719 28.3264 54.832 28.5186C55.1373 28.7448 55.2956 29.2084 55.2956 29.9095V32.6461H54.244V32.6347ZM53.2828 30.6671C52.9435 30.6671 52.7174 30.6898 52.6043 30.7463C52.4121 30.8368 52.3216 31.0177 52.3216 31.3004C52.3216 31.5944 52.3894 31.7866 52.5364 31.8658C52.6495 31.9336 52.8983 31.9789 53.2828 31.9789C53.6107 31.9789 53.8482 31.945 53.9726 31.8771C54.1535 31.7753 54.244 31.5831 54.244 31.3004C54.244 31.0177 54.1422 30.8481 53.9499 30.7576C53.8256 30.7011 53.5994 30.6785 53.2715 30.6785" fill="#10447F"/>
<path id="Vector_10" d="M56.2559 28.2698H57.2736L57.251 28.8466H57.2962C57.4771 28.4282 57.8616 28.2246 58.4609 28.2246C58.8906 28.2246 59.2073 28.349 59.3882 28.5978C59.5352 28.8126 59.6144 29.1519 59.6144 29.5929V29.9434H58.6305V29.7173C58.6305 29.4685 58.6079 29.2989 58.5514 29.1971C58.4835 29.0727 58.3252 29.0162 58.0991 29.0162C57.8051 29.0162 57.5902 29.0953 57.4658 29.2649C57.364 29.412 57.3075 29.6381 57.3075 29.9434V32.6461H56.2559V28.2812V28.2698Z" fill="#10447F"/>
<path id="Vector_11" d="M60.1797 28.2698H61.2087L61.1861 28.8466H61.2313C61.4123 28.4282 61.7967 28.2246 62.3961 28.2246C62.8258 28.2246 63.1424 28.349 63.3233 28.5978C63.4703 28.8126 63.5495 29.1519 63.5495 29.5929V29.9434H62.5657V29.7173C62.5657 29.4685 62.5431 29.2989 62.4865 29.1971C62.4187 29.0727 62.2604 29.0162 62.0342 29.0162C61.7402 29.0162 61.5253 29.0953 61.401 29.2649C61.2992 29.412 61.2426 29.6381 61.2426 29.9434V32.6461H60.191V28.2812L60.1797 28.2698Z" fill="#10447F"/>
<path id="Vector_12" d="M67.7333 28.27L66.6025 32.8159C66.4442 33.4378 66.2972 33.8562 66.1389 34.071C65.8901 34.4103 65.4943 34.5799 64.9402 34.5799C64.8837 34.5799 64.8045 34.5799 64.7141 34.5686C64.601 34.5686 64.5218 34.546 64.4879 34.546V33.7544C64.6349 33.7657 64.7141 33.777 64.7141 33.777C65.0081 33.777 65.2116 33.6526 65.3586 33.3926C65.4265 33.2569 65.5056 32.9968 65.5622 32.6349H65.0533L63.6172 28.27H64.7028L65.811 31.9904H65.8336L66.6817 28.27H67.7446H67.7333Z" fill="#10447F"/>
</g>
</g>
</svg>
