<svg width="69" height="25" viewBox="0 0 69 25" fill="none" xmlns="http://www.w3.org/2000/svg">
<g id="Group 3589">
<g id="Group">
<path id="Vector" d="M9.32 5.47998C4.17 5.47998 0 9.64998 0 14.8C0 19.95 4.17 24.12 9.32 24.12C14.47 24.12 18.64 19.95 18.64 14.8C18.64 9.64998 14.47 5.47998 9.32 5.47998ZM9.32 19.98C6.46 19.98 4.14 17.66 4.14 14.8C4.14 11.94 6.46 9.61998 9.32 9.61998C12.18 9.61998 14.5 11.94 14.5 14.8C14.5 17.66 12.18 19.98 9.32 19.98Z" fill="#1D132C"/>
<path id="Vector_2" d="M11.4404 2.19C11.4404 3.4 10.4904 4.38 9.32039 4.38C8.15039 4.38 7.20039 3.4 7.20039 2.19C7.20039 0.98 8.15039 0 9.32039 0C10.4904 0 11.4404 0.98 11.4404 2.19ZM16.9904 2.19C16.9904 3.4 16.0404 4.38 14.8704 4.38C13.7004 4.38 12.7504 3.4 12.7504 2.19C12.7504 0.98 13.7004 0 14.8704 0C16.0404 0 16.9904 0.98 16.9904 2.19ZM3.77039 4.39C2.60039 4.39 1.65039 3.41 1.65039 2.2C1.65039 0.99 2.60039 0 3.77039 0C4.94039 0 5.89039 0.98 5.89039 2.19C5.89039 3.4 4.94039 4.38 3.77039 4.38V4.39Z" fill="#1D132C"/>
</g>
<path id="Vector_3" d="M59.2106 5.47998C54.0606 5.47998 49.8906 9.64998 49.8906 14.8C49.8906 19.95 54.0606 24.12 59.2106 24.12C64.3606 24.12 68.5306 19.95 68.5306 14.8C68.5306 9.64998 64.3606 5.47998 59.2106 5.47998ZM59.2106 19.98C56.3506 19.98 54.0306 17.66 54.0306 14.8C54.0306 11.94 56.3506 9.61998 59.2106 9.61998C62.0706 9.61998 64.3906 11.94 64.3906 14.8C64.3906 17.66 62.0706 19.98 59.2106 19.98Z" fill="#1D132C"/>
<path id="Vector_4" d="M27.5705 15.8199L34.8805 24.1199H29.4505L25.1005 19.4699L23.9905 21.1099V24.1199H19.7305V19.7799V13.4899V7.10992V0.169922H23.9905V11.8399V13.5099L24.6305 12.5599L29.5305 5.47992H34.4005L27.5705 15.8199Z" fill="#1D132C"/>
<path id="Vector_5" d="M44.0199 15.8199L51.3299 24.1199H45.8899L41.5499 19.4699L40.4299 21.1099V24.1199H36.1699V19.7799V13.4899V7.10992V0.169922H40.4299V11.8399V13.5099L41.0799 12.5599L45.9699 5.47992H50.8499L44.0199 15.8199Z" fill="#1D132C"/>
</g>
</svg>
