<svg width="94" height="20" viewBox="0 0 94 20" fill="none" xmlns="http://www.w3.org/2000/svg">
<g id="Group 3643">
<path id="Vector" d="M10.6851 3.15689L9.50199 3.76077C9.37875 3.8224 9.23086 3.7731 9.16924 3.66218L7.7766 0.975496C7.71498 0.852253 7.76427 0.704362 7.87519 0.642741L9.07064 0.0265287C9.19389 -0.0350925 9.34178 0.0142045 9.4034 0.137447L10.796 2.82413C10.8577 2.94737 10.8084 3.09527 10.6974 3.15689M6.37163 16.7382C6.5072 16.4671 6.61812 16.085 6.63044 15.7892C6.63044 15.7892 6.79066 13.9776 6.80298 13.3737C6.80298 12.967 6.43326 12.018 6.24839 11.562C5.86634 10.6747 5.11456 10.5514 3.98073 10.0338C3.38917 9.76268 1.92258 9.23274 1.92258 9.23274C1.63912 9.12182 1.54053 8.85069 1.65145 8.56723C1.76237 8.28377 2.10745 8.18518 2.3909 8.27145C3.19198 8.54258 3.93143 8.87534 5.2871 9.39295C6.17445 9.72571 6.56882 9.50387 7.17271 9.17112C7.59173 8.93696 8.03541 8.77674 8.134 8.02496C8.19562 7.58129 8.45443 5.4492 8.5407 4.80834C8.5407 4.78369 8.52838 4.75904 8.50373 4.74671C8.0847 4.67277 7.66568 4.6358 7.22201 4.6358C3.22895 4.66044 0 7.87707 0 11.8701C0 15.173 2.23069 17.9583 5.26245 18.8087C5.31175 18.8087 5.36105 18.8087 5.37337 18.7594L6.34699 16.7382H6.37163ZM14.4194 12.1782C14.2592 15.9248 11.2027 18.9566 7.45617 19.0798C7.17271 19.0798 6.87693 19.0798 6.6058 19.0552C6.54417 19.0552 6.51953 18.9935 6.54417 18.9442L7.55476 17.1449C7.70265 16.8861 7.81357 16.615 7.83822 16.3192C7.88752 15.9248 8.03541 14.7663 8.03541 14.7663C8.06006 14.4705 8.20795 14.1501 8.4914 14.0515L8.9967 13.916C9.28016 13.8174 9.51432 13.916 9.64988 14.1871C9.74848 14.3596 10.0073 14.8896 10.1182 15.1114C10.1922 15.247 10.1675 15.3825 10.0936 15.4688C9.72383 15.8878 9.48967 16.1343 9.16924 16.504C8.95973 16.7505 8.78719 17.1079 9.14459 17.416C9.48967 17.7241 9.82242 17.3914 10.0319 17.1942C10.3031 16.9354 10.7098 16.4301 10.9686 16.1343C11.1904 15.8755 11.326 15.6906 11.3506 15.3702C11.363 15.2346 11.3506 15.0991 11.3013 14.9635C11.2027 14.6554 10.4386 12.8314 9.89637 11.4018C9.44037 10.1571 9.20621 8.87534 9.34178 7.55664L9.58826 5.15341C9.58826 5.15341 9.62524 5.10412 9.64988 5.10412C12.5091 6.13935 14.5303 8.93696 14.3947 12.1906M4.58462 7.35945C4.51067 6.59535 5.06526 5.92984 5.82937 5.84357C6.59347 5.76963 7.2713 6.32422 7.34525 7.08832C7.4192 7.85242 6.8646 8.53026 6.1005 8.6042C5.3364 8.67815 4.65856 8.12356 4.58462 7.35945ZM6.03888 8.22215C5.71845 8.25912 5.41034 8.13588 5.18851 7.91405C5.16386 7.8894 5.18851 7.86475 5.21316 7.86475C5.37337 7.90172 5.53359 7.91404 5.6938 7.90172C6.26072 7.85242 6.71671 7.4827 6.9139 7.00205C6.9139 6.9774 6.9632 6.9774 6.9632 7.00205C7.06179 7.60594 6.63044 8.16053 6.02656 8.22215" fill="black"/>
<path id="Vector_2" d="M88.6982 6.89062C85.8513 6.89062 83.5467 8.88715 83.5467 11.9312C83.5467 14.9753 85.839 16.9719 88.6982 16.9719C91.5575 16.9719 93.8498 14.9877 93.8498 11.9312C93.8498 8.87483 91.5575 6.89062 88.6982 6.89062ZM88.6982 14.3714C87.3302 14.3714 86.3443 13.4102 86.3443 11.9312C86.3443 10.4523 87.3302 9.49104 88.6982 9.49104C90.0662 9.49104 91.0522 10.4523 91.0522 11.9312C91.0522 13.4102 90.0662 14.3714 88.6982 14.3714ZM67.5745 6.89062C64.7276 6.89062 62.4229 8.88715 62.4229 11.9312C62.4229 14.9753 64.7153 16.9719 67.5745 16.9719C70.4337 16.9719 72.726 14.9877 72.726 11.9312C72.726 8.87483 70.4337 6.89062 67.5745 6.89062ZM67.5745 14.3714C66.2065 14.3714 65.2205 13.4102 65.2205 11.9312C65.2205 10.4523 66.2065 9.49104 67.5745 9.49104C68.9425 9.49104 69.9284 10.4523 69.9284 11.9312C69.9284 13.4102 68.9425 14.3714 67.5745 14.3714ZM52.5512 7.07549H59.9088V16.7993H57.1358V9.60196H54.9545L54.7326 12.9049C54.5478 14.9137 54.4861 16.7993 51.6516 16.7993H50.4191L50.7642 14.4331C52.3294 14.4331 52.1692 14.1126 52.5266 7.08781M43.9859 6.90295C41.139 6.90295 38.8343 8.89948 38.8343 11.9436C38.8343 14.9877 41.1266 16.9842 43.9859 16.9842C46.8451 16.9842 49.1374 15 49.1374 11.9436C49.1374 8.88715 46.8451 6.90295 43.9859 6.90295ZM43.9859 14.3838C42.6179 14.3838 41.6319 13.4225 41.6319 11.9436C41.6319 10.4647 42.6179 9.50336 43.9859 9.50336C45.3539 9.50336 46.3398 10.4647 46.3398 11.9436C46.3398 13.4225 45.3539 14.3838 43.9859 14.3838ZM21.5681 11.8203C21.5681 13.8908 22.9361 14.1373 24.4766 14.1373C25.3146 14.1373 26.2143 13.9771 26.9168 13.7922L26.9538 16.3803C26.0541 16.6884 24.9449 16.8733 23.8604 16.8733C21.0505 16.8733 18.6719 15.3944 18.6719 11.9066C18.6719 9.01039 20.5821 6.90295 23.8604 6.90295C24.9942 6.90295 26.202 7.12479 27.1633 7.6424L26.239 10.021C25.5981 9.79915 24.7231 9.62661 23.959 9.62661C22.3445 9.62661 21.5557 10.3661 21.5557 11.8203M29.1968 7.08781H37.6019L37.0843 9.61428H34.6441V16.8116H31.8711V9.61428H29.1845V7.08781H29.1968ZM82.4375 7.08781L81.9199 9.61428H79.4797V16.8116H76.6944V9.61428H74.2542L73.7489 7.08781H82.4375Z" fill="black"/>
</g>
</svg>
