<svg width="98" height="15" viewBox="0 0 98 15" fill="none" xmlns="http://www.w3.org/2000/svg">
<g id="Group 3605">
<path id="Vector" fill-rule="evenodd" clip-rule="evenodd" d="M0 2.44958L11.272 4.94896L17.607 2.31348L12.1257 8.66092L0 2.44958ZM55.2834 3.66215L57.9436 6.5946L62.7939 3.09299L56.7929 10.5664L55.271 3.66215H55.2834Z" fill="#CD2728"/>
<path id="Vector_2" fill-rule="evenodd" clip-rule="evenodd" d="M24.8334 8.92106C24.7096 9.20565 24.5859 9.45311 24.4745 9.66345C24.3632 9.84905 24.2394 10.0346 24.0786 10.245C23.9177 10.443 23.7321 10.6038 23.5342 10.7647C23.3238 10.9255 23.0887 11.074 22.8042 11.2101C22.5196 11.3462 22.2226 11.4452 21.9009 11.5194C21.5421 11.5937 21.1833 11.6308 20.8121 11.6184C20.2182 11.6184 19.7109 11.5318 19.3025 11.3586C18.8942 11.1854 18.5973 10.9503 18.3993 10.6533C18.1518 10.2697 18.0405 9.8243 18.0652 9.37887C18.0652 9.06954 18.1147 8.76021 18.2013 8.46325C18.2632 8.21579 18.3498 7.9807 18.4612 7.74561C18.5725 7.51052 18.6963 7.27543 18.8447 7.04034C19.1541 6.54541 19.6366 6.11235 20.2677 5.7659C20.8987 5.40708 21.7029 5.23385 22.6557 5.23385C23.3981 5.23385 23.9672 5.35759 24.3384 5.61742C24.7096 5.87726 24.9447 6.18659 25.0437 6.55779C25.0808 6.69389 25.0932 6.83 25.1056 6.94135C25.1056 7.07746 25.1056 7.22594 25.1056 7.36204C25.1056 7.44865 25.0932 7.52289 25.0808 7.60951C25.0685 7.68374 25.0561 7.75798 25.0561 7.80748H22.8784C22.9031 7.41153 22.8784 7.13932 22.767 6.9661C22.6681 6.80525 22.4701 6.71864 22.1979 6.71864C21.9999 6.71864 21.8019 6.75576 21.6163 6.83C21.5173 6.86712 21.4184 6.91661 21.3441 6.99085C21.2451 7.07746 21.1585 7.16407 21.0719 7.26306C20.8616 7.51052 20.7007 7.86934 20.577 8.31478C20.5027 8.56224 20.4656 8.8097 20.4409 9.05717C20.4161 9.34175 20.4533 9.56447 20.5522 9.72532C20.6883 9.98516 20.9234 10.1089 21.2575 10.1089C21.5916 10.1089 21.8638 10.0099 22.0494 9.81193C22.1608 9.70057 22.2597 9.57684 22.334 9.45311C22.433 9.30463 22.5196 9.13141 22.5938 8.92106H24.8457H24.8334ZM31.0447 11.4081H28.7804L29.993 6.95373H28.0628L26.8502 11.4081H24.5859L26.2068 5.45657H32.6656L31.0447 11.4081ZM39.743 8.42614C39.5822 9.03242 39.3347 9.55209 39.0007 9.97278C38.8398 10.1708 38.6666 10.3687 38.4686 10.5296C38.2706 10.6904 38.0727 10.8389 37.8499 10.975C37.4416 11.2101 37.0086 11.3833 36.5508 11.4823C36.3157 11.5318 36.1053 11.5689 35.9074 11.5937C35.697 11.6184 35.499 11.6308 35.2887 11.6308C34.8556 11.6308 34.4226 11.5689 34.0143 11.4576C33.6183 11.3338 33.2842 11.1482 33.012 10.8884C32.7398 10.6286 32.5666 10.2945 32.48 9.8738C32.4429 9.65108 32.4305 9.41599 32.4429 9.19327C32.4552 8.97056 32.5047 8.72309 32.579 8.42614C32.7398 7.83222 32.9873 7.32492 33.3214 6.87949C33.4822 6.68152 33.6554 6.49592 33.8534 6.32269C34.039 6.16184 34.2494 6.01337 34.4597 5.87726C34.67 5.7659 34.8804 5.66692 35.1031 5.5803C35.3258 5.49369 35.5362 5.43183 35.7589 5.38233C36.1672 5.28335 36.6003 5.23385 37.0209 5.23385C37.4293 5.23385 37.8376 5.28335 38.2211 5.38233C38.6047 5.48132 38.9388 5.64217 39.2357 5.88963C39.3842 6.01337 39.5079 6.16184 39.6069 6.32269C39.7059 6.48355 39.7802 6.66914 39.8297 6.89186C39.8791 7.10221 39.9039 7.36204 39.8791 7.64663C39.8544 7.91884 39.8049 8.17867 39.7307 8.43851L39.743 8.42614ZM37.4045 8.42614C37.4664 8.17867 37.5159 7.96833 37.5282 7.77036C37.553 7.42391 37.4911 7.16407 37.3426 6.99085C37.1942 6.81762 36.9467 6.73101 36.6126 6.73101C36.1919 6.73101 35.8455 6.86711 35.5609 7.1517C35.2887 7.43628 35.0784 7.85697 34.9175 8.42614C34.8556 8.63648 34.8185 8.8592 34.7938 9.09429C34.769 9.44074 34.8309 9.70057 34.967 9.8738C35.1031 10.047 35.3506 10.1336 35.6846 10.1336C36.1053 10.1336 36.4641 9.98516 36.7364 9.70057C37.0209 9.41599 37.2313 8.98293 37.3921 8.42614H37.4045ZM47.1298 8.37664C46.87 9.317 46.4741 10.0099 45.9173 10.4925C45.3605 10.9626 44.8408 11.272 44.3459 11.4081C43.8757 11.5318 43.4921 11.5813 43.1952 11.5813C42.824 11.5813 42.4775 11.5071 42.1434 11.371C41.9702 11.2967 41.8217 11.1977 41.6733 11.0864L41.0175 13.4744H38.7532L40.968 5.34521H43.1209L42.9972 5.7659C43.6158 5.35759 44.2716 5.14724 44.9769 5.14724C45.9173 5.14724 46.5854 5.4442 46.9566 6.05049C47.2164 6.4588 47.3154 6.95373 47.2659 7.53527C47.2412 7.81985 47.1917 8.10443 47.1175 8.37664H47.1298ZM44.7913 8.3519C44.8408 8.15392 44.8779 7.9807 44.8903 7.81985C44.9027 7.67137 44.8903 7.52289 44.8532 7.37441C44.8037 7.13932 44.7047 6.9661 44.5438 6.86711C44.383 6.76813 44.1974 6.70626 43.987 6.70626C43.8138 6.70626 43.653 6.74338 43.4921 6.80525C43.3313 6.86711 43.1704 6.9661 43.0219 7.08983C42.8487 7.22594 42.7126 7.39916 42.6136 7.59713C42.4033 7.99307 42.2672 8.43851 42.2177 8.88394C42.1929 9.13141 42.2177 9.35412 42.2919 9.53972C42.3414 9.6882 42.428 9.78718 42.5765 9.86142C42.7126 9.93566 42.8858 9.97278 43.1085 9.97278C43.5169 9.97278 43.8633 9.83668 44.1355 9.55209C44.4325 9.23039 44.6552 8.83445 44.7789 8.33952L44.7913 8.3519ZM53.6629 6.95373H51.6337L50.4211 11.4081H48.1568L49.3694 6.95373H47.3525L47.7609 5.45657H54.0712L53.6629 6.95373ZM68.09 11.1977H65.7886V10.8018C65.6154 10.9008 65.4669 10.9874 65.3184 11.0492C65.1576 11.1235 64.9843 11.173 64.7987 11.2101C64.3409 11.3091 63.9574 11.371 63.6357 11.371C63.1902 11.371 62.819 11.3215 62.5344 11.2225C62.2499 11.1235 62.0519 10.9874 61.9405 10.7894C61.7673 10.5296 61.6931 10.2079 61.7178 9.89854C61.7178 9.79956 61.7425 9.6882 61.7673 9.57684C61.8663 9.20565 62.0395 8.88394 62.2746 8.63648C62.5097 8.38902 62.8066 8.19104 63.116 8.05494C63.4129 7.91884 63.7346 7.81985 64.0563 7.77036C64.2172 7.74561 64.4028 7.70849 64.5884 7.68374C64.774 7.659 64.972 7.62188 65.1823 7.60951C65.3926 7.58476 65.5411 7.57239 65.6154 7.56001C65.8504 7.53527 66.0237 7.51052 66.135 7.48577C66.2835 7.46103 66.3825 7.42391 66.4444 7.38679C66.4939 7.34967 66.5434 7.2878 66.5681 7.20119L66.6052 7.06509C66.6052 7.06509 66.6176 6.97847 66.6176 6.95373C66.6423 6.65677 66.4196 6.49592 65.9742 6.49592C65.7762 6.49592 65.6277 6.50829 65.504 6.53304C65.3926 6.55779 65.2813 6.60728 65.1947 6.69389C65.1081 6.76813 65.0338 6.86711 64.972 6.9661C64.8977 7.1022 64.8482 7.23831 64.7987 7.37441H62.6087C62.6829 7.11458 62.7695 6.89186 62.8561 6.71864C62.9428 6.54541 63.0541 6.37219 63.1902 6.21134C63.3263 6.05049 63.4872 5.90201 63.6851 5.75353C63.9079 5.60505 64.143 5.46895 64.3904 5.36996C64.675 5.2586 64.972 5.17199 65.2689 5.13487C65.6277 5.073 65.9989 5.04826 66.3577 5.04826C66.7784 5.04826 67.1496 5.08538 67.459 5.13487C67.7683 5.19674 68.0158 5.28335 68.2137 5.40708C68.5973 5.65454 68.8076 5.93913 68.8695 6.2732C68.8819 6.42168 68.8819 6.55779 68.8695 6.70626C68.8571 6.90423 68.82 7.08983 68.7705 7.27543L68.0529 9.8243C68.0158 9.97278 67.9786 10.1089 67.9539 10.2202C67.9291 10.3069 67.9168 10.3935 67.9044 10.4925C67.9044 10.5172 67.9044 10.5419 67.9044 10.5667C67.9044 10.6162 67.9291 10.6657 67.9539 10.7028C67.9786 10.7399 68.0405 10.777 68.1395 10.8265L68.0405 11.1854L68.09 11.1977ZM66.1845 8.68597V8.63648L66.0237 8.6736C66.0113 8.6736 65.9123 8.69835 65.7391 8.72309C65.5659 8.76021 65.4174 8.78496 65.2937 8.79733C65.1576 8.8097 65.0091 8.84682 64.873 8.88394C64.7121 8.92106 64.576 8.97056 64.4399 9.02005C64.3533 9.05717 64.2791 9.10666 64.2296 9.16853C64.1801 9.23039 64.143 9.32938 64.1058 9.44074C64.1058 9.46548 64.0935 9.49023 64.0935 9.52735C64.0935 9.62633 64.1182 9.72532 64.1801 9.79956C64.2296 9.84905 64.3038 9.89854 64.378 9.92329C64.4647 9.94804 64.5636 9.96041 64.6997 9.96041C64.9596 9.96041 65.2442 9.86142 65.5164 9.67583C65.801 9.49023 66.0113 9.15615 66.1721 8.6736L66.1845 8.68597ZM75.9098 8.71072C75.7861 8.9953 75.6624 9.24277 75.551 9.45311C75.4273 9.65108 75.3036 9.84905 75.1551 10.0346C74.9942 10.2202 74.821 10.3935 74.6107 10.5543C74.4003 10.7152 74.1652 10.8637 73.8806 10.9998C73.5961 11.1359 73.2867 11.2472 72.9774 11.3091C72.6557 11.3833 72.2969 11.4081 71.8886 11.4081C71.2946 11.4081 70.7873 11.3215 70.379 11.1482C69.9707 10.975 69.6738 10.7399 69.4758 10.443C69.2283 10.0594 69.117 9.61396 69.1417 9.16853C69.1417 9.06954 69.1417 9.00768 69.1417 8.9953C69.1788 8.488 69.3149 7.99307 69.5253 7.53527C69.6366 7.30018 69.7604 7.06509 69.9089 6.83C70.2182 6.33507 70.7007 5.90201 71.3318 5.55556C71.9628 5.19674 72.7671 5.02351 73.7198 5.02351C74.4622 5.02351 75.0313 5.14724 75.4025 5.40708C75.7737 5.66692 76.0088 5.97625 76.1078 6.34744C76.1449 6.48355 76.1573 6.61965 76.1697 6.73101C76.1697 6.95373 76.1697 7.17644 76.1326 7.39916C76.1202 7.48577 76.1078 7.54764 76.1078 7.59713H73.9301C73.9549 7.20119 73.9301 6.92898 73.8188 6.75576C73.7198 6.5949 73.5218 6.50829 73.2496 6.50829C73.0516 6.50829 72.8537 6.54541 72.6681 6.61965C72.5691 6.65677 72.4701 6.70626 72.3959 6.7805C72.2969 6.86711 72.2103 6.95373 72.1236 7.05271C71.9133 7.30018 71.7525 7.64663 71.6287 8.10443C71.5545 8.3519 71.5174 8.59936 71.4926 8.84682C71.4679 9.13141 71.505 9.35412 71.604 9.51497C71.7401 9.77481 71.9752 9.89854 72.3092 9.89854C72.6433 9.89854 72.9155 9.79956 73.1011 9.60159C73.2125 9.49023 73.3115 9.3665 73.3857 9.24277C73.4847 9.09429 73.5713 8.92106 73.6456 8.71072H75.8975H75.9098ZM82.6656 6.73101H80.6364L79.4238 11.1854H77.1595L78.3721 6.73101H76.3553L76.7636 5.23385H83.0739L82.6656 6.73101ZM89.1368 8.74784H84.4102C84.4102 8.74784 84.4102 8.8097 84.4102 8.83445C84.3855 8.97056 84.3855 9.11903 84.4102 9.25514C84.4226 9.35412 84.4597 9.45311 84.4968 9.53972C84.5463 9.62633 84.6082 9.70057 84.6824 9.76244C84.7567 9.8243 84.8557 9.8738 84.967 9.91092C85.0784 9.94804 85.2021 9.96041 85.3382 9.96041C85.5981 9.96041 85.8455 9.89854 86.0806 9.78718C86.192 9.73769 86.2909 9.66345 86.3652 9.57684C86.4518 9.49023 86.5384 9.3665 86.625 9.19327H88.9264C88.778 9.46548 88.6419 9.6882 88.5181 9.84905C88.3944 10.0223 88.2459 10.1708 88.0851 10.3192C87.9242 10.4801 87.7386 10.6162 87.553 10.7275C87.3427 10.8513 87.0952 10.975 86.823 11.074C86.2786 11.2843 85.6228 11.3833 84.868 11.3833C84.2989 11.3833 83.8039 11.3091 83.408 11.1606C83.2224 11.0864 83.0368 10.9998 82.8636 10.8884C82.7151 10.7894 82.579 10.6657 82.4676 10.5172C82.3563 10.3811 82.2697 10.2202 82.2078 10.047C82.1459 9.86142 82.0964 9.67583 82.0841 9.49023C82.0841 9.41599 82.0841 9.32938 82.0841 9.25514C82.0841 9.16853 82.0841 9.06954 82.0841 8.98293C82.0964 8.74784 82.1459 8.50037 82.2202 8.21579C82.3934 7.57239 82.7151 6.97847 83.1605 6.49592C83.606 6.01337 84.1628 5.64217 84.7814 5.40708C85.0907 5.29572 85.4001 5.20911 85.7218 5.14724C86.0559 5.08538 86.3899 5.06063 86.7364 5.06063C87.3303 5.06063 87.8252 5.14724 88.2212 5.32047C88.6047 5.49369 88.9017 5.72878 89.0997 6.03811C89.1863 6.19896 89.2605 6.35981 89.31 6.53304C89.3595 6.70626 89.3842 6.87949 89.3966 7.05271C89.4214 7.4734 89.3719 7.90646 89.2481 8.31478L89.1244 8.76021L89.1368 8.74784ZM87.1323 7.49815C87.1447 7.41153 87.1571 7.3373 87.1694 7.27543C87.1818 7.02797 87.1323 6.85474 87.0086 6.74338C86.823 6.58253 86.6003 6.49592 86.3157 6.49592C86.093 6.49592 85.8826 6.52067 85.7218 6.58253C85.5486 6.6444 85.4001 6.73101 85.2763 6.85474C85.1774 6.95373 85.0907 7.05271 85.0041 7.16407C84.9175 7.26306 84.8433 7.37442 84.7814 7.49815H87.1323ZM97.1793 8.1663C96.9195 9.10666 96.5236 9.79956 95.9668 10.2821C95.41 10.7523 94.8903 11.0616 94.3954 11.1977C93.9252 11.3215 93.5416 11.371 93.2447 11.371C92.8858 11.371 92.527 11.3091 92.193 11.1606C92.1063 11.1235 92.0197 11.0864 91.9455 11.0369C91.8712 10.9874 91.797 10.9379 91.7351 10.876L91.0794 13.264H88.8027L91.0175 5.13487H93.1704L93.0467 5.55556C93.6654 5.14724 94.3211 4.9369 95.0264 4.9369C95.9668 4.9369 96.6349 5.23386 97.0061 5.84014C97.266 6.24846 97.3649 6.74338 97.3278 7.32492C97.3031 7.60951 97.2536 7.89409 97.1793 8.1663ZM94.8408 8.14155C94.8903 7.94358 94.9274 7.77036 94.9398 7.60951C94.9522 7.46103 94.9398 7.31255 94.9151 7.16407C94.8656 6.92898 94.7666 6.75576 94.6057 6.65677C94.4572 6.55779 94.2593 6.49592 94.0489 6.49592C93.8757 6.49592 93.7149 6.53304 93.554 6.5949C93.3932 6.65677 93.2323 6.75576 93.0714 6.87949C92.9106 7.01559 92.7621 7.18882 92.6631 7.38679C92.4899 7.70849 92.3662 8.05494 92.3043 8.41376C92.2919 8.50037 92.2796 8.58699 92.2672 8.68597C92.2548 8.93344 92.2672 9.15615 92.3414 9.34175C92.3909 9.49023 92.4775 9.58921 92.626 9.66345C92.7745 9.73769 92.9353 9.77481 93.1581 9.77481C93.5664 9.77481 93.9128 9.63871 94.185 9.35412C94.482 9.03242 94.7047 8.62411 94.8284 8.14155H94.8408ZM11.2352 3.95942C10.1464 3.95942 9.2679 3.06855 9.25553 1.97971C9.25553 0.890869 10.1464 0 11.2352 0C12.3241 0 13.2149 0.890869 13.2149 1.97971C13.2149 3.06855 12.3241 3.94704 11.2352 3.95942ZM21.9133 14.6993L8.20381 11.903L0.953125 14.8478L7.36243 7.42391L21.9009 14.6993H21.9133ZM53.0566 11.1854H56.0509L54.7146 5.18436L53.0566 11.1854ZM57.4491 11.1854H60.4434L62.1014 5.23385L57.4491 11.1854Z" fill="#333789"/>
</g>
</svg>
