<svg width="72" height="35" viewBox="0 0 72 35" fill="none" xmlns="http://www.w3.org/2000/svg">
<g id="Group 3623">
<path id="Vector" d="M34.4964 0H0V34.7162H34.4964V0Z" fill="black"/>
<g id="Group">
<path id="Vector_2" fill-rule="evenodd" clip-rule="evenodd" d="M10.4668 11.2241C10.7279 11.7874 11.14 12.3644 12.2803 13.1475C12.5275 13.3261 12.816 13.6832 12.5962 14.2053C12.3764 14.7136 11.978 15.4417 12.2116 15.7302C12.4589 16.0187 13.3106 16.1561 14.0113 15.8813C14.0113 15.8813 14.1624 16.321 14.4097 16.6095C14.4097 16.6095 14.286 16.8568 13.8876 16.7331C13.8876 16.7331 14.0387 17.104 13.8327 17.4887C13.8327 17.4887 13.3656 17.4063 13.1595 16.9804C13.1595 16.9804 12.9672 17.3238 12.5962 17.4338C12.5962 17.4338 12.294 17.2689 12.3627 16.6507C12.3627 16.6507 12.1291 17.2002 11.4422 17.2964C11.4422 17.2964 11.0438 16.7881 11.5659 16.1012C11.5659 16.1012 11.195 16.4446 10.508 16.2797C10.508 16.2797 10.3981 15.9226 11.0164 15.4417C11.0164 15.4417 10.3157 15.4142 10.0547 14.8235C10.0547 14.8235 10.3432 14.4526 11.0713 14.535C11.0713 14.535 10.3981 14.3839 10.247 13.5733C10.247 13.5733 10.7279 13.2574 11.4972 13.7657C11.4972 13.7657 11.3598 13.5046 11.0438 13.2574C10.7279 12.9963 10.3294 12.282 10.4668 11.2379V11.2241Z" fill="white"/>
<path id="Vector_3" fill-rule="evenodd" clip-rule="evenodd" d="M13.2843 19.3569C13.1744 19.2195 13.1057 19.0821 13.0508 18.9585C13.1744 19.9339 13.2156 20.6071 13.7377 21.239C13.7377 21.239 14.0537 20.8131 13.8476 19.7828C13.7652 19.7553 13.6553 19.7141 13.5591 19.6454C13.5591 19.6454 13.6827 20.0713 13.6003 20.4834C13.6003 20.4834 13.408 20.346 13.2706 19.3569H13.2843Z" fill="white"/>
<path id="Vector_4" fill-rule="evenodd" clip-rule="evenodd" d="M12.36 19.2606C12.2913 19.1781 12.1814 19.0133 12.1127 18.8896C12.0715 19.4666 11.9204 20.9641 12.4149 21.4312C12.4149 21.4312 12.7584 21.1839 12.882 18.9858C12.8133 19.1095 12.676 19.2331 12.621 19.3155C12.621 19.3155 12.7034 20.0162 12.4562 20.497C12.4562 20.497 12.2089 20.3047 12.36 19.2606Z" fill="white"/>
<path id="Vector_5" fill-rule="evenodd" clip-rule="evenodd" d="M11.1806 20.4007C11.5927 19.8924 11.7301 18.3812 11.7301 18.3812C11.7851 18.34 11.84 18.2988 11.9087 18.2576C11.9362 18.2439 11.9499 18.2164 11.9774 18.2026C11.9774 18.2576 11.9774 18.3125 11.9774 18.3675C11.9225 19.2742 11.84 20.2221 11.5653 20.6892C11.2905 21.1426 10.7822 21.3899 10.7822 21.3899C10.3014 20.5381 10.8784 19.3841 11.3729 18.5873C11.4279 18.5598 11.4966 18.5324 11.5515 18.5049C11.3867 19.1231 11.0569 19.8512 11.1943 20.4145L11.1806 20.4007Z" fill="white"/>
<path id="Vector_6" fill-rule="evenodd" clip-rule="evenodd" d="M9.98604 17.7771C9.98604 17.8733 9.99978 17.9557 10.0135 17.9969C10.0135 18.0106 10.0135 18.0381 10.041 18.0656C9.64258 18.464 9.34035 18.8349 8.74961 19.6729C8.15887 20.4972 7.21094 20.5385 7.21094 20.5385C7.3071 19.8653 7.4857 19.3295 7.99401 18.7662C8.50232 18.1892 9.14801 17.6672 9.61511 17.3237C9.73875 17.3787 9.88987 17.4199 10.0959 17.3924C10.1097 17.3924 10.1234 17.3924 10.1372 17.3924C10.0685 17.4749 10.041 17.5573 10.0135 17.6397C9.65632 17.8458 8.61223 18.3816 8.18634 19.2333C8.18634 19.2333 8.84577 19.0273 9.98604 17.8046V17.7771Z" fill="white"/>
<path id="Vector_7" fill-rule="evenodd" clip-rule="evenodd" d="M9.24183 16.9391L9.28305 16.8704C9.28305 16.8704 9.31052 16.8292 9.32426 16.8018C8.93959 16.9529 7.56578 17.4749 7.11242 17.7085C6.6728 17.942 6.02711 18.4641 5.66992 19.5356C5.66992 19.5356 6.60411 19.6181 7.35971 18.9861C8.12905 18.3404 9.02202 17.4612 9.40669 17.1727C9.36548 17.1315 9.338 17.104 9.32426 17.0765C9.32426 17.0765 8.28016 17.997 7.19485 18.3954C7.19485 18.3954 7.4284 17.9695 7.86802 17.6535C8.39007 17.2826 8.78847 17.1452 9.25557 16.9391H9.24183Z" fill="white"/>
<path id="Vector_8" fill-rule="evenodd" clip-rule="evenodd" d="M8.46277 16.3072C8.46277 16.3072 8.49024 16.2385 8.50398 16.1973C8.05063 16.2934 6.91036 16.4308 6.40205 16.5819C5.89374 16.7331 4.97329 17.1177 4.4375 18.1618C4.4375 18.1618 5.23431 18.4091 6.7455 17.6947C8.2567 16.9803 8.72379 16.8292 9.01229 16.7605C8.77875 16.7468 8.61389 16.6644 8.53146 16.6094C7.92698 16.8842 7.13017 17.2001 6.31962 17.2139C6.31962 17.2139 6.71803 16.9391 7.13017 16.7605C7.58353 16.5682 8.0781 16.4033 8.44903 16.3072H8.46277Z" fill="white"/>
<path id="Vector_9" fill-rule="evenodd" clip-rule="evenodd" d="M8.48929 15.5517C8.64041 15.6204 8.75031 15.6616 8.94265 15.6753C8.83274 15.744 8.73657 15.8264 8.65415 15.9501C8.11836 16.1012 7.21164 16.2661 5.71419 16.376C4.21673 16.4859 3.41992 16.2111 3.41992 16.2111C3.94197 15.8951 4.76626 15.5654 5.32952 15.4555C5.89278 15.3456 7.36276 15.3594 8.00845 15.2632C8.00845 15.2632 8.09088 15.3319 8.22826 15.4143C7.67874 15.4693 6.52474 15.5105 5.934 15.8264C5.934 15.8264 7.03305 15.9776 8.48929 15.5517Z" fill="white"/>
<path id="Vector_10" fill-rule="evenodd" clip-rule="evenodd" d="M8.37806 14.6858C8.46049 14.6446 8.54292 14.5896 8.65282 14.5484C7.89723 14.3149 6.85313 13.9439 5.28698 13.8478C4.14672 13.7653 3.30869 13.8478 2.88281 13.9439C2.88281 13.9439 3.92691 14.6858 5.12213 14.9468C6.31734 15.2078 7.29275 15.043 7.99339 15.0567C8.03461 14.988 8.08956 14.9056 8.17199 14.8232C7.3477 14.8232 5.96015 14.6171 5.46558 14.4522C5.46558 14.4522 6.67453 14.205 8.35058 14.6858H8.37806Z" fill="white"/>
<path id="Vector_11" fill-rule="evenodd" clip-rule="evenodd" d="M8.37806 13.7937C8.37806 13.7937 8.47423 14.247 8.9688 14.4806C7.91096 14.0135 5.80903 13.7387 4.68251 13.2716C3.15758 12.6397 2.88281 11.8429 2.88281 11.8429C4.20167 11.8017 5.25951 12.1314 6.08379 12.3787C7.04546 12.6809 8.5017 13.2304 9.02375 13.4502C8.83142 13.4502 8.62535 13.5189 8.44675 13.6288C7.73237 13.3541 7.40265 13.2304 6.75696 13.0518C6.24865 12.9007 5.86398 12.8732 5.54801 12.8458C5.54801 12.8458 6.00136 13.148 6.74322 13.3815C7.48508 13.6151 7.80106 13.6563 8.3918 13.7799L8.37806 13.7937Z" fill="white"/>
<path id="Vector_12" fill-rule="evenodd" clip-rule="evenodd" d="M8.29637 12.6252C8.33759 12.7077 8.46123 12.8863 8.51618 12.9549C6.84013 12.6664 4.98549 11.3888 4.42222 10.6057C3.84522 9.80892 4.01008 8.62744 4.01008 8.62744C4.55961 8.73735 5.76856 9.78144 6.08454 10.0974C6.40051 10.4134 7.33471 11.3339 7.99413 11.8422L8.20021 12.4329C7.63694 11.9795 6.97751 11.4712 6.56537 11.169C6.24939 10.9217 5.76856 10.592 5.30146 10.4271C5.30146 10.4271 5.74108 11.0041 6.08454 11.2789C6.49668 11.6086 6.90882 11.8834 7.23854 12.0757C7.54078 12.2406 7.6919 12.3367 8.31011 12.639L8.29637 12.6252Z" fill="white"/>
<path id="Vector_13" fill-rule="evenodd" clip-rule="evenodd" d="M13.0338 17.3512C13.0338 17.3512 13.13 17.255 13.1712 17.2275C13.2536 17.3237 13.5147 17.6534 13.6383 17.9694C13.7345 18.2442 13.8444 18.6288 13.8856 18.8349C13.9405 19.0547 14.0917 19.4943 14.1878 19.6592C14.1878 19.6592 13.7757 19.7141 13.4734 19.3569C13.1712 19.0135 13.075 18.6563 13.0338 18.2991C12.9926 18.0106 13.0063 17.6259 13.0338 17.3512Z" fill="white"/>
<path id="Vector_14" fill-rule="evenodd" clip-rule="evenodd" d="M12.39 17.4058C12.4724 17.5019 12.5411 17.5431 12.5411 17.5569L12.596 17.5844H12.651C12.651 17.5844 12.7471 17.5294 12.7884 17.5019C12.8433 17.6668 12.8708 17.7492 12.8845 17.8866C12.8983 18.0789 12.9395 18.3674 12.8708 18.6147C12.7884 18.9032 12.6098 19.0955 12.5136 19.2055C12.5136 19.2055 12.2388 18.9032 12.1701 18.6697C12.0877 18.4086 12.0602 18.1201 12.1701 17.8042C12.2251 17.6393 12.3075 17.4882 12.39 17.4058Z" fill="white"/>
<path id="Vector_15" fill-rule="evenodd" clip-rule="evenodd" d="M11.468 17.4333C11.7427 17.3921 11.9488 17.2959 12.0999 17.186C12.1412 17.2822 12.1824 17.4196 12.1549 17.5982C12.1137 17.7768 11.99 17.9828 11.7977 18.134C11.5229 18.3538 11.152 18.5598 10.7399 18.5049C10.7399 18.5049 10.6437 18.1889 11.4542 17.4333H11.468Z" fill="white"/>
<path id="Vector_16" fill-rule="evenodd" clip-rule="evenodd" d="M11.154 16.9253C11.1815 17.2001 11.3189 17.3787 11.3326 17.3924C11.2365 17.5023 10.893 18.1068 10.1786 17.9969C10.1786 17.9969 9.98628 17.5847 10.4671 17.2687C10.7831 17.0489 10.948 17.0077 11.1678 16.9253H11.154Z" fill="white"/>
<path id="Vector_17" fill-rule="evenodd" clip-rule="evenodd" d="M11.2216 16.417C11.0293 16.4719 10.782 16.4857 10.4798 16.417H10.3973L10.3699 16.3208C9.99894 16.623 9.55932 16.678 9.4082 16.9528C9.4082 16.9528 9.5868 17.2962 10.0676 17.2413C10.5485 17.1863 10.9057 16.9528 11.1667 16.6368C11.1667 16.5956 11.1942 16.4994 11.2216 16.4307V16.417Z" fill="white"/>
<path id="Vector_18" fill-rule="evenodd" clip-rule="evenodd" d="M10.3994 15.991C10.4681 15.8948 10.5093 15.7299 10.6605 15.5788C10.3445 15.5239 10.056 15.5239 9.68505 15.5788C9.24543 15.6612 8.79208 15.7711 8.57227 16.4443C8.57227 16.4443 8.86077 16.6916 9.36908 16.5817C9.8087 16.4855 10.1796 16.3069 10.3994 15.991Z" fill="white"/>
<path id="Vector_19" fill-rule="evenodd" clip-rule="evenodd" d="M10.2054 15.2494C10.0955 15.1533 9.98557 15.0296 9.91688 14.8648L9.87567 14.7823C9.491 14.6312 9.09259 14.5488 8.70793 14.6862C8.32326 14.8373 8.21335 15.0022 8.11719 15.1533C8.11719 15.1533 8.54307 15.5242 9.05138 15.5242C9.54595 15.5379 10.013 15.4006 10.2054 15.2494Z" fill="white"/>
<path id="Vector_20" fill-rule="evenodd" clip-rule="evenodd" d="M10.3134 14.4659C10.3134 14.4659 10.4507 14.411 10.5332 14.3972C10.3683 14.2461 10.2035 14.0126 10.121 13.6691C9.94244 13.7103 9.53029 13.7103 9.33796 13.6416C9.15936 13.573 8.78843 13.573 8.51367 13.7515C8.51367 13.7515 8.60984 14.2461 9.24179 14.4247C9.84627 14.5896 10.0661 14.5484 10.3134 14.4659Z" fill="white"/>
<path id="Vector_21" fill-rule="evenodd" clip-rule="evenodd" d="M10.095 13.491L10.1774 13.436C10.1774 13.436 10.3286 13.3399 10.5758 13.3261C10.3698 13.175 9.8752 12.7629 9.53175 12.5568C9.14708 12.337 8.52887 12.0622 8.21289 12.021C8.21289 12.021 8.51513 12.8178 8.85858 13.1338C9.21577 13.4635 9.4768 13.5871 10.095 13.491Z" fill="white"/>
<path id="Vector_22" fill-rule="evenodd" clip-rule="evenodd" d="M10.7408 13.1333C10.5897 12.9272 10.466 12.6524 10.3836 12.3365C10.3149 12.0754 10.15 11.416 10.0539 11.2512C9.9577 11.0863 9.60051 10.4818 8.9136 10.3032C8.9136 10.3032 8.73501 11.0863 9.07846 11.6908C9.3807 12.2266 9.98518 12.7761 10.7545 13.147L10.7408 13.1333Z" fill="white"/>
<path id="Vector_23" fill-rule="evenodd" clip-rule="evenodd" d="M14.5597 16.7331C14.6421 16.8155 14.7108 16.8705 14.8619 16.9392C14.8619 16.9392 15.0817 17.3651 14.8207 17.8734C14.5597 18.3817 14.3261 18.9037 14.2162 19.1922C14.2162 19.1922 14.0788 19.1648 13.914 18.3679C13.8041 17.8322 13.6667 17.6948 13.5293 17.5024C13.6804 17.5849 13.8041 17.5986 13.8178 17.6123H13.9277L13.9827 17.5299C14.0788 17.3513 14.1063 17.1727 14.1063 17.0216C14.1063 16.9667 14.1063 16.9254 14.1063 16.8842C14.3536 16.8842 14.491 16.7606 14.5322 16.7056C14.5322 16.7056 14.5322 16.7056 14.5322 16.6919L14.5597 16.7194V16.7331Z" fill="white"/>
<path id="Vector_24" fill-rule="evenodd" clip-rule="evenodd" d="M8.70746 10.6199C8.70746 10.6886 8.70746 10.7711 8.70746 10.8672V11.0596C8.30906 10.5375 7.82822 9.90556 7.36113 9.32856C7.04515 8.93016 6.77039 8.68287 6.46815 8.49054C6.71544 9.2324 7.16879 9.82314 7.48477 10.1116C7.80075 10.4001 8.26784 10.8947 8.7212 11.1969L8.76242 11.3481C8.80363 11.4854 8.84485 11.6228 8.92727 11.7602C9.03718 11.9525 9.17456 12.1311 9.33942 12.3097C9.20204 12.241 9.06465 12.1724 8.8998 12.1037L8.76242 12.0487C7.52599 11.3893 6.28955 10.0155 5.79498 9.0538C5.30041 8.09213 5.50648 6.99308 5.63012 6.40234C6.19339 6.88318 7.00394 7.83111 7.36113 8.33942C7.80075 8.97137 8.35027 9.86435 8.69373 10.5925V10.6199H8.70746Z" fill="white"/>
<path id="Vector_25" fill-rule="evenodd" clip-rule="evenodd" d="M26.1146 14.6858C26.0459 14.6446 25.9497 14.5896 25.8398 14.5484C26.5954 14.3149 27.6395 13.9439 29.1919 13.8478C30.3322 13.7653 31.1702 13.8478 31.5961 13.9439C31.5961 13.9439 30.552 14.6858 29.3568 14.9468C28.1616 15.2078 27.1862 15.043 26.4855 15.0567C26.4443 14.988 26.3894 14.9056 26.3069 14.8232C27.1312 14.8232 28.5188 14.6171 29.0134 14.4522C29.0134 14.4522 27.8044 14.205 26.1146 14.6858Z" fill="white"/>
<path id="Vector_26" fill-rule="evenodd" clip-rule="evenodd" d="M26.1125 13.7937C26.1125 13.7937 26.0163 14.247 25.5217 14.4806C26.5796 14.0135 28.6815 13.7387 29.808 13.2716C31.333 12.6397 31.6077 11.8429 31.6077 11.8429C30.2889 11.8017 29.231 12.1314 28.4068 12.3787C27.4451 12.6809 25.9888 13.2304 25.4668 13.4502C25.6591 13.4502 25.8652 13.5189 26.0438 13.6288C26.7582 13.3541 27.0879 13.2304 27.7336 13.0518C28.2419 12.9007 28.6266 12.8732 28.9425 12.8458C28.9425 12.8458 28.4892 13.148 27.7473 13.3815C27.0055 13.6151 26.6895 13.6563 26.0987 13.7799L26.1125 13.7937Z" fill="white"/>
<path id="Vector_27" fill-rule="evenodd" clip-rule="evenodd" d="M26.1964 12.6252C26.1552 12.7077 26.0315 12.8863 25.9766 12.9549C27.6526 12.6664 29.5073 11.3888 30.0705 10.6057C30.6475 9.80892 30.4827 8.62744 30.4827 8.62744C29.9331 8.73735 28.7242 9.78144 28.4082 10.0974C28.0922 10.4134 27.158 11.3339 26.4986 11.8422L26.2925 12.4329C26.8558 11.9795 27.5152 11.4712 27.9274 11.169C28.2434 10.9217 28.7242 10.592 29.1913 10.4271C29.1913 10.4271 28.7517 11.0041 28.4082 11.2789C28.0098 11.6086 27.5839 11.8834 27.2542 12.0757C26.952 12.2406 26.8008 12.3367 26.1826 12.639L26.1964 12.6252Z" fill="white"/>
<path id="Vector_28" fill-rule="evenodd" clip-rule="evenodd" d="M25.7844 10.6199C25.7844 10.6886 25.7844 10.7711 25.7844 10.8672V11.0596C26.1828 10.5375 26.6636 9.90556 27.1307 9.32856C27.4467 8.93016 27.7214 8.68287 28.0237 8.49054C27.7764 9.2324 27.323 9.82314 26.9933 10.1116C26.6773 10.4001 26.2102 10.8947 25.7569 11.1969L25.7157 11.3481C25.6745 11.4854 25.6332 11.6228 25.5508 11.7602C25.4409 11.9525 25.3035 12.1311 25.1387 12.3097C25.2761 12.241 25.4134 12.1724 25.5646 12.1037L25.7019 12.0487C26.9384 11.3893 28.1748 10.0155 28.6694 9.0538C29.1639 8.09213 28.9579 6.99308 28.8342 6.40234C28.271 6.88318 27.4604 7.83111 27.1032 8.33942C26.6636 8.97137 26.1141 9.86435 25.7706 10.5925V10.6199H25.7844Z" fill="white"/>
<path id="Vector_29" fill-rule="evenodd" clip-rule="evenodd" d="M10.2884 18.1615C9.78004 18.6698 8.69473 19.8375 8.80464 21.0877C8.80464 21.0877 9.80752 20.7717 10.2197 20.0298C10.6318 19.288 10.8928 18.8346 11.0577 18.656C10.9478 18.6698 10.8379 18.6698 10.728 18.656H10.6318C10.3708 19.1094 9.87621 19.865 9.42285 20.1398C9.42285 20.1398 9.31295 19.5215 10.6455 18.2714C10.6593 18.2164 10.6868 18.1615 10.728 18.0928C10.6043 18.134 10.4669 18.1615 10.3158 18.1615H10.3021H10.2884Z" fill="white"/>
<path id="Vector_30" fill-rule="evenodd" clip-rule="evenodd" d="M24.0249 11.2241C23.7639 11.7874 23.3518 12.3644 22.2115 13.1475C21.9505 13.3261 21.6757 13.6832 21.8955 14.2053C22.1153 14.7136 22.5137 15.4417 22.2665 15.7302C22.0192 16.0187 21.1674 16.1561 20.4668 15.8813C20.4668 15.8813 20.3156 16.321 20.0684 16.6095C20.0684 16.6095 20.192 16.8568 20.5904 16.7331C20.5904 16.7331 20.4393 17.104 20.6454 17.4887C20.6454 17.4887 21.1125 17.4063 21.3185 16.9804C21.3185 16.9804 21.5109 17.3238 21.8818 17.4338C21.8818 17.4338 22.1978 17.2689 22.1291 16.6507C22.1291 16.6507 22.3626 17.2002 23.0495 17.2964C23.0495 17.2964 23.4479 16.7881 22.9259 16.1012C22.9259 16.1012 23.2968 16.4446 23.9837 16.2797C23.9837 16.2797 24.0936 15.9226 23.4754 15.4417C23.4754 15.4417 24.1761 15.4142 24.4371 14.8235C24.4371 14.8235 24.1348 14.4526 23.4205 14.535C23.4205 14.535 24.0936 14.3839 24.231 13.5733C24.231 13.5733 23.7502 13.2574 22.9808 13.7657C22.9808 13.7657 23.1182 13.5046 23.4342 13.2574C23.7502 12.9963 24.1486 12.282 24.0112 11.2379L24.0249 11.2241Z" fill="white"/>
<path id="Vector_31" fill-rule="evenodd" clip-rule="evenodd" d="M21.2092 19.3569C21.3054 19.2195 21.3878 19.0821 21.4428 18.9585C21.3191 19.9339 21.2779 20.6071 20.7559 21.239C20.7559 21.239 20.4399 20.8131 20.646 19.7828C20.7421 19.7553 20.8383 19.7141 20.9345 19.6454C20.9345 19.6454 20.8108 20.0713 20.8932 20.4834C20.8932 20.4834 21.0856 20.346 21.223 19.3569H21.2092Z" fill="white"/>
<path id="Vector_32" fill-rule="evenodd" clip-rule="evenodd" d="M22.1314 19.2606C22.2001 19.1781 22.3238 19.0133 22.3787 18.8896C22.4199 19.4666 22.571 20.9641 22.0765 21.4312C22.0765 21.4312 21.733 21.1839 21.6094 18.9858C21.6781 19.1095 21.8154 19.2331 21.8704 19.3155C21.8704 19.3155 21.788 20.0162 22.0353 20.497C22.0353 20.497 22.2825 20.3047 22.1314 19.2606Z" fill="white"/>
<path id="Vector_33" fill-rule="evenodd" clip-rule="evenodd" d="M23.3261 20.4007C22.9002 19.8924 22.7766 18.3812 22.7766 18.3812C22.7216 18.34 22.6529 18.2988 22.598 18.2576C22.5705 18.2439 22.5568 18.2164 22.5293 18.2026C22.5293 18.2576 22.5293 18.3125 22.5293 18.3675C22.5842 19.2742 22.6667 20.2221 22.9414 20.6892C23.2162 21.1426 23.7245 21.3899 23.7245 21.3899C24.2053 20.5381 23.6283 19.3841 23.1475 18.5873C23.0926 18.5598 23.0239 18.5324 22.9689 18.5049C23.1338 19.1231 23.4635 19.8512 23.3261 20.4145V20.4007Z" fill="white"/>
<path id="Vector_34" fill-rule="evenodd" clip-rule="evenodd" d="M24.5085 17.7771C24.5085 17.8733 24.4947 17.9557 24.481 17.9969C24.481 18.0106 24.481 18.0381 24.4535 18.0656C24.8519 18.464 25.1542 18.8349 25.7449 19.6729C26.3356 20.4972 27.2836 20.5385 27.2836 20.5385C27.1874 19.8653 27.0088 19.3295 26.5142 18.7662C26.0059 18.1892 25.374 17.6672 24.8931 17.3237C24.7695 17.3787 24.6184 17.4199 24.4123 17.3924C24.3986 17.3924 24.3848 17.3924 24.3711 17.3924C24.4398 17.4749 24.4673 17.5573 24.4947 17.6397C24.8519 17.8458 25.896 18.3816 26.3082 19.2333C26.3082 19.2333 25.6487 19.0273 24.5085 17.8046V17.7771Z" fill="white"/>
<path id="Vector_35" fill-rule="evenodd" clip-rule="evenodd" d="M25.2488 16.9391L25.2076 16.8704C25.2076 16.8704 25.1802 16.8292 25.1664 16.8018C25.5511 16.9529 26.9249 17.4749 27.3783 17.7085C27.8179 17.942 28.4636 18.4641 28.8208 19.5356C28.8208 19.5356 27.8866 19.6181 27.131 18.9861C26.3616 18.3404 25.4687 17.4612 25.084 17.1727C25.1252 17.1315 25.1527 17.104 25.1802 17.0765C25.1802 17.0765 26.2242 17.997 27.3096 18.3954C27.3096 18.3954 27.076 17.9695 26.6501 17.6535C26.1143 17.2826 25.7297 17.1452 25.2626 16.9391H25.2488Z" fill="white"/>
<path id="Vector_36" fill-rule="evenodd" clip-rule="evenodd" d="M26.03 16.3072C26.03 16.3072 26.0025 16.2385 25.9888 16.1973C26.4421 16.2934 27.5824 16.4308 28.0907 16.5819C28.599 16.7331 29.5195 17.1177 30.0553 18.1618C30.0553 18.1618 29.2585 18.4091 27.7473 17.6947C26.2361 16.9803 25.769 16.8292 25.4805 16.7605C25.714 16.7468 25.8651 16.6644 25.9613 16.6094C26.5658 16.8842 27.3626 17.2001 28.1594 17.2139C28.1594 17.2139 27.761 16.9391 27.3489 16.7605C26.8955 16.5682 26.4009 16.4033 26.03 16.3072Z" fill="white"/>
<path id="Vector_37" fill-rule="evenodd" clip-rule="evenodd" d="M26.0041 15.5517C25.853 15.6204 25.7431 15.6616 25.5508 15.6753C25.6607 15.744 25.7569 15.8264 25.853 15.9501C26.3888 16.1012 27.2955 16.2661 28.7792 16.376C30.2767 16.4859 31.0735 16.2111 31.0735 16.2111C30.5515 15.8951 29.7272 15.5654 29.1639 15.4555C28.6006 15.3456 27.1307 15.3594 26.485 15.2632C26.485 15.2632 26.4025 15.3319 26.2789 15.4143C26.8284 15.4693 27.9824 15.5105 28.5869 15.8264C28.5869 15.8264 27.4879 15.9776 26.0316 15.5517H26.0041Z" fill="white"/>
<path id="Vector_38" fill-rule="evenodd" clip-rule="evenodd" d="M21.4567 17.3512C21.4567 17.3512 21.3606 17.255 21.3194 17.2275C21.2369 17.3237 20.9896 17.6534 20.8523 17.9694C20.7561 18.2442 20.6462 18.6288 20.605 18.8349C20.55 19.0547 20.3989 19.4943 20.3027 19.6592C20.3027 19.6592 20.7149 19.7141 21.0171 19.3569C21.3194 19.0135 21.4155 18.6563 21.4567 18.2991C21.498 18.0106 21.4842 17.6259 21.443 17.3512H21.4567Z" fill="white"/>
<path id="Vector_39" fill-rule="evenodd" clip-rule="evenodd" d="M22.1024 17.4058C22.0337 17.5019 21.9513 17.5431 21.9513 17.5569L21.8964 17.5844H21.8414C21.8414 17.5844 21.7452 17.5294 21.704 17.5019C21.6491 17.6668 21.6216 17.7492 21.6079 17.8866C21.5941 18.0789 21.5529 18.3674 21.6079 18.6147C21.6903 18.9032 21.8689 19.0955 21.965 19.2055C21.965 19.2055 22.2398 18.9032 22.3085 18.6697C22.3909 18.4086 22.4184 18.1201 22.3085 17.8042C22.2535 17.6393 22.1711 17.4882 22.0887 17.4058H22.1024Z" fill="white"/>
<path id="Vector_40" fill-rule="evenodd" clip-rule="evenodd" d="M23.0259 17.4333C22.7511 17.3921 22.545 17.2959 22.3939 17.186C22.3664 17.2822 22.3115 17.4196 22.3527 17.5982C22.3939 17.7768 22.5176 17.9828 22.7099 18.134C22.9847 18.3538 23.3556 18.5598 23.7677 18.5049C23.7677 18.5049 23.8639 18.1889 23.0534 17.4333H23.0259Z" fill="white"/>
<path id="Vector_41" fill-rule="evenodd" clip-rule="evenodd" d="M23.3388 16.9253C23.3113 17.2001 23.1739 17.3787 23.1602 17.3924C23.2563 17.5023 23.5998 18.1068 24.3279 17.9969C24.3279 17.9969 24.5202 17.5847 24.0394 17.2687C23.7097 17.0489 23.5586 17.0077 23.3388 16.9253Z" fill="white"/>
<path id="Vector_42" fill-rule="evenodd" clip-rule="evenodd" d="M23.2715 16.417C23.4638 16.4719 23.7111 16.4857 24.0133 16.417H24.0958L24.1232 16.3208C24.4942 16.623 24.9338 16.678 25.0849 16.9528C25.0849 16.9528 24.9063 17.2962 24.4255 17.2413C23.9447 17.1863 23.5875 16.9528 23.3264 16.6368C23.3264 16.5956 23.299 16.4994 23.2715 16.4307V16.417Z" fill="white"/>
<path id="Vector_43" fill-rule="evenodd" clip-rule="evenodd" d="M24.095 15.991C24.0263 15.8948 23.9714 15.7299 23.834 15.5788C24.15 15.5239 24.4385 15.5239 24.8094 15.5788C25.249 15.6612 25.7024 15.7711 25.9222 16.4443C25.9222 16.4443 25.6337 16.6916 25.1254 16.5817C24.6857 16.4855 24.3148 16.3069 24.095 15.991Z" fill="white"/>
<path id="Vector_44" fill-rule="evenodd" clip-rule="evenodd" d="M24.2871 15.2494C24.397 15.1533 24.5069 15.0296 24.5756 14.8648L24.6168 14.7823C25.0015 14.6312 25.3999 14.5488 25.7846 14.6862C26.183 14.8373 26.2791 15.0022 26.3753 15.1533C26.3753 15.1533 25.9357 15.5242 25.4411 15.5242C24.9465 15.5379 24.4794 15.4006 24.2871 15.2494Z" fill="white"/>
<path id="Vector_45" fill-rule="evenodd" clip-rule="evenodd" d="M24.1768 14.4659C24.1768 14.4659 24.0395 14.411 23.957 14.3972C24.1219 14.2461 24.3005 14.0126 24.3692 13.6691C24.5478 13.7103 24.9599 13.7103 25.1522 13.6416C25.3308 13.573 25.7018 13.573 25.9765 13.7515C25.9765 13.7515 25.8804 14.2461 25.2484 14.4247C24.6439 14.5896 24.4241 14.5484 24.1768 14.4659Z" fill="white"/>
<path id="Vector_46" fill-rule="evenodd" clip-rule="evenodd" d="M24.3969 13.491L24.3144 13.436C24.3144 13.436 24.1633 13.3399 23.916 13.3261C24.1221 13.175 24.6167 12.7629 24.9601 12.5568C25.3448 12.337 25.963 12.0622 26.2927 12.021C26.2927 12.021 25.9905 12.8178 25.647 13.1338C25.2898 13.4635 25.0288 13.5871 24.4106 13.491H24.3969Z" fill="white"/>
<path id="Vector_47" fill-rule="evenodd" clip-rule="evenodd" d="M23.75 13.1333C23.9011 12.9272 24.0248 12.6524 24.1072 12.3365C24.1759 12.0754 24.3407 11.416 24.4506 11.2512C24.5468 11.0863 24.904 10.4818 25.5909 10.3032C25.5909 10.3032 25.7695 11.0863 25.426 11.6908C25.1238 12.2266 24.5193 12.7761 23.75 13.147V13.1333Z" fill="white"/>
<path id="Vector_48" fill-rule="evenodd" clip-rule="evenodd" d="M19.9317 16.7331C19.8493 16.8155 19.7806 16.8705 19.6295 16.9392C19.6295 16.9392 19.4097 17.3651 19.6707 17.8734C19.9317 18.3817 20.1653 18.9037 20.2752 19.1922C20.2752 19.1922 20.4126 19.1648 20.5774 18.3679C20.6873 17.8322 20.8247 17.6948 20.9621 17.5024C20.811 17.5849 20.6873 17.5986 20.6736 17.6123H20.5637L20.5087 17.5299C20.4126 17.3513 20.3851 17.1727 20.3851 17.0216C20.3851 16.9667 20.3851 16.9254 20.3851 16.8842C20.1378 16.8842 20.0004 16.7606 19.9592 16.7056C19.9592 16.7056 19.9592 16.7056 19.9592 16.6919L19.9317 16.7194V16.7331Z" fill="white"/>
<path id="Vector_49" fill-rule="evenodd" clip-rule="evenodd" d="M24.2068 18.1615C24.7151 18.6698 25.8005 19.8375 25.6906 21.0877C25.6906 21.0877 24.6877 20.7717 24.2755 20.0298C23.8634 19.288 23.6024 18.8346 23.4375 18.656C23.5474 18.6698 23.6573 18.6698 23.7672 18.656H23.8634C24.1107 19.1094 24.619 19.865 25.0723 20.1398C25.0723 20.1398 25.1822 19.5215 23.8496 18.2714C23.8359 18.2164 23.8084 18.1615 23.7672 18.0928C23.8909 18.134 24.0282 18.1615 24.1794 18.1615H24.1931H24.2068Z" fill="white"/>
<path id="Vector_50" fill-rule="evenodd" clip-rule="evenodd" d="M16.4707 8.16046C16.4707 8.0643 16.8279 7.99561 17.2538 7.99561C17.6797 7.99561 18.0368 8.07803 18.0368 8.16046C18.0368 8.24289 17.6934 8.32532 17.2538 8.32532C16.8142 8.32532 16.4707 8.24289 16.4707 8.16046Z" fill="white"/>
<path id="Vector_51" fill-rule="evenodd" clip-rule="evenodd" d="M17.4038 8.53198C17.4038 8.61441 17.3351 8.6831 17.2527 8.6831C17.1703 8.6831 17.1016 8.61441 17.1016 8.53198C17.1016 8.44955 17.1703 8.38086 17.2527 8.38086C17.3351 8.38086 17.4038 8.44955 17.4038 8.53198Z" fill="white"/>
<path id="Vector_52" fill-rule="evenodd" clip-rule="evenodd" d="M16.4012 7.99577C16.1402 7.37756 15.9616 6.91046 15.9754 6.75934C15.9754 6.66318 16.0853 6.59449 16.1952 6.56701C16.2913 6.53953 16.3875 6.5258 16.4562 6.58075C16.5936 6.69065 16.7172 7.52868 16.7584 7.87213C16.621 7.89961 16.5524 7.91335 16.3875 7.99577H16.4012Z" fill="white"/>
<path id="Vector_53" fill-rule="evenodd" clip-rule="evenodd" d="M16.8824 7.85801C16.8824 7.85801 17.0198 7.85801 17.0885 7.84427C17.0472 7.51455 16.9373 6.95129 16.8686 6.73148C16.8 6.51167 16.7175 6.34681 16.5664 6.31934C16.5664 6.31934 16.6763 6.62157 16.745 6.93755C16.8 7.25353 16.8549 7.55577 16.8961 7.85801H16.8824Z" fill="white"/>
<path id="Vector_54" fill-rule="evenodd" clip-rule="evenodd" d="M16.0567 8.98444C16.3452 8.91575 16.6337 8.61351 16.6337 8.61351C16.1666 8.68221 16.0567 8.98444 16.0567 8.98444ZM16.4826 8.95697C16.0842 9.19052 15.6309 9.1493 15.6309 9.1493C15.7133 8.98444 15.7957 8.84706 16.043 8.66847C16.2903 8.48987 16.7024 8.44866 16.8673 8.46239C16.8261 8.58604 16.675 8.84706 16.4826 8.95697Z" fill="white"/>
<path id="Vector_55" fill-rule="evenodd" clip-rule="evenodd" d="M14.9986 9.61735V9.58988C14.6002 9.64483 14.1469 9.61735 14.1469 9.61735C14.1743 9.76847 14.2293 9.87838 14.3392 9.94707C14.3667 9.63109 15.0124 9.61735 15.0124 9.61735H14.9986ZM13.6935 9.19147C13.6935 9.19147 14.1881 9.38381 14.6826 9.35633C15.1772 9.32885 16.0977 9.31512 16.3862 9.17773C16.3862 9.17773 16.3449 9.37007 16.0977 9.47997C16.0977 9.47997 16.2213 9.47997 16.3449 9.58988C16.3449 9.58988 16.2763 9.741 16.0564 9.82343C16.0564 9.82343 16.4411 10.2218 16.8395 10.1944C16.8395 10.1944 16.6472 10.4279 16.235 10.3317C15.8229 10.2356 15.6855 10.002 15.6168 9.91959C15.6168 9.91959 15.6718 10.1394 15.6443 10.2356C15.6443 10.2356 15.4657 10.2356 15.3146 10.0432C15.3146 10.0432 15.4245 10.2218 15.4382 10.373C15.4382 10.373 15.3283 10.373 15.1223 10.263C15.1223 10.263 15.1635 10.373 15.1772 10.5103C15.1772 10.5103 14.6964 10.3592 14.4628 10.1394C14.4628 10.1394 14.4628 10.2905 14.4628 10.373C14.4628 10.373 13.721 10.2905 13.666 9.20521L13.6935 9.19147Z" fill="white"/>
<path id="Vector_56" fill-rule="evenodd" clip-rule="evenodd" d="M13.5711 9.25942C13.5848 9.49297 13.6535 9.72652 13.736 9.89138C13.736 9.89138 13.4475 9.67157 13.365 9.47923C13.2963 9.2869 13.2689 9.16326 13.5711 9.25942Z" fill="white"/>
<path id="Vector_57" fill-rule="evenodd" clip-rule="evenodd" d="M12.9787 10.1665C13.0474 10.1665 13.1024 10.1115 13.1024 10.0428C13.1024 9.97412 13.0474 9.91917 12.9787 9.91917C12.91 9.91917 12.8551 9.97412 12.8551 10.0428C12.8551 10.1115 12.91 10.1665 12.9787 10.1665ZM13.6931 10.0291C13.8854 10.1252 14.064 10.3313 14.064 10.3313C13.7618 10.4 13.6382 10.4824 13.6382 10.4824C13.0749 10.084 12.5941 10.4824 12.5941 10.4824C12.2918 10.3038 12.2231 9.87795 12.3742 9.65814C12.5254 9.42459 12.8688 9.46581 13.0337 9.50702C13.1436 9.83674 13.5008 9.94664 13.6794 10.0291H13.6931Z" fill="white"/>
<path id="Vector_58" fill-rule="evenodd" clip-rule="evenodd" d="M14.1345 10.3994C14.1345 10.3994 14.3406 10.6742 14.4917 10.7978C14.4917 10.7978 13.7224 10.7978 13.53 11.4572C13.53 11.4572 13.269 11.0451 13.4613 10.7841C13.6674 10.4956 13.8597 10.4681 14.1345 10.3994Z" fill="white"/>
<path id="Vector_59" fill-rule="evenodd" clip-rule="evenodd" d="M14.9863 10.565C14.9863 10.565 15.2336 10.6337 15.316 10.6612C15.316 10.6612 15.316 10.5238 15.316 10.4414C15.3847 10.4551 15.4809 10.4826 15.5633 10.4964C15.5633 10.4964 15.8106 11.0459 16.0029 11.2794C16.0029 11.2794 16.0029 11.4031 15.9068 11.5954C15.9068 11.5954 15.7694 11.2657 15.5221 11.0047C15.3847 10.8536 15.2886 10.7849 15.0001 10.5788L14.9863 10.565Z" fill="white"/>
<path id="Vector_60" fill-rule="evenodd" clip-rule="evenodd" d="M14.3262 10.4414C14.4086 10.4689 14.807 10.5925 14.9856 10.7299C15.2329 10.9085 15.3977 11.1008 15.3703 11.4443C15.3703 11.4443 15.1779 11.1695 14.9581 11.0459C14.7933 10.9497 14.4773 10.675 14.3262 10.4414Z" fill="white"/>
<path id="Vector_61" fill-rule="evenodd" clip-rule="evenodd" d="M14.3391 7.94043C14.4078 7.94043 14.5589 7.98164 14.5589 8.09155C14.5589 8.20145 14.3803 8.50369 14.3253 8.62734C14.2704 8.50369 14.0918 8.21519 14.0918 8.09155C14.0918 7.96791 14.2292 7.94043 14.3116 7.94043H14.3528H14.3391Z" fill="white"/>
<path id="Vector_62" fill-rule="evenodd" clip-rule="evenodd" d="M14.1765 8.86071C14.149 8.69585 14.0803 8.25623 13.9704 8.1738C13.8743 8.07764 13.7369 8.07764 13.6545 8.07764C13.5858 8.07764 13.5033 8.16007 13.5308 8.25623C13.5583 8.3524 13.8743 8.83323 13.9155 8.88819C13.9842 8.88819 13.9704 8.88819 14.1628 8.86071H14.1765Z" fill="white"/>
<path id="Vector_63" fill-rule="evenodd" clip-rule="evenodd" d="M14.4492 8.86071C14.4904 8.69585 14.5454 8.25623 14.6553 8.1738C14.7515 8.07764 14.8888 8.07764 14.9713 8.07764C15.04 8.07764 15.1224 8.16007 15.0949 8.25623C15.0674 8.3524 14.7515 8.83323 14.7102 8.88819C14.6416 8.88819 14.6553 8.88819 14.463 8.86071H14.4492Z" fill="white"/>
<path id="Vector_64" fill-rule="evenodd" clip-rule="evenodd" d="M14.6576 7.36412H14.4103V7.08936H14.218V7.36412H13.9707V7.52898H14.218V7.85869H14.4103V7.52898H14.6576V7.36412Z" fill="white"/>
<path id="Vector_65" fill-rule="evenodd" clip-rule="evenodd" d="M11.6609 9.13575C11.6609 9.13575 11.6609 9.02585 11.6609 8.97089C11.6746 8.83351 11.6746 8.72361 11.6609 8.62744C11.4823 8.69613 11.3586 8.73735 11.1113 9.13575C11.1113 9.13575 11.496 8.88847 11.6334 9.13575H11.6609Z" fill="white"/>
<path id="Vector_66" fill-rule="evenodd" clip-rule="evenodd" d="M12.0052 9.76806C12.0052 9.67189 12.0739 9.35591 12.1564 9.1361C12.2525 8.86134 12.1976 8.47667 12.0739 8.22939C11.964 7.99584 11.8953 7.78977 11.9091 7.54248C11.9091 7.54248 11.6755 7.62491 11.5519 7.70734C11.5244 7.9821 11.6893 8.25686 11.7717 8.42172C11.8679 8.61405 11.8404 8.8476 11.8266 8.99872C11.7854 9.24601 11.8404 9.52077 12.0052 9.76806Z" fill="white"/>
<path id="Vector_67" fill-rule="evenodd" clip-rule="evenodd" d="M12.0333 7.65204C12.0333 7.65204 12.0333 7.5284 12.0333 7.50092C12.0333 7.50092 12.4042 7.14373 12.7064 7.08878C12.8988 7.04756 13.0224 7.12999 13.0774 7.18494C13.0774 7.18494 12.9675 7.18494 12.8026 7.30859C12.6377 7.44597 12.4317 7.59709 12.2806 7.6383C12.1294 7.67951 12.102 7.66578 12.0195 7.66578L12.0333 7.65204Z" fill="white"/>
<path id="Vector_68" fill-rule="evenodd" clip-rule="evenodd" d="M13.1042 7.19922C13.2416 7.3366 13.3515 7.48772 13.3515 7.61136C13.3515 7.74874 13.2004 8.07846 13.118 8.2021C13.0355 8.32574 12.9256 8.4906 12.9394 8.69667C12.9394 8.79284 13.0218 8.90275 13.0905 8.98517C13.0905 8.98517 12.6371 8.87527 12.5822 8.60051C12.541 8.35322 12.6371 8.17463 12.7058 8.03724C12.7745 7.9136 12.9806 7.61136 13.0355 7.48772C13.0768 7.37781 13.1042 7.28165 13.0905 7.21296L13.1042 7.19922Z" fill="white"/>
<path id="Vector_69" fill-rule="evenodd" clip-rule="evenodd" d="M15.7149 10.3311C15.7973 10.6471 15.9485 10.9493 16.0996 11.1829C16.237 11.4027 16.3194 11.7461 16.3056 11.8561C16.3056 11.8561 16.5117 11.4027 16.4018 11.0867C16.3194 10.8394 16.0996 10.4685 15.7012 10.3174L15.7149 10.3311Z" fill="white"/>
<path id="Vector_70" fill-rule="evenodd" clip-rule="evenodd" d="M16.2246 10.4268C16.2246 10.4268 16.5268 10.4268 16.678 10.5229C16.8566 10.6466 17.0352 10.9076 17.1038 11.2373C17.1038 11.2373 16.7879 11.1824 16.6368 11.0312C16.4856 10.8801 16.2933 10.6466 16.2246 10.4268Z" fill="white"/>
<path id="Vector_71" fill-rule="evenodd" clip-rule="evenodd" d="M14.6283 10.9902C14.6283 10.9902 14.4085 11.0314 14.3398 11.0589C14.3398 11.0589 14.6009 11.1414 14.7245 11.2375C14.8344 11.3337 14.9306 11.4711 14.9718 11.7184C15.0405 12.0481 15.2328 12.419 15.2878 12.5289H15.3153C15.274 12.2954 15.4252 11.8145 15.4664 11.7458C15.4664 11.7458 15.2603 11.6222 15.1641 11.4848C15.0954 11.3886 14.9718 11.2238 14.6283 11.004V10.9902Z" fill="white"/>
<path id="Vector_72" fill-rule="evenodd" clip-rule="evenodd" d="M15.9893 11.7051C16.058 11.8837 16.2641 12.1996 16.1679 12.5156C16.0718 12.8453 15.8657 12.9827 15.7283 13.2575C15.7283 13.2575 15.6321 12.7629 15.6459 12.3782C15.6734 11.9936 15.8107 11.8425 15.9756 11.7051H15.9893Z" fill="white"/>
<path id="Vector_73" fill-rule="evenodd" clip-rule="evenodd" d="M16.579 11.7188C16.579 11.7188 16.8813 12.3096 16.9362 12.5431C16.9912 12.7767 16.9362 12.9278 16.8401 13.0652C16.7439 13.2025 16.5653 13.3537 16.4004 13.6422C16.4004 13.6422 16.2081 13.3949 16.1944 13.2575C16.1669 13.1338 16.1944 12.8179 16.2493 12.6805C16.2905 12.5431 16.4554 12.131 16.579 11.7051V11.7188Z" fill="white"/>
<path id="Vector_74" fill-rule="evenodd" clip-rule="evenodd" d="M16.729 13.6147C16.6603 13.6834 16.3031 14.1231 16.2619 14.2467C16.2207 14.3703 16.1383 14.6039 16.2482 14.7687C16.3581 14.9336 16.6191 15.1946 16.8389 15.3045C16.8389 15.3045 16.6054 14.9336 16.6191 14.6176C16.6191 14.4253 16.784 14.2467 16.8115 14.1231C16.8389 13.9994 16.8115 13.7933 16.729 13.6147Z" fill="white"/>
<path id="Vector_75" fill-rule="evenodd" clip-rule="evenodd" d="M16.0459 13.3813C16.1008 13.4638 16.197 13.6424 16.2107 13.821C16.2107 13.9996 16.197 14.1369 16.1008 14.398C15.9772 14.7277 15.7849 15.0986 15.7024 15.2635C15.7024 15.2635 15.5376 15.0299 15.4414 14.8101C15.4414 14.8101 15.7024 14.4529 15.8123 14.1919C15.936 13.8897 15.9909 13.6149 16.0459 13.3813Z" fill="white"/>
<path id="Vector_76" fill-rule="evenodd" clip-rule="evenodd" d="M15.9217 13.2437C15.9217 13.2437 15.8118 14.0955 15.3173 14.7137C14.9875 15.1396 14.7128 15.2907 14.5342 15.2907C14.2594 15.2907 13.9847 15.0572 13.9022 14.7961C13.8061 14.5351 13.8335 14.1367 14.0121 13.9856C14.0121 13.9856 14.177 14.4939 14.5204 14.5076C14.9189 14.5351 15.4134 14.0817 15.9217 13.23V13.2437Z" fill="white"/>
<path id="Vector_77" fill-rule="evenodd" clip-rule="evenodd" d="M15.507 12.8862C15.5482 13.0373 15.5619 13.2709 15.507 13.4907C15.4658 13.6556 15.3696 13.8754 15.1773 13.999C15.0124 14.1089 14.614 14.1227 14.4629 13.7517C14.4629 13.7517 15.1773 13.8067 15.507 12.8862Z" fill="white"/>
<path id="Vector_78" fill-rule="evenodd" clip-rule="evenodd" d="M16.6886 16.2935C16.7848 16.5545 17.142 16.8705 17.142 17.0628C17.142 17.5848 16.9084 17.9146 16.8535 18.0794C16.8535 18.0794 16.4413 17.7497 16.3589 17.365C16.3177 17.1727 16.3589 16.582 16.6886 16.2935Z" fill="white"/>
<path id="Vector_79" fill-rule="evenodd" clip-rule="evenodd" d="M16.2225 16.664C16.2775 16.5267 16.4286 16.1557 16.6072 16.0321C16.6072 16.0321 16.8407 15.3589 16.0989 14.9468C16.0989 14.9468 15.7966 15.3452 15.7142 15.7298C15.6318 16.1145 16.0302 16.3343 16.2225 16.6778V16.664Z" fill="white"/>
<path id="Vector_80" fill-rule="evenodd" clip-rule="evenodd" d="M15.3025 14.9605C15.1789 15.1116 15.014 15.304 14.8904 15.3589C14.8904 15.3589 14.8492 15.6612 14.8766 15.8672C14.9178 16.1695 15.1102 16.4717 15.1789 16.6915C15.1789 16.6915 15.4948 16.2656 15.5361 16.0184C15.5773 15.7711 15.5635 15.565 15.5773 15.4413C15.5773 15.4413 15.3987 15.1528 15.3025 14.9468V14.9605Z" fill="white"/>
<path id="Vector_81" fill-rule="evenodd" clip-rule="evenodd" d="M14.4628 16.417C14.3666 16.2796 14.0781 15.7713 14.0781 15.4004C14.0781 15.4004 14.4353 15.5927 14.7376 15.4553C14.7376 15.4553 14.7788 15.9362 14.7238 16.101C14.6689 16.2384 14.6139 16.3071 14.4628 16.4307V16.417Z" fill="white"/>
<path id="Vector_82" fill-rule="evenodd" clip-rule="evenodd" d="M14.5469 16.5135C14.5469 16.5135 14.7529 16.3349 14.8079 16.2524C14.8079 16.2524 15.0414 16.6921 15.0827 16.8294C15.0827 16.8294 14.959 16.8569 14.8354 16.7608C14.698 16.6646 14.6705 16.6371 14.5469 16.5135Z" fill="white"/>
<path id="Vector_83" fill-rule="evenodd" clip-rule="evenodd" d="M15.6586 16.2524C15.6311 16.3623 15.2464 16.9119 15.1777 16.9668C15.1777 16.9668 15.2052 17.1592 15.3563 17.4477C15.4937 17.7224 15.6998 17.9285 15.8097 18.0247C15.8097 18.0247 16.0432 17.5988 16.1257 17.4202C16.2081 17.2141 16.1944 16.9943 16.1669 16.9256C16.0845 16.747 15.8097 16.4723 15.6723 16.2524H15.6586Z" fill="white"/>
<path id="Vector_84" fill-rule="evenodd" clip-rule="evenodd" d="M16.236 17.667C16.3184 17.8456 16.5795 18.1204 16.6207 18.3539C16.6481 18.5325 16.6207 18.6699 16.5795 18.8073C16.5245 18.9309 16.3734 19.1644 16.2772 19.343C16.2772 19.343 15.92 19.0133 15.8513 18.766C15.7964 18.5874 15.8101 18.3264 15.8925 18.1753C15.975 18.0104 16.1673 17.8456 16.236 17.6807V17.667Z" fill="white"/>
<path id="Vector_85" fill-rule="evenodd" clip-rule="evenodd" d="M15.2324 17.626C15.3286 17.8321 15.5484 18.0244 15.5896 18.203C15.6446 18.4091 15.672 18.5465 15.5621 18.78C15.466 18.9861 15.3698 19.1235 15.3286 19.2471C15.3286 19.2471 15.0401 18.8762 14.9989 18.7114C14.9577 18.5602 14.9302 18.2992 14.9989 18.1344C15.0538 17.9695 15.1637 17.7634 15.2324 17.6123V17.626Z" fill="white"/>
<path id="Vector_86" fill-rule="evenodd" clip-rule="evenodd" d="M16.6491 19.0547C16.6491 19.0547 16.1545 19.6592 16.1682 19.9751C16.182 20.3735 16.443 20.6346 16.4842 20.8819C16.4842 20.8819 16.7453 20.5934 16.8414 20.3873C16.9513 20.1675 17.0338 19.9751 17.0063 19.7279C16.9788 19.4806 16.9101 19.3157 16.6491 19.0547Z" fill="white"/>
<path id="Vector_87" fill-rule="evenodd" clip-rule="evenodd" d="M15.7412 18.9858C15.8236 19.0957 16.0434 19.4942 15.9747 19.7277C15.9061 19.9612 15.6725 20.291 15.5901 20.4283C15.5901 20.4283 15.3977 20.0299 15.3565 19.8376C15.3153 19.659 15.3565 19.3568 15.7412 18.9858Z" fill="white"/>
<path id="Vector_88" fill-rule="evenodd" clip-rule="evenodd" d="M17.2535 7.51517C17.281 7.29536 17.542 6.80079 17.542 6.59472C17.542 6.42986 17.4046 6.29248 17.2397 6.29248C17.0749 6.29248 16.9375 6.42986 16.9375 6.59472C16.9375 6.80079 17.1985 7.29536 17.226 7.51517H17.2535Z" fill="white"/>
<path id="Vector_89" fill-rule="evenodd" clip-rule="evenodd" d="M18.0916 7.99577C18.3526 7.37756 18.5312 6.91046 18.5174 6.75934C18.5174 6.66318 18.4075 6.59449 18.2976 6.56701C18.1877 6.53953 18.1053 6.5258 18.0366 6.58075C17.8992 6.69065 17.7756 7.52868 17.7344 7.87213C17.8718 7.89961 17.9404 7.91335 18.1053 7.99577H18.0916Z" fill="white"/>
<path id="Vector_90" fill-rule="evenodd" clip-rule="evenodd" d="M17.6104 7.85801C17.6104 7.85801 17.473 7.85801 17.4043 7.84427C17.4455 7.51455 17.5554 6.95129 17.6241 6.73148C17.6928 6.51167 17.7752 6.34681 17.9263 6.31934C17.9263 6.31934 17.8164 6.62157 17.7477 6.93755C17.6928 7.25353 17.6378 7.55577 17.5966 7.85801H17.6104Z" fill="white"/>
<path id="Vector_91" fill-rule="evenodd" clip-rule="evenodd" d="M17.8585 8.60013C17.8585 8.60013 18.147 8.90236 18.4355 8.97105C18.4355 8.97105 18.3119 8.65508 17.8585 8.60013ZM17.625 8.46274C17.7899 8.43527 18.1883 8.49022 18.4493 8.66882C18.6966 8.84741 18.779 8.99853 18.8614 9.14965C18.8614 9.14965 18.4081 9.19086 18.0097 8.95732C17.8173 8.84741 17.6525 8.58639 17.625 8.46274Z" fill="white"/>
<path id="Vector_92" fill-rule="evenodd" clip-rule="evenodd" d="M20.1666 9.93242C20.2765 9.86373 20.3315 9.75382 20.359 9.60271C20.359 9.60271 19.8919 9.61644 19.4935 9.57523V9.60271C19.4935 9.60271 20.1391 9.60271 20.1666 9.93242ZM20.0018 10.3583C20.0018 10.2759 20.0018 10.1248 20.0018 10.1248C19.7682 10.3446 19.2874 10.4957 19.2874 10.4957C19.2874 10.372 19.3286 10.2484 19.3286 10.2484C19.1225 10.372 19.0126 10.3583 19.0126 10.3583C19.0401 10.2072 19.1363 10.0286 19.1363 10.0286C18.9989 10.2072 18.8065 10.2209 18.8065 10.2209C18.7791 10.1248 18.834 9.90494 18.834 9.90494C18.7653 10.0011 18.6279 10.2347 18.2158 10.3171C17.8037 10.4133 17.6113 10.1797 17.6113 10.1797C18.0235 10.2072 18.3944 9.80878 18.3944 9.80878C18.1883 9.72635 18.1059 9.57523 18.1059 9.57523C18.2295 9.46532 18.3532 9.46532 18.3532 9.46532C18.1196 9.35542 18.0647 9.16309 18.0647 9.16309C18.3669 9.31421 19.2736 9.31421 19.782 9.34168C20.2765 9.36916 20.7711 9.17682 20.7711 9.17682C20.7161 10.2759 19.9743 10.3446 19.9743 10.3446L20.0018 10.3583Z" fill="white"/>
<path id="Vector_93" fill-rule="evenodd" clip-rule="evenodd" d="M20.9207 9.25942C20.907 9.49297 20.8383 9.72652 20.7559 9.89138C20.7559 9.89138 21.0444 9.67157 21.1131 9.47923C21.1817 9.2869 21.2092 9.16326 20.907 9.25942H20.9207Z" fill="white"/>
<path id="Vector_94" fill-rule="evenodd" clip-rule="evenodd" d="M21.6211 10.0428C21.6211 10.0428 21.5662 9.91917 21.4975 9.91917C21.4288 9.91917 21.3738 9.97412 21.3738 10.0428C21.3738 10.1115 21.4288 10.1665 21.4975 10.1665C21.5662 10.1665 21.6211 10.1115 21.6211 10.0428ZM21.4288 9.50702C21.5937 9.46581 21.9371 9.42459 22.0882 9.65814C22.2393 9.87795 22.1844 10.3176 21.8684 10.4824C21.8684 10.4824 21.4013 10.0703 20.8243 10.4824C20.8243 10.4824 20.6869 10.4 20.3984 10.3313C20.3984 10.3313 20.577 10.1115 20.7694 10.0291C20.948 9.94664 21.3052 9.83674 21.4151 9.50702H21.4288Z" fill="white"/>
<path id="Vector_95" fill-rule="evenodd" clip-rule="evenodd" d="M20.3591 10.3994C20.3591 10.3994 20.1531 10.6742 20.002 10.7978C20.002 10.7978 20.7713 10.7978 20.9636 11.4572C20.9636 11.4572 21.2246 11.0451 21.0323 10.7841C20.8262 10.4956 20.6339 10.4681 20.3591 10.3994Z" fill="white"/>
<path id="Vector_96" fill-rule="evenodd" clip-rule="evenodd" d="M19.5049 10.565C19.5049 10.565 19.2576 10.6337 19.1752 10.6612C19.1752 10.6612 19.1752 10.5238 19.1752 10.4414C19.1065 10.4551 19.0103 10.4826 18.9279 10.4964C18.9279 10.4964 18.6806 11.0459 18.4883 11.2794C18.4883 11.2794 18.4883 11.4031 18.5844 11.5954C18.5844 11.5954 18.7218 11.2657 18.9691 11.0047C19.1065 10.8536 19.2027 10.7849 19.4912 10.5788L19.5049 10.565Z" fill="white"/>
<path id="Vector_97" fill-rule="evenodd" clip-rule="evenodd" d="M20.166 10.4414C20.0836 10.4689 19.6989 10.5925 19.5066 10.7299C19.273 10.9085 19.1082 11.1008 19.1219 11.4443C19.1219 11.4443 19.3142 11.1695 19.534 11.0459C19.6989 10.9497 20.0149 10.675 20.166 10.4414Z" fill="white"/>
<path id="Vector_98" fill-rule="evenodd" clip-rule="evenodd" d="M20.1515 7.94043C20.0828 7.94043 19.9316 7.98164 19.9316 8.09155C19.9316 8.20145 20.1102 8.50369 20.1652 8.62734C20.2201 8.50369 20.3987 8.21519 20.3987 8.09155C20.3987 7.96791 20.2614 7.94043 20.1789 7.94043H20.1377H20.1515Z" fill="white"/>
<path id="Vector_99" fill-rule="evenodd" clip-rule="evenodd" d="M20.3145 8.86071C20.3419 8.69585 20.4106 8.25623 20.5205 8.1738C20.6167 8.07764 20.7541 8.07764 20.8365 8.07764C20.9052 8.07764 20.9876 8.16007 20.9464 8.25623C20.9189 8.3524 20.603 8.83323 20.5617 8.88819C20.493 8.88819 20.5068 8.88819 20.3282 8.86071H20.3145Z" fill="white"/>
<path id="Vector_100" fill-rule="evenodd" clip-rule="evenodd" d="M20.0414 8.86071C20.0002 8.69585 19.9453 8.25623 19.8354 8.1738C19.7392 8.07764 19.5881 8.07764 19.5194 8.07764C19.4507 8.07764 19.3683 8.16007 19.4095 8.25623C19.437 8.3524 19.7529 8.83323 19.7942 8.88819C19.8628 8.88819 19.8491 8.88819 20.0414 8.86071Z" fill="white"/>
<path id="Vector_101" fill-rule="evenodd" clip-rule="evenodd" d="M19.8359 7.36412H20.0832V7.08936H20.2756V7.36412H20.5228V7.52898H20.2756V7.85869H20.0832V7.52898H19.8359V7.36412Z" fill="white"/>
<path id="Vector_102" fill-rule="evenodd" clip-rule="evenodd" d="M16.8945 5.72886H17.1418V5.4541H17.3479V5.72886H17.5952V5.89372H17.3479V6.22344H17.1418V5.89372H16.8945V5.72886Z" fill="white"/>
<path id="Vector_103" fill-rule="evenodd" clip-rule="evenodd" d="M22.8303 9.13575C22.8303 9.13575 22.8303 9.02585 22.8303 8.97089C22.8166 8.83351 22.8028 8.72361 22.8303 8.62744C23.0089 8.69613 23.1326 8.73735 23.3798 9.13575C23.3798 9.13575 22.9952 8.88847 22.8578 9.13575H22.8303Z" fill="white"/>
<path id="Vector_104" fill-rule="evenodd" clip-rule="evenodd" d="M22.4892 9.76806C22.4892 9.67189 22.4205 9.35591 22.338 9.1361C22.2419 8.86134 22.2968 8.47667 22.4205 8.22939C22.5304 7.99584 22.5991 7.78977 22.5853 7.54248C22.5853 7.54248 22.8189 7.62491 22.9563 7.70734C22.9837 7.9821 22.8189 8.25686 22.7364 8.42172C22.6403 8.61405 22.6678 8.8476 22.6815 8.99872C22.7227 9.24601 22.6678 9.52077 22.5029 9.76806H22.4892Z" fill="white"/>
<path id="Vector_105" fill-rule="evenodd" clip-rule="evenodd" d="M22.4601 7.65204C22.4601 7.65204 22.4601 7.5284 22.4601 7.50092C22.4601 7.50092 22.1029 7.14373 21.7869 7.08878C21.5946 7.04756 21.471 7.12999 21.416 7.18494C21.416 7.18494 21.5259 7.18494 21.6908 7.30859C21.8556 7.44597 22.0617 7.59709 22.2128 7.6383C22.3639 7.67951 22.4052 7.66578 22.4739 7.66578L22.4601 7.65204Z" fill="white"/>
<path id="Vector_106" fill-rule="evenodd" clip-rule="evenodd" d="M21.386 7.19922C21.2486 7.3366 21.1387 7.48772 21.1387 7.61136C21.1387 7.74874 21.2898 8.07846 21.3722 8.2021C21.4546 8.32574 21.5646 8.4906 21.5508 8.69667C21.5508 8.79284 21.4821 8.90275 21.3997 8.98517C21.3997 8.98517 21.8393 8.87527 21.8943 8.60051C21.9492 8.35322 21.8393 8.17463 21.7706 8.03724C21.7019 7.9136 21.4959 7.61136 21.4409 7.48772C21.3997 7.37781 21.3722 7.28165 21.386 7.21296V7.19922Z" fill="white"/>
<path id="Vector_107" fill-rule="evenodd" clip-rule="evenodd" d="M18.7778 10.3311C18.6816 10.6471 18.5305 10.9493 18.3931 11.1829C18.2557 11.4027 18.1733 11.7461 18.187 11.8561C18.187 11.8561 17.981 11.4027 18.0909 11.0867C18.1733 10.8394 18.3794 10.4685 18.7915 10.3174L18.7778 10.3311Z" fill="white"/>
<path id="Vector_108" fill-rule="evenodd" clip-rule="evenodd" d="M18.2699 10.4268C18.2699 10.4268 17.9676 10.4268 17.8165 10.5229C17.6379 10.6466 17.4593 10.9076 17.3906 11.2373C17.3906 11.2373 17.7066 11.1824 17.8577 11.0312C18.0088 10.8801 18.2012 10.6466 18.2699 10.4268Z" fill="white"/>
<path id="Vector_109" fill-rule="evenodd" clip-rule="evenodd" d="M19.8634 10.9902C19.8634 10.9902 20.0832 11.0314 20.1519 11.0589C20.1519 11.0589 19.8908 11.1414 19.7672 11.2375C19.6573 11.3337 19.5611 11.4711 19.5199 11.7184C19.4512 12.0481 19.2589 12.419 19.2039 12.5289H19.1764C19.2177 12.2954 19.0665 11.8145 19.0391 11.7458C19.0391 11.7458 19.2451 11.6222 19.3413 11.4848C19.41 11.3886 19.5336 11.2238 19.8771 11.004L19.8634 10.9902Z" fill="white"/>
<path id="Vector_110" fill-rule="evenodd" clip-rule="evenodd" d="M18.5025 11.7051C18.4339 11.8837 18.2278 12.1996 18.324 12.5156C18.4201 12.8453 18.6262 12.9827 18.7636 13.2575C18.7636 13.2575 18.8735 12.7629 18.846 12.3782C18.8185 11.9936 18.6811 11.8425 18.5163 11.7051H18.5025Z" fill="white"/>
<path id="Vector_111" fill-rule="evenodd" clip-rule="evenodd" d="M17.2513 12.6252C17.2651 12.4329 17.7047 11.9795 17.6772 11.7322C17.6497 11.4849 17.32 11.3064 17.2513 11.2651C17.1689 11.3064 16.8392 11.4712 16.8255 11.7322C16.798 11.9795 17.2376 12.4329 17.2513 12.6252Z" fill="white"/>
<path id="Vector_112" fill-rule="evenodd" clip-rule="evenodd" d="M17.9122 11.7188C17.9122 11.7188 17.61 12.3096 17.555 12.5431C17.5001 12.7767 17.555 12.9278 17.6512 13.0652C17.7474 13.2025 17.926 13.3537 18.0908 13.6422C18.0908 13.6422 18.2832 13.3949 18.2969 13.2575C18.3244 13.1338 18.2832 12.8179 18.2419 12.6805C18.2007 12.5431 18.0359 12.131 17.8985 11.7051L17.9122 11.7188Z" fill="white"/>
<path id="Vector_113" fill-rule="evenodd" clip-rule="evenodd" d="M17.2516 14.0127C17.389 13.8891 17.5127 13.7105 17.5539 13.6006C17.5951 13.4907 17.5951 13.3396 17.5127 13.2159C17.4028 13.0785 17.2654 12.9137 17.2516 12.79C17.2516 12.9137 17.1005 13.0785 16.9906 13.2159C16.8945 13.3396 16.9082 13.4907 16.9494 13.6006C16.9906 13.7105 17.1143 13.8891 17.2516 14.0127Z" fill="white"/>
<path id="Vector_114" fill-rule="evenodd" clip-rule="evenodd" d="M17.7603 13.6147C17.829 13.6834 18.1862 14.1231 18.2274 14.2467C18.2823 14.3703 18.351 14.6039 18.2411 14.7687C18.1312 14.9336 17.8839 15.1946 17.6504 15.3045C17.6504 15.3045 17.8839 14.9336 17.8702 14.6176C17.8565 14.4253 17.7053 14.2467 17.6779 14.1231C17.6504 13.9994 17.6779 13.7933 17.7603 13.6147Z" fill="white"/>
<path id="Vector_115" fill-rule="evenodd" clip-rule="evenodd" d="M18.45 13.3813C18.3951 13.4638 18.2989 13.6424 18.2852 13.821C18.2852 13.9996 18.2989 14.1369 18.3951 14.398C18.5187 14.7277 18.711 15.0986 18.7935 15.2635C18.7935 15.2635 18.9583 15.0299 19.0545 14.8101C19.0545 14.8101 18.7935 14.4529 18.6836 14.1919C18.5599 13.8897 18.505 13.6149 18.45 13.3813Z" fill="white"/>
<path id="Vector_116" fill-rule="evenodd" clip-rule="evenodd" d="M18.5723 13.2437C18.5723 13.2437 18.6822 14.0955 19.1767 14.7137C19.5065 15.1396 19.7812 15.2907 19.9598 15.2907C20.2346 15.2907 20.5093 15.0572 20.5918 14.7961C20.6879 14.5351 20.6467 14.1367 20.4819 13.9856C20.4819 13.9856 20.317 14.4939 19.9736 14.5076C19.5751 14.5351 19.0806 14.0817 18.5723 13.23V13.2437Z" fill="white"/>
<path id="Vector_117" fill-rule="evenodd" clip-rule="evenodd" d="M18.9835 12.8862C18.9423 13.0373 18.9286 13.2709 18.9835 13.4907C19.0247 13.6556 19.1209 13.8754 19.3132 13.999C19.4781 14.1089 19.8765 14.1227 20.0276 13.7517C20.0276 13.7517 19.3132 13.8067 18.9835 12.8862Z" fill="white"/>
<path id="Vector_118" fill-rule="evenodd" clip-rule="evenodd" d="M17.2514 15.4004C17.3476 15.3454 17.4438 15.318 17.5537 15.1394C17.6498 15.002 17.7323 14.741 17.6773 14.5486C17.6224 14.3151 17.4987 14.2327 17.4163 14.0815C17.3613 14.1365 17.3201 14.1777 17.2377 14.2189C17.169 14.1777 17.1278 14.1365 17.0591 14.0815C16.9767 14.2189 16.8668 14.3151 16.7981 14.5486C16.7569 14.741 16.8393 15.002 16.9217 15.1394C17.0454 15.318 17.1278 15.3592 17.224 15.4004H17.2514Z" fill="white"/>
<path id="Vector_119" fill-rule="evenodd" clip-rule="evenodd" d="M17.2509 16.8291C17.3059 16.6093 17.773 16.1697 17.718 15.9361C17.6493 15.5789 17.4295 15.6614 17.2509 15.5103C17.0723 15.6614 16.8388 15.5789 16.7838 15.9361C16.7426 16.1697 17.2097 16.6093 17.2509 16.8291Z" fill="white"/>
<path id="Vector_120" fill-rule="evenodd" clip-rule="evenodd" d="M17.801 16.2935C17.7048 16.5545 17.3477 16.8705 17.3477 17.0628C17.3477 17.5848 17.5812 17.9146 17.6362 18.0794C17.6362 18.0794 18.0483 17.7497 18.1307 17.365C18.1719 17.1727 18.1307 16.582 17.801 16.2935Z" fill="white"/>
<path id="Vector_121" fill-rule="evenodd" clip-rule="evenodd" d="M18.2691 16.664C18.2279 16.5267 18.0631 16.1557 17.8845 16.0321C17.8845 16.0321 17.6509 15.3589 18.3928 14.9468C18.3928 14.9468 18.695 15.3452 18.7774 15.7298C18.8599 16.1145 18.4615 16.3343 18.2691 16.6778V16.664Z" fill="white"/>
<path id="Vector_122" fill-rule="evenodd" clip-rule="evenodd" d="M19.1908 14.9605C19.3007 15.1116 19.4655 15.304 19.6029 15.3589C19.6029 15.3589 19.6441 15.6612 19.6167 15.8672C19.5754 16.1695 19.3831 16.4717 19.3144 16.6915C19.3144 16.6915 18.9984 16.2656 18.9572 16.0184C18.916 15.7711 18.9298 15.565 18.916 15.4413C18.916 15.4413 19.0946 15.1528 19.1908 14.9468V14.9605Z" fill="white"/>
<path id="Vector_123" fill-rule="evenodd" clip-rule="evenodd" d="M20.0279 16.417C20.124 16.2796 20.4125 15.7713 20.4125 15.4004C20.4125 15.4004 20.0554 15.5927 19.7531 15.4553C19.7531 15.4553 19.7119 15.9362 19.7669 16.101C19.8081 16.2384 19.8768 16.3071 20.0279 16.4307V16.417Z" fill="white"/>
<path id="Vector_124" fill-rule="evenodd" clip-rule="evenodd" d="M19.944 16.5135C19.944 16.5135 19.7379 16.3349 19.683 16.2524C19.683 16.2524 19.4357 16.6921 19.4082 16.8294C19.4082 16.8294 19.5318 16.8569 19.6555 16.7608C19.7929 16.6646 19.8203 16.6371 19.944 16.5135Z" fill="white"/>
<path id="Vector_125" fill-rule="evenodd" clip-rule="evenodd" d="M18.8343 16.2524C18.8617 16.3623 19.2464 16.9119 19.3151 16.9668C19.3151 16.9668 19.2876 17.1592 19.1365 17.4477C18.9991 17.7224 18.7931 17.9285 18.6832 18.0247C18.6832 18.0247 18.4496 17.5988 18.3672 17.4202C18.2847 17.2141 18.2985 16.9943 18.326 16.9256C18.4084 16.747 18.6832 16.4723 18.8068 16.2524H18.8343Z" fill="white"/>
<path id="Vector_126" fill-rule="evenodd" clip-rule="evenodd" d="M17.2533 19.4673C17.2945 19.3162 17.5143 19.1376 17.6105 18.8903C17.6655 18.7392 17.6655 18.5606 17.6105 18.4369C17.5418 18.2995 17.2945 17.9424 17.2533 17.8462C17.2258 17.9424 16.9785 18.2995 16.8961 18.4369C16.8412 18.5606 16.8274 18.7392 16.8961 18.8903C16.9923 19.1513 17.2121 19.3299 17.2533 19.4673Z" fill="white"/>
<path id="Vector_127" fill-rule="evenodd" clip-rule="evenodd" d="M18.2571 17.667C18.1746 17.8456 17.9136 18.1204 17.8724 18.3539C17.8449 18.5325 17.8724 18.6699 17.9136 18.8073C17.9686 18.9309 18.1197 19.1644 18.2158 19.343C18.2158 19.343 18.573 19.0133 18.6417 18.766C18.6967 18.5874 18.6829 18.3264 18.5868 18.1753C18.5043 18.0104 18.312 17.8456 18.2433 17.6807L18.2571 17.667Z" fill="white"/>
<path id="Vector_128" fill-rule="evenodd" clip-rule="evenodd" d="M19.2588 17.626C19.1626 17.8321 18.9428 18.0244 18.9016 18.203C18.8466 18.4091 18.8192 18.5465 18.9291 18.78C19.0252 18.9861 19.1214 19.1235 19.1626 19.2471C19.1626 19.2471 19.4511 18.8762 19.4923 18.7114C19.5473 18.5602 19.561 18.2992 19.4923 18.1344C19.4374 17.9695 19.3275 17.7634 19.2588 17.6123V17.626Z" fill="white"/>
<path id="Vector_129" fill-rule="evenodd" clip-rule="evenodd" d="M17.252 22.3382C17.2657 22.1596 17.6504 21.5826 17.6641 20.9919C17.6641 20.6896 17.4031 20.2225 17.252 20.0439C17.1009 20.2225 16.8398 20.6896 16.8398 20.9919C16.8536 21.5964 17.2382 22.1596 17.252 22.3382Z" fill="white"/>
<path id="Vector_130" fill-rule="evenodd" clip-rule="evenodd" d="M17.8449 19.0547C17.8449 19.0547 18.3395 19.6592 18.3258 19.9751C18.312 20.3735 18.051 20.6346 18.0098 20.8819C18.0098 20.8819 17.7488 20.5934 17.6526 20.3873C17.5427 20.1675 17.4603 19.9751 17.4877 19.7279C17.5152 19.4806 17.5839 19.3157 17.8449 19.0547Z" fill="white"/>
<path id="Vector_131" fill-rule="evenodd" clip-rule="evenodd" d="M18.7525 18.9858C18.6701 19.0957 18.4503 19.4942 18.519 19.7277C18.5877 19.9612 18.8212 20.291 18.9036 20.4283C18.9036 20.4283 19.096 20.0299 19.1372 19.8376C19.1784 19.659 19.1372 19.3568 18.7525 18.9858Z" fill="white"/>
<path id="Vector_132" fill-rule="evenodd" clip-rule="evenodd" d="M17.5817 23.2998C17.6091 22.8327 17.8702 22.558 17.9251 22.3107C17.9801 22.0497 17.9526 21.7886 17.7603 21.4727C17.5954 22.0497 17.4031 22.4618 17.2657 22.7503C17.2657 22.7503 17.2657 22.764 17.2657 22.7778C17.2657 22.7778 17.2657 22.764 17.2657 22.7503C17.1283 22.4618 16.936 22.0359 16.7711 21.4727C16.565 21.7749 16.5513 22.0359 16.5925 22.3107C16.6337 22.558 16.9085 22.8327 16.936 23.2998C16.9635 23.7669 16.4414 23.9455 16.4414 23.9455C16.62 24.0142 16.8123 24.0417 17.142 23.7394C17.197 23.6845 17.2382 23.6295 17.2794 23.5608C17.3069 23.6295 17.3619 23.6845 17.4168 23.7394C17.7328 24.0417 17.9389 24.0142 18.1175 23.9455C18.1175 23.9455 17.5954 23.7669 17.6229 23.2998H17.5817Z" fill="white"/>
<path id="Vector_133" fill-rule="evenodd" clip-rule="evenodd" d="M15.9334 20.1949C15.9883 20.3735 16.1532 20.6895 16.1669 20.7856C16.2082 20.9642 16.1532 21.1978 15.8235 21.4313C15.8235 21.4313 15.6037 21.2802 15.5212 21.0741C15.4388 20.8818 15.4938 20.7444 15.5762 20.6482C15.6586 20.5521 15.8647 20.3185 15.9471 20.1812L15.9334 20.1949Z" fill="white"/>
<path id="Vector_134" fill-rule="evenodd" clip-rule="evenodd" d="M16.6495 20.8823C16.6495 20.9785 16.5808 21.5005 16.4297 21.7753C16.2236 22.1462 15.9076 22.421 15.6466 22.421C15.3993 22.421 15.3443 22.2699 15.2207 22.2149C15.2207 22.2149 15.2894 21.8989 15.5642 21.8165C15.9076 21.7066 16.4434 21.2945 16.6495 20.8961V20.8823Z" fill="white"/>
<path id="Vector_135" fill-rule="evenodd" clip-rule="evenodd" d="M15.7422 21.5554C15.7422 21.5554 15.6323 21.4867 15.5636 21.4043C15.5636 21.4043 15.3025 21.5005 15.0827 21.6516C14.8629 21.8027 14.6431 22.05 14.5332 22.1874C14.5332 22.1874 14.8629 22.2698 15.069 22.1874C15.069 22.1874 15.1377 21.8714 15.385 21.734C15.4399 21.7065 15.6048 21.6516 15.7559 21.5829L15.7422 21.5554Z" fill="white"/>
<path id="Vector_136" fill-rule="evenodd" clip-rule="evenodd" d="M15.4649 21.281C15.41 21.1986 15.3138 21.0612 15.3276 20.8276C15.3276 20.8276 14.8605 21.1299 14.7231 21.2398C14.5857 21.3497 14.2972 21.6519 14.2285 21.7481C14.2285 21.7481 14.5857 21.6657 14.8467 21.5832C15.1352 21.4871 15.3413 21.3497 15.4512 21.2947L15.4649 21.281Z" fill="white"/>
<path id="Vector_137" fill-rule="evenodd" clip-rule="evenodd" d="M14.6819 21.7886C14.4346 21.8848 13.8714 21.9672 13.6378 22.0359C13.4043 22.1046 13.2394 22.2283 13.0059 22.4755C13.0059 22.4755 13.3493 22.5717 13.5279 22.6267C13.5279 22.6267 13.8164 22.4206 14.1324 22.2969C14.3385 22.2145 14.4484 21.9947 14.6682 21.7749L14.6819 21.7886Z" fill="white"/>
<path id="Vector_138" fill-rule="evenodd" clip-rule="evenodd" d="M14.1633 23.4514C14.1633 23.4514 14.287 23.3277 14.232 23.1766C14.1908 23.0667 13.9985 22.9568 13.8748 22.9018C13.6688 22.8057 13.1192 22.6546 12.9407 22.5996C12.9407 22.5996 12.8445 22.7095 12.8033 22.8194C12.7758 22.8606 12.8033 22.9018 12.8857 22.9156C13.0368 22.9431 13.4077 22.8744 13.5039 22.9293C13.6001 22.998 13.5589 23.0804 13.5589 23.1629C13.5589 23.1629 13.7237 23.053 13.8336 23.0804C13.9848 23.1079 14.0672 23.1903 14.1633 23.4376V23.4514Z" fill="white"/>
<path id="Vector_139" fill-rule="evenodd" clip-rule="evenodd" d="M13.666 22.6682C13.666 22.6682 13.927 22.7506 14.1331 22.888C14.1331 22.888 14.2293 22.8468 14.2705 22.7643C14.3117 22.6819 14.504 22.3934 14.6826 22.3659C14.6826 22.3659 14.5315 22.3522 14.4491 22.3247C14.4491 22.3247 14.2705 22.3659 14.1469 22.4209C14.0232 22.4758 13.8583 22.5583 13.666 22.6819V22.6682Z" fill="white"/>
<path id="Vector_140" fill-rule="evenodd" clip-rule="evenodd" d="M15.1084 22.311C15.1084 22.311 15.0122 22.3523 14.8886 22.366C14.8886 22.366 14.394 22.7094 14.339 23.0529C14.2978 23.3414 14.4489 23.4788 14.5176 23.52C14.5863 23.5612 14.9298 23.6986 15.1496 23.2315C15.1496 23.2315 14.7649 23.3551 14.6688 23.1765C14.5726 22.9979 14.7374 22.7232 14.8336 22.6545C14.971 22.5583 15.2045 22.4896 15.3557 22.5034C15.3557 22.5034 15.232 22.3935 15.0946 22.311H15.1084Z" fill="white"/>
<path id="Vector_141" fill-rule="evenodd" clip-rule="evenodd" d="M11.9096 26.2262C11.9646 25.9789 12.0332 25.7179 12.1431 25.4706C12.363 25.0035 12.9125 23.7396 14.039 23.5198C14.1489 23.506 13.9154 23.2313 13.8192 23.245C13.723 23.245 13.517 23.3824 13.4208 23.4511C13.4208 23.4511 13.4208 23.1763 13.4208 23.1351C13.4208 23.0801 13.3796 23.0664 13.3384 23.0664C13.2971 23.0664 13.0224 23.0664 12.94 23.1626C12.6789 23.4648 12.2531 24.2754 12.0058 24.8661C11.7585 25.4706 11.5936 25.6492 11.3326 25.553C11.0716 25.4568 10.9205 25.1546 10.4671 25.2508C10.316 25.2782 10.1374 25.3881 10 25.5393C10.0412 25.608 10.0824 25.7041 10.3022 25.7041C10.522 25.7041 10.9205 25.7866 11.1403 25.9514C11.3738 26.1163 11.6074 26.1575 11.9233 26.1987L11.9096 26.2262Z" fill="white"/>
<path id="Vector_142" fill-rule="evenodd" clip-rule="evenodd" d="M16.4156 22.3248C16.4431 22.5171 16.5393 22.6957 16.6354 22.888C16.6354 22.888 16.292 24.4817 15.0418 24.6053C15.0418 24.6053 15.0693 24.2756 15.4402 24.0146C15.8111 23.7673 16.3607 23.3689 16.3195 22.7781C16.3195 22.7781 16.2233 22.7919 16.0447 23.0254C15.8661 23.2452 15.4814 23.8909 14.877 23.8909C14.877 23.8909 14.9731 23.5887 15.2341 23.4101C15.4952 23.2315 15.8386 23.0117 15.9897 22.7507C16.1409 22.4896 16.3057 22.366 16.4156 22.311V22.3248Z" fill="white"/>
<path id="Vector_143" fill-rule="evenodd" clip-rule="evenodd" d="M15.8223 28.1495L16.5779 29.2211L17.1549 28.1908L16.9488 27.8198C16.7977 28.0946 16.6328 28.3831 16.5504 28.5342C16.4817 28.438 16.2894 28.1633 16.0421 27.8198L15.8223 28.1495Z" fill="white"/>
<path id="Vector_144" fill-rule="evenodd" clip-rule="evenodd" d="M15.6325 27.243C14.8906 26.1989 13.9839 24.9213 13.8877 24.7839L14.1762 24.5778L13.2695 24.2344V25.2235L13.5855 25.0037L15.4127 27.5727L15.6325 27.243Z" fill="white"/>
<path id="Vector_145" fill-rule="evenodd" clip-rule="evenodd" d="M9.40719 21.4041C9.627 21.1568 10.0117 21.3766 10.3826 21.72C10.7673 22.0772 11.0008 22.4344 10.781 22.6817C10.5749 22.9015 10.1765 22.7092 9.79186 22.3657C9.4072 22.0085 9.17365 21.6513 9.39346 21.4041H9.40719Z" fill="white"/>
<path id="Vector_146" fill-rule="evenodd" clip-rule="evenodd" d="M10.0248 25.7448C10.0248 25.7448 9.9973 25.7311 9.98356 25.7174C9.77749 25.5388 9.66759 25.264 9.66759 24.9618C9.66759 24.3848 10.1347 23.9177 10.7117 23.9177C11.2887 23.9177 11.7558 24.3848 11.7558 24.9618C11.7558 25.0442 11.742 25.1678 11.742 25.1678C11.7833 25.0717 11.9619 24.6733 11.9893 24.6046C11.8382 24.0413 11.3162 23.6292 10.7117 23.6292C10.1896 23.6292 9.73628 23.9314 9.51647 24.3848C9.5989 23.849 9.85992 23.3819 10.0385 23.2033C10.2583 22.9972 10.643 22.9285 10.643 22.9285C10.3957 22.9697 10.066 22.8186 9.7088 22.4752C9.36535 22.1592 9.18675 21.8844 9.17302 21.6509C9.20049 21.9806 9.17302 22.1592 9.09059 22.434C8.96694 22.8049 8.62349 23.478 8.74713 24.2336C8.81582 24.6458 9.11806 25.2777 9.61264 25.7861C9.72254 25.896 9.76375 26.0746 9.77749 26.157C9.77749 26.157 10.5194 26.157 10.6979 26.1707C10.6979 26.1707 10.8765 26.157 10.8765 26.0471C10.8765 25.9372 10.7804 25.9097 10.6842 25.9097C10.588 25.9097 10.2309 25.9097 10.0248 25.7723V25.7448Z" fill="white"/>
<path id="Vector_147" fill-rule="evenodd" clip-rule="evenodd" d="M14.1184 26.0059C13.6376 26.1845 13.1705 26.2669 12.7171 26.3356C12.4286 26.3769 12.1401 26.3906 11.8654 26.3769C11.8654 26.4181 11.8654 26.4868 11.8379 26.528C11.8379 26.528 11.8928 26.5967 11.8928 26.6654C12.1676 26.6654 12.4561 26.6654 12.7583 26.6104C13.2529 26.528 13.775 26.4318 14.297 26.2395L14.1184 25.9922V26.0059Z" fill="white"/>
<path id="Vector_148" fill-rule="evenodd" clip-rule="evenodd" d="M14.9031 25.9648C15.535 25.6213 16.1532 25.0855 16.7165 24.22L16.8127 24.0552C16.6616 24.1239 16.4692 24.0689 16.4692 24.0689C16.4692 24.0827 16.428 24.1239 16.428 24.1513C15.906 24.9207 15.329 25.4152 14.752 25.7312L14.9168 25.9648H14.9031Z" fill="white"/>
<path id="Vector_149" fill-rule="evenodd" clip-rule="evenodd" d="M10.743 26.2398C10.6606 26.2261 10.3721 26.2398 10.2072 26.2536C10.0286 26.281 9.82253 26.3222 9.79506 26.4184C9.78132 26.5146 9.83627 26.6107 9.93244 26.7619C9.98739 26.858 10.1248 26.8031 10.2072 26.7619C10.2759 26.7344 10.7155 26.5008 10.7842 26.4321C10.8529 26.3497 10.8804 26.2536 10.7567 26.2261L10.743 26.2398Z" fill="white"/>
<path id="Vector_150" fill-rule="evenodd" clip-rule="evenodd" d="M11.1656 26.5279C11.1656 26.5279 11.0144 26.4593 10.8908 26.5005C10.7809 26.5417 10.355 26.789 10.3275 26.9126C10.3001 27.0225 10.355 27.0912 10.4237 27.1187C10.4924 27.1462 10.5611 27.1736 10.6298 27.1736C10.7397 27.1736 10.8358 27.1187 10.8908 27.05C10.9458 26.9813 11.1381 26.7478 11.1656 26.6928C11.193 26.6379 11.2068 26.5554 11.1656 26.5279Z" fill="white"/>
<path id="Vector_151" fill-rule="evenodd" clip-rule="evenodd" d="M11.2228 26.7897C11.1541 26.8584 10.9892 27.0644 10.9755 27.1057C10.9618 27.1331 10.9755 27.1881 11.0442 27.1881C11.0991 27.1881 11.3876 27.1469 11.5525 27.037C11.7173 26.9271 11.8273 26.6935 11.7173 26.6248C11.6074 26.5424 11.4288 26.5836 11.2365 26.8034L11.2228 26.7897Z" fill="white"/>
<path id="Vector_152" fill-rule="evenodd" clip-rule="evenodd" d="M11.3174 26.157C11.3174 26.157 11.0427 26.0883 11.0015 26.157C10.9465 26.2532 10.9877 26.3493 11.1526 26.4318C11.3174 26.5142 11.6472 26.5829 11.7021 26.4867C11.7571 26.3905 11.6746 26.2532 11.3174 26.157Z" fill="white"/>
<path id="Vector_153" fill-rule="evenodd" clip-rule="evenodd" d="M18.5572 20.1949C18.5022 20.3735 18.3374 20.6895 18.3236 20.7856C18.2824 20.9642 18.3236 21.1978 18.6671 21.4313C18.6671 21.4313 18.8869 21.2802 18.9693 21.0741C19.0517 20.8818 19.0105 20.7444 18.9144 20.6482C18.8319 20.5521 18.6396 20.3185 18.5434 20.1812L18.5572 20.1949Z" fill="white"/>
<path id="Vector_154" fill-rule="evenodd" clip-rule="evenodd" d="M17.8457 20.8823C17.8457 20.9785 17.9144 21.5005 18.0655 21.7753C18.2716 22.1462 18.5876 22.421 18.8486 22.421C19.0959 22.421 19.1508 22.2699 19.2745 22.2149C19.2745 22.2149 19.2058 21.8989 18.931 21.8165C18.5876 21.7066 18.0518 21.2945 17.8457 20.8961V20.8823Z" fill="white"/>
<path id="Vector_155" fill-rule="evenodd" clip-rule="evenodd" d="M18.7481 21.5554C18.7481 21.5554 18.858 21.4867 18.9267 21.4043C18.9267 21.4043 19.2015 21.5005 19.4075 21.6516C19.6274 21.8027 19.8334 22.05 19.9571 22.1874C19.9571 22.1874 19.6274 22.2698 19.4213 22.1874C19.4213 22.1874 19.3389 21.8714 19.1053 21.734C19.0504 21.7065 18.8855 21.6516 18.7344 21.5829L18.7481 21.5554Z" fill="white"/>
<path id="Vector_156" fill-rule="evenodd" clip-rule="evenodd" d="M19.0254 21.281C19.0803 21.1986 19.1765 21.0612 19.1628 20.8276C19.1628 20.8276 19.6299 21.1299 19.7672 21.2398C19.9046 21.3497 20.1931 21.6519 20.2618 21.7481C20.2618 21.7481 19.9184 21.6657 19.6436 21.5832C19.3551 21.4871 19.149 21.3497 19.0391 21.2947L19.0254 21.281Z" fill="white"/>
<path id="Vector_157" fill-rule="evenodd" clip-rule="evenodd" d="M19.8105 21.7886C20.0578 21.8848 20.6211 21.9672 20.8546 22.0359C21.0882 22.1046 21.253 22.2283 21.4866 22.4755C21.4866 22.4755 21.1431 22.5717 20.9645 22.6267C20.9645 22.6267 20.676 22.4206 20.3463 22.2969C20.1403 22.2145 20.0304 21.9947 19.8105 21.7749V21.7886Z" fill="white"/>
<path id="Vector_158" fill-rule="evenodd" clip-rule="evenodd" d="M20.3308 23.4514C20.3308 23.4514 20.2072 23.3277 20.2621 23.1766C20.3033 23.0667 20.5094 22.9568 20.6193 22.9018C20.8254 22.8057 21.3749 22.6546 21.5535 22.5996C21.5535 22.5996 21.6497 22.7095 21.6909 22.8194C21.7046 22.8606 21.6909 22.9018 21.6085 22.9156C21.4573 22.9431 21.0864 22.8744 20.9902 22.9293C20.8941 22.998 20.9216 23.0804 20.9216 23.1629C20.9216 23.1629 20.7567 23.053 20.6468 23.0804C20.4957 23.1079 20.4132 23.1903 20.3171 23.4376L20.3308 23.4514Z" fill="white"/>
<path id="Vector_159" fill-rule="evenodd" clip-rule="evenodd" d="M20.8272 22.6682C20.8272 22.6682 20.5661 22.7506 20.3601 22.888C20.3601 22.888 20.2639 22.8468 20.2227 22.7643C20.1815 22.6819 19.9891 22.3934 19.8105 22.3659C19.8105 22.3659 19.9617 22.3522 20.0441 22.3247C20.0441 22.3247 20.2227 22.3659 20.3601 22.4209C20.4837 22.4758 20.6486 22.5583 20.8409 22.6819L20.8272 22.6682Z" fill="white"/>
<path id="Vector_160" fill-rule="evenodd" clip-rule="evenodd" d="M19.3821 22.311C19.3821 22.311 19.4782 22.3523 19.6019 22.366C19.6019 22.366 20.0964 22.7094 20.1514 23.0529C20.2063 23.3414 20.0552 23.4788 19.9728 23.52C19.9041 23.5612 19.5606 23.6986 19.3408 23.2315C19.3408 23.2315 19.7118 23.3551 19.8217 23.1765C19.9178 22.9979 19.753 22.7232 19.6568 22.6545C19.5194 22.5583 19.2721 22.4896 19.1348 22.5034C19.1348 22.5034 19.2584 22.3935 19.3958 22.311H19.3821Z" fill="white"/>
<path id="Vector_161" fill-rule="evenodd" clip-rule="evenodd" d="M22.584 26.2262C22.529 25.9789 22.4603 25.7179 22.3504 25.4706C22.1306 25.0035 21.5948 23.7396 20.4546 23.5198C20.3447 23.506 20.5782 23.2313 20.6744 23.245C20.7705 23.245 20.9766 23.3824 21.0728 23.4511C21.0728 23.4511 21.0728 23.1763 21.0728 23.1351C21.0728 23.0801 21.114 23.0664 21.1552 23.0664C21.1964 23.0664 21.4712 23.0664 21.5536 23.1626C21.8146 23.4648 22.2405 24.2754 22.4878 24.8661C22.7351 25.4706 22.8999 25.6492 23.161 25.553C23.422 25.4568 23.5731 25.1546 24.0265 25.2508C24.1776 25.2782 24.3562 25.3881 24.4936 25.5393C24.4524 25.608 24.4111 25.7041 24.1913 25.7041C23.9715 25.7041 23.5731 25.7866 23.3533 25.9514C23.1198 26.1163 22.8862 26.1575 22.5702 26.1987L22.584 26.2262Z" fill="white"/>
<path id="Vector_162" fill-rule="evenodd" clip-rule="evenodd" d="M18.0772 22.3248C18.0498 22.5171 17.9536 22.6957 17.8574 22.888C17.8574 22.888 18.2009 24.4817 19.451 24.6053C19.451 24.6053 19.4236 24.2756 19.0526 24.0146C18.6817 23.7673 18.1322 23.3689 18.1734 22.7781C18.1734 22.7781 18.2696 22.7919 18.4482 23.0254C18.6268 23.2452 19.0114 23.8909 19.6159 23.8909C19.6159 23.8909 19.5335 23.5887 19.2587 23.4101C18.9977 23.2315 18.6542 23.0117 18.5031 22.7507C18.352 22.4896 18.1871 22.366 18.0772 22.311V22.3248Z" fill="white"/>
<path id="Vector_163" fill-rule="evenodd" clip-rule="evenodd" d="M17.2525 23.8765C17.3212 24.0825 17.802 24.7557 17.9943 24.948C18.2004 25.1404 18.7087 25.6487 18.9698 25.896C18.9698 25.896 18.2004 25.7036 17.7745 25.319C17.7745 25.319 17.4723 25.4976 17.2525 25.4976C17.0327 25.4976 16.7167 25.319 16.7167 25.319C16.2908 25.7174 15.5215 25.896 15.5215 25.896C15.7825 25.6487 16.2908 25.1404 16.4969 24.948C16.703 24.7557 17.1701 24.0825 17.2525 23.8765Z" fill="white"/>
<path id="Vector_164" fill-rule="evenodd" clip-rule="evenodd" d="M17.254 25.6485C17.4189 25.6485 17.5837 25.5798 17.6799 25.5386C17.5837 25.7309 17.4189 26.0331 17.254 26.1431C17.0891 26.0194 16.9243 25.7172 16.8281 25.5386C16.9106 25.5798 17.0754 25.6485 17.2403 25.6485H17.254Z" fill="white"/>
<path id="Vector_165" fill-rule="evenodd" clip-rule="evenodd" d="M17.8973 29.2213L20.8922 25.0037L21.1945 25.2235V24.2344L20.3015 24.5778L20.59 24.7839C20.4389 24.99 18.2133 28.136 17.9248 28.5344L16.5647 26.0615L16.3999 26.3226L15.1909 28.1497L14.8887 27.9437V28.9191L15.7954 28.5481L15.4931 28.3421C15.658 28.0948 16.3174 27.0919 16.5372 26.7622L17.8973 29.1938V29.2213Z" fill="white"/>
<path id="Vector_166" fill-rule="evenodd" clip-rule="evenodd" d="M18.4488 27.5589C18.2427 27.2567 18.0504 26.9407 17.9405 26.7896C17.8718 26.927 17.7069 27.2155 17.5421 27.5177L17.3223 27.133L17.8993 26.0752L18.0641 26.3362L18.6686 27.2429L18.4488 27.5589Z" fill="white"/>
<path id="Vector_167" fill-rule="evenodd" clip-rule="evenodd" d="M19.0663 27.8336L19.2861 28.1633L19.5884 27.9572V28.9326L18.6816 28.5617L18.9839 28.3556C18.9839 28.3556 18.9015 28.232 18.8465 28.1358L19.08 27.8198L19.0663 27.8336Z" fill="white"/>
<path id="Vector_168" fill-rule="evenodd" clip-rule="evenodd" d="M25.0837 21.4041C24.8639 21.1568 24.4793 21.3766 24.0946 21.72C23.7099 22.0772 23.4764 22.4344 23.6962 22.6817C23.9023 22.9015 24.3007 22.7092 24.6853 22.3657C25.07 22.0085 25.3036 21.6513 25.0837 21.4041Z" fill="white"/>
<path id="Vector_169" fill-rule="evenodd" clip-rule="evenodd" d="M24.4646 25.7448C24.4646 25.7448 24.492 25.7311 24.5058 25.7174C24.7118 25.5388 24.8217 25.264 24.8217 24.9618C24.8217 24.3848 24.3546 23.9177 23.7776 23.9177C23.2006 23.9177 22.7335 24.3848 22.7335 24.9618C22.7335 25.0442 22.7473 25.1678 22.7473 25.1678C22.7061 25.0717 22.5275 24.6733 22.5 24.6046C22.6511 24.0413 23.1732 23.6292 23.7776 23.6292C24.2997 23.6292 24.7531 23.9314 24.9729 24.3848C24.8904 23.849 24.6294 23.3819 24.4508 23.2033C24.231 22.9972 23.8463 22.9285 23.8463 22.9285C24.0936 22.9697 24.4233 22.8186 24.7805 22.4752C25.124 22.1592 25.3026 21.8844 25.3163 21.6509C25.2888 21.9806 25.3163 22.1592 25.3987 22.434C25.5224 22.8049 25.8658 23.478 25.7422 24.2336C25.6735 24.6458 25.3713 25.2777 24.8767 25.7861C24.7668 25.896 24.7256 26.0746 24.7118 26.157C24.7118 26.157 23.97 26.157 23.7914 26.1707C23.7914 26.1707 23.6128 26.157 23.6128 26.0471C23.6128 25.9372 23.709 25.9097 23.8051 25.9097C23.9013 25.9097 24.2585 25.9097 24.4646 25.7723V25.7448Z" fill="white"/>
<path id="Vector_170" fill-rule="evenodd" clip-rule="evenodd" d="M19.5873 25.9648C18.9554 25.6213 18.3372 25.0855 17.7739 24.22L17.6777 24.0552C17.8289 24.1239 18.0212 24.0689 18.0212 24.0689C18.0212 24.0827 18.0487 24.1239 18.0624 24.1513C18.5844 24.9207 19.1615 25.4152 19.7385 25.7312L19.5736 25.9648H19.5873Z" fill="white"/>
<path id="Vector_171" fill-rule="evenodd" clip-rule="evenodd" d="M20.37 26.0068C20.8508 26.1854 21.3179 26.2679 21.7713 26.3503C22.0598 26.3915 22.3483 26.4052 22.6231 26.3915C22.6231 26.4327 22.6231 26.5014 22.6505 26.5426C22.6505 26.5426 22.5956 26.6113 22.5956 26.68C22.3208 26.68 22.0186 26.68 21.7301 26.625C21.2355 26.5426 20.7135 26.4465 20.1914 26.2541L20.3563 26.0068H20.37Z" fill="white"/>
<path id="Vector_172" fill-rule="evenodd" clip-rule="evenodd" d="M23.7503 26.2398C23.8327 26.2261 24.1212 26.2398 24.2861 26.2536C24.4647 26.281 24.6708 26.3222 24.6982 26.4184C24.712 26.5146 24.657 26.6107 24.5609 26.7619C24.5059 26.858 24.3685 26.8031 24.2861 26.7619C24.2037 26.7344 23.7778 26.5008 23.7091 26.4321C23.6404 26.3497 23.6129 26.2536 23.7503 26.2261V26.2398Z" fill="white"/>
<path id="Vector_173" fill-rule="evenodd" clip-rule="evenodd" d="M23.3248 26.5279C23.3248 26.5279 23.4897 26.4593 23.5996 26.5005C23.7095 26.5417 24.1354 26.789 24.1629 26.9126C24.1903 27.0225 24.1354 27.0912 24.0667 27.1187C23.998 27.1462 23.9293 27.1736 23.8606 27.1736C23.7507 27.1736 23.6546 27.1187 23.5996 27.05C23.5447 26.9813 23.3523 26.7478 23.3248 26.6928C23.2974 26.6379 23.2836 26.5554 23.3248 26.5279Z" fill="white"/>
<path id="Vector_174" fill-rule="evenodd" clip-rule="evenodd" d="M23.2693 26.7897C23.3242 26.8584 23.5028 27.0644 23.5166 27.1057C23.544 27.1331 23.5166 27.1881 23.4479 27.1881C23.3929 27.1881 23.1044 27.1469 22.9396 27.037C22.7747 26.9271 22.6648 26.6935 22.7747 26.6248C22.8846 26.5424 23.0632 26.5836 23.2555 26.8034L23.2693 26.7897Z" fill="white"/>
<path id="Vector_175" fill-rule="evenodd" clip-rule="evenodd" d="M23.1729 26.157C23.1729 26.157 23.4477 26.0883 23.4889 26.157C23.5438 26.2532 23.5026 26.3493 23.3378 26.4318C23.1729 26.5142 22.8432 26.5829 22.7882 26.4867C22.7196 26.3905 22.8157 26.2532 23.1729 26.157Z" fill="white"/>
<path id="Vector_176" d="M71.2015 0H36.7051V34.7162H71.2015V0Z" fill="black"/>
<path id="Vector_177" fill-rule="evenodd" clip-rule="evenodd" d="M64.4996 11.0186C64.4996 10.8675 64.5271 9.78215 64.5271 9.64477H64.7881C65.791 9.64477 65.9696 9.82336 66.052 11.0186H64.4859H64.4996ZM67.3709 10.4141C67.206 9.06777 66.5878 8.38086 65.1041 8.38086H63.222L62.9609 15.9506H64.3347C64.3347 15.9506 64.4584 12.4336 64.4721 12.2687C64.6232 12.2687 66.0657 12.2687 66.2031 12.2687C66.2169 12.4199 66.4779 15.9506 66.4779 15.9506H67.8929C67.8929 15.9506 67.4121 10.7438 67.3709 10.4141Z" fill="white"/>
<path id="Vector_178" fill-rule="evenodd" clip-rule="evenodd" d="M47.8883 21.418C47.8883 21.2669 47.9158 20.1816 47.9158 20.0442H48.163C49.1659 20.0304 49.3583 20.2228 49.4544 21.418H47.8883ZM50.7595 20.8135C50.6084 19.4672 49.9765 18.7803 48.4928 18.7803H46.6106L46.3496 26.35H47.7234C47.7234 26.35 47.8471 22.833 47.8608 22.6682C48.0119 22.6682 49.4544 22.6682 49.5918 22.6682C49.6055 22.8193 49.8666 26.35 49.8666 26.35H51.2816C51.2816 26.35 50.8008 21.1432 50.7595 20.8135Z" fill="white"/>
<path id="Vector_179" fill-rule="evenodd" clip-rule="evenodd" d="M40.498 8.38086V15.9506H41.8719V9.63103H43.5891V15.9506H44.9767V8.38086H40.498Z" fill="white"/>
<path id="Vector_180" fill-rule="evenodd" clip-rule="evenodd" d="M55.1277 11.0186H54.3721C54.0561 11.0186 53.8363 10.9499 53.6852 10.8125C53.5753 10.7163 53.534 10.579 53.534 10.4141V8.3946H52.1465V10.5515C52.1465 11.0461 52.3388 11.4719 52.7235 11.8017C53.1082 12.1314 53.5752 12.2962 54.111 12.2962H55.1277V15.9506H56.5152V8.38086H55.1277V11.0186Z" fill="white"/>
<path id="Vector_181" fill-rule="evenodd" clip-rule="evenodd" d="M58.041 8.38086V9.63103H59.195V15.9506H59.2088H60.5688H60.5963V9.63103H61.7366V8.38086H58.041Z" fill="white"/>
<path id="Vector_182" fill-rule="evenodd" clip-rule="evenodd" d="M56.0061 18.7803V21.1982H54.1102V18.7803H52.7227V26.35H54.1102V22.4621H56.0061V26.35H57.3936V18.7803H56.0061Z" fill="white"/>
<path id="Vector_183" fill-rule="evenodd" clip-rule="evenodd" d="M42.3527 25.1818C42.2153 25.1818 41.8856 25.1543 41.8856 25.1543V22.4891C41.8856 22.4891 41.9955 22.4617 42.1191 22.4617C42.8198 22.4617 43.6441 22.4205 43.6441 23.8217C43.6441 25.0994 42.7374 25.1818 42.3527 25.1818ZM42.5176 21.2527C42.284 21.2527 42.0642 21.2527 41.8719 21.2665V20.03H44.3585V18.7661H40.498V26.3358H42.6C44.6882 26.3358 45.0179 24.4674 45.0179 23.7668C45.0179 22.9425 44.7019 21.239 42.5176 21.239V21.2527Z" fill="white"/>
<path id="Vector_184" fill-rule="evenodd" clip-rule="evenodd" d="M47.6549 12.172C47.6549 10.1251 48.1632 9.45189 48.699 9.43816C49.2348 9.43816 49.7294 10.1251 49.7431 12.172C49.7431 14.1778 49.2348 14.851 48.699 14.8647C48.1632 14.8647 47.6687 14.1641 47.6549 12.172ZM51.1169 11.8973C51.0895 10.812 50.9109 10.0426 50.6224 9.49311C50.169 8.54518 49.4546 8.20173 48.7128 8.18799C47.9709 8.18799 47.2565 8.54518 46.8032 9.49311C46.5147 10.0426 46.3361 10.8257 46.3086 11.8973V12.1446C46.3086 12.8177 46.3773 13.4772 46.5284 13.9992C46.9131 15.5516 47.7923 16.1011 48.699 16.1149C48.699 16.1149 48.699 16.1149 48.7128 16.1149C48.7128 16.1149 48.7128 16.1149 48.7265 16.1149C49.647 16.1011 50.5262 15.5516 50.8971 13.9992C51.0482 13.4772 51.1169 12.8177 51.1169 12.1446V11.8973Z" fill="white"/>
<path id="Vector_185" fill-rule="evenodd" clip-rule="evenodd" d="M64.2784 26.35L62.616 21.9126C62.9595 21.6515 63.2343 21.157 63.3442 20.6624C63.4541 20.1816 63.6189 18.7803 63.6189 18.7803H62.2588C62.2588 18.9177 62.2176 19.3985 62.1764 19.8931C62.1077 20.6212 61.9017 21.2806 61.1598 21.2806H60.5965V18.7803H59.209V26.35H60.5965V22.5033C60.5965 22.5033 61.3247 22.5033 61.4346 22.5033L62.7946 26.35H64.2784Z" fill="white"/>
</g>
</g>
</svg>
