<svg width="72" height="27" viewBox="0 0 72 27" fill="none" xmlns="http://www.w3.org/2000/svg">
<g id="Group 3625">
<path id="Vector" d="M0 9.51106V13.4133L10.5123 12.2506V8.02979L0 9.51106Z" fill="black"/>
<path id="Vector_2" d="M3.35938 13.6521V26.9995H7.19794V13.2539L3.35938 13.6521Z" fill="black"/>
<path id="Vector_3" d="M11.9297 7.83902V27H15.9912V7.26562L11.9297 7.83902Z" fill="black"/>
<path id="Vector_4" d="M16.7402 7.15441V11.5664L22.6016 10.9293V6.32617L16.7402 7.15441Z" fill="black"/>
<path id="Vector_5" d="M16.7402 14.8467V19.3383L20.5947 19.1312V14.5122L16.7402 14.8467Z" fill="black"/>
<path id="Vector_6" d="M16.7402 22.5717V26.9996H22.6016V22.3965L16.7402 22.5717Z" fill="black"/>
<path id="Vector_7" d="M37.748 4.19147V26.9999H43.0679V3.44287L37.748 4.19147Z" fill="black"/>
<path id="Vector_8" d="M44.0723 3.31532V8.55552L51.8131 7.71135V2.21631L44.0723 3.31532Z" fill="black"/>
<path id="Vector_9" d="M44.0723 12.5051V17.8408L49.1373 17.5701V12.0591L44.0723 12.5051Z" fill="black"/>
<path id="Vector_10" d="M44.0723 21.743V26.9991H51.8131V21.52L44.0723 21.743Z" fill="black"/>
<path id="Vector_11" d="M24.1621 6.11885V27H28.7811V5.46582L24.1621 6.11885Z" fill="black"/>
<path id="Vector_12" d="M29.6406 22.1895V26.9996H36.3462V21.9824L29.6406 22.1895Z" fill="black"/>
<path id="Vector_13" d="M69.1904 1.9615C67.518 0.368734 65.0492 -0.2843 62.3574 0.113892V5.92749C63.4405 5.86378 64.3325 6.2779 64.7306 7.09021C65.3518 8.38035 64.7147 10.3076 63.2016 12.0915C60.8602 14.847 54.6484 20.5013 54.6484 20.5013L63.5679 20.2146C69.0152 14.8948 70.9743 11.6614 71.3247 7.61582C71.5158 5.48151 70.7354 3.42685 69.2063 1.97743L69.1904 1.9615Z" fill="black"/>
<path id="Vector_14" d="M53.5312 21.4566V26.9994H71.6251V20.915L53.5312 21.4566Z" fill="black"/>
<path id="Vector_15" d="M61.3037 0.241211C56.0476 1.35615 53.4673 5.22657 53.7699 11.5339L59.3765 11.0402C59.1216 7.47237 60.2047 6.6282 61.3197 6.1663V0.241211H61.3037Z" fill="black"/>
</g>
</svg>
