<svg width="76" height="54" viewBox="0 0 76 54" fill="none" xmlns="http://www.w3.org/2000/svg">
<g id="&#208;&#161;&#208;&#187;&#208;&#190;&#208;&#185;_1">
<g id="87036048">
<path id="87126400" d="M75.68 37.3638H0V53.4148H75.68V37.3638Z" fill="black"/>
<path id="86868120" d="M29.7537 49.848L26.2754 41.8835H28.6681L30.2964 45.9488L30.7728 47.3003C30.8946 46.9569 30.9832 46.7242 31.0054 46.6135C31.0829 46.3919 31.1605 46.1593 31.2491 45.9378L32.8885 41.8724H35.2369L31.803 49.837H29.7426L29.7537 49.848ZM39.258 47.3113L41.5399 47.6658C41.2408 48.4412 40.7866 49.0172 40.1552 49.4271C39.5238 49.8259 38.7373 50.0364 37.7847 50.0364C36.2893 50.0364 35.1705 49.5822 34.4504 48.6849C33.8855 47.9649 33.5975 47.0455 33.5975 45.9378C33.5975 44.6196 33.9741 43.5783 34.7163 42.8361C35.4585 42.0939 36.4111 41.7173 37.5521 41.7173C38.837 41.7173 39.8451 42.105 40.5872 42.8915C41.3294 43.678 41.6839 44.8743 41.6507 46.4916H35.9237C35.9459 47.112 36.1231 47.5993 36.4776 47.9427C36.832 48.2861 37.2751 48.4634 37.7958 48.4634C38.1502 48.4634 38.4493 48.3748 38.693 48.1975C38.9367 48.0203 39.125 47.7323 39.2469 47.3224L39.258 47.3113ZM39.3909 45.1845C39.3687 44.5753 39.2026 44.11 38.8813 43.7888C38.5601 43.4675 38.1613 43.3124 37.6961 43.3124C37.1976 43.3124 36.7877 43.4786 36.4665 43.822C36.1452 44.1543 35.9791 44.6085 35.9902 45.1845H39.402H39.3909ZM41.1522 49.848V38.8594H43.4341V49.848H41.1522ZM50.9334 44.2429L48.6847 44.6196C48.6072 44.2097 48.441 43.8885 48.1641 43.678C47.8982 43.4675 47.5438 43.3678 47.1228 43.3678C46.5468 43.3678 46.1037 43.5451 45.7603 43.9106C45.4169 44.2762 45.2508 44.8854 45.2508 45.7273C45.2508 46.6689 45.428 47.3446 45.7714 47.7323C46.1148 48.12 46.5801 48.3194 47.1561 48.3194C47.5881 48.3194 47.9426 48.2086 48.2195 47.976C48.4964 47.7434 48.6958 47.3556 48.8066 46.8018L51.0553 47.1563C50.8227 48.1089 50.3685 48.8289 49.7149 49.3052C49.0503 49.7927 48.1752 50.0364 47.0564 50.0364C45.7936 50.0364 44.7855 49.6708 44.0434 48.9397C43.2901 48.2086 42.9135 47.1895 42.9135 45.8824C42.9135 44.5752 43.2901 43.5451 44.0434 42.814C44.7966 42.0829 45.8157 41.7173 47.1007 41.7173C48.153 41.7173 48.9838 41.9278 49.6041 42.3487C50.2245 42.7697 50.6676 43.4011 50.9445 44.254L50.9334 44.2429ZM49.7592 45.7605C49.7592 45.0627 49.9475 44.3869 50.3242 43.7334C50.7008 43.0798 51.2325 42.5813 51.9082 42.2379C52.595 41.8945 53.3594 41.7173 54.2012 41.7173C55.5083 41.7173 56.5718 42.105 57.4136 42.8915C58.2444 43.678 58.6654 44.6639 58.6654 45.8602C58.6654 47.0566 58.2444 48.0646 57.4026 48.8511C56.5607 49.6486 55.4973 50.0364 54.2234 50.0364C53.4258 50.0364 52.6836 49.8702 51.9636 49.5379C51.2436 49.2056 50.7008 48.7292 50.3242 48.0868C49.9475 47.4443 49.7592 46.6799 49.7592 45.7605ZM52.0965 45.8713C52.0965 46.6578 52.2959 47.267 52.7058 47.688C53.1157 48.1089 53.6141 48.3194 54.2123 48.3194C54.8105 48.3194 55.309 48.1089 55.7077 47.688C56.1176 47.267 56.317 46.6578 56.317 45.8602C56.317 45.0627 56.1176 44.4756 55.7077 44.0657C55.309 43.6448 54.8105 43.4343 54.2123 43.4343C53.6141 43.4343 53.1157 43.6448 52.7058 44.0657C52.2959 44.4866 52.0965 45.0959 52.0965 45.8824V45.8713ZM57.9121 41.8945H60.0168V42.9801C60.7701 42.1382 61.6673 41.7173 62.7086 41.7173C63.2624 41.7173 63.7388 41.817 64.1486 42.0275C64.5585 42.2379 64.8908 42.5592 65.1456 42.9801C65.5222 42.5592 65.9321 42.2379 66.3752 42.0275C66.8182 41.817 67.2835 41.7173 67.782 41.7173C68.4134 41.7173 68.9562 41.8392 69.3882 42.0718C69.8313 42.3044 70.1525 42.6589 70.3741 43.113C70.5291 43.4564 70.6067 43.9992 70.6067 44.7636V49.848H68.3248V45.2953C68.3248 44.5088 68.2472 43.9992 68.0921 43.7666C67.8817 43.4675 67.5604 43.3124 67.1173 43.3124C66.7961 43.3124 66.497 43.4011 66.209 43.5783C65.9321 43.7555 65.7216 44.0214 65.5997 44.3648C65.4779 44.7082 65.4114 45.262 65.4114 46.0153V49.837H63.1295V45.4725C63.1295 44.6971 63.0852 44.1986 63.0077 43.9771C62.9301 43.7555 62.7972 43.5894 62.631 43.4786C62.4649 43.3678 62.2323 43.3124 61.9332 43.3124C61.5787 43.3124 61.2685 43.4011 60.9805 43.5783C60.6925 43.7555 60.4931 44.0103 60.3713 44.3316C60.2494 44.6639 60.183 45.2067 60.183 45.971V49.837H57.901V41.8724L57.9121 41.8945Z" fill="white"/>
</g>
<g id="87181224">
<path id="87054408" d="M41.8054 -0.000195601L32.5078 9.29736L41.8054 18.5949L51.1029 9.29736L41.8054 -0.000195601Z" fill="black"/>
<path id="86611048" d="M51.0925 9.30498L41.7949 18.6025L51.0925 27.9001L60.39 18.6025L51.0925 9.30498Z" fill="black"/>
<path id="86665416" d="M60.3972 0.00810518L51.0996 9.30566L60.3972 18.6032L69.6947 9.30567L60.3972 0.00810518Z" fill="black"/>
</g>
</g>
</svg>
