<svg width="96" height="22" viewBox="0 0 96 22" fill="none" xmlns="http://www.w3.org/2000/svg">
<g id="Group 3620">
<path id="Vector" d="M54.0594 0L42.0371 1.5512V5.06691L54.0594 4.00683V0Z" fill="black"/>
<path id="Vector_2" d="M17.3252 12.8017C17.3252 14.9353 17.9689 15.676 20.0358 15.676C22.1028 15.676 22.7356 14.9353 22.7356 12.8017C22.7356 10.6681 22.1124 9.92741 20.0358 9.92741C17.9593 9.92741 17.3252 10.6574 17.3252 12.8017ZM13.6934 12.7695C13.6934 8.86062 15.891 7.07324 20.0372 7.07324C24.1834 7.07324 26.3919 8.86062 26.3919 12.7695C26.3919 16.6784 24.2052 18.5288 20.0372 18.5288C15.8692 18.5288 13.6934 16.6784 13.6934 12.7695Z" fill="black"/>
<path id="Vector_3" d="M51.784 8.05533L42.0383 1.55127V5.06161L45.0769 7.09186L45.6742 7.43672C44.587 7.45014 44.0604 7.66887 43.5351 7.98152C42.0342 8.87521 41.2559 10.4479 41.2559 12.7707C41.2559 16.6795 43.4426 18.53 47.5997 18.53C51.7568 18.53 53.9544 16.6795 53.9544 12.7707C53.9544 10.5096 53.2115 8.96243 51.7854 8.05667L51.784 8.05533ZM47.5983 15.6758C45.5314 15.6758 44.8877 14.9351 44.8877 12.8015C44.8877 10.668 45.5314 9.92724 47.5983 9.92724C49.6653 9.92724 50.2981 10.6572 50.2981 12.8015C50.2981 14.9458 49.6749 15.6758 47.5983 15.6758Z" fill="black"/>
<path id="Vector_4" d="M7.43653 7.05408C5.47432 7.05408 3.87816 8.24968 3.48218 8.74484V7.30635H0V21.9985H3.46176V16.7746C3.86863 17.2818 5.45391 18.456 7.42565 18.456C10.7037 18.456 12.5054 16.7008 12.5054 12.749C12.5054 8.79717 10.7037 7.05273 7.43653 7.05273V7.05408ZM6.19688 15.6085C4.1299 15.6085 3.48626 14.8678 3.48626 12.7342C3.48626 10.6006 4.1299 9.85993 6.19688 9.85993C8.26387 9.85993 8.89662 10.5899 8.89662 12.7342C8.89662 14.8785 8.2734 15.6085 6.19688 15.6085Z" fill="black"/>
<path id="Vector_5" d="M77.7735 7.31836V11.3064H73.1769V7.31836H69.6934V18.111H73.1769V14.068H77.7735V18.111H81.2571V7.31836H77.7735Z" fill="black"/>
<path id="Vector_6" d="M55.1517 12.7506C55.1517 16.7024 56.9534 18.4576 60.2315 18.4576C62.2046 18.4576 63.7898 17.2834 64.1953 16.7762V18.1114H67.6571V7.30794H64.1736V8.74642C63.7776 8.24993 62.1828 7.05566 60.2192 7.05566C56.952 7.05566 55.1504 8.81083 55.1504 12.7519L55.1517 12.7506ZM58.7605 12.7345C58.7605 10.5902 59.3837 9.86018 61.4602 9.86018C63.5272 9.86018 64.1708 10.5902 64.1708 12.7345C64.1708 14.868 63.5272 15.6088 61.4602 15.6088C59.3823 15.6088 58.7605 14.868 58.7605 12.7345Z" fill="black"/>
<path id="Vector_7" d="M36.4979 14.1234C36.2312 15.252 35.4923 15.676 33.922 15.676C31.855 15.676 31.2113 14.9353 31.2113 12.8017C31.2113 10.6681 31.855 9.92741 33.922 9.92741C35.495 9.92741 36.2325 10.3474 36.4992 11.48L40.1325 11.2089C39.5895 8.38559 37.4667 7.07324 33.922 7.07324C29.7757 7.07324 27.5781 8.86062 27.5781 12.7695C27.5781 16.6784 29.7649 18.5288 33.922 18.5288C37.4599 18.5288 39.565 17.1883 40.1216 14.3932L36.4979 14.1221V14.1234Z" fill="black"/>
<path id="Vector_8" d="M95.9995 18.1097L90.4857 12.443L95.7029 7.31836H91.3947L86.7192 12.0069V7.31836H83.2969V18.1097H86.7192V14.3364V13.4011V13.1407L91.5213 18.1097H95.9995Z" fill="black"/>
</g>
</svg>
