<svg width="78" height="25" viewBox="0 0 78 25" fill="none" xmlns="http://www.w3.org/2000/svg">
<g id="Group 3610">
<path id="Vector" fill-rule="evenodd" clip-rule="evenodd" d="M72.1709 18.9563C72.1709 18.1623 71.5292 17.3575 70.3981 16.7485C69.1474 16.0742 67.4291 15.6936 65.5693 15.6936C63.7096 15.6936 61.8607 16.0633 60.5774 16.7159C59.392 17.3249 58.7394 18.1188 58.7394 18.9454C58.7394 20.729 61.7737 22.1755 65.4932 22.1755C69.2127 22.1755 72.1709 20.729 72.1709 18.9454V18.9563ZM50.4522 16.9443C50.4087 16.3679 49.2558 15.7697 46.798 15.7697H44.1443V17.9883H46.5043C48.6359 17.9883 49.9736 17.5751 50.3543 17.1618C50.4522 17.053 50.4522 16.9878 50.4522 16.9334V16.9443ZM30.1364 19.2825L28.1027 16.8573L26.1233 19.2825H30.1364ZM77.1519 18.9671C77.1519 20.5767 75.9121 22.0667 73.6499 23.176C71.4639 24.2527 68.5601 24.84 65.4932 24.84C62.4263 24.84 59.5116 24.2527 57.3038 23.1651C55.2701 22.1755 54.052 20.8704 53.8236 19.4565C53.791 19.4674 53.7584 19.4892 53.7257 19.5001C52.1053 20.2722 49.7453 20.6855 46.8958 20.6855H44.1443V24.8291H35.4111L32.6052 21.9797H23.7633L22.3168 23.4588L23.7089 24.8291H14.7474L6.18825 15.748V24.84L0 19.4892V6.05774L6.17737 0V8.15674L13.7251 0.565534H21.7187L10.6146 12.0176L19.0542 20.294L26.0363 13.0943H30.0277L38.6412 21.8274V15.8458L41.4471 13.0943H46.6348C49.3864 13.0943 51.7355 13.4532 53.3995 14.1166C54.4762 14.5516 55.2375 15.1063 55.6507 15.7371C56.1184 15.3782 56.673 15.041 57.3038 14.7256C59.5007 13.6489 62.4154 13.0617 65.5258 13.0617C72.16 13.0617 77.1628 15.5957 77.1628 18.9671H77.1519Z" fill="#B2292E"/>
<path id="Vector_2" d="M20.381 9.25543C20.642 9.25543 20.8812 9.28805 21.077 9.35331H21.1096L21.2836 8.99441H21.2401C21.0879 8.92916 20.7616 8.8639 20.381 8.8639C19.2934 8.8639 18.543 9.34243 18.543 10.0385C18.543 10.7345 19.2281 11.1587 20.2504 11.1587C20.6637 11.1587 21.0226 11.0934 21.2293 11.039H21.2728L21.1423 10.6584H21.1096C20.9356 10.7128 20.7072 10.7671 20.3701 10.7671C19.6958 10.7671 19.2499 10.4626 19.2499 10.0167C19.2499 9.57082 19.7067 9.25543 20.3918 9.25543H20.381ZM23.2195 8.8639C22.2733 8.8639 21.6099 9.35331 21.6099 10.0385C21.6099 10.7236 22.2733 11.1478 23.2956 11.1478C23.8394 11.1478 24.2092 11.0717 24.4267 11.0064H24.4702L24.3288 10.6475H24.2962C24.1113 10.7128 23.8503 10.7671 23.3826 10.7671C23.0672 10.7671 22.3277 10.7019 22.2733 10.1146H24.6116V10.082C24.6116 10.082 24.6442 9.97322 24.6442 9.88621C24.6442 9.40769 24.2744 8.85303 23.2195 8.85303V8.8639ZM22.2842 9.76658C22.3494 9.50557 22.6213 9.2228 23.1651 9.2228C23.4588 9.2228 23.6763 9.28805 23.8177 9.42944C23.9373 9.54907 23.959 9.67958 23.9699 9.76658H22.2842ZM24.9922 9.29893H26.0363V11.1152H26.7323V9.29893H27.7764V8.91828H24.9922V9.29893ZM29.5491 9.60345C29.386 9.60345 29.1794 9.60345 29.038 9.6252V8.91828H28.3419V11.1043H28.3854C28.5921 11.126 28.9183 11.1369 29.2881 11.1369C29.7558 11.1369 30.3866 11.0934 30.7672 10.8868C31.0173 10.7563 31.137 10.5823 31.137 10.3647C31.137 9.87534 30.5714 9.60345 29.5491 9.60345ZM29.4404 10.778C29.2555 10.778 29.1359 10.778 29.0271 10.7671V9.9841C29.1576 9.97322 29.2772 9.96234 29.4186 9.96234C29.7231 9.96234 30.4409 10.0058 30.4409 10.3756C30.4409 10.6801 29.9189 10.778 29.4404 10.778ZM35.9114 8.9074L34.6607 9.83184H34.5737V8.9074H33.8885V11.1043H34.5737V10.169H34.6498C35.1827 10.169 35.4872 10.3104 35.7156 10.6475C35.8135 10.8106 35.9331 10.9847 36.031 11.0825H36.0419L36.7814 11.0934L36.7271 11.0282C36.6074 10.8977 36.5204 10.7454 36.4443 10.6258C36.4225 10.5823 36.4008 10.5496 36.379 10.517C36.1072 10.1255 35.7809 9.91884 35.335 9.86446L36.8032 8.89653H35.9114V8.9074ZM38.4128 10.0167C38.2279 10.2125 38.1192 10.3539 37.9778 10.5388L37.9343 10.5931C37.956 10.343 37.9669 10.1364 37.9669 9.84271V8.9074H37.3035V11.1043H38.0865C38.2279 10.9412 38.3693 10.7889 38.5107 10.6366C38.7282 10.3974 38.9348 10.1799 39.1306 9.9841C39.3155 9.78833 39.4351 9.63607 39.62 9.40769C39.5982 9.67958 39.5874 9.85359 39.5874 10.169V11.1043H40.2508V8.9074H39.4786L38.4237 10.0167H38.4128ZM43.1002 9.76658H41.5994V8.9074H40.9033V11.1043H41.5994V10.1472H43.1002V11.1043H43.7962V8.9074H43.1002V9.76658ZM46.1019 8.8639C45.1013 8.8639 44.4053 9.34243 44.4053 10.0276C44.4053 10.7128 45.0796 11.1587 46.0475 11.1587C46.8958 11.1587 47.755 10.7998 47.755 9.99497C47.755 9.32068 47.0916 8.8639 46.1019 8.8639ZM46.0693 10.7889C45.5037 10.7889 45.1013 10.4626 45.1013 10.0167C45.1013 9.6252 45.4058 9.23367 46.0801 9.23367C46.7544 9.23367 47.0372 9.63607 47.0372 10.0058C47.0372 10.4626 46.6239 10.7889 46.0584 10.7889H46.0693ZM48.0595 9.28805H49.1036V11.1043H49.7996V9.28805H50.8437V8.9074H48.0595V9.28805ZM52.7578 8.8639C51.8116 8.8639 51.1482 9.35331 51.1482 10.0385C51.1482 10.7236 51.8116 11.1478 52.8339 11.1478C53.3668 11.1478 53.7475 11.0717 53.965 11.0064H54.0085L53.8671 10.6475H53.8345C53.6496 10.7128 53.3886 10.7671 52.9209 10.7671C52.6055 10.7671 51.866 10.7019 51.8116 10.1146H54.1499V10.082C54.1499 10.082 54.1825 9.97322 54.1825 9.88621C54.1825 9.40769 53.8127 8.85303 52.7578 8.85303V8.8639ZM51.8225 9.76658C51.8877 9.50557 52.1596 9.2228 52.7034 9.2228C52.997 9.2228 53.2146 9.28805 53.3559 9.42944C53.4756 9.54907 53.4973 9.67958 53.5082 9.76658H51.8225ZM57.3256 10.5605V9.76658C57.3256 9.35331 57.0972 8.8639 56.0096 8.8639C55.6072 8.8639 55.1831 8.92916 54.8894 9.04879H54.8459L55.0199 9.39681H55.0525C55.2809 9.28805 55.5963 9.2228 55.9117 9.2228H55.9226C56.3794 9.2228 56.6295 9.37506 56.6295 9.6687C55.3353 9.6687 54.6175 9.97322 54.6175 10.5061C54.6175 10.8215 54.9547 11.1587 55.6833 11.1587C56.0857 11.1587 56.4664 11.0499 56.6948 10.865L56.7383 11.1152H57.3691V11.0608C57.3256 10.9303 57.3147 10.7563 57.3147 10.5605H57.3256ZM56.6513 10.3539C56.6513 10.3539 56.6513 10.4191 56.6295 10.4626C56.5425 10.6149 56.2924 10.7998 55.8465 10.7998C55.5963 10.7998 55.3244 10.7128 55.3244 10.4735C55.3244 10.1146 56.0205 10.0385 56.6078 10.0385H56.6621V10.3647L56.6513 10.3539ZM57.815 9.28805H58.859V11.1043H59.5551V9.28805H60.5991V8.9074H57.815V9.28805ZM62.9809 8.8639C62.4697 8.8639 62.0673 8.99441 61.8063 9.23367L61.7737 8.9074H61.1538V8.95091C61.1755 9.15754 61.1864 9.37506 61.1864 9.63607V11.9743H61.8716V10.865C62.0891 11.0499 62.4589 11.1587 62.8721 11.1587C63.6552 11.1587 64.4382 10.7889 64.4382 9.9841C64.4382 9.34243 63.8183 8.87478 62.97 8.87478L62.9809 8.8639ZM62.7743 10.778C62.361 10.778 62.0021 10.604 61.9042 10.3539C61.8825 10.3104 61.8825 10.2669 61.8825 10.2125V9.84271C61.8825 9.84271 61.9042 9.74483 61.926 9.70133C62.0238 9.44031 62.3936 9.25543 62.8069 9.25543C63.4703 9.25543 63.764 9.6252 63.764 9.99497C63.764 10.4735 63.3942 10.778 62.7851 10.778H62.7743ZM66.7004 8.8639C65.6998 8.8639 64.9929 9.34243 64.9929 10.0276C64.9929 10.7128 65.6672 11.1587 66.6351 11.1587C67.4834 11.1587 68.3426 10.7998 68.3426 9.99497C68.3426 9.32068 67.6792 8.8639 66.6895 8.8639H66.7004ZM66.6677 10.7889C66.1022 10.7889 65.6998 10.4626 65.6998 10.0167C65.6998 9.6252 66.0043 9.23367 66.6786 9.23367C67.3529 9.23367 67.6357 9.63607 67.6357 10.0058C67.6357 10.4626 67.2224 10.7889 66.6569 10.7889H66.6677ZM71.0724 9.94059C71.3987 9.85359 71.5944 9.67958 71.5944 9.46206C71.5944 9.08142 71.0724 8.89653 70.061 8.89653C69.6912 8.89653 69.2562 8.91828 68.9951 8.94003H68.9625V11.1152H69.006C69.3649 11.1369 69.6912 11.1478 69.9522 11.1478C71.1376 11.1478 71.7576 10.9194 71.7576 10.4844C71.7576 10.2234 71.5183 10.0276 71.0833 9.95147L71.0724 9.94059ZM69.6259 9.25543C69.7456 9.25543 69.8652 9.24455 70.0501 9.24455C70.6156 9.24455 70.9093 9.33156 70.9093 9.51644C70.9093 9.73396 70.4634 9.81009 70.0392 9.81009H69.6259V9.25543ZM70.061 10.7998C69.8869 10.7998 69.7673 10.7998 69.6151 10.7889V10.1364H70.0174C70.7135 10.1364 71.0398 10.2451 71.0398 10.4735C71.0398 10.7671 70.3546 10.7998 70.061 10.7998Z" fill="#B2292E"/>
</g>
</svg>
