<svg width="78" height="26" viewBox="0 0 78 26" fill="none" xmlns="http://www.w3.org/2000/svg">
<g id="Group 3638">
<path id="Vector" d="M30.0366 5.9668C24.6626 5.9668 20.2852 10.3443 20.2852 15.7183C20.2852 21.0922 24.6626 25.4697 30.0366 25.4697C35.4106 25.4697 39.7881 21.0922 39.7881 15.7183C39.7881 10.3443 35.4106 5.9668 30.0366 5.9668ZM30.0366 21.1634C27.0353 21.1634 24.5915 18.7196 24.5915 15.7183C24.5915 12.7169 27.0353 10.2731 30.0366 10.2731C33.038 10.2731 35.4818 12.7169 35.4818 15.7183C35.4818 18.7196 33.038 21.1634 30.0366 21.1634Z" fill="black"/>
<path id="Vector_2" d="M43.7273 3.03692C43.0155 4.31813 42.8969 5.75356 42.8731 7.02291H40.9395V11.3292H42.8613V25.4463H47.1676V11.3292H49.7775V7.02291H47.1794C47.1913 6.27554 47.2625 5.55189 47.4997 5.11296C47.7607 4.62657 48.5318 4.38931 49.7775 4.38931V0.0830078C46.8473 0.0830078 44.8068 1.07951 43.7273 3.03692Z" fill="black"/>
<path id="Vector_3" d="M56.9079 7.09424H52.6016V25.4346H56.9079V7.09424Z" fill="black"/>
<path id="Vector_4" d="M56.9079 0H52.6016V4.37748H56.9079V0Z" fill="black"/>
<path id="Vector_5" d="M9.75145 10.2731C11.6021 10.2731 13.2511 11.2103 14.2357 12.622H19.0047C17.7116 8.75462 14.0578 5.9668 9.76332 5.9668C4.37748 5.9668 0 10.3443 0 15.7183C0 21.0922 4.37748 25.4697 9.75145 25.4697C13.9984 25.4697 17.6167 22.7412 18.9572 18.945H14.1408C13.1443 20.2974 11.5546 21.1753 9.75145 21.1753C6.75009 21.1753 4.3063 18.7315 4.3063 15.7301C4.3063 12.7288 6.75009 10.285 9.75145 10.285V10.2731Z" fill="black"/>
<path id="Vector_6" d="M70.2663 16.0509L76.8503 7.09424H71.5119L67.5615 12.4682L63.4925 7.09424H58.0948L64.9042 16.0865L58.0117 25.4464H63.3501L67.609 19.6572L71.9864 25.4464H77.3841L70.2663 16.0509Z" fill="black"/>
</g>
</svg>
