<svg width="74" height="23" viewBox="0 0 74 23" fill="none" xmlns="http://www.w3.org/2000/svg">
<g id="Group 3601">
<path id="Vector" d="M15.5989 11.5693C15.7248 11.3679 15.8632 11.1665 15.9765 10.9525C15.9262 10.9273 15.8758 10.9273 15.8129 10.9902C13.3078 13.6338 10.9033 13.9611 9.04023 13.9611H6.2078C6.11968 13.9611 6.05673 13.8478 6.10709 13.7723C8.2975 10.7385 10.7397 8.37181 12.5273 6.82342L7.76878 10.8014C7.40371 11.1035 6.95052 11.305 6.33368 11.305H0.379284C0.215632 11.305 0.265987 11.4434 0.291164 11.5315C0.706587 12.8282 1.83956 13.9737 3.80338 13.9737L2.39346 15.4088C2.39346 15.4088 2.3431 15.6102 2.48158 15.6102H7.81913C11.6712 15.6102 14.0505 13.936 15.5989 11.5819M13.9372 17.4608L15.6241 22.1815H16.8577L15.0827 17.2342C14.7429 17.3223 14.3526 17.3978 13.9372 17.4608ZM18.6579 6.52129C18.4817 6.69753 18.1921 6.69753 18.0033 6.52129C17.8271 6.34505 17.8271 6.05551 18.0033 5.86669C18.1795 5.69045 18.4691 5.69045 18.6579 5.86669C18.2802 5.48903 17.6508 5.48903 17.2732 5.86669C16.8955 6.24434 16.8955 6.87377 17.2732 7.25143C17.6508 7.62909 18.2802 7.62909 18.6579 7.25143C19.0356 6.87377 19.0356 6.24434 18.6579 5.86669C18.8341 6.04293 18.8341 6.33246 18.6579 6.52129ZM15.2464 15.1571H12.8294C12.2125 15.5221 12.0111 15.6354 11.1425 15.9753C11.0796 16.0005 11.0544 16.0634 11.0922 16.139L13.2448 22.1815H14.4785L12.5021 16.6551C13.7861 16.6551 16.8703 16.3152 18.532 13.6213C18.0285 14.4017 16.82 15.1696 15.2464 15.1696V15.1571ZM22.5478 5.57715H20.584L20.1056 6.16881C20.0175 6.25693 20.0552 6.33246 20.1308 6.37023L20.7728 6.64718L22.5981 5.80374C22.7114 5.75339 22.6862 5.57715 22.5478 5.57715Z" fill="#008743"/>
<path id="Vector_2" d="M50.4928 22.4454H50.6313C52.5699 22.4203 53.9169 21.7531 54.6596 20.683L54.8862 22.1685H58.4488V9.25261C57.0137 8.79942 55.3898 8.40917 52.3307 8.40917C47.9751 8.40917 45.5958 11.0779 45.5958 15.9246C45.5958 20.4439 47.2575 22.4203 50.4928 22.4328M54.0805 18.0268C53.6903 18.48 53.0483 18.9584 51.9783 18.9584C50.7949 18.9584 50.1529 17.8632 50.1529 15.7609C50.1529 13.1802 50.8579 11.8836 52.2552 11.8836C53.0735 11.8836 53.4889 11.934 54.0805 12.085V18.0394V18.0268ZM40.2457 20.6704L40.5226 22.1559H44.06V8.69871H39.6792V18.0394C39.3141 18.4926 38.5336 18.971 37.8539 18.971C36.6454 18.971 35.9782 18.266 35.9782 17.0072V8.69871H31.6225V18.0394C31.2574 18.4926 30.3888 18.971 29.6587 18.971C28.5383 18.971 27.9215 18.266 27.9215 17.0072V8.69871H23.5658V17.5988C23.5658 20.8593 24.9632 22.458 27.9215 22.458C30.0489 22.458 31.2826 21.6775 32.2645 20.6327C32.9443 21.8412 34.178 22.458 35.9656 22.458C38.1056 22.458 39.2764 21.7027 40.2331 20.6956L40.2457 20.6704ZM7.22585 10.0709L9.9198 7.85527C10.4863 6.30688 11.078 4.73331 11.6948 3.42409C12.0095 4.12905 12.2865 4.83401 12.6012 5.58933C14.0866 4.36824 14.993 3.65069 16.2141 3.29821C15.4588 1.63652 14.9301 0.503543 14.6783 0H8.69871C8.19517 1.07003 6.2817 5.02284 4.06611 10.3856H6.23135C6.62159 10.3856 6.96149 10.3352 7.23843 10.0709H7.22585ZM0 22.1685H5.33756L7.13773 16.5288H1.95123C1.33439 18.2157 0.679783 20.0662 0 22.1685ZM16.1008 16.8561L17.9891 22.1685H23.2637C22.1685 18.908 20.9852 15.849 19.89 13.0418C18.971 14.9301 18.115 15.8742 16.1008 16.8561ZM18.543 13.6083C20.2047 10.9143 20.7837 6.64677 20.7837 6.64677L20.1417 6.36982C20.0536 6.34464 20.0284 6.25652 20.1166 6.1684L20.5949 5.57674C20.2802 4.98508 19.2228 4.02835 17.6492 4.02835C16.7176 4.02835 15.8994 4.28012 15.1692 4.75848C15.1692 4.75848 14.0992 5.47603 12.5508 6.82301C10.7632 8.3714 8.32105 10.7381 6.13064 13.7719C6.0677 13.86 6.13064 13.9607 6.23135 13.9607H9.06378C10.9143 13.9607 13.3313 13.6208 15.8364 10.9898C15.8868 10.9395 15.9371 10.9269 16.0001 10.9521C16.0504 10.9772 16.063 11.0402 16.0379 11.1031C15.6476 12.0599 14.6657 13.9985 12.8655 15.1441H15.2825C16.8561 15.1441 18.0646 14.3762 18.5682 13.5957L18.543 13.6083ZM17.2841 7.25102C16.9065 6.87336 16.9065 6.24394 17.2841 5.86628C17.6618 5.48862 18.2912 5.48862 18.6689 5.86628C19.0465 6.24394 19.0465 6.87336 18.6689 7.25102C18.2912 7.62868 17.6618 7.62868 17.2841 7.25102ZM68.8973 22.1685H73.2404V8.69871H68.8973V13.6334H64.806V8.69871H60.4252V22.1685H64.806V17.0953H68.8973V22.1685Z" fill="#DD1815"/>
</g>
</svg>
