<svg width="91" height="28" viewBox="0 0 91 28" fill="none" xmlns="http://www.w3.org/2000/svg">
<g id="Group 3633">
<g id="oowrm6">
<g id="Group">
<path id="Vector" d="M2.62141 12.7308C2.48769 11.7826 2.36613 10.8831 2.23242 9.97137C2.03792 8.67068 1.83127 7.36999 1.64893 6.05715C1.40581 4.35531 1.16269 2.65348 0.919574 0.951646C0.895263 0.757151 0.870951 0.574811 0.834483 0.380316C0.810171 0.137197 0.883107 0.0399492 1.13838 0.0521052C1.40581 0.0642611 1.66109 0.0521052 1.92852 0.0521052C5.2471 0.0521052 8.56567 0.00348133 11.8842 0.0642611C14.1209 0.100729 16.3455 0.343848 18.4849 1.08536C20.5879 1.81472 22.4478 2.93307 23.8579 4.69568C24.806 5.88697 25.4503 7.22412 25.8514 8.69499C25.8879 8.81655 25.8758 8.95027 25.8879 9.07183C25.8514 9.08398 25.815 9.10829 25.7785 9.12045C25.6691 8.99889 25.5354 8.87733 25.4381 8.73146C24.2712 7.05394 22.7274 5.94775 20.7459 5.40073C19.2143 4.97527 17.6583 4.8294 16.0902 4.81724C13.112 4.79293 10.1459 4.81724 7.16774 4.81724C6.65719 4.81724 6.64503 4.81724 6.71797 5.31564C6.91246 6.71357 7.0948 8.11151 7.31361 9.49729C7.60535 11.3693 7.8971 13.2535 8.24962 15.1255C8.50489 16.4991 8.89388 17.8484 9.51384 19.1126C10.1824 20.4741 11.1184 21.5925 12.492 22.2854C12.5771 22.334 12.6379 22.4312 12.7109 22.5163C12.6015 22.5406 12.4799 22.6136 12.3705 22.5893C10.4498 22.2246 8.6143 21.6411 7.00971 20.4863C6.24388 19.9271 5.57531 19.2585 5.04044 18.4927C4.0315 17.0704 3.33861 15.4902 2.88884 13.8005C2.77944 13.375 2.67003 13.0104 2.60925 12.7186L2.62141 12.7308Z" fill="black"/>
<path id="Vector_2" d="M25.778 17.6415C25.8023 17.374 25.8266 17.1674 25.851 16.9486C26.0941 14.9064 26.3372 12.8642 26.556 10.8341C26.5803 10.6153 26.6289 10.5181 26.8842 10.5181C29.364 10.5181 31.8438 10.5181 34.3237 10.5181C34.3966 10.5181 34.4817 10.5302 34.6032 10.5424C34.5182 11.2839 34.4574 12.0132 34.3601 12.7426C34.3601 12.8155 34.1292 12.9006 34.0076 12.9006C32.4638 12.9006 30.9321 12.9006 29.3883 12.9006C29.3276 12.9006 29.2789 12.9006 29.2182 12.9006C28.6104 12.9006 28.6225 12.9006 28.5739 13.4841C28.5374 14.019 28.4888 14.5538 28.428 15.1616C29.0844 14.7362 29.7773 14.5782 30.4945 14.5417C33.0108 14.3958 34.9922 16.049 34.9193 18.7112C34.8585 20.9722 33.4363 22.5646 31.1874 22.9293C29.9354 23.1238 28.7319 23.0022 27.6257 22.3337C26.3858 21.5921 25.8509 20.4373 25.7051 19.0515C25.7051 19.0151 25.7051 18.9786 25.7051 18.9543C25.7051 18.93 25.7294 18.9178 25.7537 18.8571C26.5074 18.8571 27.2854 18.8571 28.0633 18.8571C28.1363 18.8571 28.2457 18.9786 28.27 19.0637C28.6833 20.3522 30.1055 20.9843 31.3454 20.4252C32.014 20.1213 32.4273 19.2947 32.3422 18.4316C32.2328 17.2768 31.3454 16.5596 30.1177 16.6325C29.4005 16.669 28.7684 16.8999 28.3065 17.4834C28.2578 17.5442 28.1606 17.6293 28.0876 17.6293C27.3218 17.6293 26.556 17.6293 25.7537 17.6293L25.778 17.6415Z" fill="black"/>
<path id="Vector_3" d="M25.2186 22.784C24.2218 22.784 23.298 22.784 22.362 22.784C22.2647 22.784 22.131 22.6503 22.0702 22.5409C21.3409 21.3496 20.6237 20.1462 19.8943 18.9428C19.8457 18.8577 19.7849 18.7726 19.6998 18.651C19.6269 18.7604 19.5539 18.8334 19.5053 18.9184C18.8003 20.1097 18.0952 21.3132 17.3902 22.5166C17.2686 22.7111 17.1471 22.8084 16.9039 22.8084C16.126 22.7962 15.3358 22.8084 14.5578 22.8084C14.4727 22.8084 14.3755 22.7962 14.2418 22.784C14.3269 22.626 14.3877 22.4923 14.4606 22.3707C15.5789 20.4987 16.7094 18.6267 17.8399 16.7668C17.9737 16.5359 17.9858 16.3779 17.8399 16.1469C16.6851 14.4329 15.5546 12.7068 14.412 10.9806C14.3269 10.859 14.2661 10.7375 14.1445 10.543C14.3877 10.543 14.5578 10.543 14.728 10.543C15.4331 10.543 16.126 10.5551 16.831 10.543C17.1592 10.5308 17.3537 10.6281 17.5239 10.9198C18.1803 11.9895 18.8489 13.035 19.5175 14.0925C19.5904 14.2019 19.6633 14.2992 19.7606 14.4572C19.9915 14.0925 20.186 13.7522 20.3927 13.4118C20.9276 12.5244 21.4624 11.637 21.9973 10.7618C22.0581 10.6645 22.1796 10.5551 22.2769 10.5551C23.1886 10.543 24.1124 10.5551 25.1092 10.5551C25.0241 10.7132 24.9633 10.8347 24.8904 10.9441C23.7721 12.7311 22.6537 14.5301 21.511 16.3049C21.3287 16.5845 21.353 16.779 21.511 17.0343C22.6902 18.8577 23.8571 20.6811 25.0241 22.5166C25.0727 22.5895 25.1092 22.6746 25.1943 22.8205L25.2186 22.784Z" fill="black"/>
<path id="Vector_4" d="M49.3738 14.2987C48.8633 14.2987 48.3892 14.3109 47.9151 14.2987C47.83 14.2987 47.7206 14.165 47.6598 14.0556C46.1039 11.1017 41.9709 10.7735 39.8193 12.9981C38.5672 14.2866 38.2025 15.8669 38.4456 17.6052C38.7495 19.7082 40.1475 21.2398 42.1897 21.6896C43.8186 22.0421 45.3259 21.7625 46.5901 20.6198C47.4289 19.8662 47.8543 18.8937 47.9516 17.7267C47.7814 17.7267 47.6477 17.7267 47.514 17.7267C46.1647 17.7267 44.8032 17.7267 43.4539 17.7267C43.15 17.7267 43.0406 17.6416 43.0649 17.3377C43.0892 17.046 43.0649 16.7421 43.0649 16.4139C43.2229 16.4139 43.3445 16.3896 43.466 16.3896C45.3502 16.3896 47.2344 16.3896 49.1186 16.3896C49.4468 16.3896 49.5197 16.4868 49.5197 16.8029C49.5197 18.4561 49.155 19.9877 48.0853 21.3006C47.283 22.2852 46.2133 22.8444 44.9855 23.0754C43.0284 23.44 41.1564 23.2698 39.491 22.0786C37.9837 20.9967 37.1328 19.5137 36.8775 17.6781C36.6465 16.0249 36.914 14.4689 37.8135 13.0588C38.9197 11.3205 40.5365 10.3602 42.5665 10.1414C44.7424 9.91045 46.6631 10.5182 48.1704 12.1715C48.766 12.8279 49.2401 13.691 49.3495 14.3109L49.3738 14.2987Z" fill="black"/>
<path id="Vector_5" d="M82.4863 21.1303V27.5365H80.9668V13.0466C81.4287 13.0466 81.8906 13.0466 82.3526 13.0466C82.389 13.0466 82.462 13.2047 82.462 13.2898C82.4741 13.7031 82.462 14.1164 82.462 14.5297C82.462 14.6391 82.462 14.7485 82.4863 14.9065C84.3826 11.8432 88.6372 12.451 89.9987 14.6634C90.0838 14.7849 90.1446 14.87 90.2418 15.0402C90.6308 15.6237 90.8131 16.2072 90.9104 16.8028C91.0684 17.909 91.0319 18.9909 90.6673 20.0606C89.4881 23.44 85.8292 23.8897 83.8234 22.4797C83.4101 22.1879 83.0819 21.7746 82.7173 21.4099C82.6565 21.3492 82.6079 21.2762 82.4863 21.1182V21.1303ZM89.4638 17.7753C89.3909 17.4836 89.3179 16.9487 89.1356 16.4503C88.3455 14.3109 85.7076 13.5693 83.8964 14.9551C82.6929 15.879 82.3404 17.1553 82.4985 18.6019C82.778 21.0939 85.428 22.5283 87.6161 21.3735C88.9533 20.6684 89.403 19.4407 89.476 17.7631L89.4638 17.7753Z" fill="black"/>
<path id="Vector_6" d="M63.1589 23.2209C60.2172 23.2209 57.9926 20.9842 57.9805 18.0546C57.9805 15.1615 60.1078 12.8154 63.1589 12.8033C66.0885 12.7911 68.3373 15.1129 68.3252 18.0425C68.313 20.9964 66.0885 23.2209 63.1589 23.2209ZM59.5364 18.0425C59.5364 18.1762 59.5486 18.3221 59.5607 18.4558C59.7066 20.6317 61.8339 22.1877 63.9612 21.6893C66.3802 21.1179 67.2919 18.5895 66.4775 16.523C65.8089 14.8333 64.1192 13.9824 62.3445 14.3592C60.6791 14.7118 59.4878 16.2799 59.5486 18.0425H59.5364Z" fill="black"/>
<path id="Vector_7" d="M77.1982 23.0389V21.2034C76.9794 21.4951 76.8214 21.7017 76.6634 21.8962C75.3384 23.5738 72.6641 23.5008 71.4728 22.6013C70.6827 22.0056 70.3058 21.179 70.1599 20.2309C70.1113 19.927 70.1113 19.6109 70.1113 19.307C70.1113 17.3499 70.1113 15.3806 70.1113 13.4235C70.1113 13.1318 70.1721 13.0102 70.4882 13.0345C70.8528 13.0589 71.2175 13.0345 71.6308 13.0345C71.6308 13.1926 71.6308 13.3263 71.6308 13.46C71.6308 15.3199 71.6308 17.1797 71.6308 19.0396C71.6308 19.2341 71.6308 19.4286 71.6551 19.6231C71.8982 21.3978 73.357 22.2245 75.156 21.6167C76.1407 21.2884 76.7363 20.5712 76.9916 19.5988C77.1132 19.1247 77.1739 18.6263 77.1861 18.1401C77.2104 16.5598 77.1983 14.9673 77.1861 13.3871C77.1861 13.1196 77.259 13.0102 77.5386 13.0345C77.8182 13.0589 78.1099 13.0589 78.4017 13.0345C78.657 13.0224 78.7299 13.1196 78.7299 13.3628C78.7299 15.174 78.7299 16.9852 78.7299 18.8086C78.7299 20.1093 78.7299 21.3978 78.7299 22.6985C78.7299 22.966 78.657 23.0632 78.3774 23.0511C78.0005 23.0267 77.6237 23.0511 77.1861 23.0511L77.1982 23.0389Z" fill="black"/>
<path id="Vector_8" d="M51.5868 13.0344C52.0366 13.0344 52.4742 13.0344 52.9118 13.0344C52.9726 13.0344 53.082 13.1924 53.0942 13.2897C53.1185 13.7151 53.0942 14.1406 53.0942 14.566C53.0942 14.6876 53.1063 14.8092 53.1185 15.028C53.3008 14.7484 53.4102 14.5417 53.5439 14.3472C54.3827 13.1559 55.574 12.7183 56.9841 12.8277C57.0813 12.8277 57.2272 12.9493 57.2393 13.0222C57.2636 13.472 57.2393 13.9096 57.2393 14.3959C56.8625 14.3959 56.5221 14.3715 56.1939 14.3959C54.4435 14.5782 53.2522 15.7573 53.1428 17.5564C53.0577 18.8206 53.0942 20.1092 53.082 21.3734C53.082 21.8231 53.082 22.2729 53.082 22.7227C53.082 22.9415 53.0334 23.0387 52.7903 23.0266C52.3891 23.0144 51.988 23.0266 51.5625 23.0266V13.0222L51.5868 13.0344Z" fill="black"/>
</g>
</g>
</g>
</svg>
