<svg width="72" height="26" viewBox="0 0 72 26" fill="none" xmlns="http://www.w3.org/2000/svg">
<g id="Group 3636">
<path id="Shape" d="M71.59 7.63578V1.8017C69.7393 0.845696 66.6997 0 62.606 0C56.4533 0 51.6487 2.78222 50.1289 7.63578H71.59ZM46.6849 7.63578C45.1651 2.26745 40.5689 0.343181 34.0362 0.343181H26.0327V7.63578H46.6849ZM26.0572 17.8332V25.1257H34.0607C40.5934 25.1257 45.1896 23.226 46.7094 17.8332H26.0572ZM13.0409 17.8332L15.2716 25.1257H24.4639L22.1352 17.8332H13.0409ZM64.0523 12.7345V17.8332H50.0554C51.4771 22.9809 56.0978 25.4689 61.9809 25.4689C66.0133 25.4689 69.4819 23.9859 71.59 21.9636V12.7345H64.0523ZM8.30988 0.367694L0 25.1135H9.02076L14.3891 7.64803H19.1936L16.6688 0.367694H8.30988ZM52.5435 12.8693L52.4454 13.5189C52.3351 13.4453 52.2003 13.4086 52.0655 13.4086C51.7713 13.3841 51.5262 13.6047 51.4649 13.8743V15.6025H50.7785V12.7345H51.4649V13.1144C51.5384 12.8203 51.8081 12.6487 52.1022 12.6487C52.2738 12.6487 52.4454 12.7222 52.5435 12.857V12.8693ZM58.3898 14.4994C58.3285 14.7445 58.0589 14.9406 57.7524 14.9406C57.4093 14.9406 57.1396 14.7078 57.1396 14.291V12.7467H56.4533V14.4013C56.4533 15.2838 57.0661 15.6883 57.6667 15.6883C58.0711 15.6883 58.353 15.5289 58.4388 15.3206V15.6147H59.1252V12.7467H58.4388L58.402 14.4994H58.3898ZM49.2342 12.7345H49.9206V15.5657C49.9206 16.3379 49.369 16.8771 48.4988 16.8771C47.8983 16.8771 47.4203 16.6075 47.2487 16.3256L47.457 15.6883C47.7022 15.9824 48.0576 16.1295 48.4375 16.1295C48.8175 16.1295 49.2097 16.0192 49.2097 15.4431V15.2103C49.1116 15.4186 48.7807 15.578 48.364 15.578C47.5796 15.5535 46.9423 14.9039 46.9545 14.1194C46.9545 13.335 47.5918 12.6732 48.3763 12.6609C48.8052 12.6609 49.1484 12.8325 49.2465 13.0286L49.222 12.759L49.2342 12.7345ZM49.2097 13.7885C49.1116 13.5924 48.8052 13.4208 48.4621 13.4208C47.9595 13.4208 47.6409 13.7272 47.6409 14.1562C47.6409 14.5852 47.9718 14.8916 48.4621 14.8916C48.8052 14.8916 49.1116 14.72 49.2097 14.5239V13.7885ZM55.8404 14.1685C55.8404 14.7813 55.4728 15.3451 54.8967 15.578C54.3452 15.8108 53.6833 15.676 53.2421 15.247C52.8008 14.8058 52.6905 14.1685 52.9111 13.5924C53.144 13.0409 53.6956 12.6487 54.3206 12.6487C54.7251 12.6487 55.1051 12.808 55.3992 13.0899C55.6934 13.3841 55.8404 13.764 55.8404 14.1685ZM55.1051 14.1685C55.1296 13.8375 54.9335 13.5311 54.6393 13.3963C54.3329 13.2615 53.9897 13.3228 53.7568 13.5311C53.524 13.7395 53.4504 14.1072 53.5607 14.4136C53.6711 14.72 53.9897 14.9161 54.3084 14.9161C54.5167 14.9406 54.7128 14.8548 54.8599 14.7078C55.0193 14.5729 55.0928 14.3768 55.0928 14.1685H55.1051ZM62.9369 14.1685C62.9614 14.5484 62.8021 14.9406 62.5325 15.2225C62.2628 15.5044 61.8829 15.6638 61.4907 15.6883C61.0617 15.6883 60.743 15.5289 60.645 15.3083V16.7914H59.9586V12.7345H60.645V13.0409C60.743 12.8325 61.074 12.6609 61.4907 12.6609C61.8706 12.6609 62.2628 12.8325 62.5325 13.1022C62.8021 13.3963 62.9369 13.7763 62.9369 14.1807V14.1685ZM62.2261 14.1685C62.2261 13.7272 61.8829 13.4208 61.4049 13.4208C61.0617 13.4208 60.7553 13.5924 60.6572 13.8008V14.5729C60.7553 14.7813 61.0617 14.9529 61.4049 14.9529C61.8829 14.9161 62.2261 14.6097 62.2261 14.1685Z" fill="black"/>
</g>
</svg>
