<svg width="86" height="33" viewBox="0 0 86 33" fill="none" xmlns="http://www.w3.org/2000/svg">
<g id="Group 3606">
<path id="Vector" fill-rule="evenodd" clip-rule="evenodd" d="M1.6277 32.8506L1.68459 32.8734L1.75286 32.8962C1.98044 32.9644 2.23078 33.0099 2.48111 33.0099H15.3733L6.91885 24.5327C5.35995 26.0916 4.32448 27.1157 3.5621 27.8781C2.89075 28.5494 2.42422 29.016 1.99182 29.4484L1.09289 30.3473C0.831179 30.6318 0.671875 31.03 0.671875 31.4397C0.671875 32.0883 1.07013 32.6231 1.63908 32.8506H1.6277Z" fill="#E85326"/>
<path id="Vector_2" fill-rule="evenodd" clip-rule="evenodd" d="M0.660246 31.4397C0.660246 31.0301 0.81955 30.6204 1.08126 30.3473L1.98019 29.4484C2.41259 29.016 2.86774 28.5495 3.55047 27.8781C4.31285 27.1158 5.34833 26.0917 6.90723 24.5328L8.43199 23.008L8.46613 22.9739C10.9922 20.4591 14.5993 16.8748 19.8791 11.6064L8.28406 0L1.7071 6.57696C-0.25006 8.5455 0.0116527 9.83131 0.0116527 12.4712V30.5294C0.0116527 31.599 0.683004 32.4979 1.62745 32.8507C1.05851 32.6231 0.660246 32.0883 0.660246 31.4397Z" fill="#534796"/>
<path id="Vector_3" fill-rule="evenodd" clip-rule="evenodd" d="M21.2571 23.8615L23.3622 27.5482H25.3193L23.1232 23.7022C24.3521 23.2584 25.2055 22.4278 25.2055 21.0282C25.2055 19.4579 23.9766 18.4565 21.9739 18.4565H18.0938V27.5369H19.812V23.8501H21.2684L21.2571 23.8615ZM19.8006 22.3595V19.9699H21.9626C23.0094 19.9699 23.4759 20.4365 23.4759 21.1647C23.4759 21.893 23.0094 22.3595 21.9626 22.3595H19.8006ZM32.5335 24.328C32.5335 22.075 30.7811 20.9257 29.0174 20.9257C27.2537 20.9257 25.5014 22.0636 25.5014 24.328C25.5014 26.5924 27.2537 27.7303 29.0174 27.7303C30.7811 27.7303 32.5335 26.5924 32.5335 24.328ZM29.0174 26.1942C28.0616 26.1942 27.1627 25.5114 27.1627 24.328C27.1627 23.1446 28.0616 22.4619 29.0174 22.4619C29.9733 22.4619 30.8722 23.1446 30.8722 24.328C30.8722 25.5114 29.9733 26.1942 29.0174 26.1942ZM34.741 22.7464C34.741 22.3936 35.1279 22.2002 35.6627 22.2002C36.2885 22.2002 36.7095 22.4733 37.0281 22.9398L38.0977 22.2002C37.6426 21.4037 36.9371 20.9257 35.6399 20.9257C34.3427 20.9257 33.2959 21.5857 33.2959 22.7919C33.2959 23.998 34.2289 24.5556 35.492 24.8059C36.4137 24.988 36.8461 25.2383 36.8461 25.6366C36.8461 26.1259 36.3909 26.3535 35.8333 26.3535C35.0823 26.3535 34.6272 25.9097 34.32 25.409L33.0114 26.2397C33.4552 27.0476 34.2972 27.7303 35.8106 27.7303C37.4036 27.7303 38.3594 26.7972 38.3594 25.5911C38.3594 24.5101 37.7336 23.9184 36.2316 23.5998C35.2189 23.395 34.7637 23.156 34.7637 22.7464H34.741ZM38.826 21.1078V22.4278H39.8273V25.6707C39.8273 27.2524 40.7718 27.7189 41.8869 27.7189C42.2624 27.7189 42.6948 27.6393 42.9793 27.5369L42.82 26.1828C42.6948 26.2169 42.5241 26.2624 42.2738 26.2624C41.7845 26.2624 41.4545 26.0121 41.4545 25.3521V22.4164H42.8541V21.0964H41.4545V19.3555H39.8159V21.0964H38.8146L38.826 21.1078ZM45.0274 24.7149H49.9886V24.146C49.9886 22.2685 48.6914 20.9257 46.8481 20.9257C45.0047 20.9257 43.4572 22.2912 43.4572 24.328C43.4572 26.3648 44.9705 27.7303 46.7684 27.7303C48.1794 27.7303 49.0783 27.1955 49.7269 26.0917L48.4297 25.4431C48.0315 25.9438 47.6673 26.3307 46.7912 26.3307C45.8353 26.3307 45.1299 25.7049 45.0274 24.7263V24.7149ZM46.7912 22.166C47.7015 22.166 48.3045 22.6553 48.4639 23.4632H45.0502C45.2892 22.735 45.9377 22.166 46.7912 22.166ZM50.9103 27.5369H52.5489V18.4565H50.9103V27.5369ZM55.1205 24.6921H60.0816V24.1232C60.0816 22.2457 58.7845 20.903 56.9411 20.903C55.0977 20.903 53.5502 22.2685 53.5502 24.3053C53.5502 26.3421 55.0636 27.7075 56.8614 27.7075C58.2724 27.7075 59.1713 27.1727 59.8199 26.069L58.5227 25.4204C58.1245 25.9211 57.7604 26.3079 56.8842 26.3079C55.9284 26.3079 55.2229 25.6821 55.1205 24.7035V24.6921ZM56.8842 22.1433C57.7945 22.1433 58.3976 22.6326 58.5569 23.4405H55.1432C55.3822 22.7122 56.0308 22.1433 56.8842 22.1433ZM67.2162 25.978L65.8621 25.2383C65.4752 25.7845 65.0542 26.1714 64.2577 26.1714C63.2677 26.1714 62.5395 25.4545 62.5395 24.3053C62.5395 23.156 63.2905 22.4391 64.2577 22.4391C64.838 22.4391 65.35 22.7122 65.7483 23.3267L67.1479 22.5188C66.6814 21.5175 65.6686 20.9144 64.2691 20.9144C62.4371 20.9144 60.8782 22.2685 60.8782 24.3166C60.8782 26.3648 62.3574 27.7189 64.2691 27.7189C65.6459 27.7189 66.5676 27.0931 67.2162 25.9893V25.978ZM74.8058 24.3053C74.8058 22.0523 73.0535 20.903 71.2898 20.903C69.5261 20.903 67.7737 22.0409 67.7737 24.3053C67.7737 26.5697 69.5261 27.7075 71.2898 27.7075C73.0535 27.7075 74.8058 26.5697 74.8058 24.3053ZM71.2898 26.1714C70.334 26.1714 69.435 25.4887 69.435 24.3053C69.435 23.1219 70.334 22.4391 71.2898 22.4391C72.2456 22.4391 73.1445 23.1219 73.1445 24.3053C73.1445 25.4887 72.2456 26.1714 71.2898 26.1714ZM85.0468 27.5255V23.0195C85.0468 21.745 84.3072 20.903 82.9645 20.903C82.168 20.903 81.3828 21.2557 80.9163 22.0067C80.6432 21.324 80.0742 20.903 79.1298 20.903C78.4585 20.903 77.7416 21.1988 77.2637 21.9385V21.0851H75.6251V27.5255H77.2637V23.9184C77.2637 22.8829 77.844 22.3367 78.4812 22.3367C79.1981 22.3367 79.5167 22.7919 79.5167 23.5656V27.5255H81.1552V23.9411C81.1552 22.8715 81.6787 22.3367 82.4069 22.3367C83.1351 22.3367 83.4196 22.7919 83.4196 23.5429V27.5255H85.0582H85.0468Z" fill="#121828"/>
</g>
</svg>
