<svg width="99" height="18" viewBox="0 0 99 18" fill="none" xmlns="http://www.w3.org/2000/svg">
<g id="Group 3624">
<path id="Vector" d="M9.80018 0.0458984V9.01471C9.80018 9.43007 9.4925 9.73775 9.07714 9.73775H8.00026C8.00026 9.73775 7.89258 9.7839 7.89258 9.84544V17.3835C8.1541 17.3835 8.40025 17.4297 8.70792 17.4297C13.5231 17.4297 17.4306 13.5376 17.4306 8.70703C17.446 4.26108 14.1077 0.568951 9.80018 0.0458984ZM9.60019 13.4914C8.98483 13.4914 8.52332 12.9838 8.52332 12.4145C8.52332 11.7992 9.03099 11.3377 9.60019 11.3377C10.2155 11.3377 10.6771 11.8453 10.6771 12.4145C10.7232 12.9838 10.2155 13.4914 9.60019 13.4914ZM12.1693 13.4914C11.5539 13.4914 11.0924 12.9838 11.0924 12.4145C11.0924 11.7992 11.6001 11.3377 12.1693 11.3377C12.7847 11.3377 13.2462 11.8453 13.2462 12.4145C13.2462 12.9838 12.7847 13.4914 12.1693 13.4914ZM14.7384 13.4914C14.1231 13.4914 13.6615 12.9838 13.6615 12.4145C13.6615 11.7992 14.1692 11.3377 14.7384 11.3377C15.3538 11.3377 15.8153 11.8453 15.8153 12.4145C15.8153 12.9838 15.3538 13.4914 14.7384 13.4914Z" fill="black"/>
<path id="Vector_2" d="M8.72267 0C3.89212 0 0 3.89212 0 8.72267C0 12.9225 2.92294 16.4146 6.8766 17.23V9.38417C6.8766 9.03034 7.18428 8.72267 7.53811 8.66113H8.61498C8.61498 8.66113 8.72267 8.61498 8.72267 8.55344V0ZM7.03044 7.18428C6.41508 7.18428 5.95357 6.67661 5.95357 6.10741C5.95357 5.49205 6.46124 5.03053 7.03044 5.03053C7.64579 5.03053 8.10731 5.5382 8.10731 6.10741C8.10731 6.67661 7.64579 7.18428 7.03044 7.18428ZM96.0263 4.76901V8.04578H91.6111V4.76901H89.4112V13.4917H91.6111V9.95338H96.0263V13.4917H98.18V4.76901H96.0263ZM59.7203 5.73819C59.3664 4.969 58.6434 4.55363 57.9204 4.55363C57.1973 4.55363 56.4897 4.969 56.1204 5.73819L52.5821 13.4763H54.8897L55.6589 11.6302H60.1664L60.9356 13.4763H63.2432L59.7049 5.73819H59.7203ZM56.382 9.89184L57.7204 6.70738C57.7665 6.59969 57.828 6.59969 57.8742 6.59969C57.9204 6.59969 58.028 6.59969 58.028 6.70738L59.3664 9.89184H56.3973H56.382ZM33.7676 3.16908C32.7369 3.16908 32.0754 3.73829 31.6139 4.81516L28.7986 11.3841L25.9834 4.81516C25.5219 3.73829 24.8604 3.16908 23.8296 3.16908C22.7989 3.16908 21.8759 3.83059 21.8759 5.32283V13.4301H24.0296V5.58435L26.9064 12.0917C27.2603 13.0148 27.9371 13.584 28.7986 13.584C29.7217 13.584 30.337 13.0148 30.6909 12.0917L33.5677 5.58435V13.4763H35.7214V5.38436C35.7214 3.89212 34.7522 3.18447 33.7676 3.18447V3.16908ZM39.5674 11.6302C39.4597 11.6302 39.3674 11.5225 39.3674 11.4302V9.89184H44.7979V8.09193H39.3674V6.75353C39.3674 6.64584 39.4751 6.55354 39.5674 6.55354H44.9517V4.70747H38.4905C37.7213 4.70747 37.2136 5.32283 37.2136 5.98433V12.0917C37.2136 12.7532 37.7828 13.3686 38.4905 13.3686H44.9517V11.5225H39.5674V11.6302ZM48.5977 13.4763V6.81506C48.5977 6.70738 48.7054 6.61507 48.7977 6.61507H54.1821V4.76901H47.7208C46.9516 4.76901 46.444 5.38436 46.444 6.04587V13.4301H48.5977V13.4763ZM87.9959 9.12265C87.9959 6.09202 86.6575 4.66132 83.3807 4.66132H82.6115C79.3347 4.66132 77.9963 6.09202 77.9963 9.12265C77.9963 12.1533 79.3347 13.584 82.6115 13.584H83.3345C86.6728 13.5378 87.9959 12.0917 87.9959 9.12265ZM83.3345 11.7379H82.6115C80.8116 11.7379 80.1039 10.9226 80.1039 9.12265C80.1039 7.32273 80.7193 6.50739 82.6115 6.50739H83.3345C85.1806 6.50739 85.8421 7.38427 85.8421 9.12265C85.8421 10.861 85.1806 11.7379 83.3345 11.7379ZM71.9505 3.38446H67.643C64.4124 3.38446 63.1355 5.03053 63.1355 7.84579C63.1355 8.3073 63.1816 8.72267 63.2432 9.0765C63.597 11.0764 64.7816 12.3071 67.8122 12.3071H68.7814V13.4301H70.9351V12.3071H71.8582C74.8888 12.3071 76.058 11.0764 76.4272 9.0765C76.4733 8.72267 76.5349 8.3073 76.5349 7.84579C76.4887 5.03053 75.1503 3.38446 71.9658 3.38446H71.9505ZM68.6737 10.5072H67.7045C66.2123 10.5072 65.7046 9.93799 65.3969 9.0765C65.2892 8.76882 65.2892 8.3073 65.2892 7.84579C65.2892 5.99972 66.1661 5.23052 67.3968 5.23052H68.7352V10.5072H68.6891H68.6737ZM74.2119 9.12265C73.9042 9.99953 73.335 10.5534 71.9043 10.5534H70.9351V5.21514H72.2735C73.5042 5.21514 74.3811 5.98433 74.3811 7.8304C74.335 8.33807 74.335 8.75344 74.2273 9.10726L74.2119 9.12265Z" fill="black"/>
</g>
</svg>
