<svg width="85" height="37" viewBox="0 0 85 37" fill="none" xmlns="http://www.w3.org/2000/svg">
<g id="Group 8833">
<g id="Group">
<path id="Vector" d="M75.6115 7.125H70.8462C70.3102 7.17265 70.2268 7.51814 70.2148 7.67301V14.9877C70.2387 15.1426 70.334 15.5595 70.8701 15.6191H75.5996C76.1357 15.5595 76.1953 15.1545 76.2191 14.9877V7.67301C76.1953 7.51814 76.1476 7.18457 75.5996 7.125H75.6115Z" fill="white"/>
<path id="Vector_2" d="M59.5555 7.11348H54.4805V9.85351H59.5436C60.0916 9.85351 60.1631 9.59142 60.1631 9.28168V7.75679C60.1631 7.50661 60.1631 7.10156 59.5555 7.10156V7.11348Z" fill="white"/>
<path id="Vector_3" d="M0 0V22.7304H84.81V0H0ZM21.6939 18.3582H17.3218V9.5782L14.3911 18.3582H11.5201L8.56558 9.5782V18.3582H4.19344V4.37214H10.0905L12.9258 11.3652L15.7731 4.37214H21.6701V18.3582H21.6939ZM34.9652 18.3582H23.4452V4.37214H34.8103V7.12409H27.8292V9.86412H34.8103V12.6161H27.8292V15.6182H34.9652V18.3701V18.3582ZM48.8083 7.12409H44.6506V18.3582H40.2785V7.12409H36.1208V4.37214H48.7964V7.12409H48.8083ZM64.1049 10.3645C64.1049 11.8894 62.7468 12.8186 61.3768 12.9258H60.7096L64.093 18.3701H59.0656L56.2303 12.9258H54.4909V18.3701H50.1188V4.37214H61.3648C62.7706 4.47936 63.95 5.33711 64.1049 6.90965V10.3645ZM80.6046 15.8326C80.4498 17.4171 79.2704 18.251 77.8765 18.3701H68.5842C67.1904 18.2629 66.011 17.4171 65.8561 15.8326V6.7786C66.011 5.19415 67.1904 4.49127 68.5842 4.37214H77.8765C79.2704 4.47936 80.4498 5.19415 80.6046 6.7786V15.8326Z" fill="white"/>
</g>
<path id="Vector_4" d="M18.8697 30.0092H17.6069V29.6518C17.6069 29.2944 17.5116 29.0562 17.321 28.9609C17.1661 28.8775 16.7968 28.8417 16.2131 28.8417C15.5698 28.8417 15.1647 28.937 14.986 29.1157C14.8073 29.2944 14.7239 29.6995 14.7239 30.3428V31.7962C14.7239 32.4633 14.8073 32.8922 14.9741 33.0828C15.1528 33.2734 15.5579 33.3687 16.2131 33.3687C16.7849 33.3687 17.1542 33.3211 17.3329 33.2377C17.5712 33.1066 17.6784 32.8326 17.6784 32.3918V32.0345H18.9412V32.4633C18.9412 33.0947 18.8221 33.5474 18.5957 33.8453C18.4051 34.1073 18.0834 34.2741 17.6546 34.3456C17.4401 34.3814 16.9636 34.4171 16.2131 34.4528C15.1052 34.5005 14.3546 34.3218 13.9615 33.9048C13.6279 33.5474 13.4492 32.8684 13.4492 31.8558V30.3428C13.4492 29.3302 13.6637 28.6392 14.1044 28.2699C14.4976 27.9363 15.2005 27.7695 16.2131 27.7695C17.2257 27.7695 17.8452 27.8529 18.1549 28.0078C18.6315 28.258 18.8697 28.806 18.8697 29.6637V30.0211V30.0092Z" fill="white"/>
<path id="Vector_5" d="M22.7306 34.3825L22.7783 33.7987H22.7545C22.6592 34.0727 22.4566 34.2514 22.1588 34.3467C21.9682 34.4063 21.6942 34.4301 21.3249 34.4301C20.7411 34.4301 20.3242 34.3467 20.074 34.168C19.7642 33.9417 19.6094 33.5485 19.6094 32.9648C19.6094 32.4287 19.7523 32.0594 20.0383 31.845C20.3003 31.6544 20.7292 31.559 21.3249 31.559C21.6942 31.559 21.9563 31.5829 22.1231 31.6305C22.3971 31.702 22.5877 31.8569 22.7068 32.0832H22.7425V31.4876C22.7425 31.0825 22.6949 30.8204 22.5877 30.7132C22.4685 30.5583 22.1826 30.4869 21.7538 30.4869C21.4559 30.4869 21.2534 30.5226 21.1343 30.5822C20.9675 30.6775 20.8841 30.8562 20.8841 31.1302H19.7762C19.7762 30.5345 19.9787 30.1295 20.3718 29.9269C20.6339 29.7959 21.0866 29.7363 21.7538 29.7363C22.54 29.7363 23.0761 29.8435 23.3501 30.0461C23.6718 30.2843 23.8386 30.7728 23.8386 31.5114V34.3944H22.7306V34.3825ZM21.718 32.3096C21.3606 32.3096 21.1224 32.3334 21.0032 32.393C20.8007 32.4883 20.7054 32.6789 20.7054 32.9767C20.7054 33.2865 20.7769 33.489 20.9317 33.5724C21.0509 33.6439 21.313 33.6915 21.718 33.6915C22.0635 33.6915 22.3137 33.6558 22.4447 33.5843C22.6353 33.4771 22.7306 33.2745 22.7306 32.9767C22.7306 32.6789 22.6234 32.5002 22.4209 32.4049C22.2898 32.3453 22.0516 32.3215 21.7061 32.3215" fill="white"/>
<path id="Vector_6" d="M28.8401 31.0347H27.7322C27.7322 30.7845 27.6607 30.6177 27.5178 30.5581C27.4225 30.5105 27.208 30.4867 26.8625 30.4867C26.5051 30.4867 26.2669 30.5105 26.1477 30.5701C25.9691 30.6415 25.8737 30.8202 25.8737 31.0942C25.8737 31.3206 25.9333 31.4516 26.0524 31.5112C26.1597 31.5589 26.4575 31.5946 26.9578 31.6184C27.7084 31.6542 28.1968 31.7137 28.3993 31.809C28.8044 31.9996 29.0069 32.4166 29.0069 33.0837C29.0069 33.6556 28.7925 34.0368 28.3636 34.2274C28.0539 34.3704 27.5535 34.4418 26.8506 34.4418C26.0882 34.4418 25.5759 34.3823 25.3377 34.2631C24.9564 34.0606 24.7539 33.6317 24.7539 32.9527H25.8618C25.8618 33.2744 25.9333 33.4888 26.0405 33.5722C26.1597 33.6556 26.4337 33.6913 26.8506 33.6913C27.2676 33.6913 27.5059 33.6675 27.625 33.6198C27.8037 33.5484 27.899 33.3577 27.899 33.0718C27.899 32.8336 27.8513 32.6906 27.756 32.6191C27.6131 32.5119 27.2795 32.4643 26.7672 32.4523C25.9214 32.4523 25.3853 32.3451 25.1351 32.1783C24.885 31.9996 24.7658 31.6184 24.7658 31.0347C24.7658 30.4509 24.9683 30.0935 25.3734 29.9148C25.6236 29.8076 26.1239 29.748 26.8625 29.748C27.482 29.748 27.9347 29.8076 28.1968 29.9148C28.6257 30.1054 28.852 30.4867 28.852 31.0585" fill="white"/>
<path id="Vector_7" d="M30.9241 27.8047V30.4732H30.9599C31.0671 30.1635 31.2577 29.961 31.5317 29.8538C31.7342 29.7704 32.0201 29.7346 32.4133 29.7346C33.0089 29.7346 33.414 29.8657 33.6523 30.1158C33.8786 30.366 33.9858 30.7711 33.9858 31.3548V34.3927H32.8779V31.4739C32.8779 31.1285 32.8183 30.8902 32.6992 30.7711C32.592 30.64 32.3537 30.5805 32.0201 30.5805C31.5674 30.5805 31.2696 30.6877 31.1147 30.914C30.9956 31.0927 30.936 31.4025 30.936 31.8552V34.3927H29.8281V27.8166H30.936L30.9241 27.8047Z" fill="white"/>
<path id="Vector_8" d="M43.7801 34.3815L42.9938 33.7025C42.8151 34.0122 42.5053 34.2267 42.0765 34.3339C41.8144 34.3935 41.3974 34.4292 40.8256 34.4292C39.8487 34.4292 39.1816 34.322 38.8361 34.1195C38.3476 33.8335 38.1094 33.2617 38.1094 32.3801C38.1094 31.8202 38.1809 31.4032 38.3238 31.1531C38.5144 30.8195 38.8599 30.6289 39.3603 30.5932C39.1339 30.4025 38.991 30.2358 38.9076 30.0809C38.8361 29.926 38.8003 29.7116 38.8003 29.4257C38.8003 28.7466 38.979 28.282 39.3483 28.0437C39.6462 27.8531 40.1584 27.7578 40.9209 27.7578C41.7667 27.7578 42.3147 27.8889 42.5649 28.139C42.827 28.3892 42.9461 28.9491 42.9461 29.8188H41.862C41.862 29.3542 41.8144 29.0683 41.7191 28.961C41.6238 28.8538 41.3498 28.7943 40.909 28.7943C40.5635 28.7943 40.3252 28.8181 40.218 28.8777C40.0631 28.961 39.9797 29.1517 39.9797 29.4376C39.9797 29.6163 40.0155 29.7711 40.0751 29.8903C40.1227 29.9737 40.2299 30.0928 40.3848 30.2238L42.4696 32.0346V31.1531H43.5537V31.6058C43.5537 32.1776 43.5061 32.5827 43.4227 32.8447L44.3638 33.6668L43.7681 34.3935L43.7801 34.3815ZM42.1837 32.9996L40.0274 31.1769C39.6938 31.2246 39.4794 31.3556 39.396 31.5343C39.3364 31.6653 39.3007 31.9513 39.3007 32.3801C39.3007 32.8567 39.4198 33.1545 39.6462 33.2855C39.801 33.357 40.1942 33.4047 40.8256 33.4047C41.2068 33.4047 41.4808 33.3928 41.6357 33.357C41.8739 33.3094 42.0526 33.1902 42.1837 33.0115" fill="white"/>
<path id="Vector_9" d="M53.276 30.0092H52.0132V29.6518C52.0132 29.2944 51.9179 29.0562 51.7273 28.9609C51.5724 28.8775 51.2031 28.8417 50.6074 28.8417C49.9641 28.8417 49.5591 28.937 49.3804 29.1157C49.2017 29.2944 49.1183 29.6995 49.1183 30.3428V31.7962C49.1183 32.4633 49.2017 32.8922 49.3684 33.0828C49.5471 33.2734 49.9522 33.3687 50.6074 33.3687C51.1793 33.3687 51.5486 33.3211 51.7273 33.2377C51.9655 33.1066 52.0727 32.8326 52.0727 32.3918V32.0345H53.3355V32.4633C53.3355 33.0947 53.2164 33.5474 52.9901 33.8453C52.7994 34.1073 52.4778 34.2741 52.0489 34.3456C51.8345 34.3814 51.3579 34.4171 50.6074 34.4528C49.4995 34.5005 48.749 34.3218 48.3677 33.9048C48.0342 33.5474 47.8555 32.8684 47.8555 31.8558V30.3428C47.8555 29.3302 48.0699 28.6392 48.5107 28.2699C48.9038 27.9363 49.6067 27.7695 50.6193 27.7695C51.632 27.7695 52.2514 27.8529 52.5612 28.0078C53.0377 28.258 53.276 28.806 53.276 29.6637V30.0211V30.0092Z" fill="white"/>
<path id="Vector_10" d="M57.1466 34.3825L57.1943 33.7987H57.1705C57.0752 34.0727 56.8726 34.2514 56.5748 34.3467C56.3842 34.4063 56.1102 34.4301 55.7409 34.4301C55.1571 34.4301 54.7402 34.3467 54.49 34.168C54.1803 33.9417 54.0254 33.5485 54.0254 32.9648C54.0254 32.4287 54.1683 32.0594 54.4543 31.845C54.7164 31.6544 55.1452 31.559 55.7409 31.559C56.1102 31.559 56.3723 31.5829 56.5391 31.6305C56.8131 31.702 57.0037 31.8569 57.1228 32.0832H57.1586V31.4876C57.1586 31.0825 57.1109 30.8204 57.0037 30.7132C56.8846 30.5583 56.5986 30.4869 56.1698 30.4869C55.8719 30.4869 55.6694 30.5226 55.5503 30.5822C55.3835 30.6775 55.3001 30.8562 55.3001 31.1302H54.1922C54.1922 30.5345 54.3947 30.1295 54.7878 29.9269C55.038 29.7959 55.5026 29.7363 56.1698 29.7363C56.956 29.7363 57.4921 29.8435 57.7661 30.0461C58.0878 30.2843 58.2546 30.7728 58.2546 31.5114V34.3944H57.1466V34.3825ZM56.134 32.3096C55.7766 32.3096 55.5384 32.3334 55.4192 32.393C55.2167 32.4883 55.1214 32.6789 55.1214 32.9767C55.1214 33.2865 55.1929 33.489 55.3478 33.5724C55.4669 33.6439 55.729 33.6915 56.134 33.6915C56.4795 33.6915 56.7297 33.6558 56.8607 33.5843C57.0513 33.4771 57.1466 33.2745 57.1466 32.9767C57.1466 32.6789 57.0394 32.5002 56.8369 32.4049C56.7059 32.3453 56.4676 32.3215 56.1221 32.3215" fill="white"/>
<path id="Vector_11" d="M59.2676 29.784H60.3398L60.3159 30.3916H60.3636C60.5542 29.9508 60.9593 29.7363 61.5907 29.7363C62.0434 29.7363 62.3769 29.8674 62.5675 30.1295C62.7224 30.3558 62.8058 30.7132 62.8058 31.1778V31.5471H61.7693V31.3089C61.7693 31.0468 61.7455 30.8681 61.686 30.7609C61.6145 30.6298 61.4477 30.5703 61.2094 30.5703C60.8997 30.5703 60.6733 30.6536 60.5423 30.8323C60.4351 30.9872 60.3755 31.2255 60.3755 31.5471V34.3944H59.2676V29.7959V29.784Z" fill="white"/>
<path id="Vector_12" d="M63.4023 29.784H64.4864L64.4626 30.3916H64.5103C64.7009 29.9508 65.1059 29.7363 65.7373 29.7363C66.19 29.7363 66.5236 29.8674 66.7142 30.1295C66.8691 30.3558 66.9525 30.7132 66.9525 31.1778V31.5471H65.916V31.3089C65.916 31.0468 65.8922 30.8681 65.8326 30.7609C65.7612 30.6298 65.5944 30.5703 65.3561 30.5703C65.0464 30.5703 64.82 30.6536 64.689 30.8323C64.5817 30.9872 64.5222 31.2255 64.5222 31.5471V34.3944H63.4143V29.7959L63.4023 29.784Z" fill="white"/>
<path id="Vector_13" d="M71.3598 29.7832L70.1685 34.5723C70.0017 35.2275 69.8469 35.6683 69.6801 35.8947C69.418 36.2521 69.001 36.4308 68.4173 36.4308C68.3577 36.4308 68.2743 36.4308 68.179 36.4188C68.0599 36.4188 67.9765 36.395 67.9408 36.395V35.5611C68.0956 35.573 68.179 35.5849 68.179 35.5849C68.4888 35.5849 68.7032 35.4539 68.8581 35.1799C68.9295 35.0369 69.0129 34.7629 69.0725 34.3817H68.5364L67.0234 29.7832H68.1671L69.3346 33.7026H69.3584L70.2519 29.7832H71.3718H71.3598Z" fill="white"/>
</g>
</svg>
