<svg width="101" height="27" viewBox="0 0 101 27" fill="none" xmlns="http://www.w3.org/2000/svg">
<g id="SBER">
<path id="Vector" d="M79.9072 8.30465L83.6408 5.5625H71.166V21.9626H83.6408V19.2381H74.7227V15.037H82.3314V12.3124H74.7227V8.30465H79.9072Z" fill="white"/>
<path id="Vector_2" d="M61.755 11.9608H57.4197V8.30473H64.3384L68.0542 5.58008H53.8984V21.9628H61.3304C65.4886 21.9628 67.8773 20.0818 67.8773 16.8124C67.8773 13.5429 65.7187 11.9608 61.7904 11.9608M61.1709 19.2381H57.4551V14.6855H61.1709C63.4182 14.6855 64.4801 15.4412 64.4801 16.9529C64.4801 18.4646 63.3651 19.2381 61.1709 19.2381Z" fill="white"/>
<path id="Vector_3" d="M93.7459 5.58008H86.9512V21.9628H90.4901V17.3222H93.7282C98.0457 17.3222 100.806 15.0545 100.806 11.4334C100.806 7.81239 98.0988 5.58008 93.7282 5.58008M93.7282 14.5799H90.5787V8.30473H93.7282C96.0108 8.30473 97.2671 9.41199 97.2671 11.451C97.2671 13.4901 96.0108 14.5799 93.7282 14.5799Z" fill="white"/>
<path id="Vector_4" d="M47.7387 18.4122C46.7979 18.9144 45.7455 19.1742 44.6775 19.1679C43.9369 19.2099 43.1954 19.1013 42.4985 18.8486C41.8016 18.596 41.164 18.2046 40.6247 17.6985C40.0854 17.1925 39.6558 16.5825 39.3622 15.9058C39.0686 15.229 38.9172 14.4998 38.9172 13.7628C38.9172 13.0259 39.0686 12.2966 39.3622 11.6199C39.6558 10.9431 40.0854 10.3332 40.6247 9.82712C41.164 9.32108 41.8016 8.92968 42.4985 8.67701C43.1954 8.42434 43.9369 8.31553 44.6775 8.35751C45.8367 8.34086 46.9709 8.69196 47.9156 9.35957L50.4637 7.49621L50.2868 7.33807C48.682 5.99421 46.6339 5.2868 44.536 5.35176C42.2063 5.29666 39.9444 6.13386 38.2189 7.68976C37.4108 8.46495 36.7722 9.39727 36.3429 10.4286C35.9137 11.4599 35.7031 12.5679 35.7241 13.6836C35.7059 14.8095 35.9176 15.9273 36.3464 16.9696C36.7752 18.0119 37.4121 18.9572 38.2189 19.7481C39.913 21.3527 42.1782 22.2249 44.5183 22.1739C45.689 22.2112 46.8547 22.007 47.9419 21.5744C49.0292 21.1417 50.0143 20.49 50.8352 19.6602L48.5351 17.9904L47.7387 18.4122Z" fill="white"/>
<path id="Vector_5" d="M0.0708481 13.7708C0.19841 17.2968 1.69817 20.6362 4.25434 23.0859C6.81051 25.5355 10.2237 26.9044 13.7754 26.9044C17.3272 26.9044 20.7403 25.5355 23.2965 23.0859C25.8527 20.6362 27.3524 17.2968 27.48 13.7708C27.4819 12.9517 27.4108 12.1341 27.2677 11.3274L24.3126 13.4895V13.7708C24.3126 15.8567 23.69 17.8958 22.5234 19.6302C21.3568 21.3645 19.6986 22.7163 17.7587 23.5146C15.8187 24.3128 13.6839 24.5217 11.6245 24.1147C9.56502 23.7078 7.6732 22.7035 6.18841 21.2285C4.70361 19.7535 3.69264 17.8742 3.28299 15.8283C2.87333 13.7825 3.08358 11.6618 3.88714 9.73467C4.6907 7.80751 6.05146 6.16028 7.79739 5.00139C9.54332 3.84251 11.5959 3.22408 13.6957 3.22408C15.8112 3.19697 17.8848 3.81006 19.6411 4.98187L22.313 3.03075C20.3045 1.41553 17.8771 0.3977 15.311 0.0949584C12.7448 -0.207783 10.1447 0.216777 7.81122 1.31974C5.47773 2.42271 3.50593 4.15909 2.12371 6.3281C0.741494 8.49711 0.00529437 11.0104 0 13.5775" fill="white"/>
<path id="Vector_6" d="M24.6123 5.38672C25.2681 6.22029 25.8205 7.1292 26.2578 8.09378L13.7655 17.2342L8.45703 13.9823V10.0801L13.7655 13.3319L24.6123 5.38672Z" fill="white"/>
</g>
</svg>
