<svg width="76" height="30" viewBox="0 0 76 30" fill="none" xmlns="http://www.w3.org/2000/svg">
<g id="Group 8831">
<path id="Vector" d="M0 10.222V14.3261L11.0891 13.1032V8.66406L0 10.222Z" fill="white"/>
<path id="Vector_2" d="M3.30078 15.6844V29.7223H7.34997V15.2656L3.30078 15.6844Z" fill="white"/>
<path id="Vector_3" d="M12.584 9.26712V29.4193H16.8684V8.66406L12.584 9.26712Z" fill="white"/>
<path id="Vector_4" d="M17.6055 8.51253V13.1527L23.7717 12.4827V7.6582L17.6055 8.51253Z" fill="white"/>
<path id="Vector_5" d="M18.707 14.5178V19.2418L22.7562 19.024V14.166L18.707 14.5178Z" fill="white"/>
<path id="Vector_6" d="M17.6758 24.7292V29.3861H23.842V24.5449L17.6758 24.7292Z" fill="white"/>
<path id="Vector_7" d="M39.8203 5.39557V29.3839H45.4321V4.625L39.8203 5.39557Z" fill="white"/>
<path id="Vector_8" d="M46.4727 4.47617V9.98745L54.655 9.08287V3.32031L46.4727 4.47617Z" fill="white"/>
<path id="Vector_9" d="M46.4727 14.1409V19.7527L51.8492 19.4679V13.6719L46.4727 14.1409Z" fill="white"/>
<path id="Vector_10" d="M46.4727 23.8576V29.3856H54.655V23.623L46.4727 23.8576Z" fill="white"/>
<path id="Vector_11" d="M25.4707 7.42314V29.3845H30.36V6.73633L25.4707 7.42314Z" fill="white"/>
<path id="Vector_12" d="M31.2676 24.3271V29.3861H38.3411V24.1094L31.2676 24.3271Z" fill="white"/>
<path id="Vector_13" d="M72.9863 3.0516C72.0059 2.20718 70.8472 1.59406 69.5964 1.25763C68.3456 0.92121 67.035 0.870089 65.7617 1.10836V7.27304C66.2543 7.19702 66.7585 7.27357 67.2062 7.49225C67.6539 7.71093 68.0234 8.06116 68.2651 8.49587C68.9204 9.85275 68.2651 11.8462 66.585 13.7559C64.1151 16.6539 57.5625 22.6008 57.5625 22.6008L66.9714 22.2824C72.7175 16.6874 74.7841 13.287 75.1537 9.04881C75.2731 7.95071 75.14 6.83986 74.7645 5.80073C74.3889 4.7616 73.7807 3.82139 72.9863 3.0516Z" fill="white"/>
<path id="Vector_14" d="M56.4707 23.5559V29.3854H75.5573V22.9863L56.4707 23.5559Z" fill="white"/>
<path id="Vector_15" d="M64.6676 1.24414C59.1231 2.41675 56.4012 6.48735 56.7205 13.1377L62.6347 12.6018C62.3659 8.84942 63.5083 7.96149 64.6676 7.47569V1.24414Z" fill="white"/>
</g>
</svg>
