<svg width="111" height="20" viewBox="0 0 111 20" fill="none" xmlns="http://www.w3.org/2000/svg">
<g id="MEGAFON">
<path id="Vector" d="M10.977 0.0670651V10.054C10.9793 10.1604 10.96 10.266 10.9201 10.3647C10.8802 10.4635 10.8205 10.5532 10.7447 10.6284C10.6689 10.7036 10.5788 10.7627 10.4794 10.8024C10.3799 10.842 10.2734 10.8614 10.1662 10.859H8.95876C8.95876 10.859 8.83789 10.8589 8.83789 10.9617V19.3726C9.13115 19.3726 9.42448 19.3726 9.7695 19.3726C12.2673 19.385 14.6754 18.4478 16.4997 16.7535C18.324 15.0592 19.4262 12.7362 19.5807 10.2606C19.7351 7.78494 18.93 5.34446 17.3302 3.43953C15.7304 1.53461 13.4573 0.309473 10.977 0.015625V0.0670651ZM10.7354 15.0215C10.4966 15.0215 10.2633 14.9513 10.0647 14.8195C9.86615 14.6878 9.71139 14.5004 9.61999 14.2813C9.52859 14.0622 9.50453 13.8211 9.55113 13.5885C9.59772 13.3559 9.71286 13.1423 9.88174 12.9746C10.0506 12.8069 10.2658 12.6927 10.5 12.6465C10.7342 12.6002 10.977 12.6239 11.1977 12.7147C11.4183 12.8054 11.6068 12.9591 11.7395 13.1563C11.8722 13.3535 11.9431 13.5853 11.9431 13.8225C11.9479 13.9812 11.92 14.1393 11.861 14.2869C11.802 14.4345 11.7132 14.5686 11.6001 14.6809C11.487 14.7932 11.3518 14.8814 11.2031 14.94C11.0545 14.9985 10.8953 15.0263 10.7354 15.0215ZM13.6164 15.0215C13.3776 15.0215 13.1441 14.9513 12.9455 14.8195C12.7469 14.6878 12.5921 14.5004 12.5007 14.2813C12.4093 14.0622 12.3855 13.8211 12.4321 13.5885C12.4787 13.3559 12.5936 13.1423 12.7625 12.9746C12.9314 12.8069 13.1465 12.6927 13.3808 12.6465C13.615 12.6002 13.8578 12.6239 14.0784 12.7147C14.2991 12.8054 14.4878 12.9591 14.6204 13.1563C14.7531 13.3535 14.8239 13.5853 14.8239 13.8225C14.8239 14.1405 14.6968 14.4455 14.4703 14.6704C14.2438 14.8953 13.9367 15.0215 13.6164 15.0215ZM16.4974 15.0215C16.2585 15.0215 16.025 14.9513 15.8264 14.8195C15.6279 14.6878 15.4731 14.5004 15.3817 14.2813C15.2903 14.0622 15.2662 13.8211 15.3128 13.5885C15.3594 13.3559 15.4746 13.1423 15.6434 12.9746C15.8123 12.8069 16.0275 12.6927 16.2617 12.6465C16.496 12.6002 16.7387 12.6239 16.9594 12.7147C17.18 12.8054 17.3687 12.9591 17.5014 13.1563C17.6341 13.3535 17.7048 13.5853 17.7048 13.8225C17.7051 13.9859 17.6716 14.1477 17.6067 14.2978C17.5417 14.4479 17.4466 14.5832 17.327 14.6955C17.2075 14.8078 17.0661 14.8948 16.9116 14.9508C16.757 15.0069 16.5926 15.0308 16.4283 15.0215H16.4974Z" fill="white"/>
<path id="Vector_2" d="M9.76885 0C7.3571 0.00302674 5.03154 0.890869 3.23873 2.49276C1.44593 4.09464 0.312296 6.2977 0.0555914 8.67896C-0.201113 11.0602 0.437122 13.4518 1.84785 15.3942C3.25857 17.3366 5.34217 18.693 7.69863 19.2029V10.4495C7.70933 10.2525 7.78957 10.0656 7.92521 9.92147C8.06085 9.77738 8.24333 9.6852 8.4405 9.66134H9.64797C9.67873 9.65771 9.70756 9.64398 9.72947 9.62224C9.75137 9.60048 9.76519 9.57206 9.76885 9.54152V0ZM7.8713 7.99978C7.63247 7.99978 7.39897 7.92954 7.20039 7.79778C7.00181 7.66602 6.84704 7.47865 6.75564 7.25954C6.66425 7.04044 6.64019 6.79938 6.68678 6.56677C6.73338 6.33417 6.84852 6.12053 7.0174 5.95284C7.18628 5.78514 7.40142 5.67102 7.63566 5.62475C7.8699 5.57848 8.11267 5.60216 8.33332 5.69292C8.55397 5.78368 8.74266 5.93736 8.87535 6.13455C9.00804 6.33174 9.07877 6.5636 9.07877 6.80076C9.07877 6.95823 9.04765 7.11406 8.98696 7.25954C8.92627 7.40502 8.83734 7.53734 8.72521 7.64869C8.61308 7.76004 8.47982 7.84835 8.33332 7.90861C8.18681 7.96887 8.02988 7.99978 7.8713 7.99978ZM107.65 5.31046V8.97631H102.682V5.31046H100.215V15.023H102.682V11.0833H107.633V15.023H110.048V5.31046H107.65ZM66.938 6.40681C66.7704 6.01273 66.4896 5.67634 66.1306 5.4399C65.7716 5.20346 65.3503 5.07731 64.9196 5.07731C64.4888 5.07731 64.0675 5.20346 63.7085 5.4399C63.3495 5.67634 63.0687 6.01273 62.9011 6.40681L58.9336 14.9718H61.5212L62.3838 12.9161H67.4554L68.3179 14.9718H70.9055L66.938 6.40681ZM63.1945 11.0318L64.6953 7.48601C64.6953 7.3661 64.7988 7.36598 64.8678 7.36598C64.9368 7.36598 65.0404 7.3661 65.0404 7.48601L66.524 11.0318H63.1945ZM37.8359 3.54602C37.288 3.55141 36.7564 3.73293 36.321 4.06335C35.8856 4.39378 35.5698 4.85523 35.4208 5.37884L32.2467 12.6762L29.0896 5.37884C28.9381 4.85663 28.6217 4.39671 28.1869 4.0667C27.752 3.73669 27.2217 3.55415 26.6745 3.54602C26.3661 3.54169 26.0605 3.60253 25.7776 3.7246C25.4948 3.84667 25.2413 4.02722 25.0341 4.25406C24.8268 4.4809 24.6705 4.74888 24.5756 5.0403C24.4808 5.33172 24.4495 5.6399 24.4838 5.94426V14.9718H26.8988V6.23534L30.1246 13.4815C30.2464 13.9553 30.5185 14.3777 30.9006 14.6862C31.2827 14.9946 31.7547 15.1729 32.2467 15.1945C32.7425 15.1793 33.2197 15.0037 33.6058 14.6945C33.9919 14.3853 34.2657 13.9594 34.3858 13.4815L37.5944 6.23534V15.023H40.0095V5.9955C40.0432 5.69009 40.0122 5.38128 39.9188 5.08839C39.8254 4.7955 39.6714 4.52513 39.4669 4.29462C39.2623 4.06412 39.0117 3.87837 38.7309 3.74949C38.45 3.6206 38.1453 3.55135 37.8359 3.54602ZM44.3222 12.9675C44.2653 12.9604 44.2123 12.9346 44.1717 12.8943C44.1311 12.854 44.1052 12.8014 44.098 12.7448V11.0318H50.1873V9.09612H44.0289V7.60582C44.0361 7.54926 44.062 7.49663 44.1026 7.45631C44.1432 7.416 44.1962 7.39028 44.2532 7.38312H50.2909V5.32761H43.0457C42.857 5.32531 42.6698 5.36048 42.495 5.43112C42.3203 5.50176 42.1614 5.60644 42.0279 5.73892C41.8945 5.87141 41.7891 6.02897 41.718 6.20251C41.6468 6.37605 41.6114 6.56197 41.6137 6.74932V13.6013C41.6225 13.9757 41.7763 14.3323 42.0429 14.5971C42.3095 14.8619 42.6687 15.0143 43.0457 15.023H50.2909V12.9675H44.2532H44.3222ZM54.4484 15.023V7.60582C54.4519 7.5462 54.4762 7.48962 54.5171 7.44586C54.558 7.40209 54.6131 7.37384 54.6727 7.36598H60.7277V5.31046H53.465C53.2749 5.3081 53.0863 5.34374 52.9103 5.41543C52.7344 5.48713 52.5748 5.59331 52.4412 5.72763C52.3075 5.86195 52.2025 6.02174 52.1325 6.19728C52.0624 6.37282 52.0286 6.56055 52.0333 6.74932V14.9718H54.4484V15.023ZM98.6277 10.1753C98.6277 6.74932 97.1269 5.20758 93.4524 5.20758H92.5899C88.8982 5.20758 87.4147 6.80071 87.4147 10.1753C87.4147 13.5499 88.8982 15.1431 92.5899 15.1431H93.3834C97.1268 15.0745 98.6277 13.4814 98.6277 10.1753ZM93.4524 13.0873H92.6588C90.6404 13.0873 89.8298 12.1624 89.8298 10.1753C89.8298 8.18824 90.5197 7.26331 92.6588 7.26331H93.4524C95.5225 7.26331 96.2816 8.2225 96.2816 10.1753C96.2816 12.1281 95.4535 13.0873 93.3834 13.0873H93.4524ZM80.6868 3.76872H75.8565C72.2338 3.76872 70.8021 5.60167 70.8021 8.73646C70.8063 9.19502 70.8407 9.65269 70.9055 10.1067C71.3196 12.3336 72.6306 13.704 76.0808 13.704H77.1676V14.9718H79.5827V13.704H80.6177C84.0679 13.704 85.3445 12.3336 85.793 10.1067C85.864 9.65312 85.9045 9.19543 85.9139 8.73646C85.9964 8.04926 85.9179 7.35244 85.6843 6.70039C85.4507 6.04835 85.0683 5.45878 84.5672 4.97778C84.0661 4.49677 83.4597 4.13716 82.7956 3.92743C82.1314 3.7177 81.4275 3.66347 80.7386 3.76872H80.6868ZM77.0124 11.7171H75.9083C74.1832 11.7171 73.6657 11.0831 73.3207 10.1067C73.2279 9.65613 73.1932 9.19577 73.2173 8.73646C73.2173 6.68086 74.1833 5.82424 75.5634 5.82424H77.0642V11.7171H77.0124ZM83.2226 10.1753C83.0556 10.705 82.7025 11.1573 82.2274 11.4498C81.7524 11.7423 81.1871 11.8555 80.635 11.7685H79.5309V5.82424H81.0317C82.4118 5.82424 83.3951 6.68086 83.3951 8.73646C83.365 9.21895 83.3074 9.6993 83.2226 10.1753Z" fill="white"/>
</g>
</svg>
