<svg width="98" height="19" viewBox="0 0 98 19" fill="none" xmlns="http://www.w3.org/2000/svg">
<g id="Group 3634">
<path id="Vector" d="M52.0781 15.2642V3.06836H59.6572V5.89715H55.2405V15.2642H52.0915H52.0781Z" fill="white"/>
<path id="Vector_2" d="M69.1994 15.2642V10.4873H64.5026V15.2642H61.3535V3.06836H64.5026V7.61845H69.1994V3.06836H72.3484V15.2642H69.1994Z" fill="white"/>
<path id="Vector_3" d="M90.6942 15.2642V5.89715H86.998V3.06836H97.5526V5.89715H93.8432V15.2642H90.6942Z" fill="white"/>
<path id="Vector_4" d="M82.356 15.2642V8.32565L77.3122 15.2642H74.6836V3.06836H77.8326V9.94019L82.7697 3.06836H85.5051V15.2642H82.356Z" fill="white"/>
<path id="Vector_5" d="M33.9432 15.2642V8.01875L30.7942 11.8616L27.6451 8.04544V15.2775H24.4961V3.06836H27.6184L30.8208 7.25818L34.0233 3.06836H37.1456V15.2642H33.9565H33.9432Z" fill="white"/>
<path id="Vector_6" d="M43.0862 10.9676H46.035L44.5673 7.15143L43.0862 10.9676ZM47.6763 15.2642L47.0091 13.5562H42.0988L41.4316 15.2642H38.2559L43.1128 3.06836H46.035L50.892 15.2642H47.6629H47.6763Z" fill="white"/>
<path id="Vector_7" d="M0.0133434 5.5375C0.0133434 4.06973 0.600452 2.66867 1.62789 1.62789C2.65533 0.587108 4.0297 0 5.49747 0H18.1336V2.82879H5.49747C4.77693 2.82879 4.09641 3.12235 3.58937 3.6294C3.08232 4.13644 2.81545 4.8303 2.78876 5.56418V10.3144C2.7087 10.9149 2.46852 11.4886 2.05488 11.9423C1.65458 12.3826 1.09416 12.6762 0.507048 12.7829L0 12.863V5.55084L0.0133434 5.5375Z" fill="white"/>
<path id="Vector_8" d="M0.0136719 18.3344V15.5056H12.6232C13.3437 15.5056 14.0242 15.212 14.5313 14.705C15.0383 14.1979 15.3052 13.5041 15.3319 12.7702V8.27347C15.3319 7.61964 15.5587 6.9925 15.9857 6.4988C16.4127 6.00509 16.9731 5.67151 17.6136 5.57811L18.1206 5.49805V12.7835C18.1206 14.2646 17.5335 15.6657 16.5061 16.7065C15.4786 17.7473 14.1043 18.3344 12.6365 18.3344H0.0136719Z" fill="white"/>
<path id="Vector_9" d="M10.7149 12.8369V9.18085L9.07369 11.1824L7.41911 9.18085V12.8369H5.24414V5.6582H7.31236L9.07369 7.96661L10.8484 5.6582H12.9166V12.8369H10.7416H10.7149Z" fill="white"/>
</g>
</svg>
