<svg width="85" height="38" viewBox="0 0 85 38" fill="none" xmlns="http://www.w3.org/2000/svg">
<path id="Vector" d="M16.6548 34.0957L16.2685 34.9584L15.8724 35.7968C15.7599 36.0454 15.667 36.1283 15.447 36.1283H14.9384C14.6891 36.1283 14.6353 36.0454 14.513 35.7968L14.1707 35.1144L13.7307 34.1834H13.6866V36.606C13.6866 36.7473 13.6426 36.7473 13.5204 36.7473H12.4642C12.3517 36.7473 12.2882 36.7473 12.2882 36.606V32.0485C12.2882 31.5708 12.4495 31.4489 12.8358 31.4489H13.4226C13.7502 31.4489 13.848 31.5562 13.9751 31.8194L14.5815 33.077L15.1732 34.3199H15.2025L15.7942 33.0965L16.4005 31.8486C16.5276 31.5854 16.645 31.4538 17.0313 31.4538H17.5007C17.8283 31.4538 18.0386 31.5318 18.0386 31.9997V36.606C18.0386 36.7473 17.9946 36.7473 17.8626 36.7473H16.8602C16.7477 36.7473 16.6939 36.7473 16.6939 36.606V34.0957H16.6499H16.6548ZM22.3417 34.8512L21.3099 36.411C21.1045 36.7132 21.0116 36.7522 20.6644 36.7522H20.3075C19.8527 36.7522 19.7549 36.4938 19.7549 36.1526V31.6147C19.7549 31.5074 19.8136 31.4538 19.931 31.4538H20.9725C21.1485 31.4538 21.1534 31.4928 21.1534 31.6147V34.4905H21.2072L21.8771 33.4474L22.9235 31.7999C23.1289 31.4733 23.2218 31.4587 23.569 31.4587H23.926C24.3514 31.4587 24.4785 31.5806 24.4785 32.0582V36.5962C24.4785 36.7034 24.4198 36.7571 24.3025 36.7571H23.2609C23.0849 36.7571 23.08 36.7181 23.08 36.5962V33.735H23.0262L22.3417 34.8561V34.8512ZM27.4369 36.7522H26.3611C26.2486 36.7522 26.1851 36.6986 26.1851 36.6011V31.9559C26.1851 31.6829 26.2633 31.4587 26.6789 31.4587H28.6055C29.7987 31.4587 30.4588 32.1947 30.4588 33.1598C30.4588 33.6424 30.2925 34.9536 28.3659 34.9536H27.6227V36.6011C27.6227 36.7229 27.6129 36.7522 27.4418 36.7522H27.4369ZM28.4393 32.687H27.6178V33.8276H28.4393C28.7962 33.8276 28.9772 33.5498 28.9772 33.2524C28.9772 33.0428 28.8843 32.687 28.4393 32.687ZM35.4269 37.8245C35.4171 37.9366 35.3486 38 35.2068 38H34.4391C34.312 38 34.2729 37.9318 34.2729 37.8391L34.2044 35.9723C34.2044 35.8212 34.1897 35.6262 34.5076 35.5775L34.7814 35.5385C35.2508 35.1534 35.3144 34.4466 35.3486 34.2224L35.6127 32.029C35.6518 31.6975 35.7398 31.4538 36.2337 31.4538H38.9231C39.3387 31.4538 39.417 31.6196 39.417 31.951V35.5287L39.7446 35.558C39.994 35.5824 40.0575 35.6847 40.0477 35.9235L39.9646 37.8391C39.9646 37.9318 39.9255 38 39.7984 38H38.9915C38.84 38 38.8155 37.9464 38.8106 37.8245L38.7715 36.7522H35.5002L35.422 37.8245H35.4269ZM36.3999 35.5482H37.9842V32.6821H36.884L36.7324 34.0616C36.664 34.7293 36.5809 35.1973 36.3999 35.5531V35.5482ZM45.2848 36.7522H42.9376C41.7299 36.7522 41.4658 35.9869 41.4658 35.3143V32.8917C41.4658 32.1557 41.8472 31.4538 42.923 31.4538H45.1625C45.2848 31.4538 45.3043 31.4636 45.3043 31.6342V32.4872C45.3043 32.6139 45.275 32.6529 45.1625 32.6529H43.3582C42.9572 32.6529 42.9034 32.8869 42.9034 33.0867V33.4035H44.9376C45.0598 33.4035 45.0794 33.4182 45.0794 33.5936V34.3784C45.0794 34.4905 45.0354 34.5539 44.9376 34.5539H42.9034V35.1193C42.9034 35.5044 43.0941 35.5336 43.3582 35.5336H45.2848C45.407 35.5336 45.4266 35.5434 45.4266 35.714V36.567C45.4266 36.6791 45.3826 36.7424 45.2848 36.7424V36.7522ZM50.5022 32.6578H49.2064V36.5913C49.2064 36.7132 49.1966 36.7522 49.0255 36.7522H47.9497C47.8373 36.7522 47.7737 36.6986 47.7737 36.5913V32.6578H46.5072C46.3996 32.6578 46.3459 32.5993 46.3459 32.4823V31.6342C46.3459 31.4587 46.385 31.4538 46.5072 31.4538H50.5071C50.6293 31.4538 50.6685 31.4636 50.6685 31.6342V32.4823C50.6685 32.5944 50.6147 32.6578 50.5071 32.6578H50.5022ZM55.2698 35.285C55.4214 35.2265 55.4654 35.2265 55.5339 35.3971L55.8615 36.0795C55.9299 36.2306 55.9299 36.2989 55.8175 36.3574C55.2111 36.7229 54.6195 36.835 53.9593 36.835C52.1696 36.835 51.4997 35.6701 51.4997 34.1054C51.4997 32.5408 52.5168 31.3807 54.0131 31.3807C54.5999 31.3807 55.1084 31.4636 55.5534 31.7122C55.7148 31.8096 55.7197 31.8243 55.6365 32.0387L55.3725 32.6578C55.304 32.8479 55.2649 32.8674 55.084 32.8089C54.683 32.687 54.4532 32.6334 54.0816 32.6334C53.4508 32.6334 53.0205 33.1403 53.0205 34.1006C53.0205 35.0608 53.3188 35.5531 54.0962 35.5531C54.6146 35.5531 54.9471 35.402 55.2747 35.2801L55.2698 35.285ZM60.9811 32.6578H59.6853V36.5913C59.6853 36.7132 59.6755 36.7522 59.5044 36.7522H58.4286C58.3162 36.7522 58.2526 36.6986 58.2526 36.5913V32.6578H56.9861C56.8786 32.6578 56.8248 32.5993 56.8248 32.4823V31.6342C56.8248 31.4587 56.8639 31.4538 56.9861 31.4538H60.986C61.1083 31.4538 61.1474 31.4636 61.1474 31.6342V32.4823C61.1474 32.5944 61.0936 32.6578 60.986 32.6578H60.9811ZM66.6729 35.1242C66.6729 36.0942 65.8759 36.7522 64.8197 36.7522H62.8442C62.4285 36.7522 62.3503 36.6108 62.3503 36.255V31.9559C62.3503 31.6244 62.4285 31.4587 62.8442 31.4587H64.8197C65.7243 31.4587 66.4529 31.8535 66.4529 32.8186C66.4529 33.2134 66.2181 33.6131 65.8905 33.8179V33.8617C66.4577 34.1054 66.6729 34.6416 66.6729 35.1242ZM64.5801 33.4084C64.7854 33.4084 64.9908 33.3304 64.9908 33.038C64.9908 32.804 64.849 32.6821 64.6094 32.6821H63.783V33.4084H64.5801ZM64.6778 34.5295H63.783V35.519H64.6778C65.0788 35.519 65.1962 35.2411 65.1962 35.0267C65.1962 34.7294 65.0152 34.5295 64.6778 34.5295ZM69.4601 35.7188L69.2107 36.5913C69.1716 36.7034 69.1423 36.7571 68.9662 36.7571H67.8514C67.7536 36.7571 67.7291 36.6986 67.7536 36.6157L69.2498 31.9315C69.377 31.5318 69.553 31.4538 69.8953 31.4538H70.5114C70.8684 31.4538 71.0493 31.4782 71.196 31.9218L72.6923 36.6108C72.7167 36.6644 72.7167 36.7522 72.5945 36.7522H71.4503C71.328 36.7522 71.2449 36.7376 71.2156 36.6255L70.9662 35.7188H69.4699H69.4601ZM70.6434 34.5977L70.4967 34.008L70.2523 32.9161H70.1936L69.9344 34.0275L69.7731 34.5929H70.6386L70.6434 34.5977ZM10.9288 12.371C12.0143 12.6975 12.8652 13.1216 13.4764 13.6432C14.5619 14.6083 15.1047 15.8366 15.1047 17.3379C15.1047 18.4882 14.8358 19.5362 14.2979 20.4818C13.76 21.4274 13.0167 22.1683 12.0681 22.7045C11.1195 23.2406 10.0682 23.5087 8.91417 23.5087H2.82632C1.92659 23.5087 1.23224 23.265 0.738365 22.7678C0.244492 22.2755 0 21.5834 0 20.6865V6.13674C0 5.25936 0.249382 4.57209 0.748145 4.07491C1.24691 3.57773 1.94126 3.32914 2.83121 3.32914H7.43744C9.22712 3.32914 10.6207 3.75321 11.6329 4.60133C12.1463 5.03515 12.5571 5.56644 12.8652 6.19523C13.1732 6.82401 13.3248 7.47229 13.3248 8.13032C13.3248 9.16367 13.139 10.0021 12.7674 10.6406C12.3957 11.2791 11.7845 11.8592 10.9386 12.371H10.9288ZM4.64534 11.011H6.9729C7.53524 11.011 8.00466 10.8307 8.38118 10.4651C8.75769 10.0995 8.94351 9.63648 8.94351 9.07594C8.94351 8.51539 8.72347 8.1157 8.28338 7.81837C7.8433 7.52104 7.33964 7.37481 6.76264 7.37481H4.64534V11.0062V11.011ZM4.64534 19.4728H7.86285C8.76258 19.4728 9.40804 19.2437 9.80412 18.7807C10.122 18.4346 10.2784 17.9033 10.2784 17.1868C10.2002 15.8073 9.34936 15.1201 7.73083 15.1201H4.65023V19.4777L4.64534 19.4728ZM27.6129 22.0708C26.9821 22.6508 26.3562 23.07 25.7401 23.3284C25.124 23.5867 24.3905 23.7134 23.5397 23.7134C21.97 23.7134 20.6644 23.2699 19.6278 22.3828C19.0068 21.8417 18.5814 21.2324 18.3516 20.5598C18.1266 19.8871 18.0093 19.0682 18.0093 18.1129V10.3725C18.0093 9.66573 18.2097 9.07106 18.6107 8.59826C19.0117 8.12545 19.5593 7.89148 20.2635 7.89148C20.9676 7.89148 21.4713 8.13032 21.8722 8.608C22.2732 9.08568 22.4737 9.67548 22.4737 10.3725V17.0942C22.4737 17.8935 22.6986 18.5564 23.1485 19.0975C23.5983 19.6337 24.2291 19.9017 25.036 19.9017C25.4907 19.9017 25.9063 19.7799 26.2829 19.5313C26.6594 19.2876 26.9528 18.961 27.163 18.5564C27.3733 18.1519 27.4809 17.7229 27.4809 17.2696V10.3725C27.4809 9.66573 27.6814 9.07106 28.0823 8.59826C28.4833 8.12545 29.031 7.89148 29.7351 7.89148C30.4392 7.89148 30.9429 8.13032 31.3438 8.608C31.7448 9.08568 31.9453 9.67548 31.9453 10.3725V21.0228C31.9453 21.7199 31.7595 22.3243 31.3878 22.8263C31.0162 23.3284 30.4881 23.5965 29.7938 23.6257C28.7571 23.6257 28.0285 23.109 27.6178 22.0757L27.6129 22.0708ZM39.9108 17.2404V21.2276C39.9108 21.9246 39.7152 22.5144 39.3192 22.992C38.9231 23.4697 38.3754 23.7086 37.6762 23.7086C36.9769 23.7086 36.4537 23.4697 36.0527 22.992C35.6518 22.5144 35.4513 21.9246 35.4513 21.2276V10.4017C35.4513 9.96793 35.5393 9.56337 35.7105 9.18317C35.8816 8.80298 36.1408 8.50564 36.4831 8.29118C36.8253 8.07671 37.2214 7.9646 37.6762 7.9646C38.3656 7.9646 38.9133 8.19856 39.3143 8.6665C39.7152 9.13443 39.9157 9.71447 39.9157 10.4017V13.9454H44.9376V10.4017C44.9376 9.71447 45.1381 9.13443 45.539 8.6665C45.94 8.19856 46.4828 7.9646 47.1771 7.9646C47.6319 7.9646 48.028 8.07183 48.3702 8.29118C48.7125 8.50564 48.9668 8.80785 49.1428 9.18317C49.314 9.56337 49.402 9.96793 49.402 10.4017V21.2276C49.402 21.9246 49.2015 22.5144 48.8005 22.992C48.3996 23.4697 47.8617 23.7086 47.1771 23.7086C46.4925 23.7086 45.9253 23.4697 45.5341 22.992C45.1381 22.5144 44.9425 21.9246 44.9425 21.2276V17.2404H39.9206H39.9108ZM80.6676 22.0708C80.0368 22.6508 79.4109 23.07 78.7948 23.3284C78.1787 23.5867 77.4452 23.7134 76.5944 23.7134C75.0247 23.7134 73.7191 23.2699 72.6825 22.3828C72.0615 21.8417 71.6361 21.2324 71.4063 20.5598C71.1813 19.8871 71.064 19.0682 71.064 18.1129V10.3725C71.064 9.66573 71.2645 9.07106 71.6654 8.59826C72.0664 8.12545 72.6141 7.89148 73.3182 7.89148C74.0223 7.89148 74.526 8.13032 74.9269 8.608C75.3279 9.08568 75.5284 9.67548 75.5284 10.3725V17.0942C75.5284 17.8935 75.7533 18.5564 76.2032 19.0975C76.6531 19.6337 77.2838 19.9017 78.0907 19.9017C78.5454 19.9017 78.9611 19.7799 79.3376 19.5313C79.7141 19.2876 80.0075 18.961 80.2177 18.5564C80.428 18.1519 80.5356 17.7229 80.5356 17.2696V10.3725C80.5356 9.66573 80.7361 9.07106 81.137 8.59826C81.538 8.12545 82.0857 7.89148 82.7898 7.89148C83.4939 7.89148 83.9976 8.13032 84.3986 8.608C84.7995 9.08568 85 9.67548 85 10.3725V21.0228C85 21.7199 84.8142 22.3243 84.4426 22.8263C84.0709 23.3284 83.5428 23.5965 82.8485 23.6257C81.8118 23.6257 81.0832 23.109 80.6725 22.0757L80.6676 22.0708ZM59.4604 9.88994C59.7049 9.88994 59.92 9.76809 60.0472 9.57799C60.1743 9.76809 60.3895 9.88994 60.634 9.88994C60.8198 9.88994 60.9958 9.8217 61.1278 9.6901C61.1767 9.64135 61.1767 9.56337 61.1278 9.51462C61.0789 9.46588 61.0007 9.46588 60.9518 9.51462C60.8638 9.59749 60.7513 9.64623 60.6291 9.64623C60.3699 9.64623 60.1645 9.43664 60.1645 9.18317V8.9882C60.4677 8.85659 61.0154 8.35942 61.0154 7.98409C61.0154 7.74038 60.7709 7.5844 60.4432 7.5844C60.2379 7.5844 60.0423 7.74038 60.0423 7.74525C60.0423 7.74525 59.8467 7.5844 59.6413 7.5844C59.3137 7.5844 59.0692 7.74038 59.0692 7.98409C59.0692 8.35454 59.6169 8.85659 59.92 8.9882V9.18317C59.92 9.44151 59.7098 9.64623 59.4555 9.64623C59.3333 9.64623 59.2208 9.60236 59.1328 9.51462C59.0839 9.46588 59.0056 9.47075 58.9567 9.51462C58.9078 9.56337 58.9127 9.64135 58.9567 9.6901C59.0888 9.81683 59.2648 9.88994 59.4506 9.88994H59.4604ZM68.6973 14.5156C68.7217 13.5749 68.2474 12.7463 67.5188 12.2637C67.4357 12.2101 65.4064 10.9769 63.8808 10.4554C64.3747 9.72422 64.6632 8.84197 64.6632 7.89636C64.6632 7.4528 64.5947 7.02873 64.4774 6.62904C65.0641 6.27322 65.4651 5.62981 65.4651 4.89379C65.4651 3.76783 64.5507 2.85634 63.4212 2.85634C62.761 2.85634 62.1791 3.17317 61.8026 3.6606C61.2647 3.44125 60.6828 3.30965 60.0618 3.30965C59.4408 3.30965 58.854 3.4315 58.3162 3.65572C57.9445 3.17317 57.3627 2.85634 56.7025 2.85634C55.573 2.85634 54.6586 3.76783 54.6586 4.89379C54.6586 5.62981 55.0546 6.26834 55.6414 6.62417C55.5241 7.02873 55.4605 7.4528 55.4605 7.89636C55.4605 8.89071 55.7783 9.80708 56.3211 10.5577C54.8346 11.1231 53.0351 12.2199 52.9618 12.2686C52.2381 12.7512 51.7638 13.5798 51.7882 14.5205C51.8225 15.8561 52.8885 16.9772 54.2234 17.0747L54.4239 18.2152C53.3872 18.727 52.6733 19.7945 52.6733 21.0228C52.6733 22.7532 54.0816 24.157 55.8175 24.157C56.6194 24.157 57.348 23.8597 57.9054 23.3674L57.9543 23.3235C58.546 22.7581 59.3528 22.412 60.2379 22.412C61.1229 22.412 61.9298 22.7581 62.5214 23.3235L62.5703 23.3674C63.1278 23.8597 63.8564 24.157 64.6583 24.157C66.3942 24.157 67.8025 22.7532 67.8025 21.0228C67.8025 19.7896 67.0885 18.727 66.0519 18.2152L66.2524 17.0747C67.5873 16.9772 68.6582 15.8561 68.6875 14.5205L68.6973 14.5156ZM61.8955 6.96049C61.9835 6.7509 62.1889 6.61929 62.4139 6.61929C62.6583 6.61929 62.8735 6.77527 62.9517 7.00924C62.9762 7.07748 62.9371 7.15546 62.8637 7.17496C62.8491 7.17496 62.8344 7.17984 62.8246 7.17984C62.7708 7.17984 62.717 7.14572 62.6975 7.08722C62.6583 6.96537 62.5459 6.8825 62.4139 6.8825C62.2916 6.8825 62.184 6.95562 62.14 7.06285C62.1107 7.13109 62.0324 7.16034 61.964 7.13109C61.8955 7.10185 61.8662 7.02386 61.8955 6.95562V6.96049ZM60.0667 6.9215C61.1669 6.9215 62.0569 7.80862 62.0569 8.90534C62.0569 10.0021 61.1669 10.8892 60.0667 10.8892C58.9665 10.8892 58.0766 10.0021 58.0766 8.90534C58.0766 7.80862 58.9665 6.9215 60.0667 6.9215ZM57.3186 6.96049C57.4067 6.7509 57.612 6.61929 57.837 6.61929C58.0815 6.61929 58.2966 6.77527 58.3748 7.00924C58.3993 7.07748 58.3602 7.15546 58.2868 7.17496C58.2722 7.17496 58.2575 7.17984 58.2477 7.17984C58.1939 7.17984 58.1401 7.14572 58.1206 7.08722C58.0815 6.96537 57.969 6.8825 57.837 6.8825C57.7147 6.8825 57.6071 6.95562 57.5631 7.06285C57.5338 7.13109 57.4556 7.16034 57.3871 7.13109C57.3186 7.10185 57.2893 7.02386 57.3186 6.95562V6.96049ZM60.0667 21.2178C58.2135 21.2178 56.7123 19.2632 56.7123 16.8456C56.7123 14.4279 58.2135 12.4733 60.0667 12.4733C61.92 12.4733 63.4212 14.4279 63.4212 16.8456C63.4212 19.2632 61.92 21.2178 60.0667 21.2178ZM60.0667 2.81734C60.678 2.81734 61.255 2.9392 61.788 3.15367L62.6143 0.638533L61.0105 1.54028L60.0667 0L59.123 1.54028L57.5191 0.638533L58.3211 3.16342C58.8589 2.94407 59.4506 2.82222 60.0667 2.82222V2.81734Z" fill="white"/>
</svg>
