<svg width="86" height="31" viewBox="0 0 86 31" fill="none" xmlns="http://www.w3.org/2000/svg">
<g id="Group 3621">
<path id="Vector" d="M24.8426 3.98822H4.42039L5.89386 0H26.3161L24.8426 3.98822ZM24.1059 5.98233H3.68366L2.2102 9.97056H22.6324L24.1059 5.98233ZM21.8957 11.9501H1.47346L0 15.9383H20.3928L21.8957 11.9501Z" fill="white"/>
<path id="Vector_2" d="M73.4817 25.9672H77.1653C78.2262 26.0982 79.2871 25.6906 79.9796 24.8901C80.4806 24.2351 80.7311 23.4345 80.7016 22.6049C80.7753 21.5423 80.3038 20.5234 79.4492 19.883C78.7714 19.4463 77.961 19.2425 77.1358 19.3008H73.4964V25.9672H73.4817ZM68.6487 29.9845V5.99698H84.4442L83.0592 10.0143H73.4669V15.3271H77.3716C80.5248 15.3271 82.1604 16.0694 83.2949 17.0301C84.9305 18.4565 85.8146 20.5525 85.6967 22.7213C85.8293 25.0502 84.7537 27.2918 82.8382 28.66C81.3205 29.6934 79.7291 29.9845 76.5023 29.9845H68.6487ZM54.6655 29.9845V9.99976H47.6371V5.98242H67.131L65.746 9.99976H59.5279V29.97H54.6508L54.6655 29.9845ZM35.201 15.6036H37.9564C38.5163 15.6473 39.091 15.6036 39.6362 15.4726C40.8149 15.0942 41.5811 13.9734 41.478 12.7508C41.6401 11.5281 40.8444 10.3928 39.6362 10.0871C39.032 9.95609 38.4132 9.89787 37.7943 9.92698H35.1863V15.6036H35.201ZM35.201 19.752V26.04H38.5605C39.4888 26.1419 40.4171 25.8944 41.1686 25.3268C41.8611 24.6863 42.2295 23.7839 42.1853 22.8523C42.1853 22.1245 41.979 21.3968 41.5369 20.8C40.8149 19.8975 39.9309 19.7229 38.4279 19.7229H35.201V19.752ZM42.9809 17.2193V17.3066C43.8061 17.6123 44.5723 18.049 45.2501 18.6021C46.6499 19.752 47.4161 21.4986 47.3129 23.3035C47.3129 26.5785 45.5448 28.9511 42.6568 29.6643C41.5075 29.9409 40.314 30.0573 39.1205 29.9991H30.3828V5.99698H38.1627C39.4004 5.95331 40.6381 6.06975 41.8464 6.33175C44.6607 7.07409 46.5025 8.99542 46.5025 12.023C46.5467 13.4785 45.9868 14.8904 44.9554 15.9239C44.4102 16.477 43.7619 16.8991 43.0399 17.2048H42.9957L42.9809 17.2193Z" fill="white"/>
</g>
</svg>
