<svg width="84" height="26" viewBox="0 0 84 26" fill="none" xmlns="http://www.w3.org/2000/svg">
<g id="Group 8834">
<path id="Vector" d="M17.8365 13.25C17.9914 13.0236 18.1344 12.7853 18.2655 12.547C18.2059 12.5113 18.1463 12.5232 18.0868 12.5828C15.227 15.5974 12.4746 15.9906 10.3536 15.9906H7.11261C7.01728 15.9906 6.93388 15.8714 7.00537 15.7761C9.51953 12.3087 12.2958 9.59198 14.3453 7.82849L8.91184 12.3683C8.4948 12.7138 7.98244 12.9402 7.27942 12.9402H0.428029C0.237381 12.9402 0.296959 13.107 0.332705 13.2024C0.809324 14.6799 2.09619 15.9906 4.34822 15.9906L2.73963 17.623C2.68005 17.6826 2.68005 17.8494 2.83495 17.8494H8.93567C13.3444 17.8494 16.0611 15.931 17.8365 13.25ZM15.9301 19.9704L17.8604 25.3681H19.2783L17.2527 19.7201C16.8714 19.8155 16.4186 19.9108 15.942 19.9823L15.9301 19.9704ZM21.3278 7.45911C21.1252 7.66167 20.7916 7.66167 20.589 7.45911C20.3864 7.25655 20.3864 6.92291 20.589 6.72035C20.7916 6.51779 21.1252 6.51779 21.3278 6.72035C20.8869 6.27948 20.1839 6.27948 19.743 6.72035C19.3021 7.16122 19.3021 7.86424 19.743 8.30511C20.1839 8.74598 20.8869 8.74598 21.3278 8.30511C21.7686 7.86424 21.7686 7.16122 21.3278 6.72035C21.5303 6.92291 21.5303 7.25655 21.3278 7.45911ZM17.4314 17.337H14.667C13.964 17.7541 13.7376 17.8851 12.7367 18.2664C12.6652 18.2903 12.6414 18.3618 12.6771 18.4571L15.1436 25.3561H16.5616L14.2976 19.029C15.7752 19.029 19.2902 18.6358 21.1848 15.5616C20.6128 16.4553 19.2306 17.3251 17.4314 17.3251V17.337ZM25.7722 6.38672H23.5202L22.9721 7.0659C22.8768 7.16122 22.9125 7.25655 23.0078 7.29229L23.7466 7.61401L25.8318 6.64886C25.9629 6.58928 25.9271 6.38672 25.7722 6.38672Z" fill="white"/>
<path id="Vector_2" d="M57.7185 25.6778H57.8734C60.0897 25.654 61.6268 24.8914 62.4847 23.6522L62.7469 25.3561H66.822V10.6048C65.1895 10.0924 63.3188 9.63962 59.8276 9.63962C54.8588 9.63962 52.1302 12.69 52.1302 18.2426C52.1302 23.4139 54.0367 25.6659 57.7185 25.6898M61.8175 20.6495C61.3647 21.1619 60.6259 21.71 59.4105 21.71C58.0641 21.71 57.3253 20.4589 57.3253 18.0519C57.3253 15.0969 58.1237 13.6313 59.7323 13.6313C60.6617 13.6313 61.1383 13.6909 61.8175 13.8577V20.6614V20.6495ZM45.9937 23.6641L46.3154 25.368H50.3548V9.97325H45.3503V20.6495C44.9332 21.1619 44.0396 21.71 43.2651 21.71C41.8829 21.71 41.1203 20.9116 41.1203 19.4699V9.97325H36.1515V20.6495C35.7345 21.1619 34.7455 21.71 33.9114 21.71C32.6246 21.71 31.9215 20.9116 31.9215 19.4699V9.97325H26.9528V20.1491C26.9528 23.8667 28.5614 25.7017 31.9215 25.7017C34.3642 25.7017 35.7702 24.808 36.8903 23.6165C37.6648 24.9987 39.0708 25.7017 41.1203 25.7017C43.563 25.7017 44.9094 24.8318 45.9937 23.676V23.6641ZM8.25742 11.5223L11.3435 8.98426C11.987 7.22077 12.6661 5.42154 13.3692 3.90827C13.7266 4.70661 14.0483 5.51686 14.4058 6.38669C16.0978 4.99258 17.1344 4.17041 18.5286 3.7772C17.6587 1.88264 17.063 0.583858 16.7651 0H9.92559C9.34173 1.21538 7.1612 5.74326 4.6232 11.8797H7.10162C7.55441 11.8797 7.9357 11.8201 8.25742 11.5223ZM0 25.3561H6.10072L8.1621 18.8979H2.22819C1.52518 20.8282 0.774506 22.9373 0 25.3561ZM18.3975 19.2792L20.5542 25.3561H26.5834C25.3323 21.6266 23.9858 18.1353 22.7347 14.9182C21.6862 17.0749 20.6972 18.1592 18.3975 19.2792ZM21.1976 15.5616C23.1041 12.4874 23.7714 7.60207 23.7714 7.60207L23.0326 7.28035C22.9373 7.24461 22.9015 7.14928 22.9969 7.05396L23.545 6.37478C23.1875 5.69559 21.9721 4.61129 20.1729 4.61129C19.1005 4.61129 18.1711 4.89726 17.337 5.44537C17.337 5.44537 16.1216 6.26754 14.3343 7.80463C12.2848 9.56812 9.50854 12.2848 6.99438 15.7523C6.92289 15.8476 7.0063 15.9667 7.10162 15.9667H10.3426C12.4636 15.9667 15.228 15.5854 18.0758 12.5589C18.1353 12.4993 18.1949 12.4874 18.2545 12.5232C18.3141 12.5589 18.326 12.6304 18.2902 12.69C17.8375 13.7862 16.7174 16.0025 14.6679 17.3132H17.4323C19.2316 17.3132 20.6138 16.4433 21.1857 15.5497L21.1976 15.5616ZM19.7558 8.29317C19.315 7.85229 19.315 7.14928 19.7558 6.70841C20.1967 6.26754 20.8997 6.26754 21.3406 6.70841C21.7815 7.14928 21.7815 7.85229 21.3406 8.29317C20.8997 8.73404 20.1967 8.73404 19.7558 8.29317ZM78.7613 25.3442H83.73V9.94942H78.7613V15.5973H74.0785V9.94942H69.074V25.3442H74.0785V19.5414H78.7613V25.3442Z" fill="white"/>
</g>
</svg>
