<svg width="87" height="16" viewBox="0 0 87 16" fill="none" xmlns="http://www.w3.org/2000/svg">
<g id="Group 8832">
<path id="Vector" d="M0 2.7683H3.55306V5.21868C4.37394 3.46666 5.74615 2.58452 7.69421 2.57227V5.88029C6.322 5.86803 5.29283 6.11307 4.59447 6.6154C3.89611 7.11773 3.55306 7.97537 3.55306 9.1638V15.5838H0V2.7683Z" fill="white"/>
<path id="Vector_2" d="M21.1467 8.99264C21.1467 6.82404 20.5218 5.15778 19.2599 4.01835C18.1327 2.98919 16.6747 2.47461 14.8982 2.47461C13.0236 2.47461 11.4554 3.07495 10.2179 4.2879C8.94374 5.52534 8.30664 7.14259 8.30664 9.13966V9.33569C8.30664 11.345 8.94374 12.9378 10.2179 14.1139C11.4064 15.2779 12.9991 15.8537 14.9962 15.8537C16.7605 15.8537 18.1694 15.4862 19.2231 14.7388C20.2768 13.9914 20.9139 12.9255 21.1222 11.541H17.7651C17.5201 12.7295 16.6257 13.3298 15.0942 13.3298C14.1141 13.3298 13.3544 13.0358 12.8031 12.4599C12.2518 11.8841 11.9577 11.051 11.9087 9.97279H21.1467V8.99264ZM11.9577 7.79195C12.0925 6.87305 12.411 6.17469 12.9256 5.67236C13.4402 5.17003 14.1018 4.925 14.8982 4.925C16.6502 4.925 17.5814 5.88065 17.6916 7.79195H11.9577Z" fill="white"/>
<path id="Vector_3" d="M28.0576 15.8537C26.3301 15.8537 24.9823 15.4862 24.0144 14.751C23.0465 14.0159 22.532 12.95 22.4707 11.5655H25.7787C25.8767 12.1904 26.085 12.6437 26.4158 12.9378C26.7466 13.2318 27.2857 13.3788 28.0331 13.3788C29.3685 13.3788 30.0424 12.9133 30.0424 11.9821C30.0424 11.541 29.8464 11.2102 29.4543 10.9897C29.0622 10.7692 28.3884 10.5976 27.445 10.4629C25.7175 10.1811 24.5045 9.76451 23.8184 9.21317C23.0833 8.63733 22.7157 7.73069 22.7157 6.46874C22.7157 5.20679 23.2426 4.20213 24.284 3.45476C25.1784 2.80541 26.3546 2.47461 27.788 2.47461C29.2215 2.47461 30.4712 2.76866 31.3901 3.35675C32.358 4.0061 32.9216 5.03526 33.0809 6.44424H29.8219C29.7238 5.90515 29.5156 5.51309 29.2093 5.26805C28.903 5.02301 28.4374 4.90049 27.8125 4.90049C27.2367 4.90049 26.7956 5.02301 26.4771 5.26805C26.1585 5.51309 25.9993 5.83164 25.9993 6.2237C25.9993 6.61576 26.1708 6.93431 26.5261 7.13034C26.8814 7.32637 27.5307 7.48565 28.4741 7.62042C30.1527 7.85321 31.3901 8.23302 32.1742 8.7721C33.0196 9.4092 33.4484 10.3649 33.4484 11.6391C33.4484 13.0113 32.9829 14.0527 32.0395 14.7755C31.0961 15.4984 29.7729 15.8537 28.0576 15.8537Z" fill="white"/>
<path id="Vector_4" d="M40.1872 15.8295C37.4305 15.8295 36.0461 14.4818 36.0461 11.7864V5.29283H34.4043V2.76894H36.0461V0H39.5746V2.76894H42.27V5.29283H39.5746V11.4678C39.5746 12.4847 40.0524 12.987 40.9958 12.987C41.5227 12.987 41.9637 12.9013 42.3435 12.742V15.4864C41.6942 15.7192 40.9713 15.8295 40.1872 15.8295Z" fill="white"/>
<path id="Vector_5" d="M55.3423 4.26339C54.1048 3.07495 52.4876 2.47461 50.515 2.47461C48.5425 2.47461 46.9497 3.07495 45.6878 4.2879C44.4013 5.52534 43.752 7.14259 43.752 9.11516V9.31119C43.752 11.2837 44.4013 12.8765 45.6878 14.0649C46.9252 15.2534 48.5302 15.8537 50.4905 15.8537C52.4508 15.8537 54.0803 15.2534 55.3178 14.0649C56.6042 12.8275 57.2536 11.2102 57.2536 9.23767V9.04164C57.2536 7.09359 56.6165 5.50084 55.3423 4.26339ZM53.6515 9.26218C53.6515 10.4874 53.382 11.443 52.8306 12.1291C52.2793 12.8152 51.5074 13.1583 50.515 13.1583C49.5226 13.1583 48.7262 12.8152 48.1872 12.1291C47.6481 11.443 47.3785 10.4751 47.3785 9.23767V9.04164C47.3785 7.81645 47.6603 6.8608 48.2117 6.18694C48.763 5.51309 49.5349 5.17003 50.515 5.17003C51.4952 5.17003 52.2793 5.51309 52.8306 6.21145C53.382 6.90981 53.6515 7.86546 53.6515 9.09065V9.26218Z" fill="white"/>
<path id="Vector_6" d="M58.9434 2.7683H62.4964V5.21868C63.3173 3.46666 64.6895 2.58452 66.6376 2.57227V5.88029C65.2654 5.86803 64.2362 6.11307 63.5378 6.6154C62.8395 7.11773 62.4964 7.97537 62.4964 9.1638V15.5838H58.9434V2.7683Z" fill="white"/>
<path id="Vector_7" d="M80.092 8.99264C80.092 6.82404 79.4671 5.15778 78.2052 4.01835C77.078 2.98919 75.62 2.47461 73.8435 2.47461C71.9689 2.47461 70.4007 3.07495 69.1633 4.2879C67.8891 5.52534 67.252 7.14259 67.252 9.13966V9.33569C67.252 11.345 67.8891 12.9378 69.1633 14.1139C70.3517 15.2779 71.9444 15.8537 73.9415 15.8537C75.7058 15.8537 77.1148 15.4862 78.1684 14.7388C79.2221 13.9914 79.8592 12.9255 80.0675 11.541H76.7104C76.4654 12.7295 75.571 13.3298 74.0395 13.3298C73.0594 13.3298 72.2998 13.0358 71.7484 12.4599C71.1971 11.8841 70.903 11.051 70.854 9.97279H80.092V8.99264ZM70.903 7.79195C71.0378 6.87305 71.3563 6.17469 71.8709 5.67236C72.3855 5.17003 73.0471 4.925 73.8435 4.925C75.5955 4.925 76.5267 5.88065 76.6369 7.79195H70.903Z" fill="white"/>
<g id="Group">
<path id="Vector_8" d="M86.3633 8.06123C85.9344 8.49005 85.4199 8.69833 84.795 8.69833C84.1702 8.69833 83.6556 8.49005 83.2513 8.07348C82.847 7.65692 82.6387 7.14234 82.6387 6.54199C82.6387 5.94165 82.847 5.45157 83.2513 5.035C83.6556 4.61844 84.1702 4.41016 84.795 4.41016C85.4199 4.41016 85.9344 4.61844 86.3633 5.035C86.7921 5.45157 87.0004 5.9539 87.0004 6.54199C87.0004 7.13008 86.7921 7.63241 86.3633 8.06123Z" fill="white"/>
<path id="Vector_9" d="M86.3633 15.1687C85.9344 15.5975 85.4199 15.8058 84.795 15.8058C84.1702 15.8058 83.6556 15.5975 83.2513 15.1809C82.847 14.7643 82.6387 14.2498 82.6387 13.6494C82.6387 13.0491 82.847 12.559 83.2513 12.1424C83.6556 11.7259 84.1702 11.5176 84.795 11.5176C85.4199 11.5176 85.9344 11.7259 86.3633 12.1424C86.7921 12.559 87.0004 13.0613 87.0004 13.6494C87.0004 14.2375 86.7921 14.7398 86.3633 15.1687Z" fill="white"/>
</g>
</g>
</svg>
