<svg width="75" height="30" viewBox="0 0 75 30" fill="none" xmlns="http://www.w3.org/2000/svg">
<g id="SB">
<path id="Vector" d="M13.9751 29.0686H25.1518V24.6783H19.3895V23.3297H25.1518V20.7525H19.3895V19.419H25.1518V15.0138H13.9751V29.0686ZM34.6045 23.8691L33.8182 20.378L33.0317 23.8691H34.6045ZM36.722 15.0288L41.8037 28.5142V29.0536H36.4799L35.9054 27.4503H31.731L31.1412 29.0536H25.8325V28.5142L30.8991 15.0288H36.722ZM39.4596 19.419H42.4844V29.0686H47.9292V19.419H50.954V15.0138H39.5653L39.4596 19.419ZM51.4078 14.3544H62.5997V9.94927H56.8374V8.61569H62.5997V6.03852H56.8374V4.68994H62.5997V0.344598H51.4078V14.3544ZM50.7423 9.94927H44.98V8.61569H50.7423V6.03852H44.98V4.68994H50.7423V0.344598H39.5653V14.3994H50.7423V9.94927ZM7.84963 24.3337C7.85305 24.2075 7.82866 24.082 7.77818 23.9661C7.72771 23.8501 7.65238 23.7466 7.55737 23.6624C7.46237 23.5783 7.34992 23.5157 7.22801 23.479C7.10609 23.4422 6.97758 23.4322 6.85137 23.4497H5.50528V25.2177H6.85137C6.97713 25.2326 7.10462 25.2208 7.22542 25.1831C7.34622 25.1454 7.4576 25.0826 7.55202 24.9989C7.64644 24.9153 7.72189 24.8128 7.7732 24.6981C7.82451 24.5833 7.85053 24.4592 7.84963 24.3337ZM5.50528 20.2431H6.51868C6.71924 20.2431 6.91153 20.1642 7.05335 20.0237C7.19517 19.8832 7.2749 19.6927 7.2749 19.494C7.2749 19.2953 7.19517 19.1046 7.05335 18.9641C6.91153 18.8236 6.71924 18.7448 6.51868 18.7448H5.50528V20.2431ZM13.2489 24.9929C13.2355 25.5498 13.1098 26.0984 12.8793 26.6065C12.6488 27.1146 12.3182 27.5719 11.9067 27.9516C11.4953 28.3313 11.0114 28.6257 10.4835 28.8175C9.95558 29.0093 9.39441 29.0948 8.83275 29.0686H0.0605565V15.0138H8.86303C9.36219 15.0234 9.85426 15.1316 10.3107 15.3321C10.7671 15.5325 11.1786 15.8213 11.5209 16.1813C11.8632 16.5414 12.1293 16.9654 12.304 17.4287C12.4787 17.8921 12.5584 18.3854 12.5381 18.8796C12.5536 19.427 12.3975 19.9658 12.0915 20.4218C11.7855 20.8779 11.3446 21.2289 10.8291 21.4267C11.5946 21.639 12.2588 22.1146 12.7023 22.7682C13.1458 23.4218 13.3395 24.2105 13.2489 24.9929ZM63.2653 0.344598V4.73494H66.2901V14.3994H71.7349V4.73494H74.7597V0.344598H63.2653ZM31.2167 6.44293H31.9729C32.8652 6.44293 33.2887 6.20321 33.2887 5.52894C33.2887 4.85467 32.8652 4.55514 31.9729 4.55514H31.2167V6.44293ZM31.2167 14.3994H25.7719V0.344598H31.8217C35.2852 0.344598 38.6579 1.33347 38.6579 5.52894C38.7155 6.33069 38.5552 7.13316 38.1934 7.8526C37.8316 8.57205 37.2817 9.18212 36.601 9.61949L38.8697 13.9498V14.3994H33.3947L31.6099 10.6535H31.247L31.2167 14.3994ZM13.7179 4.73494H16.7428V14.3994H22.1875V4.73494H25.2124V0.344598H13.8388L13.7179 4.73494ZM13.2792 9.96427C13.2792 13.6653 9.70998 14.774 6.57924 14.774C3.08551 14.774 0.0151243 13.1558 0 9.58968H5.41463C5.41463 10.2789 6.03465 10.4587 6.65475 10.4587C7.27485 10.4587 7.77394 10.2939 7.77394 9.78447C7.77394 9.27502 7.42607 9.09517 6.44299 8.99029C3.41812 8.73556 0.0756956 8.21113 0.0756956 4.49514C0.0756956 1.61825 3.10064 0 6.57924 0C10.0578 0 12.9767 1.49829 13.0523 4.77975H7.77394C7.77394 4.33023 7.21437 4.10555 6.66989 4.10555C6.12541 4.10555 5.58098 4.31537 5.58098 4.89974C5.58098 5.48411 5.95901 5.60396 6.44299 5.63393C9.36199 5.87367 13.2792 6.21821 13.2792 10.0391" fill="white"/>
</g>
</svg>
