<svg width="76" height="27" viewBox="0 0 76 27" fill="none" xmlns="http://www.w3.org/2000/svg">
<g id="Group 8835">
<path id="Shape" d="M75.2753 8.02884V1.89445C73.3293 0.88923 70.1332 0 65.8288 0C59.3593 0 54.3075 2.92544 52.7094 8.02884H75.2753ZM49.0881 8.02884C47.49 2.38417 42.6573 0.360847 35.7883 0.360847H27.3728V8.02884H49.0881ZM27.3986 18.7512V26.4192H35.8141C42.683 26.4192 47.5158 24.4216 49.1139 18.7512H27.3986ZM13.7122 18.7512L16.0577 26.4192H25.7232L23.2746 18.7512H13.7122ZM67.3495 13.39V18.7512H52.6321C54.127 24.1639 58.9856 26.78 65.1715 26.78C69.4115 26.78 73.0586 25.2206 75.2753 23.0942V13.39H67.3495ZM8.73765 0.386622L0 26.4063H9.48512L15.1298 8.04173H20.1817L17.5269 0.386622H8.73765ZM55.2482 13.5318L55.1452 14.2148C55.0292 14.1375 54.8874 14.0988 54.7456 14.0988C54.4363 14.073 54.1786 14.305 54.1142 14.5885V16.4056H53.3925V13.39H54.1142V13.7895C54.1915 13.4802 54.475 13.2998 54.7843 13.2998C54.9647 13.2998 55.1451 13.3771 55.2482 13.5189V13.5318ZM61.3955 15.2458C61.3311 15.5035 61.0476 15.7097 60.7254 15.7097C60.3645 15.7097 60.081 15.4649 60.081 15.0267V13.4029H59.3593V15.1427C59.3593 16.0706 60.0037 16.4959 60.6352 16.4959C61.0605 16.4959 61.3569 16.3283 61.4471 16.1092V16.4185H62.1688V13.4029H61.4471L61.4084 15.2458H61.3955ZM51.7687 13.39H52.4903V16.367C52.4903 17.1789 51.9104 17.7459 50.9954 17.7459C50.3639 17.7459 49.8613 17.4624 49.6809 17.166L49.9 16.4959C50.1577 16.8052 50.5315 16.9598 50.931 16.9598C51.3305 16.9598 51.7429 16.8438 51.7429 16.2381V15.9933C51.6398 16.2123 51.2918 16.3799 50.8536 16.3799C50.0289 16.3541 49.3587 15.6711 49.3716 14.8463C49.3716 14.0215 50.0417 13.3256 50.8665 13.3127C51.3176 13.3127 51.6784 13.4931 51.7815 13.6993L51.7558 13.4158L51.7687 13.39ZM51.7429 14.4983C51.6398 14.2921 51.3176 14.1117 50.9567 14.1117C50.4284 14.1117 50.0933 14.4339 50.0933 14.8849C50.0933 15.336 50.4413 15.6582 50.9567 15.6582C51.3176 15.6582 51.6398 15.4778 51.7429 15.2716V14.4983ZM58.715 14.8978C58.715 15.5422 58.3283 16.135 57.7226 16.3799C57.1427 16.6247 56.4468 16.483 55.9828 16.0319C55.5189 15.568 55.4029 14.8978 55.6349 14.2921C55.8797 13.7122 56.4597 13.2998 57.1169 13.2998C57.5422 13.2998 57.9417 13.4673 58.251 13.7637C58.5603 14.073 58.715 14.4725 58.715 14.8978ZM57.9417 14.8978C57.9675 14.5499 57.7613 14.2277 57.452 14.0859C57.1298 13.9442 56.769 14.0086 56.5241 14.2277C56.2792 14.4468 56.2019 14.8334 56.3179 15.1556C56.4339 15.4778 56.769 15.684 57.104 15.684C57.3231 15.7097 57.5293 15.6195 57.684 15.4649C57.8515 15.3231 57.9288 15.1169 57.9288 14.8978H57.9417ZM66.1768 14.8978C66.2025 15.2973 66.035 15.7097 65.7515 16.0061C65.4679 16.3026 65.0684 16.4701 64.656 16.4959C64.205 16.4959 63.8699 16.3283 63.7668 16.0964V17.6557H63.0451V13.39H63.7668V13.7122C63.8699 13.4931 64.2179 13.3127 64.656 13.3127C65.0555 13.3127 65.4679 13.4931 65.7515 13.7766C66.035 14.0859 66.1768 14.4854 66.1768 14.9107V14.8978ZM65.4293 14.8978C65.4293 14.4339 65.0684 14.1117 64.5658 14.1117C64.205 14.1117 63.8828 14.2921 63.7797 14.5112V15.3231C63.8828 15.5422 64.205 15.7226 64.5658 15.7226C65.0684 15.684 65.4293 15.3618 65.4293 14.8978Z" fill="white"/>
</g>
</svg>
