<svg width="110" height="34" viewBox="0 0 110 34" fill="none" xmlns="http://www.w3.org/2000/svg">
<g id="FASOL">
<path id="Vector" fill-rule="evenodd" clip-rule="evenodd" d="M0 19.1597C2.08868 24.2276 4.28836 27.858 4.95378 33.6814C9.7411 31.212 14.4359 30.6221 18.9275 29.4058C20.3877 28.9267 21.8479 28.466 23.3081 28.0422C23.2112 22.4428 23.5263 16.8441 24.2508 11.2907C21.7989 12.474 19.2665 13.4839 16.6725 14.313C16.0625 9.22673 13.715 4.9882 11.2566 4.67492C8.79826 4.36163 6.93143 8.48962 7.37505 13.8892C7.44967 14.9132 7.60417 15.9299 7.83714 16.9299L5.98876 17.4458L5.61917 17.5564C3.54898 18.1277 1.62665 18.6437 0.0740077 19.1228M15.8776 14.5526C14.4543 15.0317 11.3491 15.9532 11.3491 15.9532L7.98493 16.9115C7.4489 11.7515 8.81679 7.69712 11.0718 7.58654C12.9202 7.58654 14.9349 10.5167 15.8776 14.5526ZM22.3654 23.601L18.3729 24.4487L18.909 28.6504C20.4062 28.4109 21.9034 28.208 23.3821 28.0053C22.9276 26.5661 22.5876 25.0935 22.3654 23.601ZM17.7075 24.596L13.1235 25.5728L13.7889 29.5534C15.4709 29.2217 17.1346 28.9269 18.8167 28.6689L17.7075 24.596ZM12.4396 25.7017L8.74283 26.5127L9.87032 30.438C11.1642 30.1247 12.4765 29.8483 13.7704 29.5719L12.4396 25.7017ZM7.92965 26.66L4.62097 27.3788C5.20997 28.6893 5.7282 30.0305 6.17355 31.3963C7.33803 31.0646 8.50253 30.7513 9.64853 30.4748L7.92965 26.66ZM4.56546 27.2683L7.74463 26.2362L6.11827 22.5505L2.58779 23.3246C3.29017 24.5777 3.95549 25.8677 4.56546 27.213M8.50253 25.9413L12.1993 24.7803L11.1643 21.4633L7.46756 22.274L8.50253 25.9413ZM12.9572 24.5225L17.3194 23.1219L16.5615 20.2838L12.3841 21.1868L12.9572 24.5225ZM18.1881 22.8454L22.1066 21.5922C22.1066 20.7445 21.9773 19.9152 21.9588 19.1228L17.8185 20.0073L18.1881 22.8454ZM2.56928 23.2692L5.95175 22.182L4.25138 18.4963C2.69874 18.7727 1.27546 19.0123 0.0740077 19.1597C0.936588 20.548 1.76832 21.9486 2.56928 23.3615M7.30104 21.8502L10.85 20.7076L9.79654 17.3722C8.59509 17.6486 7.39354 17.888 6.22906 18.1092L7.30104 21.8502ZM12.2178 20.2654L16.1919 19.0121L15.397 16.1005L11.7002 16.9666L12.2178 20.2654ZM17.6337 18.5332L21.9773 17.1511C21.9773 16.1375 22.1253 15.1792 22.2547 14.3314C20.8129 14.7369 19.1123 15.1975 17.2639 15.6582L17.6337 18.5332Z" fill="white"/>
<path id="Vector_2" fill-rule="evenodd" clip-rule="evenodd" d="M12.219 2.2244C12.219 2.2244 12.4593 1.11867 12.6996 1.28453C12.9381 1.51985 13.1432 1.78654 13.3095 2.07706H14.2707C14.2707 2.07706 14.437 2.0771 14.2707 2.35353C14.1052 2.59579 13.9198 2.82386 13.7163 3.03538L14.0119 3.80923C14.0119 3.80923 14.1783 4.12254 13.8271 4.06726C13.5199 4.00098 13.2174 3.91477 12.9214 3.80923L12.256 4.26994C12.256 4.26994 11.9232 4.49113 11.9232 4.0857C11.9066 3.82797 11.9066 3.56958 11.9232 3.31185L11.2208 2.8878C11.2208 2.8878 11.11 2.68525 11.3503 2.59311L12.145 2.31664" fill="white"/>
<path id="Vector_3" fill-rule="evenodd" clip-rule="evenodd" d="M17.7991 1.32107C17.7991 1.32107 18.5753 -0.0978628 18.8341 0.233851C19.0677 0.649965 19.242 1.09651 19.3517 1.56065L20.6457 1.91091H20.7565C20.7565 1.91091 20.9598 2.09514 20.7565 2.31628C20.4262 2.57067 20.0806 2.80455 19.7215 3.01657V4.17758C19.7215 4.17758 19.7214 4.6752 19.3702 4.45405C18.9764 4.24044 18.5939 4.00669 18.2242 3.75376L17.1337 4.08535C17.1337 4.08535 16.5978 4.25128 16.7456 3.69842C16.8935 3.14557 17.0967 2.64809 17.0967 2.64809L16.3203 1.80023V1.68978C16.3203 1.5792 16.3204 1.35795 16.6161 1.33952H17.8176" fill="white"/>
<path id="Vector_4" fill-rule="evenodd" clip-rule="evenodd" d="M23.9191 4.8773C23.9191 4.8773 25.8969 3.56885 26.0078 4.15856C26.0207 4.85418 25.9399 5.54836 25.7675 6.22255L27.2278 7.54935C27.2731 7.58444 27.311 7.62845 27.3388 7.67847C27.3388 7.80747 27.4866 8.04706 27.043 8.15763C26.4333 8.28058 25.8156 8.36065 25.1946 8.39721L24.5107 9.9267C24.5107 9.9267 24.2705 10.6453 23.8639 10.0556C23.4975 9.51721 23.1641 8.95735 22.8657 8.37877L21.2206 8.08385C21.2206 8.08385 20.4073 7.95478 20.9988 7.32822C21.5903 6.70165 22.1448 6.2041 22.1448 6.2041L21.7012 4.58238C21.6972 4.52102 21.6972 4.45951 21.7012 4.39814C21.7012 4.21386 21.8305 3.91897 22.3296 4.14012L23.9009 4.8773" fill="white"/>
<path id="Vector_5" fill-rule="evenodd" clip-rule="evenodd" d="M104.027 20.1723C105.062 20.1723 105.69 19.8406 105.69 18.8271C105.69 17.8135 105.08 17.4818 104.027 17.4818H102.585V20.1723H104.027ZM99.2578 9.9446H102.585V14.9756H104.433C106.134 14.9756 109.11 15.3441 109.11 18.8639C109.11 22.3838 106.115 22.7708 104.433 22.7708H99.3503L99.2578 9.9446ZM97.1139 9.9446V22.7339H93.8052V13.022H91.4207V17.5556C91.4207 19.3984 91.2729 22.8999 87.0955 22.8999C86.3814 22.8712 85.6791 22.7086 85.0253 22.4207L86.5409 19.8038C88.3893 20.3567 88.0937 18.8086 88.0937 17.0026V9.9446H97.1139ZM81.9755 16.3392C81.9755 13.8698 80.5522 12.6535 78.9996 12.6535C77.4469 12.6535 76.0422 13.8698 76.0422 16.3392C76.0422 18.8087 77.4654 20.025 78.9996 20.025C80.5337 20.025 81.9755 18.8087 81.9755 16.3392ZM72.6042 16.3392C72.6765 15.0919 73.1134 13.893 73.8615 12.8906C74.6095 11.8883 75.6357 11.1263 76.8132 10.6989C77.9907 10.2715 79.2681 10.1973 80.4874 10.4856C81.7067 10.7739 82.8146 11.4122 83.6743 12.3213C84.5339 13.2304 85.1076 14.3704 85.3245 15.6009C85.5414 16.8315 85.392 18.0984 84.8947 19.2452C84.3975 20.3921 83.5741 21.3686 82.5265 22.0541C81.4788 22.7396 80.2527 23.1041 78.9996 23.1026C78.1213 23.1208 77.2488 22.9551 76.4386 22.6165C75.6285 22.2778 74.8987 21.7738 74.296 21.1365C73.6934 20.4992 73.2314 19.7429 72.94 18.9166C72.6486 18.0903 72.5343 17.2123 72.6042 16.3392ZM72.1791 21.7573C70.8634 22.5532 69.3717 23.0151 67.8353 23.1026C64.2864 23.1026 61.7357 20.4304 61.7357 16.3392C61.6541 15.4926 61.7488 14.6383 62.0139 13.8298C62.279 13.0214 62.7086 12.2765 63.2761 11.6415C63.8436 11.0064 64.5368 10.4953 65.3118 10.1399C66.0868 9.78444 66.9271 9.59231 67.78 9.5759C69.3533 9.78996 70.8574 10.3571 72.1791 11.2345L71.0514 14.3122C70.7261 13.8612 70.3029 13.4894 69.8132 13.2245C69.3234 12.9596 68.7801 12.8087 68.2236 12.7827C67.7746 12.8092 67.3359 12.9276 66.935 13.1307C66.534 13.3338 66.1794 13.6171 65.8932 13.963C65.607 14.3089 65.3954 14.7098 65.2716 15.1409C65.1478 15.572 65.1145 16.0239 65.1737 16.4684C65.1274 16.8982 65.1715 17.3328 65.303 17.7448C65.4344 18.1567 65.6503 18.5369 65.9372 18.861C66.2241 19.1852 66.5757 19.4463 66.9693 19.6277C67.3629 19.809 67.79 19.9067 68.2236 19.9145C68.7659 19.8951 69.2979 19.7619 69.7852 19.5237C70.2724 19.2856 70.7039 18.9479 71.0514 18.5324L72.1791 21.7573ZM54.1204 17.7029H56.8374L55.4882 13.0038L54.1204 17.7029ZM53.455 9.9446H57.5028L61.7357 22.7339H58.1682L57.5028 20.5226H53.455L52.7896 22.7339H49.2221L53.455 9.9446ZM46.0614 15.0678C45.068 16.2521 43.7988 17.1758 42.3647 17.7583V12.2297C41.6709 12.2886 40.9908 12.4565 40.3497 12.7273C39.795 12.8985 39.2843 13.1877 38.8527 13.575V18.6613H38.1503C36.4128 18.6613 35.0635 18.0899 34.7123 17.2053C34.6178 16.7664 34.6341 16.3109 34.7599 15.8799C34.8857 15.4488 35.1172 15.0558 35.4332 14.736C36.529 13.4198 37.9588 12.4207 39.5736 11.8428C40.7526 11.3817 42.0041 11.1321 43.2703 11.1056C45.1187 11.1056 46.3756 11.6585 46.7268 12.5431C46.8156 12.9865 46.7945 13.4445 46.6657 13.878C46.5368 14.3115 46.3041 14.7073 45.9874 15.0309M49.832 11.3452C48.9632 9.11534 46.505 7.76994 43.2703 7.76994C41.5675 7.79473 39.883 8.12565 38.2981 8.74671C36.13 9.55382 34.2162 10.9213 32.7529 12.7089C32.0726 13.4753 31.6041 14.4049 31.3935 15.4066C31.1828 16.4082 31.2372 17.4474 31.5514 18.4217C32.4201 20.6515 34.8601 21.9785 38.0948 21.9785H38.7972V25.0743H42.3091V21.3886L43.067 21.1122C45.2355 20.315 47.1503 18.9532 48.6122 17.1684C49.2925 16.402 49.7608 15.4724 49.9714 14.4707C50.1821 13.4691 50.1276 12.43 49.8135 11.4556M38.7232 6.11133H42.2351V7.16188C41.615 7.15666 40.9959 7.21214 40.3868 7.32767C39.8126 7.447 39.2543 7.63262 38.7232 7.88062V6.11133Z" fill="white"/>
<path id="Vector_6" d="M106.741 29.572V28.8348H107.222C107.388 28.8348 107.777 28.8347 107.777 29.1848C107.777 29.535 107.37 29.572 107.222 29.572H106.741ZM106.741 28.0976V27.3973H107.185C107.555 27.3973 107.666 27.5633 107.666 27.7476C107.666 27.9319 107.666 28.0976 107.185 28.0976H106.741ZM105.706 26.6602V30.3459H107.555C108.442 30.3459 108.775 29.8116 108.775 29.3324C108.777 29.1067 108.699 28.8875 108.553 28.7149C108.407 28.5423 108.204 28.4279 107.98 28.3925C108.148 28.3421 108.295 28.24 108.401 28.101C108.508 27.962 108.567 27.7932 108.571 27.6185C108.571 27.3052 108.424 26.697 107.462 26.697L105.706 26.6602ZM103.211 29.5351C102.999 29.5613 102.784 29.5226 102.595 29.4242C102.405 29.3258 102.25 29.1721 102.151 28.984C102.051 28.7958 102.01 28.582 102.035 28.3705C102.06 28.159 102.149 27.9599 102.29 27.7998C102.431 27.6397 102.617 27.5262 102.824 27.474C103.031 27.4219 103.249 27.4338 103.449 27.508C103.649 27.5823 103.822 27.7156 103.945 27.89C104.067 28.0644 104.134 28.2716 104.135 28.4846C104.151 28.6154 104.138 28.7481 104.099 28.874C104.06 28.9998 103.995 29.1159 103.908 29.215C103.821 29.314 103.713 29.3938 103.593 29.4489C103.473 29.5041 103.343 29.5334 103.211 29.5351ZM103.211 30.4196C103.592 30.4088 103.962 30.286 104.274 30.0669C104.586 29.8478 104.826 29.5419 104.964 29.1875C105.103 28.8332 105.133 28.4461 105.052 28.0745C104.971 27.7028 104.782 27.3633 104.509 27.0981C104.235 26.833 103.889 26.654 103.514 26.5837C103.139 26.5134 102.752 26.555 102.401 26.7029C102.049 26.8508 101.749 27.0987 101.538 27.4156C101.327 27.7325 101.215 28.1042 101.215 28.4846C101.201 28.7471 101.243 29.0097 101.339 29.2546C101.435 29.4994 101.583 29.721 101.772 29.9043C101.961 30.0876 102.188 30.2284 102.436 30.3173C102.684 30.4062 102.948 30.441 103.211 30.4196ZM99.1446 30.309H100.18V27.5447H101.012V26.6602H98.3312V27.5447H99.1446V30.309ZM94.9117 30.309H95.947V28.7426L97.0189 30.309H98.3312L96.8711 28.4661L98.2944 26.6233H97.0744L95.947 28.153V26.6233H94.9117V30.309ZM91.8251 30.309H92.9341L94.6159 26.6233H93.4885L92.8786 28.153L92.1577 26.6233H90.9377L92.324 29.2586L91.8251 30.309ZM88.6642 27.5447H89.4036V29.3875H88.2576C88.6088 29.1848 88.6457 28.8164 88.6457 28.3557L88.6642 27.5447ZM87.703 26.6602V28.2634C87.7122 28.3738 87.7122 28.4849 87.703 28.5952C87.703 29.1849 87.2965 29.4244 86.9638 29.4244V31.0461H87.851V30.309H90.106V31.0461H91.0117V29.4244H90.5681V26.6602H87.703ZM84.8011 29.5351C84.5892 29.5613 84.3743 29.5226 84.1849 29.4242C83.9955 29.3258 83.8406 29.1721 83.7407 28.984C83.6407 28.7958 83.6005 28.582 83.6254 28.3705C83.6502 28.159 83.7388 27.9599 83.8796 27.7998C84.0205 27.6397 84.2069 27.5262 84.4139 27.474C84.621 27.4219 84.839 27.4338 85.0392 27.508C85.2393 27.5823 85.4121 27.7156 85.5347 27.89C85.6572 28.0644 85.7237 28.2716 85.7253 28.4846C85.7409 28.6154 85.7286 28.7481 85.6894 28.874C85.6503 28.9998 85.585 29.1159 85.4979 29.215C85.4107 29.314 85.3036 29.3938 85.1836 29.4489C85.0635 29.5041 84.9333 29.5334 84.8011 29.5351ZM84.8011 30.4196C85.1824 30.4088 85.5521 30.286 85.8639 30.0669C86.1756 29.8478 86.4156 29.5419 86.5541 29.1875C86.6925 28.8332 86.7231 28.4461 86.6421 28.0745C86.561 27.7028 86.372 27.3633 86.0985 27.0981C85.825 26.833 85.4793 26.654 85.1044 26.5837C84.7295 26.5134 84.3421 26.555 83.9907 26.7029C83.6392 26.8508 83.3394 27.0987 83.1285 27.4156C82.9176 27.7325 82.8051 28.1042 82.8049 28.4846C82.7909 28.7471 82.8332 29.0097 82.9293 29.2546C83.0254 29.4994 83.1729 29.721 83.362 29.9043C83.5511 30.0876 83.7774 30.2284 84.0256 30.3173C84.2738 30.4062 84.5383 30.441 84.8011 30.4196ZM80.6053 27.4711H80.9011C81.3632 27.4711 81.4187 27.7106 81.4187 27.8765C81.4187 28.0424 81.4186 28.3003 80.9011 28.3003H80.6053V27.4711ZM79.5703 30.309H80.6053V29.1113H81.1229C81.2969 29.1326 81.4734 29.1168 81.6409 29.0649C81.8084 29.0131 81.9631 28.9264 82.0944 28.8105C82.2258 28.6947 82.3308 28.5522 82.4029 28.3928C82.4749 28.2333 82.5123 28.0606 82.5123 27.8857C82.5123 27.7109 82.4749 27.5381 82.4029 27.3787C82.3308 27.2192 82.2258 27.0768 82.0944 26.9609C81.9631 26.8451 81.8084 26.7583 81.6409 26.7065C81.4734 26.6546 81.2969 26.6388 81.1229 26.6602H79.5703V30.309ZM75.5777 30.309H76.6312V27.5447H77.8512V30.309H78.8864V26.6233H75.5777V30.309ZM69.6997 30.309H70.7534V28.8533H72.0102V30.309H73.0454V26.6233H72.0102V27.9318H70.7534V26.6233H69.7737L69.6997 30.309ZM65.5779 26.6233V30.309H66.6131L68.0364 28.1161V30.309H69.0343V26.6233H68.0179L66.5761 28.8164V26.6233H65.5779ZM62.8238 28.0607V28.7979H63.4154C63.8775 28.7979 64.0253 28.9637 64.0253 29.1664C64.0253 29.3691 63.9143 29.572 63.4707 29.572C63.1281 29.5415 62.8074 29.3912 62.565 29.148L62.1399 29.83C62.5345 30.1991 63.0594 30.3976 63.6002 30.3827C64.4135 30.3827 65.0973 29.9773 65.0973 29.2586C65.101 29.055 65.0328 28.8564 64.9043 28.698C64.7759 28.5396 64.5954 28.4315 64.3949 28.3925C64.5721 28.3374 64.7269 28.2271 64.8367 28.0778C64.9464 27.9286 65.0055 27.7482 65.005 27.5631C65.005 26.9734 64.4504 26.5313 63.5817 26.5313C63.1385 26.5311 62.7036 26.6521 62.3247 26.8813L62.6945 27.6C62.9094 27.442 63.1668 27.3521 63.4337 27.342C63.7664 27.342 63.9698 27.4896 63.9698 27.7107C63.9698 27.9318 63.9699 28.0792 63.4154 28.0792L62.8238 28.0607ZM60.199 27.4711L60.6058 28.8348H59.7739L60.199 27.4711ZM58.2398 30.2723H59.3488L59.5521 29.6456H60.8276L61.0309 30.2723H62.1399L60.8276 26.5866H59.5521L58.2398 30.2723ZM55.9663 30.2723H57.0013V27.508H58.2028V26.6233H55.9663V30.2723ZM53.7296 27.4711L54.155 28.8348H53.3045L53.7296 27.4711ZM51.7705 30.2723H52.8794L53.0827 29.6456H54.3582L54.5615 30.2723H55.6705L54.3582 26.5866H53.1382L51.7705 30.2723ZM47.2603 30.2723H48.2585L48.5358 28.153L49.1642 30.2723H49.8296L50.4582 28.153L50.7353 30.2723H51.7335L51.1974 26.5866H50.1439L49.497 28.8164L48.8501 26.5866H47.7964L47.2603 30.2723ZM40.0885 30.2723H44.9868V26.5866H43.9518V29.3509H43.0646V26.5866H42.0479V29.3509H41.1607V26.5866H40.1995L40.0885 30.2723ZM37.8336 27.4711L38.2586 28.8348H37.4085L37.8336 27.4711ZM35.8744 30.2723H37.0019L37.2052 29.6456H38.4622L38.6655 30.2723H39.7929L38.4622 26.5866H37.2052L35.8744 30.2723ZM33.6932 29.5351V28.7979H34.1738C34.3401 28.7979 34.7284 28.7978 34.7284 29.148C34.7284 29.4981 34.3217 29.5351 34.1738 29.5351H33.6932ZM33.6932 28.0607V27.3604H34.1368C34.488 27.3604 34.6174 27.5264 34.6174 27.7107C34.6174 27.895 34.6174 28.0607 34.1368 28.0607H33.6932ZM32.6582 26.6233V30.309H34.5066C35.3938 30.309 35.7079 29.7747 35.7079 29.2955C35.7152 29.0715 35.6405 28.8526 35.4976 28.6796C35.3547 28.5066 35.1536 28.3914 34.9317 28.3557C35.0975 28.3045 35.2426 28.2018 35.3457 28.0625C35.4488 27.9233 35.5044 27.7547 35.5046 27.5816C35.5046 27.2683 35.3752 26.6602 34.3956 26.6602L32.6582 26.6233Z" fill="white"/>
</g>
</svg>
