<svg width="266" height="353" viewBox="0 0 266 353" fill="none" xmlns="http://www.w3.org/2000/svg">
<path d="M169.56 123.877C169.756 126.365 168.905 128.917 167.007 130.829L126.423 171.411C122.967 174.867 117.377 174.867 113.921 171.411L99.0488 156.54C95.5926 153.084 95.5926 147.494 99.0488 144.038L119.21 123.877H94.5977V228.658H115.099L139.632 204.125C143.089 200.669 148.679 200.669 152.135 204.125L167.007 218.997C169.625 221.615 170.253 225.451 168.905 228.658H170.751V123.877H169.56Z" fill="#53CCC4"/>
<path d="M166.196 232.31L126.437 272.068C122.981 275.524 117.391 275.524 113.934 272.068L99.0624 257.196C95.6063 253.74 95.6063 248.151 99.0624 244.695L111.46 232.297H94.6113V337.078H170.752V232.297H166.183L166.196 232.31Z" fill="#53CCC4"/>
<path d="M94.6113 51.7983V120.212H122.889L139.646 103.455C143.102 99.9995 148.692 99.9995 152.148 103.455L167.02 118.327C167.596 118.903 168.068 119.544 168.447 120.225H170.765V51.8114H94.6244L94.6113 51.7983Z" fill="#53CCC4"/>
<path d="M27.8555 123.877C26.5464 125.632 24.4517 126.784 22.0953 126.784H13.4941V154.17H29.2956L31.5 214.952C31.5 219.73 27.6249 223.592 22.8596 223.592L13.4941 223.592V228.658H89.6343V123.877H27.8555Z" fill="#53CCC4"/>
<path d="M236.037 15.4314H195.794C197.365 16.9369 198.334 19.0576 198.334 21.4009V43.4854C198.334 48.0804 194.616 51.7982 190.021 51.7982H175.725V120.212L233.824 120.212V61.5249C233.824 59.2208 235.696 57.3488 238 57.3488L251.865 57.3488V31.2715C251.865 22.5267 244.769 15.4314 236.024 15.4314H236.037Z" fill="#53CCC4"/>
<path d="M76.0331 51.7982C71.4379 51.7982 67.7199 48.0804 67.7199 43.4854V21.4009C67.7199 19.0576 68.7018 16.9369 70.2597 15.4314H29.3095C20.5643 15.4314 13.4688 22.5267 13.4688 31.2715V57.3488L24 57.3488C28.0976 57.3488 31.4229 60.674 31.4229 64.7714L30.5 118V120.212L89.6089 120.212V51.7982H76.02H76.0331Z" fill="#53CCC4"/>
<path d="M251.878 223.592H240.5C236.743 223.592 233.706 220.555 233.706 216.797V160.951C233.706 157.194 236.743 154.157 240.5 154.157H251.878V126.77H241.143C239.245 126.77 237.647 125.553 237.045 123.864H175.725V228.645H251.865V223.579L251.878 223.592Z" fill="#53CCC4"/>
<path d="M239.794 320.4C236.037 320.4 233 317.363 233 313.606V257.759C233 254.002 236.037 250.965 239.794 250.965H251.878V232.31H175.738V337.091H236.051C244.796 337.091 251.892 329.995 251.892 321.251V320.4H243.592H239.794Z" fill="#53CCC4"/>
<path d="M13.4824 232.31V250.965H25.3888C29.0413 250.965 32 253.924 32 257.576V313.187C32 317.166 28.7664 320.4 24.7866 320.4H13.4824V321.251C13.4824 329.995 20.578 337.091 29.3231 337.091H89.6357V232.31H13.4824Z" fill="#53CCC4"/>
<path d="M139.642 103.449L99.0591 144.031C95.6081 147.481 95.6081 153.076 99.0591 156.527L113.926 171.393C117.377 174.844 122.972 174.844 126.423 171.393L167.006 130.812C170.457 127.361 170.457 121.766 167.006 118.315L152.139 103.449C148.688 99.9981 143.093 99.9981 139.642 103.449Z" stroke="black" stroke-width="4"/>
<path d="M139.638 204.127L99.0552 244.709C95.6042 248.16 95.6042 253.755 99.0552 257.206L113.922 272.072C117.373 275.523 122.968 275.523 126.419 272.072L167.002 231.49C170.453 228.039 170.453 222.445 167.002 218.994L152.135 204.127C148.684 200.677 143.089 200.677 139.638 204.127Z" stroke="black" stroke-width="4"/>
<path d="M190.02 13.1011H76.0319C71.4407 13.1011 67.7188 16.8228 67.7188 21.4139V43.4853C67.7188 48.0764 71.4407 51.7981 76.0319 51.7981H190.02C194.611 51.7981 198.333 48.0764 198.333 43.4853V21.4139C198.333 16.8228 194.611 13.1011 190.02 13.1011Z" stroke="black" stroke-width="4"/>
<path d="M14.8789 57.3489H25.4307C28.6643 57.3489 31.2826 59.9671 31.2826 63.2006V120.932C31.2826 124.165 28.6643 126.784 25.4307 126.784H14.8789V57.3489Z" stroke="black" stroke-width="4"/>
<path d="M14.8789 154.157H25.4307C28.6643 154.157 31.2826 156.775 31.2826 160.009V216.038C31.2826 220.214 27.905 223.592 23.7288 223.592H14.8789V154.157Z" stroke="black" stroke-width="4"/>
<path d="M14.8789 250.978H25.4307C28.6643 250.978 31.2826 253.596 31.2826 256.83V314.561C31.2826 317.795 28.6643 320.413 25.4307 320.413H14.8789V250.978Z" stroke="black" stroke-width="4"/>
<path d="M239.635 57.3489H250.187V126.784H239.635C236.402 126.784 233.783 124.165 233.783 120.932V63.2006C233.783 59.9671 236.402 57.3489 239.635 57.3489Z" stroke="black" stroke-width="4"/>
<path d="M239.635 154.157H250.187V223.592H239.635C236.402 223.592 233.783 220.974 233.783 217.74V160.009C233.783 156.775 236.402 154.157 239.635 154.157Z" stroke="black" stroke-width="4"/>
<path d="M239.852 250.978H250.404V320.413H239.852C236.618 320.413 234 317.795 234 314.561V256.83C234 253.596 236.618 250.978 239.852 250.978Z" stroke="black" stroke-width="4"/>
<path d="M168.746 350.522H247.518C256.263 350.522 263.359 343.427 263.359 334.682V17.8401C263.359 9.09533 256.263 2 247.518 2H17.8407C9.0956 2 2 9.09533 2 17.8401V334.695C2 343.44 9.0956 350.535 17.8407 350.535H102.176" stroke="black" stroke-width="4" stroke-miterlimit="10"/>
<path d="M123.974 29.491H126.841V18.0364H133.256C134.801 18.0364 136.11 18.2458 137.196 18.6778C138.283 19.1098 139.16 19.6728 139.841 20.3666C140.522 21.0735 141.019 21.8851 141.32 22.8146C141.621 23.7441 141.792 24.7128 141.792 25.6946C141.792 26.6764 141.634 27.6583 141.32 28.5616C141.006 29.4648 140.509 30.2503 139.841 30.9441C139.16 31.6379 138.283 32.1878 137.196 32.5805C136.11 32.9732 134.801 33.1827 133.256 33.1827H131.318V35.8009H137.393V39.3616H131.318V42.1893H126.828V39.3616H123.961V35.8009H126.828V33.1827H123.961V29.491H123.974ZM132.811 29.491C133.426 29.491 134.015 29.4386 134.552 29.3339C135.089 29.2292 135.573 29.0459 135.979 28.771C136.385 28.4961 136.712 28.1165 136.948 27.619C137.183 27.1215 137.288 26.4801 137.288 25.7077C137.288 24.9353 137.17 24.2677 136.948 23.7441C136.712 23.2204 136.398 22.8015 135.979 22.4873C135.56 22.1731 135.089 21.9637 134.552 21.8328C134.015 21.7019 133.426 21.6364 132.811 21.6364H131.331V29.5041H132.811V29.491Z" fill="#53CCC4"/>
</svg>
