<svg width="266" height="353" viewBox="0 0 266 353" fill="none" xmlns="http://www.w3.org/2000/svg">
<path d="M189.34 13.1011H76.6878C71.7278 13.1011 67.707 17.1218 67.707 22.0815V42.8177C67.707 47.7774 71.7278 51.7981 76.6878 51.7981H189.34C194.3 51.7981 198.321 47.7774 198.321 42.8177V22.0815C198.321 17.1218 194.3 13.1011 189.34 13.1011Z" stroke="black" stroke-width="4" stroke-miterlimit="10"/>
<path d="M142.125 100.968L96.5611 146.529C94.4854 148.605 94.4854 151.97 96.5611 154.046L116.408 173.892C118.484 175.968 121.849 175.968 123.925 173.892L169.489 128.331C171.564 126.255 171.564 122.89 169.488 120.814L149.641 100.968C147.566 98.892 144.2 98.892 142.125 100.968Z" stroke="black" stroke-width="4"/>
<path d="M142.119 201.633L96.5553 247.195C94.4796 249.27 94.4796 252.635 96.5553 254.711L116.402 274.558C118.478 276.633 121.844 276.633 123.919 274.558L169.483 228.996C171.558 226.92 171.558 223.555 169.483 221.479L149.635 201.633C147.56 199.557 144.194 199.557 142.119 201.633Z" stroke="black" stroke-width="4"/>
<path d="M23.9537 57.3489H18.1804C15.2449 57.3489 12.8652 59.7285 12.8652 62.6638V121.469C12.8652 124.404 15.2449 126.784 18.1804 126.784H23.9537C26.8892 126.784 29.2688 124.404 29.2688 121.469V62.6638C29.2688 59.7285 26.8892 57.3489 23.9537 57.3489Z" stroke="black" stroke-width="4"/>
<path d="M23.9537 154.157H18.1804C15.2449 154.157 12.8652 156.537 12.8652 159.472V218.277C12.8652 221.212 15.2449 223.592 18.1804 223.592H23.9537C26.8892 223.592 29.2688 221.212 29.2688 218.277V159.472C29.2688 156.537 26.8892 154.157 23.9537 154.157Z" stroke="black" stroke-width="4"/>
<path d="M23.9537 250.978H18.1804C15.2449 250.978 12.8652 253.358 12.8652 256.293V315.098C12.8652 318.033 15.2449 320.413 18.1804 320.413H23.9537C26.8892 320.413 29.2688 318.033 29.2688 315.098V256.293C29.2688 253.358 26.8892 250.978 23.9537 250.978Z" stroke="black" stroke-width="4"/>
<path d="M247.858 57.3489H242.085C239.149 57.3489 236.77 59.7285 236.77 62.6638V121.469C236.77 124.404 239.149 126.784 242.085 126.784H247.858C250.794 126.784 253.173 124.404 253.173 121.469V62.6638C253.173 59.7285 250.794 57.3489 247.858 57.3489Z" stroke="black" stroke-width="4"/>
<path d="M247.858 154.157H242.085C239.149 154.157 236.77 156.537 236.77 159.472V218.277C236.77 221.212 239.149 223.592 242.085 223.592H247.858C250.794 223.592 253.173 221.212 253.173 218.277V159.472C253.173 156.537 250.794 154.157 247.858 154.157Z" stroke="black" stroke-width="4"/>
<path d="M247.858 250.978H242.085C239.149 250.978 236.77 253.358 236.77 256.293V315.098C236.77 318.033 239.149 320.413 242.085 320.413H247.858C250.794 320.413 253.173 318.033 253.173 315.098V256.293C253.173 253.358 250.794 250.978 247.858 250.978Z" stroke="black" stroke-width="4"/>
<path d="M168.733 350.522H249.6C257.193 350.522 263.346 344.369 263.346 336.777V15.7456C263.346 8.15278 257.193 2 249.6 2H15.7461C8.15301 2 2 8.15278 2 15.7456V336.763C2 344.356 8.15301 350.509 15.7461 350.509H102.163" stroke="black" stroke-width="4" stroke-miterlimit="10"/>
<path d="M123.961 29.491H126.828V18.0364H133.256C134.801 18.0364 136.11 18.2458 137.196 18.6778C138.283 19.1098 139.16 19.6728 139.841 20.3666C140.522 21.0604 141.019 21.8851 141.32 22.8146C141.621 23.7441 141.792 24.7128 141.792 25.6946C141.792 26.6764 141.634 27.6583 141.32 28.5616C141.006 29.4648 140.509 30.2503 139.841 30.9441C139.173 31.6379 138.283 32.1878 137.196 32.5805C136.11 32.9732 134.801 33.1827 133.256 33.1827H131.318V35.8009H137.393V39.3616H131.318V42.1893H126.828V39.3616H123.961V35.8009H126.828V33.1827H123.961V29.491ZM132.798 29.491C133.413 29.491 134.002 29.4386 134.539 29.3339C135.076 29.2292 135.56 29.0459 135.966 28.771C136.372 28.4961 136.699 28.1165 136.935 27.619C137.17 27.1215 137.275 26.4801 137.275 25.7077C137.275 24.9353 137.157 24.2677 136.935 23.7441C136.699 23.2204 136.385 22.8015 135.966 22.4873C135.547 22.1731 135.076 21.9637 134.539 21.8328C134.002 21.7019 133.413 21.6364 132.798 21.6364H131.318V29.5041H132.798V29.491Z" fill="#53CBC3"/>
</svg>
