<svg width="266" height="353" viewBox="0 0 266 353" fill="none" xmlns="http://www.w3.org/2000/svg">
<path d="M190.793 13.1011H75.2346C71.0773 13.1011 67.707 16.4712 67.707 20.6284V44.2708C67.707 48.428 71.0773 51.7981 75.2346 51.7981H190.793C194.951 51.7981 198.321 48.428 198.321 44.2708V20.6284C198.321 16.4712 194.951 13.1011 190.793 13.1011Z" stroke="black" stroke-width="4"/>
<path d="M138.875 104.203L99.7913 143.285C95.9262 147.15 95.9262 153.416 99.7913 157.281L113.159 170.648C117.024 174.513 123.29 174.513 127.155 170.648L166.239 131.566C170.104 127.701 170.104 121.435 166.239 117.57L152.871 104.203C149.006 100.338 142.74 100.338 138.875 104.203Z" stroke="black" stroke-width="4"/>
<path d="M138.871 204.868L99.7874 243.95C95.9223 247.815 95.9223 254.081 99.7874 257.946L113.155 271.313C117.02 275.178 123.286 275.178 127.151 271.313L166.235 232.231C170.1 228.366 170.1 222.1 166.235 218.235L152.868 204.868C149.002 201.003 142.736 201.003 138.871 204.868Z" stroke="black" stroke-width="4"/>
<path d="M23.5872 57.3489H18.5469C15.409 57.3489 12.8652 59.8926 12.8652 63.0304V121.102C12.8652 124.24 15.409 126.784 18.5469 126.784H23.5872C26.7251 126.784 29.2689 124.24 29.2689 121.102V63.0304C29.2689 59.8926 26.7251 57.3489 23.5872 57.3489Z" stroke="black" stroke-width="4"/>
<path d="M23.5872 154.157H18.5469C15.409 154.157 12.8652 156.701 12.8652 159.838V217.91C12.8652 221.048 15.409 223.592 18.5469 223.592H23.5872C26.7251 223.592 29.2689 221.048 29.2689 217.91V159.838C29.2689 156.701 26.7251 154.157 23.5872 154.157Z" stroke="black" stroke-width="4"/>
<path d="M23.5872 250.978H18.5469C15.409 250.978 12.8652 253.522 12.8652 256.66V314.731C12.8652 317.869 15.409 320.413 18.5469 320.413H23.5872C26.7251 320.413 29.2689 317.869 29.2689 314.731V256.66C29.2689 253.522 26.7251 250.978 23.5872 250.978Z" stroke="black" stroke-width="4"/>
<path d="M247.491 57.3489H242.451C239.313 57.3489 236.77 59.8926 236.77 63.0304V121.102C236.77 124.24 239.313 126.784 242.451 126.784H247.491C250.629 126.784 253.173 124.24 253.173 121.102V63.0304C253.173 59.8926 250.629 57.3489 247.491 57.3489Z" stroke="black" stroke-width="4"/>
<path d="M247.491 154.157H242.451C239.313 154.157 236.77 156.701 236.77 159.838V217.91C236.77 221.048 239.313 223.592 242.451 223.592H247.491C250.629 223.592 253.173 221.048 253.173 217.91V159.838C253.173 156.701 250.629 154.157 247.491 154.157Z" stroke="black" stroke-width="4"/>
<path d="M247.491 250.978H242.451C239.313 250.978 236.77 253.522 236.77 256.66V314.731C236.77 317.869 239.313 320.413 242.451 320.413H247.491C250.629 320.413 253.173 317.869 253.173 314.731V256.66C253.173 253.522 250.629 250.978 247.491 250.978Z" stroke="black" stroke-width="4"/>
<path d="M168.733 350.522H249.6C257.193 350.522 263.346 344.369 263.346 336.777V15.7456C263.346 8.15278 257.193 2 249.6 2H15.7461C8.15301 2 2 8.15278 2 15.7456V336.763C2 344.356 8.15301 350.509 15.7461 350.509H102.163" stroke="black" stroke-width="4" stroke-miterlimit="10"/>
<path d="M123.96 29.491H126.827V18.0364H133.242C134.787 18.0364 136.096 18.2458 137.183 18.6778C138.269 19.1098 139.147 19.6728 139.827 20.3666C140.508 21.0735 141.006 21.8851 141.307 22.8146C141.608 23.7441 141.778 24.7128 141.778 25.6946C141.778 26.6764 141.621 27.6583 141.307 28.5616C140.992 29.4648 140.495 30.2503 139.827 30.9441C139.147 31.6379 138.269 32.1878 137.183 32.5805C136.096 32.9732 134.787 33.1827 133.242 33.1827H131.305V35.8009H137.379V39.3616H131.305V42.1893H126.814V39.3616H123.947V35.8009H126.814V33.1827H123.947V29.491H123.96ZM132.797 29.491C133.412 29.491 134.002 29.4386 134.538 29.3339C135.075 29.2292 135.559 29.0459 135.965 28.771C136.371 28.4961 136.698 28.1165 136.934 27.619C137.17 27.1215 137.274 26.4801 137.274 25.7077C137.274 24.9353 137.157 24.2677 136.934 23.7441C136.698 23.2204 136.384 22.8015 135.965 22.4873C135.546 22.1731 135.075 21.9637 134.538 21.8328C134.002 21.7019 133.412 21.6364 132.797 21.6364H131.318V29.5041H132.797V29.491Z" fill="#53CCC4"/>
<path d="M120.281 346.464C120.347 346.294 122.193 341.28 122.193 333.661C122.193 327.155 120.831 318.711 115.804 309.901C110.777 301.09 102.123 291.966 87.7751 284.007C77.027 278.024 70.5074 269.083 66.5538 259.395C62.6001 249.708 61.291 239.314 61.0684 230.792L61.0161 228.632L56.709 228.749L56.7614 230.909C56.997 239.772 58.3323 250.651 62.5609 261.032C66.7764 271.387 73.9505 281.271 85.6805 287.79C99.4528 295.448 107.452 303.997 112.047 312.061C116.642 320.125 117.872 327.757 117.872 333.674C117.872 337.143 117.454 340.01 117.035 341.987C116.825 342.982 116.616 343.741 116.472 344.251C116.393 344.513 116.328 344.697 116.288 344.814L116.249 344.945V344.971L116.485 345.063L115.49 346.987L119.535 348.493L120.281 346.477V346.464Z" fill="#53CCC4"/>
<path d="M71.895 235.23L60.0471 212.32L46.1309 234.038L71.895 235.23Z" fill="#53CCC4"/>
<path d="M64.0015 195.001C64.0015 195.001 63.9883 194.883 63.9491 194.634C63.6872 192.867 62.6138 184.842 62.6138 173.505C62.6138 153.895 65.8735 124.414 81.8713 100.196L83.0627 98.3892L79.4625 96.0198L78.2712 97.8132C61.5533 123.184 58.3066 153.437 58.3066 173.505C58.3066 186.767 59.7467 195.616 59.7598 195.695L60.1002 197.829L64.3549 197.135L64.0145 195.001H64.0015Z" fill="#53CCC4"/>
<path d="M88.0905 110.119L91.7823 84.5913L67.8379 94.1478L88.0905 110.119Z" fill="#53CCC4"/>
<path d="M125.636 185.392C125.478 185.392 120.111 185.457 112.858 187.801C105.606 190.131 96.4284 194.778 88.8746 203.942L87.5 205.605L90.8253 208.341L92.1998 206.678C99.0991 198.3 107.478 194.071 114.18 191.911C117.519 190.838 120.438 190.288 122.494 190C123.528 189.856 124.339 189.791 124.889 189.751C125.164 189.738 125.374 189.725 125.505 189.712H125.649H125.675L127.835 189.686L127.796 185.379L125.636 185.405V185.392Z" fill="#53CCC4"/>
<path d="M83.4558 197.108L82.5918 218.578L101.627 208.602L83.4558 197.108Z" fill="#53CCC4"/>
<path d="M140.822 186.963C140.98 186.963 146.347 186.897 153.6 184.554C160.852 182.224 170.03 177.577 177.583 168.413L178.958 166.75L175.633 164.014L174.258 165.677C167.359 174.055 158.98 178.284 152.277 180.444C148.939 181.517 146.02 182.067 143.964 182.355C142.93 182.499 142.118 182.564 141.569 182.604C141.294 182.617 141.084 182.63 140.953 182.643H140.809H140.783L138.623 182.669L138.675 186.976L140.836 186.95L140.822 186.963Z" fill="#53CCC4"/>
<path d="M183.003 175.247L183.867 153.764L164.832 163.74L183.003 175.247Z" fill="#53CCC4"/>
<path d="M148.376 344.959C148.337 344.841 146.727 340.364 146.727 333.661C146.727 327.744 147.957 320.099 152.552 312.035C157.16 303.971 165.146 295.422 178.919 287.777C190.662 281.258 197.823 271.374 202.038 261.019C206.267 250.651 207.615 239.772 207.838 230.896L207.89 228.736L203.583 228.619L203.531 230.779C203.308 239.301 201.999 249.695 198.045 259.383C194.079 269.07 187.572 278.024 176.824 283.994C162.476 291.953 153.822 301.077 148.795 309.888C143.768 318.698 142.393 327.129 142.406 333.648C142.406 341.28 144.265 346.294 144.318 346.451L145.064 348.467L149.109 346.961L148.363 344.945L148.376 344.959Z" fill="#53CCC4"/>
<path d="M218.481 234.038L204.565 212.32L192.717 235.23L218.481 234.038Z" fill="#53CCC4"/>
<path d="M204.865 195.695C204.865 195.616 206.319 186.767 206.319 173.505C206.319 153.437 203.059 123.197 186.354 97.8132L185.163 96.0198L181.562 98.3892L182.754 100.183C198.752 124.414 202.025 153.882 202.011 173.492C202.011 179.972 201.658 185.366 201.304 189.136C201.134 191.021 200.951 192.501 200.82 193.495C200.755 193.993 200.702 194.373 200.663 194.634C200.624 194.883 200.611 195.001 200.611 195.001L200.27 197.122L204.525 197.816L204.865 195.682V195.695Z" fill="#53CCC4"/>
<path d="M196.788 94.1478L172.83 84.5913L176.522 110.119L196.788 94.1478Z" fill="#53CCC4"/>
</svg>
