<svg width="192" height="259" viewBox="0 0 192 259" fill="none" xmlns="http://www.w3.org/2000/svg">
<path d="M138.92 9.07129H53.5759C50.9214 9.07129 48.7695 11.2231 48.7695 13.8775V32.3981C48.7695 35.0525 50.9214 37.2043 53.5759 37.2043H138.92C141.575 37.2043 143.727 35.0525 143.727 32.3981V13.8775C143.727 11.2231 141.575 9.07129 138.92 9.07129Z" stroke="black" stroke-width="2"/>
<path d="M102.19 73.6131L70.3972 105.404C68.5201 107.281 68.5202 110.324 70.3972 112.201L83.4937 125.297C85.3707 127.174 88.4139 127.174 90.2909 125.297L122.083 93.5061C123.96 91.6292 123.96 88.5861 122.083 86.7091L108.987 73.6131C107.11 71.7361 104.067 71.7361 102.19 73.6131Z" stroke="black" stroke-width="2"/>
<path d="M102.195 146.806L70.403 178.598C68.526 180.475 68.526 183.518 70.403 185.395L83.4995 198.491C85.3765 200.368 88.4198 200.368 90.2968 198.491L122.089 166.699C123.966 164.823 123.966 161.779 122.089 159.902L108.993 146.806C107.116 144.929 104.072 144.929 102.195 146.806Z" stroke="black" stroke-width="2"/>
<path d="M16.0083 41.2383H13.6956C11.0411 41.2383 8.88916 43.3901 8.88916 46.0445V86.9116C8.88916 89.566 11.0411 91.7178 13.6956 91.7178H16.0083C18.6628 91.7178 20.8147 89.566 20.8147 86.9116V46.0445C20.8147 43.3901 18.6628 41.2383 16.0083 41.2383Z" stroke="black" stroke-width="2"/>
<path d="M16.0083 111.618H13.6956C11.0411 111.618 8.88916 113.77 8.88916 116.424V157.291C8.88916 159.946 11.0411 162.098 13.6956 162.098H16.0083C18.6628 162.098 20.8147 159.946 20.8147 157.291V116.424C20.8147 113.77 18.6628 111.618 16.0083 111.618Z" stroke="black" stroke-width="2"/>
<path d="M16.0083 182.009H13.6956C11.0411 182.009 8.88916 184.161 8.88916 186.815V227.682C8.88916 230.336 11.0411 232.488 13.6956 232.488H16.0083C18.6628 232.488 20.8147 230.336 20.8147 227.682V186.815C20.8147 184.161 18.6628 182.009 16.0083 182.009Z" stroke="black" stroke-width="2"/>
<path d="M178.79 41.2383H176.477C173.822 41.2383 171.67 43.3901 171.67 46.0445V86.9116C171.67 89.566 173.822 91.7178 176.477 91.7178H178.79C181.444 91.7178 183.596 89.566 183.596 86.9116V46.0445C183.596 43.3901 181.444 41.2383 178.79 41.2383Z" stroke="black" stroke-width="2"/>
<path d="M178.79 111.618H176.477C173.822 111.618 171.67 113.77 171.67 116.424V157.291C171.67 159.946 173.822 162.098 176.477 162.098H178.79C181.444 162.098 183.596 159.946 183.596 157.291V116.424C183.596 113.77 181.444 111.618 178.79 111.618Z" stroke="black" stroke-width="2"/>
<path d="M178.79 182.009H176.477C173.822 182.009 171.67 184.161 171.67 186.815V227.682C171.67 230.336 173.822 232.488 176.477 232.488H178.79C181.444 232.488 183.596 230.336 183.596 227.682V186.815C183.596 184.161 181.444 182.009 178.79 182.009Z" stroke="black" stroke-width="2"/>
<path d="M122.216 254.378H181.007C186.527 254.378 191 249.905 191 244.385V10.9931C191 5.47311 186.527 1 181.007 1H10.9935C5.47328 1 1 5.47311 1 10.9931V244.375C1 249.895 5.47328 254.368 10.9935 254.368H73.8192" stroke="black" stroke-width="2" stroke-miterlimit="10"/>
<path d="M89.6577 20.9848H91.7421V12.6572H96.4152C97.5383 12.6572 98.49 12.8095 99.28 13.1236C100.07 13.4376 100.708 13.8469 101.203 14.3513C101.697 14.8557 102.059 15.4553 102.278 16.131C102.497 16.8067 102.621 17.511 102.621 18.2248C102.621 18.9386 102.506 19.6524 102.278 20.3091C102.05 20.9658 101.688 21.5368 101.203 22.0412C100.717 22.5457 100.07 22.9454 99.28 23.2309C98.49 23.5164 97.5383 23.6687 96.4152 23.6687H95.0066V25.5721H99.4228V28.1608H95.0066V30.2166H91.7421V28.1608H89.6577V25.5721H91.7421V23.6687H89.6577V20.9848ZM96.0821 20.9848C96.5294 20.9848 96.9577 20.9468 97.348 20.8706C97.7382 20.7945 98.0903 20.6612 98.3853 20.4614C98.6804 20.2615 98.9183 19.9855 99.0896 19.6239C99.261 19.2622 99.3371 18.7959 99.3371 18.2343C99.3371 17.6728 99.2514 17.1874 99.0896 16.8067C98.9183 16.4261 98.6899 16.1215 98.3853 15.8931C98.0808 15.6647 97.7382 15.5124 97.348 15.4172C96.9577 15.3221 96.5294 15.2745 96.0821 15.2745H95.0066V20.9943H96.0821V20.9848Z" fill="#53CCC4"/>
<path d="M85.4009 248.058C85.4009 242.081 90.2549 237.228 96.2319 237.228C102.209 237.228 107.063 242.081 107.063 248.058C107.063 254.035 102.209 258.889 96.2319 258.889C90.2549 258.889 85.4009 254.035 85.4009 248.058Z" fill="#53CCC4"/>
<path d="M97.1279 208.876H95.3291V212.159H97.1279V208.876ZM97.1279 214.11H95.3291V217.403H97.1279V214.11ZM97.1279 219.335H95.3291V222.619H97.1279V219.335ZM97.1279 224.56H95.3291V227.853H97.1279V224.56ZM97.1279 229.785H95.3291V233.078H97.1279V229.785ZM97.1279 235.01H95.3291V238.303H97.1279V235.01ZM97.1279 240.235H95.3291V243.528H97.1279V240.235Z" fill="#53CCC4"/>
<path d="M101.601 208.799L96.2326 199.501L90.8647 208.799H101.601Z" fill="#53CCC4"/>
<path d="M122.654 223.627L124.976 221.305L123.71 220.039L121.388 222.361L122.654 223.627ZM118.952 227.329L121.274 225.007L120.008 223.741L117.686 226.063L118.952 227.329ZM115.259 231.022L117.581 228.7L116.315 227.434L113.993 229.756L115.259 231.022ZM111.557 234.724L113.879 232.402L112.613 231.136L110.291 233.458L111.557 234.724ZM107.864 238.417L110.186 236.095L108.92 234.829L106.598 237.151L107.864 238.417ZM104.171 242.11L106.493 239.787L105.227 238.522L102.905 240.844L104.171 242.11ZM100.468 245.812L102.791 243.49L101.525 242.224L99.2026 244.546L100.468 245.812Z" fill="#53CCC4"/>
<path d="M128.195 224.408L130.974 214.044L120.609 216.813L128.195 224.408Z" fill="#53CCC4"/>
<path d="M71.0778 222.361L68.7555 220.039L67.4897 221.305L69.812 223.627L71.0778 222.361ZM74.7802 226.063L72.4579 223.741L71.1921 225.007L73.5144 227.329L74.7802 226.063ZM78.473 229.756L76.1507 227.434L74.8849 228.7L77.2072 231.022L78.473 229.756ZM82.1754 233.458L79.8531 231.136L78.5873 232.402L80.9096 234.724L82.1754 233.458ZM85.8777 237.151L83.5554 234.829L82.2896 236.095L84.6119 238.417L85.8777 237.151ZM89.5706 240.844L87.2483 238.522L85.9825 239.787L88.3048 242.11L89.5706 240.844ZM93.2729 244.546L90.9506 242.224L89.6848 243.49L92.0071 245.812L93.2729 244.546Z" fill="#53CCC4"/>
<path d="M71.8598 216.813L61.4951 214.034L64.2743 224.408L71.8598 216.813Z" fill="#53CCC4"/>
<path d="M27.7171 146.414C32.1143 142.35 38.967 142.626 43.0215 147.014C47.0855 151.411 46.8095 158.263 42.4123 162.317C38.0152 166.381 31.1625 166.105 27.108 161.718C23.044 157.321 23.32 150.468 27.7077 146.414" fill="#53CCC4"/>
<path d="M62.0375 130.673L64.455 128.446L63.2367 127.133L60.8193 129.36L62.0375 130.673ZM58.1924 134.223L60.6098 131.996L59.3916 130.683L56.9741 132.91L58.1924 134.223ZM54.3568 137.773L56.7742 135.546L55.556 134.233L53.1385 136.46L54.3568 137.773ZM50.5117 141.323L52.9292 139.086L51.7109 137.773L49.2934 140L50.5117 141.323ZM46.6665 144.873L49.084 142.636L47.8658 141.323L45.4483 143.55L46.6665 144.863V144.873ZM42.831 148.423L45.2484 146.196L44.0302 144.882L41.6127 147.11L42.831 148.423ZM38.9859 151.973L41.4033 149.746L40.1851 148.432L37.7676 150.659L38.9859 151.973Z" fill="#53CCC4"/>
<path d="M67.5378 131.662L70.7262 121.422L60.2568 123.782L67.5378 131.662Z" fill="#53CCC4"/>
<path d="M70.9447 157.188L74.2283 157.321L74.2949 155.532L71.0114 155.399L70.9447 157.188ZM65.7196 156.979L69.0032 157.112L69.0698 155.323L65.7862 155.189L65.71 156.979H65.7196ZM60.4944 156.769L63.778 156.903L63.8446 155.113L60.561 154.98L60.4944 156.769ZM55.2693 156.56L58.5528 156.693L58.6195 154.904L55.3359 154.771L55.2693 156.56ZM50.0441 156.351L53.3277 156.484L53.4038 154.695L50.1202 154.561L50.0536 156.351H50.0441ZM44.8189 156.141L48.1025 156.274L48.1691 154.485L44.8855 154.352L44.8189 156.141ZM39.5938 155.932L42.8773 156.065L42.9439 154.276L39.6604 154.143L39.5938 155.932Z" fill="#53CCC4"/>
<path d="M74.1323 161.793L83.6309 156.797L74.5511 151.067L74.1323 161.793Z" fill="#53CCC4"/>
<path d="M36.8718 118.452L37.005 115.169L35.2157 115.093L35.0825 118.376L36.8718 118.443V118.452ZM36.6624 123.677L36.7957 120.394L35.0063 120.327L34.8731 123.611L36.6624 123.687V123.677ZM36.453 128.902L36.5863 125.619L34.797 125.552L34.6637 128.836L36.453 128.902ZM36.2437 134.127L36.3769 130.844L34.5876 130.777L34.4543 134.061L36.2437 134.127ZM36.0343 139.352L36.1675 136.069L34.3782 135.993L34.2449 139.276L36.0343 139.352ZM35.8249 144.577L35.9581 141.294L34.1688 141.227L34.0356 144.511L35.8249 144.577ZM35.6155 149.802L35.7487 146.519L33.9594 146.452L33.8262 149.736L35.6155 149.802Z" fill="#53CCC4"/>
<path d="M41.4685 115.264L36.4718 105.766L30.7422 114.845L41.4685 115.264Z" fill="#53CCC4"/>
<path d="M142.365 147.394C139.186 142.331 140.718 135.641 145.781 132.462C150.845 129.283 157.536 130.815 160.715 135.878C163.893 140.942 162.361 147.632 157.298 150.811C152.234 153.99 145.544 152.458 142.365 147.394Z" fill="#53CCC4"/>
<path d="M133.218 110.752L131.467 107.964L129.944 108.916L131.696 111.704L133.218 110.752ZM135.998 115.178L134.246 112.389L132.723 113.341L134.475 116.12L135.998 115.168V115.178ZM138.777 119.603L137.025 116.815L135.503 117.767L137.254 120.555L138.777 119.603ZM141.556 124.029L139.805 121.24L138.282 122.192L140.033 124.981L141.556 124.029ZM144.335 128.455L142.584 125.666L141.061 126.618L142.812 129.406L144.335 128.455ZM147.114 132.88L145.363 130.101L143.84 131.053L145.591 133.832L147.114 132.88ZM149.893 137.306L148.142 134.517L146.619 135.469L148.37 138.257L149.893 137.306Z" fill="#53CCC4"/>
<path d="M135.207 105.527L125.727 100.512L126.117 111.238L135.207 105.527Z" fill="#53CCC4"/>
<path d="M160.936 106.899L161.668 103.692L159.917 103.292L159.184 106.499L160.936 106.899ZM159.765 112L160.498 108.793L158.747 108.393L158.014 111.601L159.765 112ZM158.604 117.102L159.337 113.894L157.585 113.494L156.853 116.702L158.604 117.102ZM157.433 122.203L158.166 118.995L156.415 118.596L155.682 121.803L157.433 122.203ZM156.272 127.304L157.005 124.097L155.254 123.697L154.521 126.904L156.272 127.304ZM155.101 132.405L155.834 129.198L154.083 128.798L153.35 132.006L155.101 132.405ZM153.94 137.507L154.673 134.299L152.922 133.899L152.189 137.107L153.94 137.507Z" fill="#53CCC4"/>
<path d="M166.034 104.606L162.874 94.3555L155.574 102.217L166.034 104.606Z" fill="#53CCC4"/>
<path d="M116.572 133.242L113.365 132.509L112.965 134.26L116.172 134.993L116.572 133.242ZM121.673 134.412L118.466 133.679L118.066 135.431L121.274 136.163L121.673 134.412ZM126.775 135.583L123.567 134.85L123.168 136.601L126.375 137.334L126.775 135.583ZM131.876 136.753L128.669 136.021L128.269 137.772L131.477 138.505L131.876 136.753ZM136.978 137.924L133.77 137.191L133.371 138.942L136.578 139.675L136.978 137.924ZM142.079 139.095L138.872 138.362L138.472 140.113L141.679 140.846L142.079 139.095ZM147.171 140.256L143.964 139.523L143.564 141.274L146.771 142.007L147.171 140.256Z" fill="#53CCC4"/>
<path d="M114.288 128.133L104.028 131.293L111.889 138.592L114.288 128.133Z" fill="#53CCC4"/>
</svg>
