<svg width="192" height="256" viewBox="0 0 192 256" fill="none" xmlns="http://www.w3.org/2000/svg">
<path d="M137.198 9.07129H55.2986C51.6927 9.07129 48.7695 11.9943 48.7695 15.6001V30.6755C48.7695 34.2812 51.6927 37.2043 55.2986 37.2043H137.198C140.803 37.2043 143.727 34.2812 143.727 30.6755V15.6001C143.727 11.9943 140.803 9.07129 137.198 9.07129Z" stroke="black" stroke-width="2" stroke-miterlimit="10"/>
<path d="M102.873 72.9507L69.748 106.074C68.2389 107.583 68.239 110.03 69.748 111.539L84.177 125.967C85.6861 127.476 88.1327 127.476 89.6418 125.967L122.767 92.8437C124.276 91.3348 124.276 88.8882 122.767 87.3792L108.338 72.9507C106.829 71.4417 104.382 71.4417 102.873 72.9507Z" stroke="black" stroke-width="2"/>
<path d="M102.868 146.135L69.7426 179.259C68.2336 180.768 68.2336 183.214 69.7426 184.723L84.1717 199.152C85.6807 200.661 88.1273 200.661 89.6364 199.152L122.761 166.028C124.27 164.519 124.27 162.073 122.761 160.564L108.332 146.135C106.823 144.626 104.377 144.626 102.868 146.135Z" stroke="black" stroke-width="2"/>
<path d="M16.9618 41.2383H12.7645C10.6304 41.2383 8.90039 42.9683 8.90039 45.1023V87.8538C8.90039 89.9878 10.6304 91.7178 12.7645 91.7178H16.9618C19.0959 91.7178 20.8259 89.9878 20.8259 87.8538V45.1023C20.8259 42.9683 19.0959 41.2383 16.9618 41.2383Z" stroke="black" stroke-width="2"/>
<path d="M16.9618 111.619H12.7645C10.6304 111.619 8.90039 113.349 8.90039 115.483V158.235C8.90039 160.369 10.6304 162.099 12.7645 162.099H16.9618C19.0959 162.099 20.8259 160.369 20.8259 158.235V115.483C20.8259 113.349 19.0959 111.619 16.9618 111.619Z" stroke="black" stroke-width="2"/>
<path d="M16.9618 182.009H12.7645C10.6304 182.009 8.90039 183.739 8.90039 185.873V228.624C8.90039 230.758 10.6304 232.488 12.7645 232.488H16.9618C19.0959 232.488 20.8259 230.758 20.8259 228.624V185.873C20.8259 183.739 19.0959 182.009 16.9618 182.009Z" stroke="black" stroke-width="2"/>
<path d="M179.74 41.2383H175.543C173.409 41.2383 171.679 42.9683 171.679 45.1023V87.8538C171.679 89.9878 173.409 91.7178 175.543 91.7178H179.74C181.874 91.7178 183.604 89.9878 183.604 87.8538V45.1023C183.604 42.9683 181.874 41.2383 179.74 41.2383Z" stroke="black" stroke-width="2"/>
<path d="M179.74 111.619H175.543C173.409 111.619 171.679 113.349 171.679 115.483V158.235C171.679 160.369 173.409 162.099 175.543 162.099H179.74C181.874 162.099 183.604 160.369 183.604 158.235V115.483C183.604 113.349 181.874 111.619 179.74 111.619Z" stroke="black" stroke-width="2"/>
<path d="M179.74 182.009H175.543C173.409 182.009 171.679 183.739 171.679 185.873V228.624C171.679 230.758 173.409 232.488 175.543 232.488H179.74C181.874 232.488 183.604 230.758 183.604 228.624V185.873C183.604 183.739 181.874 182.009 179.74 182.009Z" stroke="black" stroke-width="2"/>
<path d="M122.216 254.378H181.007C186.527 254.378 191 249.905 191 244.385V10.9931C191 5.47311 186.527 1 181.007 1H10.9935C5.47328 1 1 5.47311 1 10.9931V244.375C1 249.895 5.47328 254.368 10.9935 254.368H73.8192" stroke="black" stroke-width="2" stroke-miterlimit="10"/>
<path d="M89.666 20.9858H91.7504V12.6582H96.4236C97.5466 12.6582 98.4983 12.8105 99.2883 13.1245C100.078 13.4386 100.716 13.8479 101.211 14.3523C101.706 14.8567 102.067 15.4563 102.286 16.132C102.505 16.8077 102.629 17.512 102.629 18.2258C102.629 18.9396 102.515 19.6534 102.286 20.3101C102.058 20.9668 101.696 21.5378 101.211 22.0422C100.725 22.5466 100.078 22.9464 99.2883 23.2319C98.4983 23.5174 97.5466 23.6697 96.4236 23.6697H95.0149V25.5731H99.4311V28.1618H95.0149V30.2175H91.7504V28.1618H89.666V25.5731H91.7504V23.6697H89.666V20.9858ZM96.0904 20.9858C96.5377 20.9858 96.966 20.9477 97.3563 20.8716C97.7465 20.7955 98.0986 20.6622 98.3936 20.4624C98.6887 20.2625 98.9267 19.9865 99.098 19.6248C99.2693 19.2632 99.3454 18.7968 99.3454 18.2353C99.3454 17.6738 99.2598 17.1884 99.098 16.8077C98.9267 16.427 98.6982 16.1225 98.3936 15.8941C98.0891 15.6657 97.7465 15.5134 97.3563 15.4182C96.966 15.323 96.5377 15.2754 96.0904 15.2754H95.0149V20.9953H96.0904V20.9858Z" fill="#53CCC4"/>
</svg>
