<svg width="192" height="256" viewBox="0 0 192 256" fill="none" xmlns="http://www.w3.org/2000/svg">
<g id="Group">
<path id="Vector" d="M138.254 9.07129H54.2422C51.2197 9.07129 48.7695 11.5214 48.7695 14.5437V31.7319C48.7695 34.7542 51.2197 37.2043 54.2422 37.2043H138.254C141.277 37.2043 143.727 34.7542 143.727 31.7319V14.5437C143.727 11.5214 141.277 9.07129 138.254 9.07129Z" stroke="black" stroke-width="2"/>
<path id="Vector_2" d="M100.509 75.3022L72.0947 103.715C69.2847 106.525 69.2847 111.081 72.0947 113.89L81.8128 123.608C84.6227 126.418 89.1785 126.418 91.9885 123.608L120.402 95.1953C123.212 92.3854 123.212 87.8298 120.402 85.0199L110.684 75.3022C107.874 72.4924 103.319 72.4924 100.509 75.3022Z" stroke="black" stroke-width="2"/>
<path id="Vector_3" d="M100.506 148.487L72.0922 176.9C69.2823 179.709 69.2823 184.265 72.0922 187.075L81.8103 196.793C84.6203 199.603 89.1761 199.603 91.986 196.793L120.4 168.38C123.21 165.57 123.21 161.014 120.4 158.205L110.682 148.487C107.872 145.677 103.316 145.677 100.506 148.487Z" stroke="black" stroke-width="2"/>
<path id="Vector_4" d="M16.6953 41.2383H13.031C10.7497 41.2383 8.90039 43.0876 8.90039 45.3688V87.5873C8.90039 89.8685 10.7497 91.7178 13.031 91.7178H16.6953C18.9766 91.7178 20.826 89.8685 20.826 87.5873V45.3688C20.826 43.0876 18.9766 41.2383 16.6953 41.2383Z" stroke="black" stroke-width="2"/>
<path id="Vector_5" d="M16.6953 111.618H13.031C10.7497 111.618 8.90039 113.467 8.90039 115.749V157.967C8.90039 160.248 10.7497 162.098 13.031 162.098H16.6953C18.9766 162.098 20.826 160.248 20.826 157.967V115.749C20.826 113.467 18.9766 111.618 16.6953 111.618Z" stroke="black" stroke-width="2"/>
<path id="Vector_6" d="M16.6953 182.009H13.031C10.7497 182.009 8.90039 183.858 8.90039 186.139V228.358C8.90039 230.639 10.7497 232.488 13.031 232.488H16.6953C18.9766 232.488 20.826 230.639 20.826 228.358V186.139C20.826 183.858 18.9766 182.009 16.6953 182.009Z" stroke="black" stroke-width="2"/>
<path id="Vector_7" d="M179.474 41.2383H175.809C173.528 41.2383 171.679 43.0876 171.679 45.3688V87.5873C171.679 89.8685 173.528 91.7178 175.809 91.7178H179.474C181.755 91.7178 183.604 89.8685 183.604 87.5873V45.3688C183.604 43.0876 181.755 41.2383 179.474 41.2383Z" stroke="black" stroke-width="2"/>
<path id="Vector_8" d="M179.474 111.618H175.809C173.528 111.618 171.679 113.467 171.679 115.749V157.967C171.679 160.248 173.528 162.098 175.809 162.098H179.474C181.755 162.098 183.604 160.248 183.604 157.967V115.749C183.604 113.467 181.755 111.618 179.474 111.618Z" stroke="black" stroke-width="2"/>
<path id="Vector_9" d="M179.474 182.009H175.809C173.528 182.009 171.679 183.858 171.679 186.139V228.358C171.679 230.639 173.528 232.488 175.809 232.488H179.474C181.755 232.488 183.604 230.639 183.604 228.358V186.139C183.604 183.858 181.755 182.009 179.474 182.009Z" stroke="black" stroke-width="2"/>
<path id="Vector_10" d="M122.216 254.378H181.007C186.527 254.378 191 249.905 191 244.385V10.9931C191 5.47311 186.527 1 181.007 1H10.9935C5.47328 1 1 5.47311 1 10.9931V244.375C1 249.895 5.47328 254.368 10.9935 254.368H73.8192" stroke="black" stroke-width="2" stroke-miterlimit="10"/>
<path id="Vector_11" d="M89.6672 20.9848H91.7516V12.6572H96.4152C97.5383 12.6572 98.4901 12.8095 99.28 13.1236C100.07 13.4376 100.708 13.8469 101.203 14.3513C101.697 14.8652 102.059 15.4553 102.278 16.131C102.497 16.8067 102.621 17.511 102.621 18.2248C102.621 18.9386 102.506 19.6524 102.278 20.3091C102.05 20.9658 101.688 21.5368 101.203 22.0412C100.708 22.5457 100.07 22.9454 99.28 23.2309C98.4901 23.5164 97.5383 23.6687 96.4152 23.6687H95.0066V25.5721H99.4228V28.1608H95.0066V30.2166H91.7421V28.1608H89.6577V25.5721H91.7421V23.6687H89.6577V20.9848H89.6672ZM96.0916 20.9848C96.539 20.9848 96.9672 20.9468 97.3575 20.8706C97.7477 20.7945 98.0999 20.6612 98.3949 20.4614C98.6899 20.2615 98.9279 19.9855 99.0992 19.6239C99.2705 19.2622 99.3467 18.7959 99.3467 18.2343C99.3467 17.6728 99.261 17.1874 99.0992 16.8067C98.9279 16.4261 98.6995 16.1215 98.3949 15.8931C98.0903 15.6647 97.7477 15.5124 97.3575 15.4172C96.9672 15.3221 96.539 15.2745 96.0916 15.2745H95.0161V20.9943H96.0916V20.9848Z" fill="#53CCC4"/>
<path id="Vector_12" d="M86.9929 251.428C87.0405 251.305 88.3825 247.66 88.3825 242.121C88.3825 237.391 87.3926 231.252 83.7379 224.847C80.0831 218.442 73.792 211.808 63.3607 206.022C55.5467 201.672 50.8069 195.172 47.9326 188.129C45.0583 181.086 44.1065 173.53 43.9447 167.334L43.9067 165.764L40.7754 165.849L40.8135 167.42C40.9848 173.863 41.9556 181.772 45.0298 189.319C48.0944 196.847 53.3101 204.033 61.8379 208.772C71.8504 214.34 77.6656 220.555 81.0063 226.417C84.347 232.28 85.2417 237.828 85.2417 242.13C85.2417 244.652 84.9371 246.736 84.6325 248.174C84.4802 248.897 84.328 249.449 84.2233 249.82C84.1662 250.01 84.1186 250.144 84.09 250.229L84.0615 250.324V250.343L84.2328 250.41L83.5094 251.809L86.4504 252.904L86.9929 251.438V251.428Z" fill="#53CCC4"/>
<path id="Vector_13" d="M51.8156 170.559L43.2022 153.904L33.085 169.693L51.8156 170.559Z" fill="#53CCC4"/>
<path id="Vector_14" d="M46.0742 141.312C46.0742 141.312 46.0647 141.227 46.0362 141.046C45.8458 139.761 45.0654 133.927 45.0654 125.685C45.0654 111.428 47.4353 89.9955 59.0658 72.3885L59.9319 71.0752L57.3145 69.3525L56.4484 70.6564C44.2944 89.1008 41.9341 111.095 41.9341 125.685C41.9341 135.326 42.981 141.76 42.9905 141.817L43.238 143.368L46.3312 142.864L46.0837 141.312H46.0742Z" fill="#53CCC4"/>
<path id="Vector_15" d="M63.587 79.6036L66.271 61.0449L48.8633 67.9925L63.587 79.6036Z" fill="#53CCC4"/>
<path id="Vector_16" d="M90.884 134.327C90.7698 134.327 86.8675 134.374 81.5948 136.078C76.322 137.772 69.6502 141.151 64.1585 147.813L63.1592 149.022L65.5767 151.011L66.576 149.802C71.5918 143.711 77.6831 140.637 82.5561 139.066C84.9831 138.286 87.1055 137.886 88.5998 137.677C89.3516 137.572 89.9417 137.525 90.3415 137.496C90.5413 137.487 90.6936 137.477 90.7888 137.468H90.8935H90.9125L92.4829 137.449L92.4544 134.317L90.884 134.336V134.327Z" fill="#53CCC4"/>
<path id="Vector_17" d="M60.2205 142.846L59.5923 158.454L73.4309 151.202L60.2205 142.846Z" fill="#53CCC4"/>
<g id="Group_2">
<path id="Vector_18" d="M101.924 135.468C102.038 135.468 105.94 135.42 111.213 133.717C116.486 132.023 123.157 128.644 128.649 121.982L129.648 120.773L127.231 118.784L126.232 119.993C121.216 126.084 115.125 129.158 110.252 130.728C107.825 131.509 105.702 131.908 104.208 132.118C103.456 132.223 102.866 132.27 102.466 132.299C102.266 132.308 102.114 132.318 102.019 132.327H101.914H101.895L100.325 132.346L100.363 135.477L101.933 135.458L101.924 135.468Z" fill="#53CCC4"/>
<path id="Vector_19" d="M132.591 126.95L133.219 111.332L119.38 118.584L132.591 126.95Z" fill="#53CCC4"/>
</g>
<g id="Group_3">
<path id="Vector_20" d="M107.416 250.332C107.388 250.246 106.217 246.991 106.217 242.118C106.217 237.817 107.112 232.259 110.452 226.396C113.803 220.533 119.608 214.318 129.621 208.76C138.158 204.021 143.364 196.835 146.429 189.307C149.503 181.769 150.483 173.861 150.645 167.408L150.683 165.838L147.552 165.752L147.514 167.322C147.352 173.518 146.4 181.075 143.526 188.117C140.642 195.16 135.912 201.67 128.098 206.01C117.667 211.796 111.376 218.43 107.721 224.835C104.066 231.24 103.067 237.369 103.076 242.109C103.076 247.657 104.428 251.303 104.466 251.417L105.008 252.882L107.949 251.788L107.407 250.322L107.416 250.332Z" fill="#53CCC4"/>
<path id="Vector_21" d="M158.384 169.693L148.267 153.904L139.654 170.559L158.384 169.693Z" fill="#53CCC4"/>
</g>
<g id="Group_4">
<path id="Vector_22" d="M148.484 141.817C148.484 141.76 149.541 135.326 149.541 125.685C149.541 111.095 147.171 89.1104 135.026 70.6564L134.16 69.3525L131.543 71.0752L132.409 72.379C144.04 89.9955 146.419 111.419 146.409 125.676C146.409 130.387 146.152 134.308 145.896 137.049C145.772 138.419 145.639 139.495 145.543 140.218C145.496 140.58 145.458 140.856 145.429 141.046C145.401 141.227 145.391 141.312 145.391 141.312L145.144 142.854L148.237 143.359L148.484 141.807V141.817Z" fill="#53CCC4"/>
<path id="Vector_23" d="M142.611 67.9925L125.193 61.0449L127.877 79.6036L142.611 67.9925Z" fill="#53CCC4"/>
</g>
</g>
</svg>
