<svg width="266" height="357" viewBox="0 0 266 357" fill="none" xmlns="http://www.w3.org/2000/svg">
<path d="M191.71 13.1011H74.3182C70.667 13.1011 67.707 16.0609 67.707 19.712V45.1872C67.707 48.8383 70.667 51.7981 74.3182 51.7981H191.71C195.361 51.7981 198.321 48.8383 198.321 45.1872V19.712C198.321 16.0609 195.361 13.1011 191.71 13.1011Z" stroke="black" stroke-width="4"/>
<path d="M141.185 101.88L97.4541 145.609C94.8723 148.19 94.8723 152.376 97.4541 154.958L115.468 172.971C118.05 175.553 122.236 175.553 124.818 172.972L168.549 129.243C171.13 126.661 171.13 122.475 168.549 119.893L150.534 101.88C147.952 99.298 143.766 99.298 141.185 101.88Z" stroke="black" stroke-width="4"/>
<path d="M141.194 202.558L97.4639 246.287C94.882 248.869 94.882 253.055 97.4639 255.636L115.478 273.65C118.06 276.232 122.246 276.232 124.828 273.65L168.558 229.921C171.14 227.339 171.14 223.154 168.558 220.572L150.544 202.558C147.962 199.976 143.776 199.976 141.194 202.558Z" stroke="black" stroke-width="4"/>
<path d="M22.646 57.3489H19.4647C15.8135 57.3489 12.8535 60.3087 12.8535 63.9598V120.173C12.8535 123.824 15.8135 126.784 19.4647 126.784H22.646C26.2972 126.784 29.2572 123.824 29.2572 120.173V63.9598C29.2572 60.3087 26.2972 57.3489 22.646 57.3489Z" stroke="black" stroke-width="4"/>
<path d="M22.646 154.157H19.4647C15.8135 154.157 12.8535 157.117 12.8535 160.768V216.981C12.8535 220.632 15.8135 223.592 19.4647 223.592H22.646C26.2972 223.592 29.2572 220.632 29.2572 216.981V160.768C29.2572 157.117 26.2972 154.157 22.646 154.157Z" stroke="black" stroke-width="4"/>
<path d="M22.646 250.978H19.4647C15.8135 250.978 12.8535 253.938 12.8535 257.589V313.802C12.8535 317.453 15.8135 320.413 19.4647 320.413H22.646C26.2972 320.413 29.2572 317.453 29.2572 313.802V257.589C29.2572 253.938 26.2972 250.978 22.646 250.978Z" stroke="black" stroke-width="4"/>
<path d="M246.55 57.3489H243.369C239.718 57.3489 236.758 60.3087 236.758 63.9598V120.173C236.758 123.824 239.718 126.784 243.369 126.784H246.55C250.202 126.784 253.162 123.824 253.162 120.173V63.9598C253.162 60.3087 250.202 57.3489 246.55 57.3489Z" stroke="black" stroke-width="4"/>
<path d="M246.55 154.157H243.369C239.718 154.157 236.758 157.117 236.758 160.768V216.981C236.758 220.632 239.718 223.592 243.369 223.592H246.55C250.202 223.592 253.162 220.632 253.162 216.981V160.768C253.162 157.117 250.202 154.157 246.55 154.157Z" stroke="black" stroke-width="4"/>
<path d="M246.55 250.978H243.369C239.718 250.978 236.758 253.938 236.758 257.589V313.802C236.758 317.453 239.718 320.413 243.369 320.413H246.55C250.202 320.413 253.162 317.453 253.162 313.802V257.589C253.162 253.938 250.202 250.978 246.55 250.978Z" stroke="black" stroke-width="4"/>
<path d="M168.733 350.522H249.6C257.193 350.522 263.346 344.369 263.346 336.777V15.7456C263.346 8.15278 257.193 2 249.6 2H15.7461C8.15301 2 2 8.15278 2 15.7456V336.763C2 344.356 8.15301 350.509 15.7461 350.509H102.163" stroke="black" stroke-width="4" stroke-miterlimit="10"/>
<path d="M123.947 29.491H126.814V18.0364H133.242C134.787 18.0364 136.096 18.2458 137.183 18.6778C138.269 19.1098 139.147 19.6728 139.827 20.3666C140.508 21.0604 141.006 21.8851 141.307 22.8146C141.608 23.7441 141.778 24.7128 141.778 25.6946C141.778 26.6764 141.621 27.6583 141.307 28.5616C140.992 29.4648 140.495 30.2503 139.827 30.9441C139.16 31.6379 138.269 32.1878 137.183 32.5805C136.096 32.9732 134.787 33.1827 133.242 33.1827H131.305V35.8009H137.379V39.3616H131.305V42.1893H126.814V39.3616H123.947V35.8009H126.814V33.1827H123.947V29.491ZM132.784 29.491C133.399 29.491 133.988 29.4386 134.525 29.3339C135.062 29.2292 135.546 29.0459 135.952 28.771C136.358 28.4961 136.685 28.1165 136.921 27.619C137.157 27.1215 137.261 26.4801 137.261 25.7077C137.261 24.9353 137.143 24.2677 136.921 23.7441C136.685 23.2204 136.371 22.8015 135.952 22.4873C135.533 22.1731 135.062 21.9637 134.525 21.8328C133.988 21.7019 133.399 21.6364 132.784 21.6364H131.305V29.5041H132.784V29.491Z" fill="#53CCC4"/>
<path d="M118.096 341.83C118.096 333.609 124.772 326.932 132.994 326.932C141.215 326.932 147.892 333.609 147.892 341.83C147.892 350.051 141.215 356.727 132.994 356.727C124.772 356.727 118.096 350.051 118.096 341.83Z" fill="#53CCC4"/>
<path d="M134.224 287.934H131.75V292.45H134.224V287.934ZM134.224 295.134H131.75V299.664H134.224V295.134ZM134.224 302.321H131.75V306.838H134.224V302.321ZM134.224 309.508H131.75V314.038H134.224V309.508ZM134.224 316.695H131.75V321.225H134.224V316.695ZM134.224 323.882H131.75V328.411H134.224V323.882ZM134.224 331.069H131.75V335.598H134.224V331.069Z" fill="#53CCC4"/>
<path d="M140.377 287.829L132.993 275.039L125.609 287.829H140.377Z" fill="#53CCC4"/>
<path d="M169.336 308.225L172.53 305.031L170.789 303.29L167.594 306.484L169.336 308.225ZM164.243 313.318L167.437 310.123L165.696 308.382L162.502 311.576L164.243 313.318ZM159.164 318.397L162.358 315.203L160.617 313.462L157.422 316.656L159.164 318.397ZM154.071 323.489L157.265 320.295L155.524 318.554L152.33 321.748L154.071 323.489ZM148.991 328.569L152.186 325.374L150.445 323.633L147.25 326.827L148.991 328.569ZM143.912 333.648L147.106 330.454L145.365 328.713L142.171 331.907L143.912 333.648ZM138.819 338.74L142.014 335.546L140.272 333.805L137.078 336.999L138.819 338.74Z" fill="#53CCC4"/>
<path d="M176.955 309.299L180.778 295.042L166.521 298.852L176.955 309.299Z" fill="#53CCC4"/>
<path d="M98.3925 306.484L95.1981 303.29L93.457 305.031L96.6514 308.225L98.3925 306.484ZM103.485 311.576L100.291 308.382L98.5496 310.123L101.744 313.318L103.485 311.576ZM108.565 316.656L105.37 313.462L103.629 315.203L106.823 318.397L108.565 316.656ZM113.657 321.748L110.463 318.554L108.722 320.295L111.916 323.489L113.657 321.748ZM118.75 326.827L115.555 323.633L113.814 325.374L117.009 328.569L118.75 326.827ZM123.829 331.907L120.635 328.713L118.894 330.454L122.088 333.648L123.829 331.907ZM128.922 336.999L125.728 333.805L123.986 335.546L127.181 338.74L128.922 336.999Z" fill="#53CCC4"/>
<path d="M99.4657 298.852L85.209 295.029L89.0318 309.299L99.4657 298.852Z" fill="#53CCC4"/>
<path d="M38.7478 202.018C44.7961 196.428 54.222 196.807 59.7989 202.842C65.389 208.891 65.0093 218.316 58.9611 223.893C52.9128 229.483 43.4869 229.103 37.91 223.068C32.3199 217.02 32.6995 207.594 38.7347 202.018" fill="#53CCC4"/>
<path d="M85.9556 180.365L89.2809 177.302L87.6051 175.495L84.2799 178.558L85.9556 180.365ZM80.6667 185.248L83.9919 182.185L82.3162 180.378L78.991 183.441L80.6667 185.248ZM75.3908 190.131L78.716 187.068L77.0403 185.261L73.7151 188.324L75.3908 190.131ZM70.1018 195.014L73.4271 191.937L71.7514 190.131L68.4261 193.194L70.1018 195.014ZM64.8128 199.897L68.1381 196.82L66.4624 195.014L63.1371 198.077L64.8128 199.884V199.897ZM59.537 204.78L62.8622 201.716L61.1865 199.91L57.8612 202.973L59.537 204.78ZM54.248 209.663L57.5732 206.599L55.8975 204.793L52.5723 207.856L54.248 209.663Z" fill="#53CCC4"/>
<path d="M93.5228 181.727L97.9085 167.641L83.5078 170.887L93.5228 181.727Z" fill="#53CCC4"/>
<path d="M98.2093 216.837L102.726 217.02L102.818 214.559L98.301 214.375L98.2093 216.837ZM91.0221 216.549L95.5387 216.732L95.6303 214.271L91.1137 214.087L91.009 216.549H91.0221ZM83.8349 216.261L88.3515 216.444L88.4431 213.983L83.9265 213.799L83.8349 216.261ZM76.6476 215.973L81.1642 216.156L81.2559 213.695L76.7393 213.511L76.6476 215.973ZM69.4604 215.685L73.977 215.868L74.0817 213.407L69.5651 213.223L69.4735 215.685H69.4604ZM62.2732 215.397L66.7897 215.58L66.8814 213.119L62.3648 212.935L62.2732 215.397ZM55.0859 215.109L59.6025 215.292L59.6941 212.831L55.1776 212.647L55.0859 215.109Z" fill="#53CCC4"/>
<path d="M102.596 223.173L115.661 216.3L103.172 208.419L102.596 223.173Z" fill="#53CCC4"/>
<path d="M51.3416 163.556L51.5249 159.04L49.0637 158.935L48.8804 163.451L51.3416 163.543V163.556ZM51.0536 170.743L51.2369 166.227L48.7757 166.135L48.5924 170.652L51.0536 170.756V170.743ZM50.7656 177.93L50.9489 173.414L48.4877 173.322L48.3044 177.838L50.7656 177.93ZM50.4776 185.117L50.6609 180.601L48.1996 180.509L48.0164 185.025L50.4776 185.117ZM50.1896 192.304L50.3728 187.788L47.9116 187.683L47.7284 192.199L50.1896 192.304ZM49.9016 199.491L50.0848 194.975L47.6236 194.883L47.4404 199.399L49.9016 199.491ZM49.6136 206.678L49.7968 202.162L47.3356 202.07L47.1523 206.586L49.6136 206.678Z" fill="#53CCC4"/>
<path d="M57.6643 159.171L50.7912 146.106L42.9102 158.595L57.6643 159.171Z" fill="#53CCC4"/>
<path d="M196.447 203.366C192.075 196.402 194.183 187.199 201.147 182.826C208.112 178.454 217.315 180.561 221.688 187.526C226.06 194.49 223.953 203.693 216.988 208.066C210.023 212.438 200.82 210.33 196.447 203.366Z" fill="#53CCC4"/>
<path d="M183.867 152.966L181.458 149.13L179.363 150.439L181.772 154.275L183.867 152.966ZM187.689 159.053L185.281 155.217L183.186 156.526L185.595 160.349L187.689 159.04V159.053ZM191.512 165.14L189.103 161.305L187.009 162.614L189.418 166.449L191.512 165.14ZM195.335 171.228L192.926 167.392L190.831 168.701L193.24 172.537L195.335 171.228ZM199.158 177.315L196.749 173.479L194.654 174.788L197.063 178.624L199.158 177.315ZM202.98 183.402L200.571 179.58L198.477 180.889L200.886 184.711L202.98 183.402ZM206.803 189.489L204.394 185.654L202.3 186.963L204.708 190.799L206.803 189.489Z" fill="#53CCC4"/>
<path d="M186.604 145.779L173.564 138.88L174.101 153.633L186.604 145.779Z" fill="#53CCC4"/>
<path d="M221.99 147.664L222.998 143.252L220.589 142.702L219.581 147.114L221.99 147.664ZM220.38 154.68L221.388 150.269L218.979 149.719L217.971 154.131L220.38 154.68ZM218.783 161.697L219.791 157.286L217.382 156.736L216.374 161.147L218.783 161.697ZM217.172 168.714L218.18 164.302L215.772 163.752L214.764 168.164L217.172 168.714ZM215.575 175.731L216.583 171.319L214.174 170.769L213.166 175.181L215.575 175.731ZM213.965 182.748L214.973 178.336L212.564 177.786L211.556 182.198L213.965 182.748ZM212.368 189.764L213.376 185.353L210.967 184.803L209.959 189.215L212.368 189.764Z" fill="#53CCC4"/>
<path d="M229.007 144.509L224.66 130.41L214.619 141.223L229.007 144.509Z" fill="#53CCC4"/>
<path d="M160.969 183.9L156.558 182.892L156.008 185.3L160.42 186.308L160.969 183.9ZM167.987 185.51L163.575 184.502L163.025 186.911L167.437 187.919L167.987 185.51ZM175.004 187.12L170.592 186.112L170.042 188.521L174.454 189.529L175.004 187.12ZM182.021 188.73L177.609 187.722L177.059 190.131L181.471 191.139L182.021 188.73ZM189.038 190.34L184.626 189.332L184.076 191.741L188.488 192.749L189.038 190.34ZM196.055 191.951L191.643 190.943L191.093 193.351L195.505 194.359L196.055 191.951ZM203.059 193.548L198.647 192.54L198.097 194.948L202.509 195.956L203.059 193.548Z" fill="#53CCC4"/>
<path d="M157.828 176.87L143.715 181.216L154.528 191.257L157.828 176.87Z" fill="#53CCC4"/>
</svg>
