<svg width="191" height="255" viewBox="0 0 191 255" fill="none" xmlns="http://www.w3.org/2000/svg">
<g id="Group">
<g id="Group_2">
<g id="Group_3">
<path id="Vector" d="M122.17 89.1357C122.312 90.9344 121.697 92.7804 120.324 94.1626L90.9763 123.509C88.477 126.008 84.4346 126.008 81.9353 123.509L71.1807 112.755C68.6814 110.256 68.6814 106.214 71.1807 103.714L85.7599 89.1357H67.9619V164.907H82.7873L100.529 147.167C103.028 144.667 107.07 144.667 109.57 147.167L120.324 157.921C122.218 159.814 122.672 162.588 121.697 164.907H123.032V89.1357H122.17Z" fill="#53CCC4"/>
<path id="Vector_2" d="M119.736 167.546L90.9851 196.296C88.4858 198.795 84.4434 198.795 81.9441 196.296L71.1895 185.542C68.6902 183.043 68.6902 179 71.1895 176.501L80.1548 167.536H67.9707V243.307H123.031V167.536H119.727L119.736 167.546Z" fill="#53CCC4"/>
<path id="Vector_3" d="M67.9707 37.0107V86.4837H88.4195L100.537 74.3663C103.037 71.8671 107.079 71.8671 109.578 74.3663L120.333 85.1204C120.749 85.537 121.09 86.0008 121.365 86.4931H123.04V37.0202H67.9802L67.9707 37.0107Z" fill="#53CCC4"/>
</g>
<g id="Group_4">
<path id="Vector_4" d="M19.6964 89.1348C18.7497 90.4033 17.2349 91.2364 15.5309 91.2364H9.31104V111.041H20.7378L22.3319 154.995C22.3319 158.45 19.5296 161.243 16.0836 161.243L9.31104 161.243V164.906H64.3713V89.1348H19.6964Z" fill="#53CCC4"/>
<path id="Vector_5" d="M170.245 10.7119H141.143C142.279 11.8006 142.979 13.3342 142.979 15.0287V30.999C142.979 34.3218 140.291 37.0104 136.968 37.0104H126.63V86.4833H168.644V44.0441C168.644 42.378 169.998 41.0242 171.664 41.0242L181.69 41.0242V22.1666C181.69 15.8429 176.559 10.7119 170.235 10.7119H170.245Z" fill="#53CCC4"/>
<path id="Vector_6" d="M54.5369 37.0104C51.214 37.0104 48.5254 34.3218 48.5254 30.999V15.0287C48.5254 13.3342 49.2354 11.8006 50.362 10.7119H20.7491C14.4251 10.7119 9.29395 15.8429 9.29395 22.1666V41.0242L16.9096 41.0242C19.8727 41.0242 22.2774 43.4288 22.2774 46.3919L21.61 84.8838V86.4833H64.3542V37.0104H54.5275H54.5369Z" fill="#53CCC4"/>
<path id="Vector_7" d="M181.7 161.241H173.472C170.755 161.241 168.558 159.045 168.558 156.328V115.943C168.558 113.226 170.755 111.03 173.472 111.03H181.7V91.2256H173.937C172.564 91.2256 171.409 90.3452 170.973 89.124H126.63V164.895H181.69V161.232L181.7 161.241Z" fill="#53CCC4"/>
<path id="Vector_8" d="M172.96 231.247C170.243 231.247 168.047 229.051 168.047 226.334V185.949C168.047 183.232 170.243 181.036 172.96 181.036H181.698V167.546H126.638V243.317H170.253C176.577 243.317 181.708 238.186 181.708 231.863V231.247H175.706H172.96Z" fill="#53CCC4"/>
<path id="Vector_9" d="M9.30518 167.546V181.036H17.9152C20.5565 181.036 22.696 183.175 22.696 185.817V226.031C22.696 228.909 20.3577 231.247 17.4797 231.247H9.30518V231.863C9.30518 238.186 14.4363 243.317 20.7603 243.317H64.375V167.546H9.30518Z" fill="#53CCC4"/>
</g>
</g>
<path id="Vector_10" d="M100.537 74.3618L71.1895 103.708C68.6939 106.204 68.6939 110.25 71.1895 112.745L81.9404 123.495C84.4359 125.991 88.482 125.991 90.9776 123.495L120.325 94.1492C122.821 91.6537 122.821 87.6078 120.325 85.1123L109.574 74.3618C107.079 71.8664 103.032 71.8664 100.537 74.3618Z" stroke="black" stroke-width="2"/>
<path id="Vector_11" d="M100.531 147.167L71.1831 176.513C68.6876 179.008 68.6876 183.054 71.1831 185.55L81.934 196.3C84.4296 198.796 88.4757 198.796 90.9712 196.3L120.319 166.954C122.814 164.458 122.814 160.412 120.319 157.917L109.568 147.167C107.072 144.671 103.026 144.671 100.531 147.167Z" stroke="black" stroke-width="2"/>
<path id="Vector_12" d="M136.965 9.02832H54.5355C51.2154 9.02832 48.5239 11.7197 48.5239 15.0397V31.0005C48.5239 34.3205 51.2154 37.0118 54.5355 37.0118H136.965C140.285 37.0118 142.977 34.3205 142.977 31.0005V15.0397C142.977 11.7197 140.285 9.02832 136.965 9.02832Z" stroke="black" stroke-width="2"/>
<path id="Vector_13" d="M10.3135 41.0234H17.9439C20.2823 41.0234 22.1757 42.9168 22.1757 45.255V87.0031C22.1757 89.3414 20.2823 91.2347 17.9439 91.2347H10.3135V41.0234Z" stroke="black" stroke-width="2"/>
<path id="Vector_14" d="M10.3135 111.03H17.9439C20.2823 111.03 22.1757 112.924 22.1757 115.262V155.779C22.1757 158.799 19.7332 161.242 16.7132 161.242H10.3135V111.03Z" stroke="black" stroke-width="2"/>
<path id="Vector_15" d="M10.3135 181.048H17.9439C20.2823 181.048 22.1757 182.941 22.1757 185.279V227.028C22.1757 229.366 20.2823 231.259 17.9439 231.259H10.3135V181.048Z" stroke="black" stroke-width="2"/>
<path id="Vector_16" d="M172.843 41.0234H180.474V91.2347H172.843C170.505 91.2347 168.611 89.3414 168.611 87.0031V45.255C168.611 42.9168 170.505 41.0234 172.843 41.0234Z" stroke="black" stroke-width="2"/>
<path id="Vector_17" d="M172.843 111.03H180.474V161.242H172.843C170.505 161.242 168.611 159.348 168.611 157.01V115.262C168.611 112.924 170.505 111.03 172.843 111.03Z" stroke="black" stroke-width="2"/>
<path id="Vector_18" d="M173.001 181.048H180.631V231.259H173.001C170.662 231.259 168.769 229.366 168.769 227.028V185.279C168.769 182.941 170.662 181.048 173.001 181.048Z" stroke="black" stroke-width="2"/>
<path id="Vector_19" d="M121.582 253.032H178.545C184.869 253.032 190 247.901 190 241.577V12.4547C190 6.13094 184.869 1 178.545 1H12.4551C6.13114 1 1 6.13094 1 12.4547V241.586C1 247.91 6.13114 253.041 12.4551 253.041H73.4418" stroke="black" stroke-width="2" stroke-miterlimit="10"/>
<path id="Vector_20" d="M89.2048 20.8791H91.2781V12.5957H95.9169C97.034 12.5957 97.9807 12.7472 98.7665 13.0596C99.5522 13.372 100.187 13.779 100.679 14.2808C101.171 14.792 101.531 15.3789 101.749 16.051C101.966 16.7232 102.089 17.4237 102.089 18.1337C102.089 18.8437 101.976 19.5537 101.749 20.2069C101.521 20.8601 101.162 21.4281 100.679 21.9299C100.187 22.4316 99.5522 22.8292 98.7665 23.1132C97.9807 23.3972 97.034 23.5487 95.9169 23.5487H94.5158V25.442H98.9085V28.0169H94.5158V30.0617H91.2686V28.0169H89.1953V25.442H91.2686V23.5487H89.1953V20.8791H89.2048ZM95.595 20.8791C96.04 20.8791 96.466 20.8412 96.8541 20.7655C97.2423 20.6897 97.5926 20.5572 97.886 20.3584C98.1795 20.1596 98.4162 19.8851 98.5866 19.5253C98.757 19.1656 98.8328 18.7017 98.8328 18.1432C98.8328 17.5846 98.7476 17.1018 98.5866 16.7232C98.4162 16.3445 98.189 16.0416 97.886 15.8144C97.5831 15.5872 97.2423 15.4357 96.8541 15.341C96.466 15.2464 96.04 15.199 95.595 15.199H94.5253V20.8885H95.595V20.8791Z" fill="#53CCC4"/>
</g>
</svg>
