<svg width="190" height="247" viewBox="0 0 190 247" fill="none" xmlns="http://www.w3.org/2000/svg">
<path d="M125.008 230.215H169C180.046 230.215 189 221.261 189 210.215V21C189 9.9543 180.046 1 169 1H21C9.95431 1 1 9.95432 1 21V210.215C1 221.261 9.95429 230.215 21 230.215H65.3538" stroke="black" stroke-width="2"/>
<rect x="50.4458" y="61.291" width="89.1077" height="29.0923" rx="4" stroke="black" stroke-width="2"/>
<circle cx="95" cy="37.8764" r="14.9077" stroke="black" stroke-width="2"/>
<circle cx="94.9995" cy="131.875" r="14.9077" stroke="#53CCC4" stroke-width="2"/>
<path d="M102.226 129.191C102.226 127.394 101.72 126.064 100.702 125.21C99.6845 124.352 98.3247 123.923 96.6176 123.923H89.2153V140.554H92.7453V138.219H97.5868V136.148H92.7453V134.573H96.3572C98.2427 134.573 99.6894 134.167 100.707 133.356C101.72 132.545 102.231 131.158 102.231 129.191H102.226ZM98.016 131.111C97.5483 131.512 96.8924 131.71 96.0534 131.71H92.7404V126.814H96.0534C96.8924 126.814 97.5434 126.998 98.0064 127.366C98.4693 127.734 98.7056 128.352 98.7056 129.215C98.7056 130.078 98.4741 130.71 98.0112 131.111H98.016Z" fill="#53CCC4"/>
<circle cx="94.9995" cy="181.045" r="14.9077" stroke="#53CCC4" stroke-width="2"/>
<path d="M102.226 178.359C102.226 176.562 101.72 175.232 100.702 174.378C99.6845 173.52 98.3247 173.091 96.6176 173.091H89.2153V189.722H92.7453V187.387H97.5868V185.316H92.7453V183.741H96.3572C98.2427 183.741 99.6894 183.335 100.707 182.524C101.72 181.713 102.231 180.326 102.231 178.359H102.226ZM98.016 180.279C97.5483 180.68 96.8924 180.878 96.0534 180.878H92.7404V175.982H96.0534C96.8924 175.982 97.5434 176.166 98.0064 176.534C98.4693 176.902 98.7056 177.52 98.7056 178.383C98.7056 179.246 98.4741 179.878 98.0112 180.279H98.016Z" fill="#53CCC4"/>
<circle cx="94.9995" cy="230.215" r="14.9077" stroke="#53CCC4" stroke-width="2"/>
<path d="M102.226 227.529C102.226 225.732 101.72 224.402 100.702 223.548C99.6845 222.69 98.3247 222.261 96.6176 222.261H89.2153V238.892H92.7453V236.557H97.5868V234.486H92.7453V232.911H96.3572C98.2427 232.911 99.6894 232.505 100.707 231.694C101.72 230.883 102.231 229.496 102.231 227.529H102.226ZM98.016 229.449C97.5483 229.85 96.8924 230.048 96.0534 230.048H92.7404V225.152H96.0534C96.8924 225.152 97.5434 225.336 98.0064 225.704C98.4693 226.072 98.7056 226.69 98.7056 227.553C98.7056 228.416 98.4741 229.048 98.0112 229.449H98.016Z" fill="#53CCC4"/>
</svg>
