<svg width="260" height="317" viewBox="0 0 260 317" fill="none" xmlns="http://www.w3.org/2000/svg">
<rect x="2" y="2" width="256" height="313" rx="18" stroke="black" stroke-width="4"/>
<rect x="21" y="120" width="220" height="175" rx="18" stroke="black" stroke-width="4"/>
<line x1="67" y1="120" x2="67" y2="294" stroke="black" stroke-width="4"/>
<line x1="110" y1="120" x2="110" y2="294" stroke="black" stroke-width="4"/>
<line x1="153" y1="120" x2="153" y2="294" stroke="black" stroke-width="4"/>
<line x1="196" y1="120" x2="196" y2="294" stroke="black" stroke-width="4"/>
<line x1="21" y1="158" x2="240" y2="158" stroke="black" stroke-width="4"/>
<line x1="21" y1="192" x2="240" y2="192" stroke="black" stroke-width="4"/>
<line x1="21" y1="226" x2="240" y2="226" stroke="black" stroke-width="4"/>
<line x1="21" y1="261" x2="240" y2="261" stroke="black" stroke-width="4"/>
<line x1="122.414" y1="269.586" x2="138.414" y2="285.586" stroke="#53CCC4" stroke-width="4"/>
<line x1="122.586" y1="285.586" x2="138.586" y2="269.586" stroke="#53CCC4" stroke-width="4"/>
<line x1="122.414" y1="167.586" x2="138.414" y2="183.586" stroke="#53CCC4" stroke-width="4"/>
<line x1="122.586" y1="183.586" x2="138.586" y2="167.586" stroke="#53CCC4" stroke-width="4"/>
<line x1="210.414" y1="269.586" x2="226.414" y2="285.586" stroke="#53CCC4" stroke-width="4"/>
<line x1="210.586" y1="285.586" x2="226.586" y2="269.586" stroke="#53CCC4" stroke-width="4"/>
<line x1="210.414" y1="167.586" x2="226.414" y2="183.586" stroke="#53CCC4" stroke-width="4"/>
<line x1="210.586" y1="183.586" x2="226.586" y2="167.586" stroke="#53CCC4" stroke-width="4"/>
<line x1="80.4142" y1="236.586" x2="96.4142" y2="252.586" stroke="#53CCC4" stroke-width="4"/>
<line x1="80.5858" y1="252.586" x2="96.5858" y2="236.586" stroke="#53CCC4" stroke-width="4"/>
<line x1="36.4142" y1="131.586" x2="52.4142" y2="147.586" stroke="#53CCC4" stroke-width="4"/>
<line x1="36.5858" y1="147.586" x2="52.5858" y2="131.586" stroke="#53CCC4" stroke-width="4"/>
<path d="M44.64 69H39.64V58.04H34.2L26.68 69H20.68L28.72 57.72C27.3867 57.4 26.3067 56.9333 25.48 56.32C24.6533 55.68 24 54.9733 23.52 54.2C23.0667 53.4 22.7467 52.5733 22.56 51.72C22.4 50.8667 22.32 50.0533 22.32 49.28C22.32 48.4 22.44 47.44 22.68 46.4C22.9467 45.36 23.4267 44.4 24.12 43.52C24.8133 42.64 25.7867 41.9067 27.04 41.32C28.32 40.7333 29.9867 40.44 32.04 40.44H44.64V69ZM39.64 44.52H32.24C31.5733 44.52 30.9467 44.5867 30.36 44.72C29.7733 44.8533 29.2533 45.1067 28.8 45.48C28.3467 45.8267 27.9867 46.3067 27.72 46.92C27.4533 47.5333 27.32 48.3067 27.32 49.24C27.32 50.1467 27.4667 50.9067 27.76 51.52C28.08 52.1067 28.48 52.5867 28.96 52.96C29.4667 53.3067 30.0133 53.56 30.6 53.72C31.1867 53.88 31.76 53.96 32.32 53.96H39.64V44.52ZM49.1997 48.32H53.7597V56.88H64.0397V48.32H68.5997V69H64.0397V60.28H53.7597V69H49.1997V48.32ZM77.2128 56.76H82.0928C82.9728 56.76 83.6928 56.5467 84.2528 56.12C84.8395 55.6667 85.1328 55.04 85.1328 54.24C85.1328 53.3067 84.8661 52.6533 84.3328 52.28C83.8261 51.9067 83.0795 51.72 82.0928 51.72H77.2128V56.76ZM72.6528 48.32H83.5328C85.3995 48.32 86.8928 48.7467 88.0128 49.6C89.1328 50.4267 89.6928 51.7067 89.6928 53.44C89.6928 54.48 89.4261 55.3733 88.8928 56.12C88.3861 56.8667 87.6661 57.44 86.7328 57.84V57.92C88.0128 58.1867 88.9728 58.7867 89.6128 59.72C90.2795 60.6533 90.6128 61.8267 90.6128 63.24C90.6128 64.04 90.4661 64.8 90.1728 65.52C89.8795 66.2133 89.4261 66.8267 88.8128 67.36C88.1995 67.8667 87.4128 68.2667 86.4528 68.56C85.4928 68.8533 84.3461 69 83.0128 69H72.6528V48.32ZM77.2128 65.6H82.6128C83.7328 65.6 84.5861 65.3467 85.1728 64.84C85.7595 64.3067 86.0528 63.5733 86.0528 62.64C86.0528 61.7067 85.7595 61 85.1728 60.52C84.5861 60.0133 83.7328 59.76 82.6128 59.76H77.2128V65.6ZM110.767 64.4C110.767 64.96 110.834 65.36 110.967 65.6C111.127 65.84 111.42 65.96 111.847 65.96H112.327C112.514 65.96 112.727 65.9333 112.967 65.88V69.04C112.807 69.0933 112.594 69.1467 112.327 69.2C112.087 69.28 111.834 69.3467 111.567 69.4C111.3 69.4533 111.034 69.4933 110.767 69.52C110.5 69.5467 110.274 69.56 110.087 69.56C109.154 69.56 108.38 69.3733 107.767 69C107.154 68.6267 106.754 67.9733 106.567 67.04C105.66 67.92 104.54 68.56 103.207 68.96C101.9 69.36 100.634 69.56 99.4069 69.56C98.4735 69.56 97.5802 69.4267 96.7269 69.16C95.8735 68.92 95.1135 68.56 94.4469 68.08C93.8069 67.5733 93.2869 66.9467 92.8869 66.2C92.5135 65.4267 92.3269 64.5333 92.3269 63.52C92.3269 62.24 92.5535 61.2 93.0069 60.4C93.4869 59.6 94.1002 58.9733 94.8469 58.52C95.6202 58.0667 96.4735 57.7467 97.4069 57.56C98.3669 57.3467 99.3269 57.1867 100.287 57.08C101.114 56.92 101.9 56.8133 102.647 56.76C103.394 56.68 104.047 56.56 104.607 56.4C105.194 56.24 105.647 56 105.967 55.68C106.314 55.3333 106.487 54.8267 106.487 54.16C106.487 53.5733 106.34 53.0933 106.047 52.72C105.78 52.3467 105.434 52.0667 105.007 51.88C104.607 51.6667 104.154 51.5333 103.647 51.48C103.14 51.4 102.66 51.36 102.207 51.36C100.927 51.36 99.8735 51.6267 99.0469 52.16C98.2202 52.6933 97.7535 53.52 97.6469 54.64H93.0869C93.1669 53.3067 93.4869 52.2 94.0469 51.32C94.6069 50.44 95.3135 49.7333 96.1669 49.2C97.0469 48.6667 98.0335 48.2933 99.1269 48.08C100.22 47.8667 101.34 47.76 102.487 47.76C103.5 47.76 104.5 47.8667 105.487 48.08C106.474 48.2933 107.354 48.64 108.127 49.12C108.927 49.6 109.567 50.2267 110.047 51C110.527 51.7467 110.767 52.6667 110.767 53.76V64.4ZM106.207 58.64C105.514 59.0933 104.66 59.3733 103.647 59.48C102.634 59.56 101.62 59.6933 100.607 59.88C100.127 59.96 99.6602 60.08 99.2069 60.24C98.7535 60.3733 98.3535 60.5733 98.0069 60.84C97.6602 61.08 97.3802 61.4133 97.1669 61.84C96.9802 62.24 96.8869 62.7333 96.8869 63.32C96.8869 63.8267 97.0335 64.2533 97.3269 64.6C97.6202 64.9467 97.9669 65.2267 98.3669 65.44C98.7935 65.6267 99.2469 65.76 99.7269 65.84C100.234 65.92 100.687 65.96 101.087 65.96C101.594 65.96 102.14 65.8933 102.727 65.76C103.314 65.6267 103.86 65.4 104.367 65.08C104.9 64.76 105.34 64.36 105.687 63.88C106.034 63.3733 106.207 62.76 106.207 62.04V58.64ZM114.793 48.32H119.113V51.12H119.193C119.833 49.92 120.727 49.0667 121.873 48.56C123.02 48.0267 124.26 47.76 125.593 47.76C127.22 47.76 128.633 48.0533 129.833 48.64C131.06 49.2 132.073 49.9867 132.873 51C133.673 51.9867 134.273 53.1467 134.673 54.48C135.073 55.8133 135.273 57.24 135.273 58.76C135.273 60.1467 135.087 61.4933 134.713 62.8C134.367 64.1067 133.82 65.2667 133.073 66.28C132.353 67.2667 131.433 68.0667 130.313 68.68C129.193 69.2667 127.873 69.56 126.353 69.56C125.687 69.56 125.02 69.4933 124.353 69.36C123.687 69.2533 123.047 69.0667 122.433 68.8C121.82 68.5333 121.247 68.2 120.713 67.8C120.207 67.3733 119.78 66.88 119.433 66.32H119.353V76.64H114.793V48.32ZM130.713 58.68C130.713 57.7467 130.593 56.84 130.353 55.96C130.113 55.08 129.753 54.3067 129.273 53.64C128.793 52.9467 128.193 52.4 127.473 52C126.753 51.5733 125.927 51.36 124.993 51.36C123.073 51.36 121.62 52.0267 120.633 53.36C119.673 54.6933 119.193 56.4667 119.193 58.68C119.193 59.72 119.313 60.6933 119.553 61.6C119.82 62.48 120.207 63.24 120.713 63.88C121.22 64.52 121.82 65.0267 122.513 65.4C123.233 65.7733 124.06 65.96 124.993 65.96C126.033 65.96 126.913 65.7467 127.633 65.32C128.353 64.8933 128.94 64.3467 129.393 63.68C129.873 62.9867 130.207 62.2133 130.393 61.36C130.607 60.48 130.713 59.5867 130.713 58.68ZM142.807 65.6H148.687C149.487 65.6 150.18 65.36 150.767 64.88C151.353 64.4 151.647 63.6267 151.647 62.56C151.647 61.4933 151.353 60.76 150.767 60.36C150.18 59.96 149.487 59.76 148.687 59.76H142.807V65.6ZM138.247 48.32H142.807V56.24H148.887C150.433 56.24 151.673 56.4533 152.607 56.88C153.567 57.3067 154.313 57.84 154.847 58.48C155.38 59.0933 155.74 59.7733 155.927 60.52C156.113 61.2667 156.207 61.96 156.207 62.6C156.207 63.24 156.113 63.9333 155.927 64.68C155.74 65.4267 155.38 66.12 154.847 66.76C154.313 67.4 153.567 67.9333 152.607 68.36C151.673 68.7867 150.433 69 148.887 69H138.247V48.32Z" fill="#53CCC4"/>
</svg>
