<svg width="190" height="232" viewBox="0 0 190 232" fill="none" xmlns="http://www.w3.org/2000/svg">
<path d="M125.008 230.215H169C180.046 230.215 189 221.261 189 210.215V21C189 9.9543 180.046 1 169 1H21C9.95431 1 1 9.95432 1 21V210.215C1 221.261 9.95429 230.215 21 230.215H65.3538" stroke="black" stroke-width="2"/>
<rect x="50.4458" y="61.291" width="89.1077" height="29.0923" rx="4" stroke="black" stroke-width="2"/>
<circle cx="95" cy="37.8764" r="14.9077" stroke="black" stroke-width="2"/>
<circle cx="95" cy="131.876" r="14.9077" stroke="black" stroke-width="2"/>
<g clip-path="url(#clip0_979_468)">
<path d="M70.5425 56.6762C70.5425 53.5366 69.6829 51.2128 67.9555 49.7213C66.2281 48.2216 63.9194 47.4717 61.0213 47.4717H48.4546V76.5274H54.4473V72.4484H62.6668V68.8309H54.4473V66.0786H60.5792C63.7802 66.0786 66.2363 65.3699 67.9637 63.9525C69.6829 62.5352 70.5507 60.1125 70.5507 56.6762H70.5425ZM63.3955 60.0301C62.6013 60.7305 61.4879 61.0766 60.0634 61.0766H54.4391V52.5231H60.0634C61.4879 52.5231 62.5932 52.8444 63.3791 53.4872C64.165 54.1299 64.5662 55.2094 64.5662 56.7174C64.5662 58.2254 64.1732 59.3297 63.3873 60.0301H63.3955Z" fill="#53CCC4"/>
<path d="M61.0309 47.4721C63.929 47.4721 66.2377 48.222 67.9651 49.7218C69.6844 51.2215 70.5522 53.5371 70.5522 56.6767C70.5522 60.1047 69.6925 62.5274 67.9651 63.953C66.2377 65.3703 63.7817 66.079 60.5807 66.079H54.4488V68.8313H62.6683V72.4489H54.4488V76.5279H48.456V47.4721H61.0309ZM54.4488 61.0771H60.0731C61.4976 61.0771 62.6028 60.731 63.4051 60.0305C64.191 59.3301 64.584 58.2341 64.584 56.7179C64.584 55.2016 64.191 54.1304 63.3969 53.4876C62.611 52.8449 61.4976 52.5235 60.0813 52.5235H54.4569V61.0771M61.0309 45H46V79H56.9048V74.921H65.1243V68.0238C66.8435 67.5788 68.309 66.8619 69.5206 65.8648C71.8375 63.9612 73.0082 60.8711 73.0082 56.6767C73.0082 52.8037 71.8539 49.8289 69.5697 47.8512C67.3921 45.9641 64.5267 45 61.0309 45ZM56.9048 54.9874H60.0731C60.8918 54.9874 61.5139 55.1357 61.8496 55.3994C61.9478 55.4736 62.128 55.8526 62.128 56.7096C62.128 57.4348 61.997 57.9787 61.7841 58.1682C61.383 58.5143 60.638 58.5967 60.0813 58.5967H56.913V54.9874H56.9048Z" fill="white"/>
</g>
<defs>
<clipPath id="clip0_979_468">
<rect width="27" height="34" fill="white" transform="translate(46 45)"/>
</clipPath>
</defs>
</svg>
