<svg width="264" height="321" viewBox="0 0 264 321" fill="none" xmlns="http://www.w3.org/2000/svg">
<path d="M173.5 319H242C253.046 319 262 310.046 262 299V22C262 10.9543 253.046 2 242 2H22C10.9543 2 2 10.9543 2 22V299C2 310.046 10.9543 319 22 319H91" stroke="black" stroke-width="4"/>
<rect x="71" y="86" width="122" height="39" rx="3" stroke="black" stroke-width="4"/>
<circle cx="132" cy="53" r="20" stroke="black" stroke-width="4"/>
<circle cx="132" cy="183" r="20" stroke="black" stroke-width="4"/>
<g clip-path="url(#clip0_304_2132)">
<path d="M100.997 77.8887C100.997 72.81 99.5963 69.0509 96.7812 66.6381C93.9662 64.2121 90.2039 62.999 85.481 62.999H65.002V110.001H74.7679V103.403H88.1627V97.5506H74.7679V93.0984H84.7606C89.9771 93.0984 93.9795 91.952 96.7946 89.6592C99.5963 87.3664 101.01 83.4474 101.01 77.8887H100.997ZM89.35 83.3141C88.0559 84.4472 86.2415 85.007 83.9201 85.007H74.7545V71.1704H83.9201C86.2415 71.1704 88.0426 71.6903 89.3234 72.73C90.6041 73.7697 91.2579 75.516 91.2579 77.9554C91.2579 80.3948 90.6175 82.181 89.3367 83.3141H89.35Z" fill="#53CCC4"/>
<path d="M85.4948 62.999C90.2177 62.999 93.98 64.2121 96.795 66.6381C99.5967 69.0642 101.011 72.81 101.011 77.8888C101.011 83.4341 99.6101 87.3531 96.795 89.6592C93.98 91.952 89.9776 93.0984 84.7611 93.0984H74.7683V97.5507H88.1631V103.403H74.7683V110.001H65.0024V62.999H85.4948ZM74.7683 85.007H83.9339C86.2553 85.007 88.0564 84.4472 89.3639 83.3141C90.6446 82.181 91.285 80.4081 91.285 77.9554C91.285 75.5027 90.6446 73.7698 89.3505 72.73C88.0697 71.6903 86.2553 71.1704 83.9472 71.1704H74.7817V85.007M85.4948 59H61V114H78.7708V107.402H92.1656V96.2443C94.9673 95.5245 97.3554 94.3648 99.3299 92.7518C103.106 89.6726 105.013 84.6738 105.013 77.8888C105.013 71.6236 103.132 66.8114 99.4099 63.6122C95.8611 60.5596 91.1916 59 85.4948 59ZM78.7708 75.1561H83.9339C85.268 75.1561 86.282 75.396 86.829 75.8226C86.9891 75.9426 87.2826 76.5557 87.2826 77.9421C87.2826 79.1151 87.0691 79.9949 86.7223 80.3015C86.0685 80.8614 84.8545 80.9947 83.9472 80.9947H78.7841V75.1561H78.7708Z" fill="white"/>
</g>
<defs>
<clipPath id="clip0_304_2132">
<rect width="44" height="55" fill="white" transform="translate(61 59)"/>
</clipPath>
</defs>
</svg>
