<svg width="191" height="232" viewBox="0 0 191 232" fill="none" xmlns="http://www.w3.org/2000/svg">
<rect x="1" y="1" width="188.284" height="230" rx="19" stroke="black" stroke-width="2"/>
<rect x="14.9053" y="87.3594" width="161.937" height="129.003" rx="19" stroke="black" stroke-width="2"/>
<line x1="48.5708" y1="87.8223" x2="48.5708" y2="215.166" stroke="black" stroke-width="2"/>
<line x1="80.041" y1="87.8223" x2="80.041" y2="215.166" stroke="black" stroke-width="2"/>
<line x1="111.511" y1="87.8223" x2="111.511" y2="215.166" stroke="black" stroke-width="2"/>
<line x1="142.98" y1="87.8223" x2="142.98" y2="215.166" stroke="black" stroke-width="2"/>
<line x1="15.3691" y1="116.1" x2="175.647" y2="116.1" stroke="black" stroke-width="2"/>
<line x1="15.3691" y1="140.982" x2="175.647" y2="140.982" stroke="black" stroke-width="2"/>
<line x1="15.3691" y1="165.865" x2="175.647" y2="165.865" stroke="black" stroke-width="2"/>
<line x1="15.3691" y1="191.481" x2="175.647" y2="191.481" stroke="black" stroke-width="2"/>
<line x1="89.2628" y1="197.625" x2="100.973" y2="209.335" stroke="#53CCC4" stroke-width="2"/>
<line x1="90.0444" y1="209.337" x2="101.754" y2="197.627" stroke="#53CCC4" stroke-width="2"/>
<line x1="89.2623" y1="122.975" x2="100.972" y2="134.684" stroke="#53CCC4" stroke-width="2"/>
<line x1="90.0439" y1="134.686" x2="101.754" y2="122.977" stroke="#53CCC4" stroke-width="2"/>
<line x1="153.666" y1="197.625" x2="165.376" y2="209.335" stroke="#53CCC4" stroke-width="2"/>
<line x1="154.448" y1="209.337" x2="166.157" y2="197.627" stroke="#53CCC4" stroke-width="2"/>
<line x1="153.666" y1="122.975" x2="165.376" y2="134.684" stroke="#53CCC4" stroke-width="2"/>
<line x1="154.448" y1="134.686" x2="166.157" y2="122.977" stroke="#53CCC4" stroke-width="2"/>
<line x1="58.524" y1="173.475" x2="70.2338" y2="185.184" stroke="#53CCC4" stroke-width="2"/>
<line x1="59.3056" y1="185.186" x2="71.0154" y2="173.477" stroke="#53CCC4" stroke-width="2"/>
<line x1="26.3223" y1="96.6318" x2="38.0321" y2="108.342" stroke="#53CCC4" stroke-width="2"/>
<line x1="27.1034" y1="108.342" x2="38.8132" y2="96.6319" stroke="#53CCC4" stroke-width="2"/>
<path d="M32.8604 50.1914H29.1104V41.9714H25.0304L19.3904 50.1914H14.8904L20.9204 41.7314C19.9204 41.4914 19.1104 41.1414 18.4904 40.6814C17.8704 40.2014 17.3804 39.6714 17.0204 39.0914C16.6804 38.4914 16.4404 37.8714 16.3004 37.2314C16.1804 36.5914 16.1204 35.9814 16.1204 35.4014C16.1204 34.7414 16.2104 34.0214 16.3904 33.2414C16.5904 32.4614 16.9504 31.7414 17.4704 31.0814C17.9904 30.4214 18.7204 29.8714 19.6604 29.4314C20.6204 28.9914 21.8704 28.7714 23.4104 28.7714H32.8604V50.1914ZM29.1104 31.8314H23.5604C23.0604 31.8314 22.5904 31.8814 22.1504 31.9814C21.7104 32.0814 21.3204 32.2714 20.9804 32.5514C20.6404 32.8114 20.3704 33.1714 20.1704 33.6314C19.9704 34.0914 19.8704 34.6714 19.8704 35.3714C19.8704 36.0514 19.9804 36.6214 20.2004 37.0814C20.4404 37.5214 20.7404 37.8814 21.1004 38.1614C21.4804 38.4214 21.8904 38.6114 22.3304 38.7314C22.7704 38.8514 23.2004 38.9114 23.6204 38.9114H29.1104V31.8314ZM36.0301 34.6814H39.4501V41.1014H47.1601V34.6814H50.5801V50.1914H47.1601V43.6514H39.4501V50.1914H36.0301V34.6814ZM56.79 41.0114H60.45C61.11 41.0114 61.65 40.8514 62.07 40.5314C62.51 40.1914 62.73 39.7214 62.73 39.1214C62.73 38.4214 62.53 37.9314 62.13 37.6514C61.75 37.3714 61.19 37.2314 60.45 37.2314H56.79V41.0114ZM53.37 34.6814H61.53C62.93 34.6814 64.05 35.0014 64.89 35.6414C65.73 36.2614 66.15 37.2214 66.15 38.5214C66.15 39.3014 65.95 39.9714 65.55 40.5314C65.17 41.0914 64.63 41.5214 63.93 41.8214V41.8814C64.89 42.0814 65.61 42.5314 66.09 43.2314C66.59 43.9314 66.84 44.8114 66.84 45.8714C66.84 46.4714 66.73 47.0414 66.51 47.5814C66.29 48.1014 65.95 48.5614 65.49 48.9614C65.03 49.3414 64.44 49.6414 63.72 49.8614C63 50.0814 62.14 50.1914 61.14 50.1914H53.37V34.6814ZM56.79 47.6414H60.84C61.68 47.6414 62.32 47.4514 62.76 47.0714C63.2 46.6714 63.42 46.1214 63.42 45.4214C63.42 44.7214 63.2 44.1914 62.76 43.8314C62.32 43.4514 61.68 43.2614 60.84 43.2614H56.79V47.6414ZM81.7055 46.7414C81.7055 47.1614 81.7555 47.4614 81.8555 47.6414C81.9755 47.8214 82.1955 47.9114 82.5155 47.9114H82.8755C83.0155 47.9114 83.1755 47.8914 83.3555 47.8514V50.2214C83.2355 50.2614 83.0755 50.3014 82.8755 50.3414C82.6955 50.4014 82.5055 50.4514 82.3055 50.4914C82.1055 50.5314 81.9055 50.5614 81.7055 50.5814C81.5055 50.6014 81.3355 50.6114 81.1955 50.6114C80.4955 50.6114 79.9155 50.4714 79.4555 50.1914C78.9955 49.9114 78.6955 49.4214 78.5555 48.7214C77.8755 49.3814 77.0355 49.8614 76.0355 50.1614C75.0555 50.4614 74.1055 50.6114 73.1855 50.6114C72.4855 50.6114 71.8155 50.5114 71.1755 50.3114C70.5355 50.1314 69.9655 49.8614 69.4655 49.5014C68.9855 49.1214 68.5955 48.6514 68.2955 48.0914C68.0155 47.5114 67.8755 46.8414 67.8755 46.0814C67.8755 45.1214 68.0455 44.3414 68.3855 43.7414C68.7455 43.1414 69.2055 42.6714 69.7655 42.3314C70.3455 41.9914 70.9855 41.7514 71.6855 41.6114C72.4055 41.4514 73.1255 41.3314 73.8455 41.2514C74.4655 41.1314 75.0555 41.0514 75.6155 41.0114C76.1755 40.9514 76.6655 40.8614 77.0855 40.7414C77.5255 40.6214 77.8655 40.4414 78.1055 40.2014C78.3655 39.9414 78.4955 39.5614 78.4955 39.0614C78.4955 38.6214 78.3855 38.2614 78.1655 37.9814C77.9655 37.7014 77.7055 37.4914 77.3855 37.3514C77.0855 37.1914 76.7455 37.0914 76.3655 37.0514C75.9855 36.9914 75.6255 36.9614 75.2855 36.9614C74.3255 36.9614 73.5355 37.1614 72.9155 37.5614C72.2955 37.9614 71.9455 38.5814 71.8655 39.4214H68.4455C68.5055 38.4214 68.7455 37.5914 69.1655 36.9314C69.5855 36.2714 70.1155 35.7414 70.7555 35.3414C71.4155 34.9414 72.1555 34.6614 72.9755 34.5014C73.7955 34.3414 74.6355 34.2614 75.4955 34.2614C76.2555 34.2614 77.0055 34.3414 77.7455 34.5014C78.4855 34.6614 79.1455 34.9214 79.7255 35.2814C80.3255 35.6414 80.8055 36.1114 81.1655 36.6914C81.5255 37.2514 81.7055 37.9414 81.7055 38.7614V46.7414ZM78.2855 42.4214C77.7655 42.7614 77.1255 42.9714 76.3655 43.0514C75.6055 43.1114 74.8455 43.2114 74.0855 43.3514C73.7255 43.4114 73.3755 43.5014 73.0355 43.6214C72.6955 43.7214 72.3955 43.8714 72.1355 44.0714C71.8755 44.2514 71.6655 44.5014 71.5055 44.8214C71.3655 45.1214 71.2955 45.4914 71.2955 45.9314C71.2955 46.3114 71.4055 46.6314 71.6255 46.8914C71.8455 47.1514 72.1055 47.3614 72.4055 47.5214C72.7255 47.6614 73.0655 47.7614 73.4255 47.8214C73.8055 47.8814 74.1455 47.9114 74.4455 47.9114C74.8255 47.9114 75.2355 47.8614 75.6755 47.7614C76.1155 47.6614 76.5255 47.4914 76.9055 47.2514C77.3055 47.0114 77.6355 46.7114 77.8955 46.3514C78.1555 45.9714 78.2855 45.5114 78.2855 44.9714V42.4214ZM84.4754 34.6814H87.7154V36.7814H87.7754C88.2554 35.8814 88.9254 35.2414 89.7854 34.8614C90.6454 34.4614 91.5754 34.2614 92.5754 34.2614C93.7954 34.2614 94.8554 34.4814 95.7554 34.9214C96.6754 35.3414 97.4354 35.9314 98.0355 36.6914C98.6355 37.4314 99.0854 38.3014 99.3854 39.3014C99.6855 40.3014 99.8355 41.3714 99.8355 42.5114C99.8355 43.5514 99.6955 44.5614 99.4155 45.5414C99.1555 46.5214 98.7455 47.3914 98.1855 48.1514C97.6455 48.8914 96.9555 49.4914 96.1155 49.9514C95.2754 50.3914 94.2854 50.6114 93.1455 50.6114C92.6454 50.6114 92.1454 50.5614 91.6454 50.4614C91.1454 50.3814 90.6654 50.2414 90.2054 50.0414C89.7454 49.8414 89.3154 49.5914 88.9154 49.2914C88.5354 48.9714 88.2154 48.6014 87.9554 48.1814H87.8954V55.9214H84.4754V34.6814ZM96.4154 42.4514C96.4154 41.7514 96.3254 41.0714 96.1454 40.4114C95.9654 39.7514 95.6954 39.1714 95.3354 38.6714C94.9754 38.1514 94.5254 37.7414 93.9854 37.4414C93.4454 37.1214 92.8254 36.9614 92.1254 36.9614C90.6854 36.9614 89.5954 37.4614 88.8554 38.4614C88.1354 39.4614 87.7754 40.7914 87.7754 42.4514C87.7754 43.2314 87.8654 43.9614 88.0454 44.6414C88.2454 45.3014 88.5354 45.8714 88.9154 46.3514C89.2954 46.8314 89.7454 47.2114 90.2654 47.4914C90.8054 47.7714 91.4254 47.9114 92.1254 47.9114C92.9054 47.9114 93.5654 47.7514 94.1054 47.4314C94.6454 47.1114 95.0854 46.7014 95.4255 46.2014C95.7854 45.6814 96.0354 45.1014 96.1754 44.4614C96.3354 43.8014 96.4154 43.1314 96.4154 42.4514ZM105.235 47.6414H109.645C110.245 47.6414 110.765 47.4614 111.205 47.1014C111.645 46.7414 111.865 46.1614 111.865 45.3614C111.865 44.5614 111.645 44.0114 111.205 43.7114C110.765 43.4114 110.245 43.2614 109.645 43.2614H105.235V47.6414ZM101.815 34.6814H105.235V40.6214H109.795C110.955 40.6214 111.885 40.7814 112.585 41.1014C113.305 41.4214 113.865 41.8214 114.265 42.3014C114.665 42.7614 114.935 43.2714 115.075 43.8314C115.215 44.3914 115.285 44.9114 115.285 45.3914C115.285 45.8714 115.215 46.3914 115.075 46.9514C114.935 47.5114 114.665 48.0314 114.265 48.5114C113.865 48.9914 113.305 49.3914 112.585 49.7114C111.885 50.0314 110.955 50.1914 109.795 50.1914H101.815V34.6814Z" fill="#53CCC4"/>
</svg>
