<svg width="264" height="341" viewBox="0 0 264 341" fill="none" xmlns="http://www.w3.org/2000/svg">
<path d="M173.5 319H242C253.046 319 262 310.046 262 299V22C262 10.9543 253.046 2 242 2H22C10.9543 2 2 10.9543 2 22V299C2 310.046 10.9543 319 22 319H91" stroke="black" stroke-width="4"/>
<rect x="71" y="86" width="122" height="39" rx="3" stroke="black" stroke-width="4"/>
<circle cx="132" cy="53" r="20" stroke="black" stroke-width="4"/>
<circle cx="132" cy="183" r="20" stroke="#53CCC4" stroke-width="4"/>
<path d="M141.993 179.286C141.993 176.801 141.293 174.961 139.886 173.781C138.479 172.594 136.598 172 134.237 172H124V195H128.882V191.771H135.578V188.908H128.882V186.729H133.877C136.485 186.729 138.485 186.168 139.893 185.046C141.293 183.924 142 182.006 142 179.286H141.993ZM136.171 181.941C135.524 182.495 134.617 182.769 133.457 182.769H128.875V175.999H133.457C134.617 175.999 135.518 176.253 136.158 176.762C136.798 177.271 137.125 178.125 137.125 179.319C137.125 180.512 136.805 181.387 136.165 181.941H136.171Z" fill="#53CCC4"/>
<circle cx="132" cy="251" r="20" stroke="#53CCC4" stroke-width="4"/>
<path d="M141.993 247.286C141.993 244.801 141.293 242.961 139.886 241.781C138.479 240.594 136.598 240 134.237 240H124V263H128.882V259.771H135.578V256.908H128.882V254.729H133.877C136.485 254.729 138.485 254.168 139.893 253.046C141.293 251.924 142 250.006 142 247.286H141.993ZM136.171 249.941C135.524 250.495 134.617 250.769 133.457 250.769H128.875V243.999H133.457C134.617 243.999 135.518 244.253 136.158 244.762C136.798 245.271 137.125 246.125 137.125 247.319C137.125 248.512 136.805 249.387 136.165 249.941H136.171Z" fill="#53CCC4"/>
<circle cx="132" cy="319" r="20" stroke="#53CCC4" stroke-width="4"/>
<path d="M141.993 315.286C141.993 312.801 141.293 310.961 139.886 309.781C138.479 308.594 136.598 308 134.237 308H124V331H128.882V327.771H135.578V324.908H128.882V322.729H133.877C136.485 322.729 138.485 322.168 139.893 321.046C141.293 319.924 142 318.006 142 315.286H141.993ZM136.171 317.941C135.524 318.495 134.617 318.769 133.457 318.769H128.875V311.999H133.457C134.617 311.999 135.518 312.253 136.158 312.762C136.798 313.271 137.125 314.125 137.125 315.319C137.125 316.512 136.805 317.387 136.165 317.941H136.171Z" fill="#53CCC4"/>
</svg>
