<svg width="160" height="165" viewBox="0 0 160 165" fill="none" xmlns="http://www.w3.org/2000/svg">
<path d="M160 158.023C160.004 159.253 159.668 160.462 159.028 161.52C158.388 162.577 157.468 163.444 156.366 164.026C155.264 164.608 154.021 164.885 152.772 164.826C151.523 164.766 150.313 164.374 149.273 163.69L132.815 152.751C121.325 145.163 107.775 141.163 93.9381 141.274L25.6588 141.628C22.288 141.628 18.9503 140.974 15.8363 139.705C12.7223 138.435 9.89301 136.574 7.51019 134.227C5.12736 131.881 3.23762 129.096 1.949 126.03C0.660373 122.965 -0.00188752 119.68 4.04062e-06 116.363V25.2649C-0.00188752 21.9478 0.660373 18.6627 1.949 15.5976C3.23762 12.5324 5.12736 9.74704 7.51019 7.40079C9.89301 5.05454 12.7223 3.19331 15.8363 1.92345C18.9503 0.653597 22.288 -5.22302e-07 25.6588 0H134.327C141.136 0 147.666 2.66184 152.48 7.39992C157.295 12.138 160 18.5643 160 25.2649V158.023Z" fill="url(#paint0_linear_456_471)"/>
<defs>
<linearGradient id="paint0_linear_456_471" x1="146.5" y1="12" x2="10" y2="136.5" gradientUnits="userSpaceOnUse">
<stop stop-color="#4748AB"/>
<stop offset="1" stop-color="#6263A3"/>
</linearGradient>
</defs>
</svg>
