<svg width="39" height="39" viewBox="0 0 39 39" fill="none" xmlns="http://www.w3.org/2000/svg">
<path d="M17.4704 27.3984V30.6972C17.4704 33.4922 14.8703 35.751 11.6691 35.751C8.46784 35.751 5.85156 33.4922 5.85156 30.6972V27.3984C5.85156 30.1934 8.45159 32.1759 11.6691 32.1759C14.8703 32.1759 17.4704 30.1772 17.4704 27.3984Z" stroke="#53CCC4" stroke-width="2" stroke-linecap="round" stroke-linejoin="round"/>
<path d="M17.4689 22.9291C17.4689 23.7416 17.2414 24.489 16.8514 25.139C15.8927 26.7153 13.9264 27.7066 11.6514 27.7066C9.37641 27.7066 7.41014 26.699 6.45139 25.139C6.06139 24.489 5.83398 23.7416 5.83398 22.9291C5.83398 21.5316 6.48395 20.2803 7.52395 19.3703C8.5802 18.4441 10.0264 17.8916 11.6351 17.8916C13.2439 17.8916 14.6902 18.4603 15.7464 19.3703C16.8189 20.2641 17.4689 21.5316 17.4689 22.9291Z" stroke="#53CCC4" stroke-width="2" stroke-linecap="round" stroke-linejoin="round"/>
<path d="M17.4704 22.9287V27.3975C17.4704 30.1925 14.8703 32.175 11.6691 32.175C8.46784 32.175 5.85156 30.1762 5.85156 27.3975V22.9287C5.85156 20.1337 8.45159 17.875 11.6691 17.875C13.2778 17.875 14.7241 18.4437 15.7804 19.3537C16.8204 20.2637 17.4704 21.5312 17.4704 22.9287Z" stroke="#53CCC4" stroke-width="2" stroke-linecap="round" stroke-linejoin="round"/>
<path d="M35.7508 17.8264V21.174C35.7508 22.0677 35.0358 22.7989 34.1258 22.8314H30.9408C29.1858 22.8314 27.5771 21.5477 27.4308 19.7927C27.3333 18.7689 27.7233 17.8102 28.4058 17.1439C29.0071 16.5264 29.8358 16.1689 30.7458 16.1689H34.1258C35.0358 16.2014 35.7508 16.9326 35.7508 17.8264Z" stroke="black" stroke-width="2" stroke-linecap="round" stroke-linejoin="round"/>
<path d="M3.25 17.0625V13.8125C3.25 9.3925 5.915 6.305 10.0588 5.785C10.4813 5.72 10.92 5.6875 11.375 5.6875H26C26.4225 5.6875 26.8288 5.70373 27.2188 5.76873C31.4112 6.25623 34.125 9.36 34.125 13.8125V16.1688H30.745C29.835 16.1688 29.0062 16.5262 28.405 17.1437C27.7225 17.81 27.3325 18.7687 27.43 19.7925C27.5763 21.5475 29.185 22.8312 30.94 22.8312H34.125V25.1875C34.125 30.0625 30.875 33.3125 26 33.3125H21.9375" stroke="black" stroke-width="2" stroke-linecap="round" stroke-linejoin="round"/>
</svg>
