<svg width="40" height="40" viewBox="0 0 40 40" fill="none" xmlns="http://www.w3.org/2000/svg">
<path d="M23.7663 31.9503L26.6496 29.3836C28.2663 27.9502 28.3329 26.9502 27.0496 25.3335L21.9663 18.8836C20.8996 17.5336 19.1496 17.5336 18.0829 18.8836L12.9996 25.3335C11.7163 26.9502 11.7163 28.0002 13.3996 29.3836L16.2829 31.9503" stroke="#53CCC4" stroke-width="2" stroke-linecap="round" stroke-linejoin="round"/>
<path d="M20.0156 18.5332V22.7499" stroke="#53CCC4" stroke-width="2" stroke-linecap="round" stroke-linejoin="round"/>
<path d="M17.9169 37.4991H22.1169C23.7169 37.4991 24.7502 36.3657 24.4502 34.9824L23.7669 31.9658H16.2669L15.5835 34.9824C15.2835 36.2824 16.4169 37.4991 17.9169 37.4991Z" stroke="#53CCC4" stroke-width="2" stroke-linecap="round" stroke-linejoin="round"/>
<path d="M20.8646 8.33398H19.1979C18.2812 8.33398 17.5312 7.58398 17.5312 6.66732V5.00065C17.5312 4.08398 18.2812 3.33398 19.1979 3.33398H20.8646C21.7812 3.33398 22.5312 4.08398 22.5312 5.00065V6.66732C22.5312 7.58398 21.7812 8.33398 20.8646 8.33398Z" stroke="black" stroke-width="2" stroke-linecap="round" stroke-linejoin="round"/>
<path d="M5.44792 23.6173H7.11458C8.03125 23.6173 8.78125 22.8673 8.78125 21.9506V20.284C8.78125 19.3673 8.03125 18.6172 7.11458 18.6172H5.44792C4.53125 18.6172 3.78125 19.3673 3.78125 20.284V21.9506C3.78125 22.8673 4.53125 23.6173 5.44792 23.6173Z" stroke="black" stroke-width="2" stroke-linecap="round" stroke-linejoin="round"/>
<path d="M34.5501 23.6173H32.8835C31.9668 23.6173 31.2168 22.8673 31.2168 21.9506V20.284C31.2168 19.3673 31.9668 18.6172 32.8835 18.6172H34.5501C35.4668 18.6172 36.2168 19.3673 36.2168 20.284V21.9506C36.2168 22.8673 35.4668 23.6173 34.5501 23.6173Z" stroke="black" stroke-width="2" stroke-linecap="round" stroke-linejoin="round"/>
<path d="M17.5314 5.93359C11.1814 6.68359 6.24805 12.0669 6.24805 18.6169" stroke="black" stroke-width="2" stroke-linecap="round" stroke-linejoin="round"/>
<path d="M33.7479 18.6169C33.7479 12.0836 28.8479 6.71693 22.5312 5.93359" stroke="black" stroke-width="2" stroke-linecap="round" stroke-linejoin="round"/>
</svg>
