<svg width="37" height="38" viewBox="0 0 37 38" fill="none" xmlns="http://www.w3.org/2000/svg">
<path d="M13.5847 3.08301L8.00391 8.67926" stroke="black" stroke-width="2" stroke-miterlimit="10" stroke-linecap="round" stroke-linejoin="round"/>
<path d="M23.418 3.08301L28.9988 8.67926" stroke="black" stroke-width="2" stroke-miterlimit="10" stroke-linecap="round" stroke-linejoin="round"/>
<path d="M3.08398 12.1029C3.08398 9.25078 4.61023 9.01953 6.50648 9.01953H30.4948C32.3911 9.01953 33.9173 9.25078 33.9173 12.1029C33.9173 15.4174 32.3911 15.1862 30.4948 15.1862H6.50648C4.61023 15.1862 3.08398 15.4174 3.08398 12.1029Z" stroke="black" stroke-width="2"/>
<path d="M15.0488 21.583V27.0559" stroke="black" stroke-width="2" stroke-linecap="round"/>
<path d="M22.1367 21.583V27.0559" stroke="black" stroke-width="2" stroke-linecap="round"/>
<path d="M5.39648 15.417L7.57023 28.737C8.06357 31.7278 9.25065 33.917 13.6598 33.917H22.9561C27.7507 33.917 28.4598 31.8203 29.0148 28.922L31.6048 15.417" stroke="black" stroke-width="2" stroke-linecap="round"/>
<path d="M14.2294 32.2563C14.2294 33.1457 13.9803 33.9878 13.5415 34.6993C13.3162 35.0788 13.0434 35.4227 12.7233 35.6954C12.6877 35.7429 12.6521 35.7784 12.6047 35.814C11.7746 36.5611 10.6835 36.9999 9.48578 36.9999C8.03898 36.9999 6.74632 36.3476 5.89247 35.3277C5.86876 35.2921 5.83324 35.2685 5.80952 35.2329C5.66722 35.0669 5.53676 34.889 5.43003 34.6993C4.99125 33.9878 4.74219 33.1457 4.74219 32.2563C4.74219 30.7621 5.43001 29.422 6.52103 28.5563C6.72264 28.3903 6.93607 28.248 7.16139 28.1294C7.84921 27.738 8.64379 27.5127 9.48578 27.5127C10.6717 27.5127 11.739 27.9396 12.5691 28.663C12.7114 28.7697 12.8419 28.9002 12.9604 29.0307C13.7431 29.8845 14.2294 31.0111 14.2294 32.2563Z" fill="white" stroke="#53CCC4" stroke-width="2" stroke-miterlimit="10" stroke-linecap="round" stroke-linejoin="round"/>
<path d="M11.2527 32.2314H7.71875" stroke="#53CCC4" stroke-width="2" stroke-miterlimit="10" stroke-linecap="round" stroke-linejoin="round"/>
<path d="M9.48633 30.5V34.0458" stroke="#53CCC4" stroke-width="2" stroke-miterlimit="10" stroke-linecap="round" stroke-linejoin="round"/>
</svg>
