<svg width="40" height="40" viewBox="0 0 40 40" fill="none" xmlns="http://www.w3.org/2000/svg">
<path d="M23.7003 16.2997L20.0003 18.1497M20.0003 18.1497L16.3003 16.2997M20.0003 18.1497V22.783M23.7003 5.18301L20.0003 3.33301L16.3003 5.18301M5.18359 10.733L8.8836 8.88301M5.18359 10.733L8.8836 12.583M5.18359 10.733V15.3663M20.0003 36.6663L16.3003 34.8163M20.0003 36.6663L23.7003 34.8163M20.0003 36.6663V32.033M8.8836 31.1163L5.18359 29.2663V24.633M31.1169 31.1163L34.8169 29.2663V24.633" stroke="black" stroke-width="2" stroke-linecap="round" stroke-linejoin="round"/>
<path d="M34.8172 10.7328L31.1172 12.5828M34.8172 10.7328L31.1172 8.88281M34.8172 10.7328V15.3661" stroke="#53CCC4" stroke-width="2" stroke-linecap="round" stroke-linejoin="round"/>
</svg>
