<svg width="38" height="38" viewBox="0 0 38 38" fill="none" xmlns="http://www.w3.org/2000/svg">
<path d="M26.918 15.8327H30.0846C33.2513 15.8327 34.8346 14.2493 34.8346 11.0827V7.91602C34.8346 4.74935 33.2513 3.16602 30.0846 3.16602H26.918C23.7513 3.16602 22.168 4.74935 22.168 7.91602V11.0827C22.168 14.2493 23.7513 15.8327 26.918 15.8327Z" stroke="#53CCC4" stroke-width="2" stroke-miterlimit="10" stroke-linecap="round" stroke-linejoin="round"/>
<path d="M7.91797 34.8327H11.0846C14.2513 34.8327 15.8346 33.2493 15.8346 30.0827V26.916C15.8346 23.7493 14.2513 22.166 11.0846 22.166H7.91797C4.7513 22.166 3.16797 23.7493 3.16797 26.916V30.0827C3.16797 33.2493 4.7513 34.8327 7.91797 34.8327Z" stroke="black" stroke-width="2" stroke-miterlimit="10" stroke-linecap="round" stroke-linejoin="round"/>
<path d="M9.5013 15.8327C12.9991 15.8327 15.8346 12.9972 15.8346 9.49935C15.8346 6.00155 12.9991 3.16602 9.5013 3.16602C6.0035 3.16602 3.16797 6.00155 3.16797 9.49935C3.16797 12.9972 6.0035 15.8327 9.5013 15.8327Z" stroke="black" stroke-width="2" stroke-miterlimit="10" stroke-linecap="round" stroke-linejoin="round"/>
<path d="M28.5013 34.8327C31.9991 34.8327 34.8346 31.9972 34.8346 28.4993C34.8346 25.0015 31.9991 22.166 28.5013 22.166C25.0035 22.166 22.168 25.0015 22.168 28.4993C22.168 31.9972 25.0035 34.8327 28.5013 34.8327Z" stroke="black" stroke-width="2" stroke-miterlimit="10" stroke-linecap="round" stroke-linejoin="round"/>
</svg>
