<svg width="36" height="42" viewBox="0 0 36 42" fill="none" xmlns="http://www.w3.org/2000/svg">
<g id="Group 9395">
<g id="Group">
<g id="Group_2">
<path id="Vector" d="M29.553 16.928C30.5727 14.0111 29.0348 10.8199 26.1179 9.80009C23.201 8.78033 20.0098 10.3182 18.99 13.2351C17.9702 16.152 19.5082 19.3433 22.425 20.363C25.3419 21.3828 28.5332 19.8449 29.553 16.928Z" stroke="#53CCC4" stroke-width="2" stroke-miterlimit="10" stroke-linejoin="round"/>
<path id="Vector_2" d="M18.5264 20.8281L20.3171 19.042" stroke="#53CCC4" stroke-width="2" stroke-miterlimit="10" stroke-linejoin="round"/>
<path id="Vector_3" d="M28.2319 11.123L30.018 9.33691" stroke="#53CCC4" stroke-width="2" stroke-miterlimit="10" stroke-linejoin="round"/>
<path id="Vector_4" d="M18.5264 9.33691L20.3171 11.123" stroke="#53CCC4" stroke-width="2" stroke-miterlimit="10" stroke-linejoin="round"/>
<path id="Vector_5" d="M28.2319 19.042L30.018 20.8281" stroke="#53CCC4" stroke-width="2" stroke-miterlimit="10" stroke-linejoin="round"/>
<path id="Vector_6" d="M24.2744 6.95605V9.48445" stroke="#53CCC4" stroke-width="2" stroke-miterlimit="10" stroke-linejoin="round"/>
<path id="Vector_7" d="M24.2742 20.6797L24.2695 23.2034" stroke="#53CCC4" stroke-width="2" stroke-miterlimit="10" stroke-linejoin="round"/>
<path id="Vector_8" d="M32.3419 15.0469L29.8691 15.2139" stroke="#53CCC4" stroke-width="2" stroke-miterlimit="10" stroke-linejoin="round"/>
<path id="Vector_9" d="M18.7025 15.5518L16.188 15.7234" stroke="#53CCC4" stroke-width="2" stroke-miterlimit="10" stroke-linejoin="round"/>
</g>
<g id="Group_3">
<path id="Vector_10" d="M14.921 12.0832C15.4537 10.5595 14.6503 8.89239 13.1266 8.35968C11.6028 7.82697 9.93575 8.63035 9.40304 10.1541C8.87033 11.6778 9.67371 13.3449 11.1975 13.8776C12.7212 14.4104 14.3883 13.607 14.921 12.0832Z" stroke="#53CCC4" stroke-width="2" stroke-miterlimit="10" stroke-linejoin="round"/>
<path id="Vector_11" d="M8.67188 14.6193L10.1008 13.1904" stroke="#53CCC4" stroke-width="2" stroke-miterlimit="10" stroke-linejoin="round"/>
<path id="Vector_12" d="M14.2344 9.05682L15.6262 7.66504" stroke="#53CCC4" stroke-width="2" stroke-miterlimit="10" stroke-linejoin="round"/>
<path id="Vector_13" d="M8.71338 7.66504L10.1005 9.05682" stroke="#53CCC4" stroke-width="2" stroke-miterlimit="10" stroke-linejoin="round"/>
<path id="Vector_14" d="M14.2344 13.1904L15.5844 14.5358" stroke="#53CCC4" stroke-width="2" stroke-miterlimit="10" stroke-linejoin="round"/>
<path id="Vector_15" d="M12.1694 6.14844V8.19899" stroke="#53CCC4" stroke-width="2" stroke-miterlimit="10" stroke-linejoin="round"/>
<path id="Vector_16" d="M12.1694 14.0439V16.0435" stroke="#53CCC4" stroke-width="2" stroke-miterlimit="10" stroke-linejoin="round"/>
<path id="Vector_17" d="M17.134 11.1025L15.0928 11.1907" stroke="#53CCC4" stroke-width="2" stroke-miterlimit="10" stroke-linejoin="round"/>
<path id="Vector_18" d="M9.26104 11.3672L7.01562 11.4553" stroke="#53CCC4" stroke-width="2" stroke-miterlimit="10" stroke-linejoin="round"/>
</g>
</g>
<path id="Vector_19" d="M29.5177 40.9022C29.5177 40.9022 27.129 30.0778 31.0445 25.1102C37.9585 16.3389 36.8398 0.598144 19.3576 1.00784C6.62535 1.31046 1.32979 11.6274 4.45669 16.7859C4.8785 17.4796 4.82349 18.3735 4.365 19.0439L1.10514 23.8253C0.880476 24.1558 1.03178 24.6167 1.40774 24.7378L4.41084 25.7248C4.41084 25.7248 4.71803 33.5696 7.76699 33.5696C10.8159 33.5696 12.5445 32.4848 12.5445 41L29.5177 40.8976V40.9022Z" stroke="black" stroke-width="2" stroke-miterlimit="10" stroke-linejoin="round"/>
</g>
</svg>
