<svg width="38" height="38" viewBox="0 0 38 38" fill="none" xmlns="http://www.w3.org/2000/svg">
<path d="M28.5 29.862H27.2967C26.03 29.862 24.8267 30.3528 23.94 31.2395L21.2325 33.9153C19.9975 35.1345 17.9867 35.1345 16.7517 33.9153L14.0442 31.2395C13.1575 30.3528 11.9383 29.862 10.6875 29.862H9.5C6.87167 29.862 4.75 27.7562 4.75 25.1595V7.86949C4.75 5.27283 6.87167 3.16699 9.5 3.16699H28.5C31.1283 3.16699 33.25 5.27283 33.25 7.86949V25.1437C33.25 27.7403 31.1283 29.862 28.5 29.862Z" stroke="black" stroke-width="2" stroke-miterlimit="10" stroke-linecap="round" stroke-linejoin="round"/>
<path d="M19.1107 14.1711C19.0474 14.1711 18.9523 14.1711 18.8732 14.1711C17.2107 14.1078 15.8965 12.7619 15.8965 11.0836C15.8965 9.37359 17.274 7.99609 18.984 7.99609C20.694 7.99609 22.0715 9.38943 22.0715 11.0836C22.0874 12.7619 20.7732 14.1236 19.1107 14.1711Z" stroke="#53CCC4" stroke-width="2" stroke-linecap="round" stroke-linejoin="round"/>
<path d="M14.6458 18.9365C12.5399 20.3457 12.5399 22.6415 14.6458 24.0507C17.0366 25.6499 20.9633 25.6499 23.3541 24.0507C25.4599 22.6415 25.4599 20.3457 23.3541 18.9365C20.9633 17.3532 17.0524 17.3532 14.6458 18.9365Z" stroke="#53CCC4" stroke-width="2" stroke-linecap="round" stroke-linejoin="round"/>
</svg>
