<svg width="40" height="40" viewBox="0 0 40 40" fill="none" xmlns="http://www.w3.org/2000/svg">
<path d="M30.9776 12.6395C29.9897 12.6395 29.19 11.8381 29.19 10.852C29.19 9.86579 29.9914 9.06443 30.9776 9.06443C31.9638 9.06443 32.7652 9.86579 32.7652 10.852C32.7652 11.8381 31.9638 12.6395 30.9776 12.6395ZM32.4077 3.71049C32.4077 2.7226 31.6063 1.92297 30.6201 1.92297C29.6339 1.92297 28.8325 2.72433 28.8325 3.71049C28.8325 4.69665 29.6339 5.49802 30.6201 5.49802C31.6063 5.49802 32.4077 4.69665 32.4077 3.71049ZM39.3008 19.9502C39.3008 30.5821 30.6823 39.2002 20.0499 39.2002C9.41755 39.2002 0.800781 30.5804 0.800781 19.9502C0.800781 9.32004 9.41928 0.700195 20.0516 0.700195C20.366 0.700195 20.6786 0.708831 20.9895 0.722647C20.7598 1.33403 20.6337 1.99378 20.6337 2.68461C20.6337 4.66038 21.6614 6.3961 23.2089 7.38744C22.8911 8.20953 22.7149 9.10243 22.7149 10.0368C22.7149 14.0971 26.0069 17.3889 30.0674 17.3889C30.9206 17.3889 31.741 17.2421 32.5027 16.9744C33.5252 18.1091 35.0053 18.8241 36.6531 18.8241C37.5788 18.8241 38.451 18.5979 39.2213 18.1989C39.2731 18.7758 39.3008 19.3595 39.3008 19.9485V19.9502ZM10.5765 20.7688C12.1775 20.7688 13.4746 19.4718 13.4746 17.8708C13.4746 16.2698 12.1775 14.9728 10.5765 14.9728C8.9754 14.9728 7.67831 16.2698 7.67831 17.8708C7.67831 19.4718 8.9754 20.7688 10.5765 20.7688ZM14.4453 27.5148C14.4453 26.3283 13.4833 25.3663 12.2967 25.3663C11.1102 25.3663 10.1481 26.3283 10.1481 27.5148C10.1481 28.7013 11.1102 29.6633 12.2967 29.6633C13.4833 29.6633 14.4453 28.7013 14.4453 27.5148ZM16.6958 13.5531C17.6837 13.5531 18.4834 12.7517 18.4834 11.7656C18.4834 10.7794 17.682 9.97805 16.6958 9.97805C15.7096 9.97805 14.9082 10.7794 14.9082 11.7656C14.9082 12.7517 15.7096 13.5531 16.6958 13.5531ZM21.3867 20.3871C21.3867 19.3993 20.5853 18.5996 19.5991 18.5996C18.6129 18.5996 17.8115 19.401 17.8115 20.3871C17.8115 21.3733 18.6129 22.1747 19.5991 22.1747C20.5853 22.1747 21.3867 21.3733 21.3867 20.3871ZM28.1105 28.8636C28.1105 27.2626 26.8135 25.9656 25.2124 25.9656C23.6113 25.9656 22.3142 27.2626 22.3142 28.8636C22.3142 30.4646 23.6113 31.7617 25.2124 31.7617C26.8135 31.7617 28.1105 30.4646 28.1105 28.8636Z" fill="url(#paint0_linear_511_440)"/>
<defs>
<linearGradient id="paint0_linear_511_440" x1="31.5" y1="6" x2="11.2508" y2="36.4502" gradientUnits="userSpaceOnUse">
<stop stop-color="#AF364E"/>
<stop offset="1" stop-color="#6263A3"/>
</linearGradient>
</defs>
</svg>
