<svg width="38" height="38" viewBox="0 0 38 38" fill="none" xmlns="http://www.w3.org/2000/svg">
<path d="M3.27645 7.28258C4.54312 1.80424 12.7923 1.80424 14.0431 7.28258C14.7873 10.4967 12.7448 13.2201 10.9714 14.9142C9.67312 16.1492 7.63062 16.1334 6.33228 14.9142C4.57478 13.2201 2.53228 10.4967 3.27645 7.28258Z" stroke="#53CCC4" stroke-width="2"/>
<path d="M23.8623 26.2826C25.129 20.8042 33.4256 20.8042 34.6923 26.2826C35.4365 29.4967 33.394 32.2201 31.6048 33.9142C30.3065 35.1492 28.2481 35.1334 26.9498 33.9142C25.1606 32.2201 23.1181 29.4967 23.8623 26.2826Z" stroke="black" stroke-width="2"/>
<path d="M18.9997 7.91602H23.243C26.1722 7.91602 27.5339 11.5418 25.333 13.4735L12.6822 24.541C10.4814 26.4568 11.843 30.0827 14.7564 30.0827H18.9997" stroke="black" stroke-width="2" stroke-linecap="round" stroke-linejoin="round"/>
<path d="M8.68688 8.70768H8.70517" stroke="#53CCC4" stroke-width="2" stroke-linecap="round" stroke-linejoin="round"/>
<path d="M29.2689 27.7077H29.2872" stroke="black" stroke-width="2" stroke-linecap="round" stroke-linejoin="round"/>
</svg>
