<svg width="120" height="52" viewBox="0 0 120 52" fill="none" xmlns="http://www.w3.org/2000/svg">
<g id="logo">
<path id="Vector" d="M15.078 6.69241C13.9724 5.729 12.5658 5.18062 11.0998 5.14144C9.99858 5.14144 8.53291 5.78509 8.53291 7.0724C8.53291 8.3597 10.1537 8.93357 11.1928 9.27478L12.7438 9.73232C15.9543 10.6784 18.4359 12.2992 18.4359 16.0293C18.4359 18.3557 17.8853 20.6822 16.0474 22.2332C14.1887 23.7038 11.8714 24.4726 9.50227 24.4045C6.59598 24.3759 3.76808 23.4585 1.39844 21.7756L3.9653 16.9443C5.3919 18.3603 7.28632 19.2069 9.29288 19.3251C10.6965 19.3251 12.1932 18.6271 12.1932 16.9986C12.1932 15.3701 9.86675 14.7342 8.55617 14.362C4.79506 13.2918 2.31351 12.3147 2.31351 7.84788C2.31351 3.19496 5.6481 0.0930176 10.27 0.0930176C12.7939 0.13978 15.2698 0.791328 17.4898 1.99296L15.078 6.69241Z" fill="white"/>
<path id="Vector_2" d="M34.5239 9.66261V0.760025H40.5184V23.8385H34.5239V14.3698H25.8695V23.8385H19.875V0.775538H25.8695V9.67812L34.5239 9.66261Z" fill="white"/>
<path id="Vector_3" d="M67.4042 11.8649C67.4042 19.3251 62.0533 24.5907 54.6474 24.5907C47.2415 24.5907 41.8906 19.3251 41.8906 11.8649C41.8906 4.88556 48.0092 0 54.6474 0C61.2856 0 67.4042 4.89332 67.4042 11.8649ZM48.1333 11.8649C48.0969 12.7474 48.2379 13.6282 48.5478 14.4552C48.8577 15.2823 49.3302 16.0388 49.9375 16.6801C50.5448 17.3213 51.2745 17.8344 52.0835 18.1888C52.8925 18.5432 53.7643 18.7318 54.6474 18.7435C55.5308 18.7329 56.4031 18.545 57.2126 18.1909C58.0221 17.8369 58.7522 17.3239 59.3597 16.6824C59.9672 16.0409 60.4397 15.2839 60.7492 14.4564C61.0587 13.6289 61.1989 12.7477 61.1615 11.8649C61.1615 8.68544 58.2301 5.77737 54.6474 5.77737C51.0646 5.77737 48.1333 8.71646 48.1333 11.896V11.8649Z" fill="white"/>
<path id="Vector_4" d="M68.8086 0.760025H77.9826C82.9379 0.760025 86.3656 3.08648 86.3656 8.34428C86.3656 13.7727 83.4265 16.1767 78.1997 16.1767H74.8031V23.8385H68.8086V0.760025ZM74.8031 11.3454H75.8112C77.9826 11.3454 80.1229 11.3454 80.1229 8.5304C80.1229 5.71539 78.1377 5.59131 75.8112 5.59131H74.8031V11.3454Z" fill="white"/>
<path id="Vector_5" d="M10.2752 42.6518L15.1065 27.7547H19.8757L24.4046 42.6518H24.4666L28.8093 27.7547H35.0908L27.7159 50.8177H21.5973L17.5648 37.4483H17.5027L12.9739 50.8177H6.88632L0 27.7547H6.20389L10.2752 42.6518Z" fill="white"/>
<path id="Vector_6" d="M58.9041 38.8596C58.9041 46.3198 53.5455 51.5854 46.1474 51.5854C38.7492 51.5854 33.3906 46.3276 33.3906 38.8596C33.3906 31.8803 39.5092 26.9947 46.1474 26.9947C52.7856 26.9947 58.9041 31.888 58.9041 38.8596ZM39.6333 38.8596C39.5958 39.7423 39.736 40.6236 40.0455 41.4511C40.355 42.2786 40.8276 43.0356 41.4351 43.6771C42.0426 44.3186 42.7727 44.8316 43.5822 45.1856C44.3916 45.5397 45.2639 45.7276 46.1474 45.7382C47.0305 45.7265 47.9023 45.5379 48.7113 45.1835C49.5203 44.829 50.25 44.316 50.8572 43.6748C51.4645 43.0335 51.9371 42.277 52.247 41.4499C52.5569 40.6229 52.6978 39.7421 52.6615 38.8596C52.6615 35.6801 49.7224 32.7721 46.1474 32.7721C42.5724 32.7721 39.6333 35.7112 39.6333 38.8907V38.8596Z" fill="white"/>
<path id="Vector_7" d="M80.0686 50.8176H72.6007L66.9396 41.9461H66.8853V50.8176H60.9141V27.7547H69.8787C74.4385 27.7547 77.8972 29.926 77.8972 34.8504C77.8972 38.0299 76.1214 40.7828 72.8488 41.3645L80.0686 50.8176ZM66.8853 38.0919H67.4669C69.4212 38.0919 71.6235 37.7274 71.6235 35.2226C71.6235 32.7178 69.4522 32.3688 67.498 32.3688H66.8853V38.0919Z" fill="white"/>
<path id="Vector_8" d="M94.8659 27.7547H102.303L93.1211 38.6735L103.125 50.8177H95.37L87.6151 40.8139H87.5609V50.8177H81.5586V27.7547H87.5609V37.2699H87.6151L94.8659 27.7547Z" fill="white"/>
<path id="Vector_9" d="M116.641 33.687C115.535 32.7236 114.128 32.1752 112.662 32.136C111.561 32.136 110.095 32.7797 110.095 34.067C110.095 35.3543 111.716 35.9282 112.755 36.2694L114.306 36.7269C117.525 37.673 119.998 39.2938 119.998 43.0239C119.998 45.3503 119.448 47.6768 117.618 49.2278C115.754 50.6954 113.436 51.4637 111.065 51.3991C108.158 51.3705 105.331 50.4531 102.961 48.7702L105.505 44.001C106.94 45.3959 108.833 46.2226 110.832 46.3274C112.236 46.3274 113.74 45.6295 113.74 44.001C113.74 42.3725 111.414 41.7366 110.095 41.3643C106.334 40.2942 103.853 39.317 103.853 34.8502C103.853 30.1973 107.187 27.0954 111.809 27.0954C114.333 27.1412 116.809 27.7928 119.029 28.9953L116.641 33.687Z" fill="white"/>
</g>
</svg>
