<svg width="120" height="52" viewBox="0 0 120 52" fill="none" xmlns="http://www.w3.org/2000/svg">
<path d="M15.0761 6.69241C13.9704 5.729 12.5638 5.18062 11.0978 5.14144C9.99662 5.14144 8.53096 5.78509 8.53096 7.0724C8.53096 8.3597 10.1517 8.93357 11.1909 9.27478L12.7418 9.73232C15.9524 10.6784 18.4339 12.2992 18.4339 16.0293C18.4339 18.3557 17.8833 20.6822 16.0454 22.2332C14.1868 23.7038 11.8694 24.4726 9.50031 24.4045C6.59403 24.3759 3.76612 23.4585 1.39648 21.7756L3.96334 16.9443C5.38994 18.3603 7.28436 19.2069 9.29093 19.3251C10.6946 19.3251 12.1913 18.6271 12.1913 16.9986C12.1913 15.3701 9.86479 14.7342 8.55422 14.362C4.79311 13.2918 2.31155 12.3147 2.31155 7.84788C2.31155 3.19496 5.64615 0.0930176 10.2681 0.0930176C12.792 0.13978 15.2678 0.791328 17.4878 1.99296L15.0761 6.69241Z" fill="#53CCC4"/>
<path d="M34.5239 9.66261V0.760025H40.5184V23.8385H34.5239V14.3698H25.8695V23.8385H19.875V0.775538H25.8695V9.67812L34.5239 9.66261Z" fill="#53CCC4"/>
<path d="M67.4042 11.8649C67.4042 19.3251 62.0533 24.5907 54.6474 24.5907C47.2415 24.5907 41.8906 19.3251 41.8906 11.8649C41.8906 4.88556 48.0092 0 54.6474 0C61.2856 0 67.4042 4.89332 67.4042 11.8649ZM48.1333 11.8649C48.0969 12.7474 48.2379 13.6282 48.5478 14.4552C48.8577 15.2823 49.3302 16.0388 49.9375 16.6801C50.5448 17.3213 51.2745 17.8344 52.0835 18.1888C52.8925 18.5432 53.7643 18.7318 54.6474 18.7435C55.5308 18.7329 56.4031 18.545 57.2126 18.1909C58.0221 17.8369 58.7522 17.3239 59.3597 16.6824C59.9672 16.0409 60.4397 15.2839 60.7492 14.4564C61.0587 13.6289 61.1989 12.7477 61.1615 11.8649C61.1615 8.68544 58.2301 5.77737 54.6474 5.77737C51.0646 5.77737 48.1333 8.71646 48.1333 11.896V11.8649Z" fill="#53CCC4"/>
<path d="M68.8086 0.760025H77.9826C82.9379 0.760025 86.3656 3.08648 86.3656 8.34428C86.3656 13.7727 83.4265 16.1767 78.1997 16.1767H74.8031V23.8385H68.8086V0.760025ZM74.8031 11.3454H75.8112C77.9826 11.3454 80.1229 11.3454 80.1229 8.5304C80.1229 5.71539 78.1377 5.59131 75.8112 5.59131H74.8031V11.3454Z" fill="#53CCC4"/>
<path d="M10.2752 42.6518L15.1065 27.7547H19.8757L24.4046 42.6518H24.4666L28.8093 27.7547H35.0908L27.7159 50.8177H21.5973L17.5648 37.4483H17.5027L12.9739 50.8177H6.88632L0 27.7547H6.20389L10.2752 42.6518Z" fill="#53CCC4"/>
<path d="M58.9061 38.8596C58.9061 46.3198 53.5475 51.5854 46.1493 51.5854C38.7512 51.5854 33.3926 46.3276 33.3926 38.8596C33.3926 31.8803 39.5112 26.9947 46.1493 26.9947C52.7875 26.9947 58.9061 31.888 58.9061 38.8596ZM39.6352 38.8596C39.5978 39.7423 39.738 40.6236 40.0475 41.4511C40.357 42.2786 40.8295 43.0356 41.437 43.6771C42.0445 44.3186 42.7747 44.8316 43.5841 45.1856C44.3936 45.5397 45.2659 45.7276 46.1493 45.7382C47.0325 45.7265 47.9043 45.5379 48.7132 45.1835C49.5222 44.829 50.2519 44.316 50.8592 43.6748C51.4665 43.0335 51.9391 42.277 52.249 41.4499C52.5589 40.6229 52.6998 39.7421 52.6634 38.8596C52.6634 35.6801 49.7243 32.7721 46.1493 32.7721C42.5743 32.7721 39.6352 35.7112 39.6352 38.8907V38.8596Z" fill="#53CCC4"/>
<path d="M80.0686 50.8176H72.6007L66.9396 41.9461H66.8853V50.8176H60.9141V27.7547H69.8787C74.4385 27.7547 77.8972 29.926 77.8972 34.8504C77.8972 38.0299 76.1214 40.7828 72.8488 41.3645L80.0686 50.8176ZM66.8853 38.0919H67.4669C69.4212 38.0919 71.6235 37.7274 71.6235 35.2226C71.6235 32.7178 69.4522 32.3688 67.498 32.3688H66.8853V38.0919Z" fill="#53CCC4"/>
<path d="M94.8659 27.7547H102.303L93.1211 38.6735L103.125 50.8177H95.37L87.6151 40.8139H87.5609V50.8177H81.5586V27.7547H87.5609V37.2699H87.6151L94.8659 27.7547Z" fill="#53CCC4"/>
<path d="M116.642 33.687C115.537 32.7236 114.13 32.1752 112.664 32.136C111.563 32.136 110.097 32.7797 110.097 34.067C110.097 35.3543 111.718 35.9282 112.757 36.2694L114.308 36.7269C117.527 37.673 120 39.2938 120 43.0239C120 45.3503 119.45 47.6768 117.62 49.2278C115.756 50.6954 113.438 51.4637 111.067 51.3991C108.16 51.3705 105.333 50.4531 102.963 48.7702L105.506 44.001C106.942 45.3959 108.835 46.2226 110.834 46.3274C112.238 46.3274 113.742 45.6295 113.742 44.001C113.742 42.3725 111.416 41.7366 110.097 41.3643C106.336 40.2942 103.855 39.317 103.855 34.8502C103.855 30.1973 107.189 27.0954 111.811 27.0954C114.335 27.1412 116.811 27.7928 119.031 28.9953L116.642 33.687Z" fill="#53CCC4"/>
</svg>
