<svg width="79" height="84" viewBox="0 0 79 84" fill="none" xmlns="http://www.w3.org/2000/svg">
<g id="Mark">
<path id="Vector" d="M74.3365 83.0287C73.4133 83.0323 72.5098 82.7618 71.7404 82.2515L63.8746 76.9661C58.6406 73.4419 52.463 71.5832 46.1533 71.6342L13.6019 71.8052C9.99716 71.8052 6.53981 70.3743 3.9894 67.8268C1.43899 65.2793 0.00411973 61.8236 0 58.2188V14.1019C0 10.4945 1.43309 7.03476 3.98394 4.48391C6.5348 1.93305 9.99447 0.5 13.6019 0.5H65.3981C69.0055 0.5 72.4652 1.93305 75.0161 4.48391C77.567 7.03476 79 10.4945 79 14.1019V78.3808C79 79.6176 78.5086 80.8038 77.6341 81.6783C76.7595 82.5529 75.5733 83.0443 74.3365 83.0443V83.0287ZM46.3554 68.8983C53.1391 68.8888 59.7708 70.908 65.3981 74.6966L73.2639 79.9663C73.5492 80.1557 73.8802 80.2651 74.2222 80.2828C74.5643 80.3006 74.9048 80.2261 75.2082 80.0672C75.5116 79.9084 75.7668 79.671 75.9471 79.3797C76.1273 79.0885 76.2261 78.7542 76.233 78.4118V14.1019C76.233 11.216 75.0865 8.4482 73.0458 6.40752C71.0051 4.36683 68.2374 3.22039 65.3514 3.22039H13.6019C10.716 3.22039 7.94822 4.36683 5.90753 6.40752C3.86685 8.4482 2.72039 11.216 2.72039 14.1019V58.2188C2.72039 61.1048 3.86685 63.8725 5.90753 65.9132C7.94822 67.9539 10.716 69.1004 13.6019 69.1004L46.1222 68.9294L46.3554 68.8983Z" fill="#53CCC4"/>
<path id="Vector_2" d="M11.1133 20.336H12.7766V21.1443C12.9686 20.823 13.2493 20.5639 13.585 20.3982C13.9264 20.2422 14.2978 20.1627 14.6731 20.165C15.1244 20.1533 15.572 20.2493 15.9789 20.4448C16.3287 20.6272 16.636 20.8815 16.8805 21.191C17.1178 21.5264 17.2965 21.8996 17.4091 22.2947C17.5223 22.7207 17.5797 23.1596 17.58 23.6005C17.5779 24.0156 17.5205 24.4286 17.4091 24.8285C17.2965 25.2092 17.1175 25.5671 16.8805 25.8856C16.632 26.203 16.3129 26.4581 15.9487 26.6308C15.5844 26.8035 15.185 26.889 14.7819 26.8805C14.3995 26.8869 14.021 26.8016 13.6783 26.6318C13.3492 26.478 13.0693 26.2358 12.8699 25.9322V28.948H11.1133V20.336ZM14.3311 25.5747C14.585 25.5782 14.8358 25.5195 15.0617 25.4037C15.2472 25.2879 15.4061 25.1343 15.5281 24.9529C15.6547 24.7545 15.7393 24.5323 15.7768 24.3C15.835 24.0504 15.8611 23.7945 15.8546 23.5383C15.8517 23.2877 15.8257 23.0379 15.7768 22.7921C15.731 22.5548 15.6414 22.3281 15.5126 22.1237C15.3878 21.935 15.2233 21.7759 15.0307 21.6573C14.8169 21.5389 14.5754 21.4798 14.3311 21.4863C14.0773 21.4828 13.8264 21.5415 13.6005 21.6573C13.4155 21.7801 13.2569 21.9387 13.1342 22.1237C13.0052 22.3265 12.9204 22.5543 12.8854 22.7921C12.8365 23.0379 12.8105 23.2877 12.8077 23.5383C12.8089 23.7941 12.8349 24.0492 12.8854 24.3C12.9352 24.5312 13.0247 24.7521 13.1497 24.9529C13.2725 25.1532 13.447 25.3168 13.655 25.4262C13.8629 25.5356 14.0965 25.5869 14.3311 25.5747Z" fill="#53CCC4"/>
<path id="Vector_3" d="M21.6085 26.8801C21.1455 26.8892 20.6855 26.8046 20.2561 26.6314C19.867 26.4835 19.5163 26.2497 19.2301 25.9474C18.9436 25.6426 18.7215 25.2831 18.5773 24.8904C18.4309 24.4546 18.3573 23.9977 18.3596 23.538C18.3546 23.0818 18.4337 22.6286 18.5928 22.2011C18.7347 21.7991 18.9629 21.433 19.2612 21.1285C19.5542 20.8265 19.9025 20.5837 20.2872 20.4134C20.7063 20.2418 21.1558 20.1572 21.6085 20.1647C22.0746 20.1554 22.5368 20.251 22.961 20.4445C23.3455 20.6133 23.682 20.8751 23.9403 21.2062C24.2062 21.5328 24.4068 21.9075 24.531 22.3099C24.66 22.7334 24.728 23.173 24.7331 23.6157V23.7867C24.7331 23.7867 24.7331 23.8955 24.7331 23.9577H20.0696C20.0427 24.4063 20.1934 24.8474 20.4893 25.1857C20.6432 25.3224 20.8229 25.4272 21.0177 25.4939C21.2125 25.5606 21.4186 25.588 21.6241 25.5744C21.9499 25.5846 22.2708 25.4922 22.5412 25.3101C22.7572 25.1837 22.9222 24.9857 23.0076 24.7505H24.5621C24.37 25.386 23.9705 25.9388 23.4273 26.3205C22.8866 26.6762 22.2556 26.8703 21.6085 26.8801ZM22.961 22.8384C22.9083 22.4689 22.7581 22.1201 22.5257 21.828C22.3985 21.7059 22.2467 21.6123 22.0806 21.5534C21.9144 21.4944 21.7376 21.4714 21.5619 21.486C21.321 21.4778 21.0816 21.5257 20.8624 21.6259C20.6922 21.7107 20.5433 21.8329 20.4271 21.9835C20.3227 22.1126 20.2436 22.2603 20.194 22.4187C20.1489 22.5544 20.1227 22.6956 20.1162 22.8384H22.961Z" fill="#53CCC4"/>
<path id="Vector_4" d="M25.7578 20.335H27.4989V25.4027H29.271V20.335H31.0276V25.4027H32.7531V20.335H34.4941V26.724H25.7578V20.335Z" fill="#53CCC4"/>
<path id="Vector_5" d="M38.8177 26.8802C38.3547 26.8893 37.8947 26.8047 37.4652 26.6315C37.0762 26.4836 36.7255 26.2498 36.4393 25.9475C36.1527 25.6427 35.9307 25.2831 35.7864 24.8904C35.6274 24.4575 35.5484 23.9992 35.5532 23.538C35.5458 23.0802 35.6304 22.6256 35.8019 22.2011C35.9443 21.8029 36.1665 21.4379 36.4548 21.1285C36.7564 20.8297 37.1091 20.5875 37.4963 20.4135C37.9149 20.2402 38.3648 20.1555 38.8177 20.1647C39.2837 20.1554 39.7459 20.2511 40.1701 20.4446C40.5497 20.6215 40.8845 20.8819 41.1494 21.2063C41.4153 21.5328 41.6159 21.9075 41.7401 22.31C41.8651 22.7339 41.928 23.1738 41.9267 23.6157V23.9577H37.2631C37.2486 24.4073 37.404 24.8458 37.6984 25.1858C37.8524 25.3225 38.032 25.4273 38.2268 25.494C38.4216 25.5607 38.6278 25.588 38.8332 25.5744C39.1591 25.5847 39.4799 25.4922 39.7504 25.3102C39.9582 25.1743 40.1206 24.9794 40.2167 24.7505H41.7712C41.6028 25.414 41.1997 25.9939 40.6364 26.3828C40.0901 26.7189 39.459 26.8915 38.8177 26.8802ZM40.1701 22.8385C40.1107 22.4709 39.9611 22.1238 39.7348 21.8281C39.6076 21.706 39.4559 21.6124 39.2897 21.5534C39.1236 21.4944 38.9467 21.4715 38.771 21.4861C38.5302 21.4778 38.2907 21.5258 38.0715 21.626C37.9013 21.7108 37.7525 21.833 37.6363 21.9835C37.5215 22.1079 37.4365 22.2567 37.3875 22.4188C37.3875 22.5742 37.3875 22.7141 37.3098 22.8385H40.1701Z" fill="#53CCC4"/>
<path id="Vector_6" d="M42.9492 20.335H44.7058V22.6512H47.193V20.335H48.9496V26.724H47.193V24.0347H44.7058V26.724H42.9492V20.335Z" fill="#53CCC4"/>
<path id="Vector_7" d="M50.2715 20.335H51.9659V24.6565L54.3598 20.335H56.3496V26.724H54.6708V22.4025L52.2613 26.724H50.2715V20.335Z" fill="#53CCC4"/>
<path id="Vector_8" d="M59.056 24.3149C58.835 24.2873 58.6219 24.2153 58.4295 24.1031C58.2371 23.9908 58.0695 23.8408 57.9367 23.662C57.6512 23.2818 57.5032 22.8159 57.517 22.3406C57.5127 22.0684 57.5657 21.7983 57.6724 21.5478C57.779 21.3115 57.9263 21.0957 58.1077 20.9105C58.3022 20.7299 58.5289 20.5875 58.7761 20.4908C59.048 20.3828 59.3387 20.33 59.6311 20.3353H63.5018V26.7244H61.7452V24.4703H60.9214L59.1803 26.7244H57.0195L59.056 24.3149ZM61.7452 21.61H60.3462C60.0536 21.5711 59.7575 21.6493 59.5223 21.8277C59.4436 21.9005 59.3819 21.9898 59.3416 22.0892C59.3013 22.1887 59.2834 22.2957 59.2891 22.4028C59.2855 22.62 59.3631 22.8307 59.5068 22.9935C59.752 23.1632 60.0494 23.2403 60.3462 23.2112H61.7452V21.61Z" fill="#53CCC4"/>
<path id="Vector_9" d="M66.8609 24.7656V26.6777C66.8588 26.9392 66.806 27.1979 66.7054 27.4394C66.5986 27.6672 66.457 27.8769 66.2857 28.0612C66.1098 28.2355 65.9045 28.3776 65.6794 28.4809C65.442 28.591 65.1912 28.6694 64.9333 28.7141V27.8746C65.1836 27.8031 65.406 27.6566 65.5706 27.4549C65.6478 27.3498 65.7105 27.2347 65.7572 27.1129C65.787 26.9851 65.787 26.8521 65.7572 26.7243H64.8711V24.7656H66.8609Z" fill="#53CCC4"/>
<path id="Vector_10" d="M11.1133 33.3789H12.8699V35.9749L15.2172 33.3789H17.2847L14.6109 36.1926L17.6267 39.7524H15.497L13.243 37.0942L12.8699 37.5139V39.7524H11.1133V33.3789Z" fill="#53CCC4"/>
<path id="Vector_11" d="M21.4523 39.9224C20.9894 39.9315 20.5293 39.8469 20.0999 39.6737C19.709 39.5278 19.3539 39.2999 19.0584 39.0053C18.7603 38.7066 18.5321 38.3456 18.39 37.9482C18.2283 37.5052 18.1492 37.0362 18.1567 36.5647C18.1506 36.0933 18.2296 35.6246 18.39 35.1812C18.5282 34.7819 18.7569 34.4201 19.0584 34.1241C19.3533 33.825 19.7082 33.5919 20.0999 33.4401C20.5315 33.2745 20.99 33.1902 21.4523 33.1914C21.9197 33.19 22.3833 33.2743 22.8203 33.4401C23.214 33.5879 23.5698 33.8216 23.8618 34.1241C24.1632 34.4201 24.392 34.7819 24.5302 35.1812C24.6906 35.6246 24.7696 36.0933 24.7634 36.5647C24.7709 37.0362 24.6919 37.5052 24.5302 37.9482C24.3881 38.3456 24.1599 38.7066 23.8618 39.0053C23.5689 39.303 23.213 39.5314 22.8203 39.6737C22.3854 39.8469 21.9203 39.9315 21.4523 39.9224ZM21.4523 38.6011C21.7121 38.6146 21.9705 38.5554 22.1985 38.4301C22.3983 38.3211 22.5648 38.1599 22.6804 37.9638C22.8069 37.7654 22.8916 37.5432 22.9291 37.3109C22.9873 37.0666 23.0134 36.8157 23.0068 36.5647C23.0111 36.3138 22.985 36.0632 22.9291 35.8185C22.8916 35.5862 22.8069 35.364 22.6804 35.1657C22.5556 34.977 22.3911 34.8178 22.1985 34.6993C21.9622 34.5629 21.6941 34.491 21.4212 34.491C21.1483 34.491 20.8803 34.5629 20.644 34.6993C20.4589 34.8221 20.3004 34.9806 20.1776 35.1657C20.0511 35.364 19.9664 35.5862 19.9289 35.8185C19.873 36.0632 19.8469 36.3138 19.8512 36.5647C19.8446 36.8157 19.8707 37.0666 19.9289 37.3109C19.9664 37.5432 20.0511 37.7654 20.1776 37.9638C20.2917 38.1557 20.452 38.316 20.644 38.4301C20.8901 38.5672 21.1718 38.6268 21.4523 38.6011Z" fill="#53CCC4"/>
<path id="Vector_12" d="M27.6084 34.7002H25.5098V33.3789H31.4636V34.7002H29.365V39.7524H27.6084V34.7002Z" fill="#53CCC4"/>
<path id="Vector_13" d="M35.4894 39.9227C35.0264 39.9318 34.5664 39.8472 34.137 39.674C33.7461 39.5281 33.3909 39.3001 33.0954 39.0055C32.8033 38.7021 32.5759 38.3425 32.427 37.9485C32.2653 37.5054 32.1863 37.0365 32.1939 36.565C32.1877 36.0935 32.2667 35.6248 32.427 35.1814C32.5709 34.785 32.799 34.4244 33.0954 34.1244C33.3903 33.8253 33.7453 33.5922 34.137 33.4404C35.0134 33.1084 35.981 33.1084 36.8574 33.4404C37.253 33.5842 37.6097 33.8184 37.8989 34.1244C38.2003 34.4204 38.4291 34.7822 38.5673 35.1814C38.7276 35.6248 38.8067 36.0935 38.8005 36.565C38.8081 37.0365 38.729 37.5054 38.5673 37.9485C38.4252 38.3458 38.1969 38.7068 37.8989 39.0055C37.6087 39.3067 37.252 39.5357 36.8574 39.674C36.4229 39.8484 35.9575 39.933 35.4894 39.9227ZM35.4894 38.6014C35.7543 38.6169 36.0183 38.5577 36.2511 38.4304C36.4509 38.3213 36.6175 38.1602 36.733 37.964C36.8529 37.7623 36.937 37.5415 36.9817 37.3111C37.0062 37.063 37.0062 36.8131 36.9817 36.565C37.0046 36.3168 37.0046 36.067 36.9817 35.8188C36.937 35.5885 36.8529 35.3676 36.733 35.1659C36.6082 34.9772 36.4437 34.8181 36.2511 34.6996C36.0198 34.5668 35.7558 34.5022 35.4894 34.513C35.233 34.5038 34.9794 34.5686 34.7588 34.6996C34.5661 34.8181 34.4017 34.9772 34.2769 35.1659C34.157 35.3676 34.0728 35.5885 34.0282 35.8188C33.9793 36.0646 33.9532 36.3144 33.9504 36.565C33.9516 36.8156 33.9777 37.0656 34.0282 37.3111C34.0728 37.5415 34.157 37.7623 34.2769 37.964C34.3924 38.1602 34.5589 38.3213 34.7588 38.4304C34.981 38.5559 35.2345 38.6153 35.4894 38.6014Z" fill="#53CCC4"/>
<path id="Vector_14" d="M40.0917 33.3783H41.7551V34.1867C41.9512 33.8648 42.2304 33.6017 42.5634 33.425C42.9043 33.2676 43.276 33.1879 43.6516 33.1918C44.1049 33.1772 44.5544 33.2789 44.9573 33.4872C45.3071 33.6695 45.6144 33.9238 45.8589 34.2333C46.0962 34.5631 46.2749 34.9312 46.3875 35.3215C46.4997 35.7477 46.5571 36.1865 46.5585 36.6273C46.5578 37.0476 46.5002 37.4659 46.3875 37.8709C46.2747 38.2467 46.0957 38.5994 45.8589 38.9124C45.6252 39.2162 45.3281 39.4655 44.9884 39.643C44.6244 39.8169 44.226 39.9072 43.8225 39.9072C43.4191 39.9072 43.0207 39.8169 42.6567 39.643C42.3217 39.4847 42.0367 39.2373 41.8328 38.9279V42.0369H40.0762L40.0917 33.3783ZM43.3096 38.6015C43.5644 38.6154 43.818 38.5561 44.0402 38.4305C44.2281 38.3179 44.3877 38.1637 44.5065 37.9797C44.6327 37.7868 44.7174 37.5697 44.7552 37.3423C44.7865 37.0894 44.7865 36.8336 44.7552 36.5806C44.7782 36.3324 44.7782 36.0827 44.7552 35.8345C44.7025 35.5993 44.6133 35.3737 44.491 35.166C44.3662 34.9774 44.2017 34.8182 44.0091 34.6997C43.7999 34.5686 43.5562 34.5036 43.3096 34.5131C43.0532 34.5039 42.7995 34.5687 42.579 34.6997C42.3939 34.8224 42.2353 34.981 42.1126 35.166C41.986 35.3644 41.9014 35.5866 41.8638 35.8189C41.8067 36.0686 41.7806 36.3245 41.7861 36.5806C41.7882 36.8364 41.8142 37.0914 41.8638 37.3423C41.9069 37.5708 41.9969 37.7878 42.1281 37.9797C42.2385 38.1705 42.4 38.3267 42.5945 38.4305C42.8112 38.5556 43.0597 38.615 43.3096 38.6015Z" fill="#53CCC4"/>
<path id="Vector_15" d="M47.7852 33.3789H49.5417V35.6485H51.2362C51.5409 35.6496 51.8441 35.6914 52.1378 35.7728C52.4106 35.8573 52.6641 35.9946 52.8839 36.177C53.0951 36.3561 53.2647 36.5788 53.3813 36.8299C53.51 37.1128 53.5738 37.4208 53.5679 37.7315C53.5753 38.0524 53.5115 38.3709 53.3813 38.6642C53.277 38.9225 53.1052 39.148 52.8839 39.3171C52.6504 39.4924 52.3871 39.6241 52.1067 39.7057C51.7976 39.7893 51.4786 39.8311 51.1584 39.8301H47.7852V33.3789ZM50.7387 38.5399C51.0126 38.5558 51.2845 38.4851 51.516 38.3378C51.6136 38.2542 51.6899 38.1486 51.7386 38.0296C51.7873 37.9107 51.8069 37.7818 51.7958 37.6538C51.8091 37.5225 51.7873 37.39 51.7327 37.2698C51.678 37.1497 51.5925 37.0461 51.4848 36.9698C51.2596 36.8201 50.9935 36.7441 50.7231 36.7522H49.5417V38.5399H50.7387ZM54.3141 33.3789H56.0707V39.7524H54.3296L54.3141 33.3789Z" fill="#53CCC4"/>
<path id="Vector_16" d="M60.4991 39.923C60.0316 39.9258 59.5677 39.8414 59.1311 39.6742C58.742 39.5263 58.3913 39.2925 58.1051 38.9903C57.8198 38.6873 57.6025 38.3269 57.4678 37.9332C57.3086 37.4949 57.2296 37.0315 57.2346 36.5652C57.2323 36.1093 57.3113 35.6566 57.4678 35.2284C57.6134 34.8327 57.8412 34.4725 58.1362 34.1713C58.4209 33.8598 58.7714 33.6155 59.1622 33.4562C59.585 33.2777 60.0401 33.1877 60.4991 33.1919C60.9668 33.183 61.4301 33.2842 61.8515 33.4873C62.2291 33.6604 62.5596 33.9217 62.8153 34.249C63.0872 34.5715 63.2884 34.9475 63.406 35.3527C63.5437 35.7741 63.612 36.2152 63.6081 36.6585V36.8295C63.6081 36.8295 63.6081 36.9383 63.6081 36.9849H58.9446C58.9185 37.4381 59.0689 37.8838 59.3643 38.2286C59.5214 38.3644 59.7041 38.4675 59.9017 38.5315C60.0992 38.5956 60.3076 38.6195 60.5146 38.6016C60.8352 38.6086 61.1501 38.5163 61.4162 38.3374C61.6389 38.219 61.8063 38.0181 61.8826 37.7777H63.4371C63.2632 38.4428 62.8617 39.0259 62.3023 39.4255C61.7598 39.7572 61.1349 39.9296 60.4991 39.923ZM61.8359 35.8812C61.7895 35.51 61.6386 35.1596 61.4007 34.8708C61.2748 34.746 61.1237 34.6495 60.9574 34.5878C60.7912 34.5261 60.6137 34.5007 60.4369 34.5133C60.194 34.502 59.9525 34.5557 59.7373 34.6687C59.5678 34.7476 59.4188 34.8647 59.3021 35.0107C59.1972 35.1453 59.1182 35.2982 59.0689 35.4615C59.0238 35.5972 58.9977 35.7384 58.9912 35.8812H61.8359Z" fill="#53CCC4"/>
<path id="Vector_17" d="M11.1133 46.4045H12.7766V47.2284C12.964 46.8995 13.2456 46.6342 13.585 46.4667C13.9264 46.3108 14.2978 46.2312 14.6731 46.2335C15.0982 46.2129 15.5219 46.2971 15.9069 46.4787C16.2918 46.6603 16.6262 46.9338 16.8805 47.2751C17.1208 47.603 17.2999 47.9716 17.4091 48.3632C17.5213 48.7894 17.5787 49.2282 17.58 49.669C17.5779 50.0841 17.5205 50.4971 17.4091 50.897C17.2965 51.2778 17.1175 51.6356 16.8805 51.9541C16.6428 52.254 16.3466 52.5026 16.01 52.6847C15.626 52.8648 15.206 52.9551 14.7819 52.949C14.4014 52.9531 14.0246 52.8735 13.6783 52.7158C13.3515 52.5514 13.0729 52.305 12.8699 52.0007V55.1098H11.1133V46.4045ZM14.3311 51.6432C14.585 51.6467 14.8358 51.588 15.0617 51.4722C15.2497 51.3596 15.4092 51.2054 15.5281 51.0214C15.652 50.8273 15.7365 50.6108 15.7768 50.3841C15.834 50.1343 15.8601 49.8785 15.8546 49.6224C15.8525 49.3666 15.8265 49.1116 15.7768 48.8606C15.7337 48.6274 15.6438 48.4053 15.5126 48.2078C15.397 48.0116 15.2305 47.8504 15.0307 47.7414C14.8215 47.6103 14.5777 47.5453 14.3311 47.5549C14.0747 47.5457 13.8211 47.6104 13.6005 47.7414C13.4126 47.854 13.253 48.0082 13.1342 48.1922C13.0101 48.3974 12.9257 48.6242 12.8854 48.8606C12.7777 49.3732 12.7777 49.9026 12.8854 50.4152C12.938 50.6406 13.0273 50.856 13.1497 51.0525C13.2643 51.24 13.4248 51.3952 13.6161 51.5033C13.8383 51.6109 14.0847 51.6591 14.3311 51.6432Z" fill="#53CCC4"/>
<path id="Vector_18" d="M20.3182 52.9492C20.0347 52.9534 19.7519 52.9168 19.4788 52.8404C19.2263 52.771 18.9891 52.655 18.7793 52.4984C18.5778 52.3427 18.4176 52.1398 18.3129 51.9077C18.202 51.6367 18.149 51.3454 18.1575 51.0527C18.1465 50.7416 18.2105 50.4323 18.344 50.1511C18.4618 49.9268 18.6325 49.7347 18.8414 49.5915C19.0474 49.445 19.2796 49.3395 19.5254 49.2806C19.7863 49.2087 20.051 49.1517 20.3182 49.1096C20.5825 49.1096 20.8312 49.1096 21.0955 49.0163C21.3202 48.9926 21.5433 48.9563 21.7639 48.9075C21.9358 48.863 22.0988 48.7894 22.2458 48.6899C22.3017 48.6362 22.3448 48.5705 22.3718 48.4978C22.3987 48.4251 22.4088 48.3473 22.4013 48.2701C22.407 48.1195 22.375 47.9699 22.308 47.8349C22.2558 47.7183 22.169 47.6206 22.0593 47.5551C21.9494 47.4933 21.8274 47.4562 21.7018 47.4462C21.5571 47.4302 21.4111 47.4302 21.2665 47.4462C20.9753 47.4258 20.6856 47.5023 20.4426 47.6639C20.3377 47.755 20.2531 47.8671 20.1942 47.993C20.1353 48.1188 20.1034 48.2556 20.1006 48.3945H18.344C18.3597 48.0367 18.4667 47.6888 18.6549 47.3841C18.8358 47.1123 19.0747 46.884 19.3545 46.7156C19.645 46.5524 19.9599 46.4369 20.2872 46.3736C20.6344 46.2983 20.9889 46.2618 21.3442 46.2648C21.6707 46.2648 21.9971 46.2648 22.3236 46.2648C22.6354 46.3083 22.9392 46.3974 23.2252 46.5291C23.49 46.6587 23.7194 46.8507 23.8936 47.0887C24.0788 47.3635 24.1715 47.6903 24.1579 48.0214V51.3481C24.142 51.6225 24.142 51.8975 24.1579 52.1719C24.175 52.3783 24.2331 52.5791 24.3288 52.7627H22.5567C22.5164 52.662 22.4852 52.558 22.4635 52.4518C22.455 52.3483 22.455 52.2443 22.4635 52.1409C22.1916 52.4278 21.8482 52.6371 21.4686 52.7471C21.0984 52.8757 20.71 52.944 20.3182 52.9492ZM20.9867 51.7989C21.2634 51.8148 21.5389 51.75 21.7795 51.6123C21.9513 51.5153 22.0957 51.3762 22.1992 51.2082C22.2928 51.0573 22.3513 50.8873 22.3702 50.7107C22.3702 50.5553 22.3702 50.4154 22.3702 50.3221V49.6381C22.2843 49.7022 22.1902 49.7545 22.0904 49.7935L21.7328 49.8868H21.3287H20.909C20.7759 49.9011 20.6453 49.9324 20.5203 49.9801C20.4026 50.0181 20.2922 50.0759 20.1939 50.1511C20.097 50.2202 20.0171 50.3106 19.9607 50.4154C19.8956 50.5399 19.8635 50.6791 19.8674 50.8195C19.8613 50.9602 19.8936 51.0999 19.9607 51.2237C20.0172 51.3242 20.0973 51.4095 20.1939 51.4724C20.2972 51.5388 20.414 51.5813 20.5359 51.5968C20.6866 51.6857 20.8487 51.7537 21.0178 51.7989H20.9867Z" fill="#53CCC4"/>
<path id="Vector_19" d="M28.3709 52.9495C27.8312 52.9799 27.2935 52.8616 26.8164 52.6075C26.4253 52.3917 26.094 52.0818 25.8526 51.7059C25.613 51.3264 25.4494 50.9041 25.3707 50.4623C25.2781 50.0017 25.2312 49.533 25.2308 49.0632C25.227 48.544 25.2529 48.025 25.3085 47.5087C25.3449 47.0267 25.4605 46.5541 25.6505 46.1097C25.8276 45.6949 26.0928 45.3235 26.4278 45.0215C27.0045 44.5465 27.7181 44.2687 28.4642 44.2287H29.1482C29.3424 44.2072 29.5347 44.1709 29.7233 44.1199C29.8632 44.1199 29.9566 43.9955 29.9566 43.8867H31.5111C31.5019 44.2177 31.4168 44.5421 31.2623 44.835C31.1165 45.0649 30.9128 45.2526 30.6716 45.379C30.38 45.5303 30.0645 45.6302 29.7389 45.6744C29.3658 45.6744 28.9306 45.7988 28.4331 45.8454C28.0799 45.8634 27.7349 45.9589 27.4227 46.1252C27.1718 46.269 26.9503 46.4589 26.7698 46.6848C26.589 46.9091 26.4566 47.1685 26.3812 47.4465C26.2878 47.7398 26.2253 48.0419 26.1946 48.3481C26.2752 48.1224 26.3849 47.9081 26.5211 47.7108C26.6523 47.4826 26.8265 47.282 27.0341 47.1201C27.2507 46.9378 27.4981 46.7957 27.7647 46.7004C28.0668 46.5829 28.3888 46.5248 28.7129 46.5294C29.1041 46.5238 29.4921 46.6013 29.8511 46.7568C30.2102 46.9122 30.5322 47.142 30.796 47.431C31.0621 47.7337 31.2726 48.081 31.4178 48.457C31.7284 49.3318 31.7284 50.287 31.4178 51.1618C31.2749 51.546 31.0524 51.8956 30.7649 52.1878C30.4661 52.4858 30.1052 52.7141 29.7078 52.8562C29.27 52.9582 28.8187 52.9897 28.3709 52.9495ZM28.4953 51.6437C28.6999 51.6506 28.9031 51.6075 29.0873 51.5181C29.2715 51.4287 29.4312 51.2957 29.5524 51.1307C29.8428 50.7013 29.9798 50.1864 29.941 49.6695C29.975 49.153 29.8385 48.6396 29.5524 48.2082C29.432 48.0337 29.2686 47.8933 29.0779 47.8007C28.8872 47.7081 28.6758 47.6664 28.4642 47.6797C28.2599 47.6715 28.0569 47.7158 27.8746 47.8083C27.6923 47.9008 27.5367 48.0385 27.4227 48.2082C27.1678 48.6559 27.0338 49.1621 27.0338 49.6773C27.0338 50.1924 27.1678 50.6986 27.4227 51.1463C27.5506 51.3068 27.7141 51.4353 27.9002 51.5216C28.0864 51.608 28.2902 51.6498 28.4953 51.6437Z" fill="#53CCC4"/>
<path id="Vector_20" d="M35.7235 52.948C35.2434 52.9716 34.7632 52.903 34.3089 52.7459C33.9208 52.6035 33.57 52.3749 33.2829 52.0775C32.988 51.7763 32.7602 51.416 32.6145 51.0204C32.4542 50.577 32.3752 50.1083 32.3814 49.6369C32.3738 49.1654 32.4528 48.6964 32.6145 48.2534C32.7564 47.8514 32.9846 47.4853 33.2829 47.1808C33.5716 46.8889 33.9223 46.6658 34.3089 46.5279C34.7434 46.3534 35.2088 46.2688 35.6769 46.2792C36.1448 46.2718 36.6096 46.3563 37.0449 46.5279C37.4358 46.6738 37.7909 46.9017 38.0864 47.1963C38.3803 47.5043 38.6078 47.8694 38.7548 48.2689C38.9165 48.712 38.9956 49.1809 38.988 49.6525C38.9942 50.1239 38.9151 50.5926 38.7548 51.036C38.6033 51.4286 38.3762 51.7878 38.0864 52.093C37.7909 52.3876 37.4358 52.6156 37.0449 52.7615C36.6185 52.8994 36.1714 52.9625 35.7235 52.948ZM35.7235 51.6422C35.9826 51.6483 36.2391 51.5895 36.4697 51.4712C36.6695 51.3622 36.8361 51.201 36.9516 51.0049C37.0782 50.8065 37.1628 50.5843 37.2003 50.352C37.2492 50.1062 37.2752 49.8564 37.278 49.6058C37.2752 49.3501 37.2492 49.0951 37.2003 48.8441C37.1572 48.6133 37.073 48.3922 36.9516 48.1912C36.8312 48.003 36.6655 47.848 36.4697 47.7404C36.2334 47.604 35.9653 47.5321 35.6925 47.5321C35.4196 47.5321 35.1515 47.604 34.9152 47.7404C34.7207 47.8442 34.5592 48.0004 34.4488 48.1912C34.3226 48.3914 34.2331 48.6125 34.1846 48.8441C34.1617 49.0975 34.1617 49.3524 34.1846 49.6058C34.1617 49.854 34.1617 50.1038 34.1846 50.352C34.2277 50.5852 34.3176 50.8073 34.4488 51.0049C34.5539 51.2036 34.7164 51.3661 34.9152 51.4712C35.1643 51.6001 35.4436 51.6592 35.7235 51.6422Z" fill="#53CCC4"/>
<path id="Vector_21" d="M41.5068 47.7256H39.4082V46.4043H45.3619V47.7256H43.2634V52.7467H41.5068V47.7256Z" fill="#53CCC4"/>
<path id="Vector_22" d="M47.8474 52.9492C47.5587 52.9543 47.2707 52.9176 46.9925 52.8404C46.7435 52.7744 46.5106 52.658 46.3085 52.4984C46.107 52.3427 45.9469 52.1398 45.8421 51.9077C45.7259 51.6378 45.6676 51.3465 45.6711 51.0527C45.6602 50.7416 45.7241 50.4323 45.8577 50.1511C45.9809 49.9307 46.1507 49.7397 46.3551 49.5915C46.5667 49.4449 46.804 49.3394 47.0547 49.2806C47.3098 49.207 47.5694 49.1499 47.8319 49.1096L48.6092 49.0163L49.2931 48.9075C49.4615 48.8666 49.62 48.7926 49.7595 48.6899C49.821 48.6405 49.8679 48.5754 49.8953 48.5015C49.9227 48.4276 49.9295 48.3476 49.9149 48.2701C49.9174 48.1214 49.891 47.9736 49.8372 47.8349C49.78 47.7216 49.6943 47.6252 49.5885 47.5551C49.4775 47.4958 49.3561 47.4588 49.231 47.4462C49.0811 47.4303 48.93 47.4303 48.7801 47.4462C48.4939 47.4257 48.2091 47.5024 47.9718 47.6639C47.8638 47.7523 47.7769 47.8639 47.7177 47.9903C47.6585 48.1168 47.6285 48.2549 47.6298 48.3945H45.8732C45.8815 48.0354 45.9891 47.6857 46.1841 47.3841C46.3549 47.1094 46.5895 46.88 46.8681 46.7156C47.1625 46.5487 47.4832 46.4331 47.8163 46.3736C48.1636 46.2983 48.5181 46.2618 48.8734 46.2648C49.1998 46.2648 49.5263 46.2648 49.8527 46.2648C50.1641 46.3104 50.4676 46.3994 50.7543 46.5291C51.0136 46.6672 51.2413 46.8578 51.4228 47.0887C51.6026 47.3653 51.6897 47.692 51.6715 48.0214V51.3481C51.6556 51.6225 51.6556 51.8975 51.6715 52.1719C51.6935 52.3794 51.7569 52.5803 51.8581 52.7627H50.0704C50.0354 52.6615 50.0094 52.5575 49.9926 52.4518V52.1409C49.7271 52.4278 49.3886 52.6374 49.0133 52.7471C48.6377 52.8753 48.2443 52.9435 47.8474 52.9492ZM48.5003 51.7989C48.7817 51.8111 49.0611 51.7466 49.3087 51.6123C49.4722 51.522 49.6104 51.3921 49.7109 51.2347C49.8114 51.0772 49.8708 50.8971 49.8838 50.7107C49.8969 50.5815 49.8969 50.4513 49.8838 50.3221V49.6381C49.8058 49.7054 49.7163 49.7581 49.6196 49.7935L49.262 49.8868H48.8578H48.4381C48.3001 49.9014 48.1644 49.9327 48.034 49.9801C47.9162 50.0181 47.8058 50.0759 47.7075 50.1511C47.6111 50.2164 47.5356 50.3082 47.4899 50.4154C47.4249 50.5399 47.3928 50.6791 47.3967 50.8195C47.3906 50.9602 47.4228 51.0999 47.4899 51.2237C47.537 51.3308 47.6193 51.4185 47.7231 51.4724C47.8251 51.5415 47.9426 51.5842 48.0651 51.5968C48.1998 51.6845 48.3464 51.7525 48.5003 51.7989Z" fill="#53CCC4"/>
<path id="Vector_23" d="M58.8981 52.9496C58.5054 52.973 58.1119 52.9176 57.7409 52.7868C57.3698 52.656 57.0286 52.4524 56.7373 52.1879C56.1754 51.623 55.8431 50.8697 55.8046 50.0738H54.5144V52.7476H52.7578V46.3585H54.5144V48.7991H55.7891C55.878 48.0656 56.2252 47.3878 56.7685 46.8871C57.2438 46.5268 57.8044 46.2959 58.3956 46.2169C58.9868 46.1379 59.5884 46.2135 60.1417 46.4363C60.5124 46.5851 60.8426 46.8195 61.1055 47.1202C61.3753 47.4319 61.5861 47.7901 61.7273 48.1773C61.8683 48.6247 61.9365 49.0918 61.9294 49.5608C61.9378 50.0299 61.8696 50.4972 61.7273 50.9443C61.5861 51.3316 61.3753 51.6898 61.1055 52.0014C60.8357 52.2976 60.5003 52.5266 60.1262 52.6698C59.7381 52.8397 59.3215 52.9347 58.8981 52.9496ZM58.8981 51.6439C59.0985 51.6544 59.298 51.6109 59.4757 51.5179C59.6535 51.4249 59.8029 51.2859 59.9085 51.1153C60.1665 50.6397 60.2851 50.1008 60.2505 49.5608C60.2894 49.0186 60.1648 48.4771 59.893 48.0063C59.7856 47.8328 59.634 47.6909 59.4537 47.5953C59.2734 47.4997 59.0709 47.4538 58.867 47.4622C58.6704 47.4589 58.4763 47.5074 58.3044 47.6029C58.1324 47.6984 57.9888 47.8376 57.8877 48.0063C57.6625 48.4798 57.5456 48.9976 57.5456 49.522C57.5456 50.0463 57.6625 50.5641 57.8877 51.0376C57.9845 51.2215 58.1298 51.3753 58.308 51.4822C58.4862 51.5891 58.6903 51.645 58.8981 51.6439Z" fill="#53CCC4"/>
<path id="Vector_24" d="M64.4814 47.7256H62.3828V46.4043H68.3366V47.7256H66.238V52.7467H64.4814V47.7256Z" fill="#53CCC4"/>
</g>
</svg>
